<?xml version="1.0" encoding="UTF-8"?>
<svg xmlns="http://www.w3.org/2000/svg" viewBox="0 0 1200 800" preserveAspectRatio="xMidYMid slice" role="img" aria-label="ash bottom">
  <defs>
    <radialGradient id="bg-ash-bottom" cx="50%" cy="40%" r="80%">
      <stop offset="0%" stop-color="#161410"/>
      <stop offset="100%" stop-color="#0a0a08"/>
    </radialGradient>
    <linearGradient id="wood-ash-bottom" x1="0" y1="0" x2="1" y2="1">
      <stop offset="0%" stop-color="#b29770"/>
      <stop offset="50%" stop-color="#c4a981"/>
      <stop offset="100%" stop-color="#d8c197"/>
    </linearGradient>
    <radialGradient id="vignette-ash-bottom" cx="50%" cy="50%" r="65%">
      <stop offset="60%" stop-color="rgba(0,0,0,0)"/>
      <stop offset="100%" stop-color="rgba(0,0,0,0.45)"/>
    </radialGradient>
    <clipPath id="clip-ash-bottom">
      <path d="M600 120 C760 120 880 200 920 320 C960 440 920 560 820 620 C720 680 600 660 600 660 C600 660 480 680 380 620 C280 560 240 440 280 320 C320 200 440 120 600 120 Z"/>
    </clipPath>
  </defs>
  <rect width="100%" height="100%" fill="url(#bg-ash-bottom)"/>
  <g clip-path="url(#clip-ash-bottom)">
    <rect width="100%" height="100%" fill="url(#wood-ash-bottom)"/>
    <g opacity="0.45">
      <path d="M 0 1.4 L 50.0 -7.8 L 100.0 -12.8 L 150.0 -16.8 L 200.0 -17.3 L 250.0 -15.1 L 300.0 -10.1 L 350.0 -3.2 L 400.0 2.7 L 450.0 11.7 L 500.0 16.1 L 550.0 20.4 L 600.0 19.6 L 650.0 18.9 L 700.0 13.0 L 750.0 6.7 L 800.0 -0.0 L 850.0 -8.5 L 900.0 -13.2 L 950.0 -16.5 L 1000.0 -17.2 L 1050.0 -14.5 L 1100.0 -10.1 L 1150.0 -2.8 L 1200.0 3.5" stroke="rgba(10,10,8,0.27)" stroke-width="0.97" fill="none" />
<path d="M 0 18.5 L 50.0 32.4 L 100.0 26.9 L 150.0 18.9 L 200.0 11.8 L 250.0 6.6 L 300.0 2.4 L 350.0 0.8 L 400.0 1.7 L 450.0 4.3 L 500.0 11.4 L 550.0 17.5 L 600.0 24.0 L 650.0 29.7 L 700.0 34.9 L 750.0 36.3 L 800.0 36.0 L 850.0 33.1 L 900.0 26.7 L 950.0 20.6 L 1000.0 12.4 L 1050.0 6.9 L 1100.0 2.2 L 1150.0 -0.4 L 1200.0 2.2" stroke="rgba(10,10,8,0.47)" stroke-width="0.96" fill="none" />
<path d="M 0 31.3 L 50.0 31.3 L 100.0 28.5 L 150.0 26.0 L 200.0 24.3 L 250.0 22.8 L 300.0 23.1 L 350.0 26.4 L 400.0 27.8 L 450.0 32.4 L 500.0 34.0 L 550.0 38.0 L 600.0 39.2 L 650.0 38.8 L 700.0 39.1 L 750.0 37.1 L 800.0 33.7 L 850.0 32.1 L 900.0 27.5 L 950.0 26.0 L 1000.0 23.3 L 1050.0 24.1 L 1100.0 23.3 L 1150.0 26.6 L 1200.0 27.8" stroke="rgba(10,10,8,0.24)" stroke-width="0.76" fill="none" />
<path d="M 0 42.8 L 50.0 58.0 L 100.0 58.4 L 150.0 56.3 L 200.0 51.5 L 250.0 46.0 L 300.0 40.1 L 350.0 34.3 L 400.0 29.8 L 450.0 27.1 L 500.0 25.8 L 550.0 29.4 L 600.0 33.8 L 650.0 39.2 L 700.0 45.4 L 750.0 52.2 L 800.0 57.3 L 850.0 59.7 L 900.0 58.5 L 950.0 56.0 L 1000.0 51.4 L 1050.0 45.2 L 1100.0 38.5 L 1150.0 34.3 L 1200.0 29.4" stroke="rgba(10,10,8,0.40)" stroke-width="1.14" fill="none" />
<path d="M 0 54.2 L 50.0 51.1 L 100.0 53.0 L 150.0 56.6 L 200.0 60.6 L 250.0 61.9 L 300.0 62.8 L 350.0 62.8 L 400.0 61.2 L 450.0 57.9 L 500.0 55.5 L 550.0 51.5 L 600.0 47.2 L 650.0 45.7 L 700.0 44.1 L 750.0 46.2 L 800.0 47.2 L 850.0 49.2 L 900.0 52.8 L 950.0 56.9 L 1000.0 59.4 L 1050.0 61.7 L 1100.0 63.5 L 1150.0 62.8 L 1200.0 60.7" stroke="rgba(10,10,8,0.36)" stroke-width="0.97" fill="none" />
<path d="M 0 68.1 L 50.0 80.3 L 100.0 76.2 L 150.0 71.8 L 200.0 66.5 L 250.0 60.9 L 300.0 57.0 L 350.0 53.0 L 400.0 53.6 L 450.0 55.8 L 500.0 59.9 L 550.0 64.1 L 600.0 70.3 L 650.0 75.3 L 700.0 79.6 L 750.0 82.9 L 800.0 81.8 L 850.0 81.8 L 900.0 77.5 L 950.0 71.3 L 1000.0 66.3 L 1050.0 61.3 L 1100.0 56.3 L 1150.0 54.3 L 1200.0 53.7" stroke="rgba(10,10,8,0.27)" stroke-width="1.06" fill="none" />
<path d="M 0 82.6 L 50.0 99.6 L 100.0 99.0 L 150.0 96.2 L 200.0 92.6 L 250.0 86.5 L 300.0 79.1 L 350.0 72.5 L 400.0 68.0 L 450.0 65.3 L 500.0 65.3 L 550.0 67.9 L 600.0 73.9 L 650.0 78.9 L 700.0 85.1 L 750.0 92.9 L 800.0 95.7 L 850.0 98.9 L 900.0 100.0 L 950.0 97.1 L 1000.0 91.6 L 1050.0 86.9 L 1100.0 79.6 L 1150.0 73.0 L 1200.0 69.0" stroke="rgba(10,10,8,0.36)" stroke-width="0.49" fill="none" />
<path d="M 0 96.5 L 50.0 88.1 L 100.0 92.7 L 150.0 97.8 L 200.0 102.9 L 250.0 106.2 L 300.0 109.7 L 350.0 109.6 L 400.0 108.7 L 450.0 104.8 L 500.0 101.5 L 550.0 96.1 L 600.0 92.1 L 650.0 87.9 L 700.0 84.5 L 750.0 84.2 L 800.0 85.2 L 850.0 87.5 L 900.0 91.5 L 950.0 97.3 L 1000.0 101.9 L 1050.0 106.5 L 1100.0 109.7 L 1150.0 110.6 L 1200.0 108.4" stroke="rgba(10,10,8,0.54)" stroke-width="0.71" fill="none" />
<path d="M 0 111.6 L 50.0 122.8 L 100.0 121.4 L 150.0 120.3 L 200.0 116.4 L 250.0 111.0 L 300.0 107.5 L 350.0 104.4 L 400.0 101.3 L 450.0 101.1 L 500.0 100.9 L 550.0 104.1 L 600.0 106.7 L 650.0 112.1 L 700.0 115.6 L 750.0 118.8 L 800.0 122.0 L 850.0 123.4 L 900.0 122.8 L 950.0 120.4 L 1000.0 115.6 L 1050.0 112.4 L 1100.0 107.0 L 1150.0 103.2 L 1200.0 101.2" stroke="rgba(10,10,8,0.27)" stroke-width="0.58" fill="none" />
<path d="M 0 121.5 L 50.0 103.3 L 100.0 99.4 L 150.0 100.7 L 200.0 104.1 L 250.0 108.7 L 300.0 116.8 L 350.0 125.7 L 400.0 133.0 L 450.0 139.1 L 500.0 143.4 L 550.0 143.3 L 600.0 139.0 L 650.0 133.0 L 700.0 125.3 L 750.0 117.7 L 800.0 109.2 L 850.0 103.2 L 900.0 99.7 L 950.0 100.6 L 1000.0 103.3 L 1050.0 108.7 L 1100.0 117.2 L 1150.0 126.0 L 1200.0 133.8" stroke="rgba(10,10,8,0.51)" stroke-width="0.68" fill="none" />
<path d="M 0 134.1 L 50.0 149.8 L 100.0 146.3 L 150.0 142.1 L 200.0 135.2 L 250.0 129.2 L 300.0 123.8 L 350.0 119.7 L 400.0 117.7 L 450.0 118.0 L 500.0 120.6 L 550.0 127.0 L 600.0 133.6 L 650.0 139.9 L 700.0 144.7 L 750.0 149.2 L 800.0 152.0 L 850.0 150.2 L 900.0 147.3 L 950.0 141.2 L 1000.0 136.0 L 1050.0 129.3 L 1100.0 123.7 L 1150.0 119.5 L 1200.0 116.6" stroke="rgba(10,10,8,0.37)" stroke-width="1.05" fill="none" />
<path d="M 0 150.5 L 50.0 161.5 L 100.0 159.8 L 150.0 154.7 L 200.0 149.7 L 250.0 145.1 L 300.0 140.1 L 350.0 139.2 L 400.0 138.7 L 450.0 138.9 L 500.0 142.7 L 550.0 146.0 L 600.0 152.1 L 650.0 156.4 L 700.0 161.1 L 750.0 163.2 L 800.0 163.6 L 850.0 161.7 L 900.0 159.1 L 950.0 154.5 L 1000.0 148.7 L 1050.0 145.3 L 1100.0 140.8 L 1150.0 138.1 L 1200.0 138.3" stroke="rgba(10,10,8,0.26)" stroke-width="0.98" fill="none" />
<path d="M 0 165.8 L 50.0 153.8 L 100.0 149.7 L 150.0 147.4 L 200.0 149.3 L 250.0 153.1 L 300.0 158.4 L 350.0 166.3 L 400.0 172.8 L 450.0 177.5 L 500.0 183.2 L 550.0 183.6 L 600.0 183.3 L 650.0 178.3 L 700.0 172.3 L 750.0 165.7 L 800.0 159.0 L 850.0 153.4 L 900.0 149.9 L 950.0 148.1 L 1000.0 149.8 L 1050.0 153.1 L 1100.0 158.4 L 1150.0 165.4 L 1200.0 171.8" stroke="rgba(10,10,8,0.55)" stroke-width="0.98" fill="none" />
<path d="M 0 179.2 L 50.0 187.1 L 100.0 186.7 L 150.0 183.6 L 200.0 182.0 L 250.0 178.6 L 300.0 174.8 L 350.0 173.6 L 400.0 171.2 L 450.0 171.9 L 500.0 172.9 L 550.0 175.4 L 600.0 176.6 L 650.0 181.3 L 700.0 182.5 L 750.0 186.1 L 800.0 187.7 L 850.0 188.2 L 900.0 187.0 L 950.0 184.7 L 1000.0 180.5 L 1050.0 177.5 L 1100.0 174.9 L 1150.0 171.9 L 1200.0 170.5" stroke="rgba(10,10,8,0.54)" stroke-width="0.45" fill="none" />
<path d="M 0 191.3 L 50.0 175.3 L 100.0 171.6 L 150.0 170.0 L 200.0 173.9 L 250.0 179.3 L 300.0 187.1 L 350.0 194.5 L 400.0 201.2 L 450.0 207.8 L 500.0 210.4 L 550.0 212.2 L 600.0 208.4 L 650.0 203.7 L 700.0 197.0 L 750.0 188.5 L 800.0 180.8 L 850.0 175.6 L 900.0 170.5 L 950.0 170.7 L 1000.0 173.2 L 1050.0 180.0 L 1100.0 186.2 L 1150.0 193.9 L 1200.0 202.3" stroke="rgba(10,10,8,0.26)" stroke-width="0.74" fill="none" />
<path d="M 0 204.1 L 50.0 223.5 L 100.0 224.2 L 150.0 223.4 L 200.0 217.2 L 250.0 210.6 L 300.0 203.6 L 350.0 195.1 L 400.0 189.4 L 450.0 185.1 L 500.0 184.0 L 550.0 184.8 L 600.0 191.1 L 650.0 197.2 L 700.0 205.6 L 750.0 213.4 L 800.0 220.3 L 850.0 224.0 L 900.0 224.5 L 950.0 222.6 L 1000.0 218.1 L 1050.0 211.1 L 1100.0 203.1 L 1150.0 194.2 L 1200.0 189.1" stroke="rgba(10,10,8,0.50)" stroke-width="0.65" fill="none" />
<path d="M 0 214.5 L 50.0 204.0 L 100.0 208.6 L 150.0 216.4 L 200.0 221.5 L 250.0 226.7 L 300.0 228.5 L 350.0 229.9 L 400.0 228.1 L 450.0 225.8 L 500.0 219.3 L 550.0 214.6 L 600.0 208.2 L 650.0 203.2 L 700.0 199.3 L 750.0 199.5 L 800.0 200.8 L 850.0 203.7 L 900.0 209.3 L 950.0 216.0 L 1000.0 221.4 L 1050.0 225.6 L 1100.0 229.4 L 1150.0 230.5 L 1200.0 228.9" stroke="rgba(10,10,8,0.41)" stroke-width="0.58" fill="none" />
<path d="M 0 228.3 L 50.0 248.0 L 100.0 243.8 L 150.0 237.1 L 200.0 230.1 L 250.0 221.6 L 300.0 214.3 L 350.0 209.5 L 400.0 206.0 L 450.0 207.1 L 500.0 212.3 L 550.0 219.2 L 600.0 227.7 L 650.0 235.1 L 700.0 243.0 L 750.0 246.9 L 800.0 249.8 L 850.0 248.7 L 900.0 244.1 L 950.0 237.7 L 1000.0 230.1 L 1050.0 220.7 L 1100.0 212.9 L 1150.0 207.8 L 1200.0 206.2" stroke="rgba(10,10,8,0.31)" stroke-width="0.71" fill="none" />
<path d="M 0 242.9 L 50.0 246.9 L 100.0 240.4 L 150.0 233.8 L 200.0 229.4 L 250.0 226.3 L 300.0 226.9 L 350.0 228.3 L 400.0 233.8 L 450.0 238.8 L 500.0 245.5 L 550.0 251.3 L 600.0 256.2 L 650.0 260.0 L 700.0 260.2 L 750.0 257.7 L 800.0 253.6 L 850.0 247.3 L 900.0 239.4 L 950.0 233.3 L 1000.0 229.8 L 1050.0 225.7 L 1100.0 225.6 L 1150.0 228.5 L 1200.0 232.6" stroke="rgba(10,10,8,0.40)" stroke-width="0.57" fill="none" />
<path d="M 0 258.5 L 50.0 269.6 L 100.0 271.4 L 150.0 269.5 L 200.0 265.9 L 250.0 260.3 L 300.0 256.9 L 350.0 252.7 L 400.0 249.3 L 450.0 245.9 L 500.0 245.6 L 550.0 249.0 L 600.0 251.6 L 650.0 256.2 L 700.0 260.5 L 750.0 264.7 L 800.0 267.9 L 850.0 269.6 L 900.0 269.6 L 950.0 268.0 L 1000.0 265.0 L 1050.0 262.2 L 1100.0 256.8 L 1150.0 251.4 L 1200.0 248.8" stroke="rgba(10,10,8,0.35)" stroke-width="0.72" fill="none" />
<path d="M 0 268.1 L 50.0 280.1 L 100.0 275.5 L 150.0 267.8 L 200.0 261.5 L 250.0 256.0 L 300.0 253.0 L 350.0 251.7 L 400.0 253.2 L 450.0 255.7 L 500.0 260.7 L 550.0 268.3 L 600.0 274.2 L 650.0 280.1 L 700.0 284.8 L 750.0 286.1 L 800.0 283.6 L 850.0 279.8 L 900.0 275.1 L 950.0 267.5 L 1000.0 260.6 L 1050.0 255.2 L 1100.0 252.3 L 1150.0 251.4 L 1200.0 252.4" stroke="rgba(10,10,8,0.44)" stroke-width="0.98" fill="none" />
<path d="M 0 282.7 L 50.0 281.9 L 100.0 278.4 L 150.0 276.0 L 200.0 274.1 L 250.0 273.6 L 300.0 275.2 L 350.0 277.7 L 400.0 280.4 L 450.0 282.2 L 500.0 286.9 L 550.0 288.9 L 600.0 291.5 L 650.0 290.7 L 700.0 290.3 L 750.0 288.5 L 800.0 285.7 L 850.0 283.4 L 900.0 278.6 L 950.0 275.6 L 1000.0 275.1 L 1050.0 274.3 L 1100.0 274.9 L 1150.0 276.0 L 1200.0 278.9" stroke="rgba(10,10,8,0.27)" stroke-width="0.80" fill="none" />
<path d="M 0 293.6 L 50.0 305.5 L 100.0 301.2 L 150.0 296.8 L 200.0 289.7 L 250.0 285.6 L 300.0 282.8 L 350.0 281.1 L 400.0 281.3 L 450.0 282.2 L 500.0 287.1 L 550.0 291.8 L 600.0 297.4 L 650.0 301.3 L 700.0 304.6 L 750.0 306.0 L 800.0 307.7 L 850.0 305.5 L 900.0 300.0 L 950.0 296.6 L 1000.0 289.8 L 1050.0 285.7 L 1100.0 282.3 L 1150.0 279.7 L 1200.0 280.5" stroke="rgba(10,10,8,0.38)" stroke-width="0.91" fill="none" />
<path d="M 0 311.3 L 50.0 308.6 L 100.0 311.9 L 150.0 314.5 L 200.0 317.5 L 250.0 319.7 L 300.0 319.5 L 350.0 319.5 L 400.0 317.5 L 450.0 314.1 L 500.0 311.7 L 550.0 308.8 L 600.0 306.0 L 650.0 302.7 L 700.0 303.8 L 750.0 303.2 L 800.0 304.9 L 850.0 307.6 L 900.0 312.5 L 950.0 314.3 L 1000.0 318.1 L 1050.0 318.8 L 1100.0 320.5 L 1150.0 319.0 L 1200.0 317.5" stroke="rgba(10,10,8,0.33)" stroke-width="0.80" fill="none" />
<path d="M 0 324.0 L 50.0 329.9 L 100.0 326.5 L 150.0 321.9 L 200.0 319.1 L 250.0 315.5 L 300.0 313.3 L 350.0 314.8 L 400.0 316.1 L 450.0 319.0 L 500.0 321.2 L 550.0 325.2 L 600.0 328.8 L 650.0 333.4 L 700.0 334.7 L 750.0 333.4 L 800.0 333.2 L 850.0 329.5 L 900.0 326.3 L 950.0 321.4 L 1000.0 317.8 L 1050.0 316.1 L 1100.0 313.7 L 1150.0 314.4 L 1200.0 314.6" stroke="rgba(10,10,8,0.47)" stroke-width="0.60" fill="none" />
<path d="M 0 338.4 L 50.0 354.0 L 100.0 346.6 L 150.0 338.9 L 200.0 332.0 L 250.0 325.3 L 300.0 319.8 L 350.0 318.3 L 400.0 319.2 L 450.0 323.3 L 500.0 328.6 L 550.0 337.9 L 600.0 346.1 L 650.0 353.1 L 700.0 357.3 L 750.0 359.4 L 800.0 358.4 L 850.0 354.0 L 900.0 347.1 L 950.0 338.6 L 1000.0 330.9 L 1050.0 324.7 L 1100.0 319.4 L 1150.0 318.6 L 1200.0 319.2" stroke="rgba(10,10,8,0.52)" stroke-width="0.44" fill="none" />
<path d="M 0 352.3 L 50.0 358.9 L 100.0 361.3 L 150.0 362.3 L 200.0 363.6 L 250.0 361.3 L 300.0 357.8 L 350.0 354.4 L 400.0 350.4 L 450.0 346.1 L 500.0 344.3 L 550.0 342.5 L 600.0 342.6 L 650.0 343.7 L 700.0 347.2 L 750.0 349.9 L 800.0 353.6 L 850.0 357.7 L 900.0 360.6 L 950.0 363.4 L 1000.0 362.3 L 1050.0 362.0 L 1100.0 357.6 L 1150.0 354.1 L 1200.0 350.9" stroke="rgba(10,10,8,0.35)" stroke-width="1.04" fill="none" />
<path d="M 0 361.3 L 50.0 370.6 L 100.0 369.7 L 150.0 368.4 L 200.0 365.1 L 250.0 361.1 L 300.0 357.6 L 350.0 354.9 L 400.0 353.6 L 450.0 353.0 L 500.0 352.9 L 550.0 354.4 L 600.0 358.6 L 650.0 360.6 L 700.0 364.1 L 750.0 366.5 L 800.0 368.6 L 850.0 369.6 L 900.0 369.5 L 950.0 367.6 L 1000.0 364.6 L 1050.0 361.9 L 1100.0 358.5 L 1150.0 354.9 L 1200.0 352.5" stroke="rgba(10,10,8,0.37)" stroke-width="0.85" fill="none" />
<path d="M 0 375.3 L 50.0 391.7 L 100.0 385.6 L 150.0 376.7 L 200.0 368.8 L 250.0 363.0 L 300.0 356.4 L 350.0 354.9 L 400.0 354.5 L 450.0 358.3 L 500.0 365.3 L 550.0 373.7 L 600.0 380.9 L 650.0 387.5 L 700.0 393.5 L 750.0 395.7 L 800.0 395.9 L 850.0 391.3 L 900.0 384.9 L 950.0 378.6 L 1000.0 370.2 L 1050.0 362.7 L 1100.0 356.4 L 1150.0 354.6 L 1200.0 354.5" stroke="rgba(10,10,8,0.48)" stroke-width="0.97" fill="none" />
<path d="M 0 391.6 L 50.0 385.1 L 100.0 390.1 L 150.0 393.3 L 200.0 398.4 L 250.0 399.7 L 300.0 402.4 L 350.0 401.5 L 400.0 400.4 L 450.0 396.8 L 500.0 393.5 L 550.0 389.0 L 600.0 385.0 L 650.0 383.6 L 700.0 381.7 L 750.0 380.5 L 800.0 382.4 L 850.0 386.2 L 900.0 389.9 L 950.0 392.9 L 1000.0 397.5 L 1050.0 399.8 L 1100.0 402.1 L 1150.0 401.9 L 1200.0 401.3" stroke="rgba(10,10,8,0.52)" stroke-width="0.96" fill="none" />
<path d="M 0 401.0 L 50.0 414.7 L 100.0 419.6 L 150.0 421.7 L 200.0 420.3 L 250.0 416.9 L 300.0 409.5 L 350.0 402.4 L 400.0 395.1 L 450.0 386.8 L 500.0 383.7 L 550.0 381.9 L 600.0 382.0 L 650.0 386.9 L 700.0 392.5 L 750.0 400.7 L 800.0 407.1 L 850.0 414.0 L 900.0 419.8 L 950.0 420.3 L 1000.0 419.8 L 1050.0 416.4 L 1100.0 410.7 L 1150.0 401.9 L 1200.0 395.0" stroke="rgba(10,10,8,0.32)" stroke-width="0.80" fill="none" />
<path d="M 0 416.9 L 50.0 426.0 L 100.0 421.4 L 150.0 414.0 L 200.0 408.1 L 250.0 403.9 L 300.0 402.5 L 350.0 402.1 L 400.0 403.8 L 450.0 407.0 L 500.0 413.3 L 550.0 418.8 L 600.0 425.2 L 650.0 428.5 L 700.0 432.7 L 750.0 431.1 L 800.0 428.9 L 850.0 425.0 L 900.0 420.7 L 950.0 414.6 L 1000.0 409.8 L 1050.0 405.2 L 1100.0 401.4 L 1150.0 401.0 L 1200.0 404.9" stroke="rgba(10,10,8,0.29)" stroke-width="0.96" fill="none" />
<path d="M 0 429.8 L 50.0 432.8 L 100.0 427.8 L 150.0 424.4 L 200.0 421.6 L 250.0 419.6 L 300.0 419.9 L 350.0 422.0 L 400.0 423.9 L 450.0 428.3 L 500.0 431.1 L 550.0 434.5 L 600.0 438.7 L 650.0 439.0 L 700.0 440.3 L 750.0 439.1 L 800.0 436.4 L 850.0 432.5 L 900.0 428.0 L 950.0 423.5 L 1000.0 421.6 L 1050.0 418.9 L 1100.0 420.7 L 1150.0 421.5 L 1200.0 424.9" stroke="rgba(10,10,8,0.22)" stroke-width="0.64" fill="none" />
<path d="M 0 443.8 L 50.0 453.0 L 100.0 457.2 L 150.0 459.7 L 200.0 461.3 L 250.0 457.5 L 300.0 452.9 L 350.0 447.2 L 400.0 439.9 L 450.0 434.9 L 500.0 429.7 L 550.0 426.8 L 600.0 427.8 L 650.0 429.2 L 700.0 433.4 L 750.0 439.5 L 800.0 446.6 L 850.0 453.9 L 900.0 458.4 L 950.0 459.5 L 1000.0 459.9 L 1050.0 458.1 L 1100.0 452.3 L 1150.0 447.3 L 1200.0 441.1" stroke="rgba(10,10,8,0.36)" stroke-width="0.53" fill="none" />
<path d="M 0 457.7 L 50.0 449.4 L 100.0 442.9 L 150.0 438.7 L 200.0 439.4 L 250.0 442.1 L 300.0 445.2 L 350.0 452.6 L 400.0 460.1 L 450.0 466.2 L 500.0 473.2 L 550.0 476.6 L 600.0 476.8 L 650.0 473.4 L 700.0 468.9 L 750.0 462.1 L 800.0 455.9 L 850.0 447.6 L 900.0 443.3 L 950.0 440.4 L 1000.0 439.2 L 1050.0 442.0 L 1100.0 445.5 L 1150.0 452.5 L 1200.0 459.3" stroke="rgba(10,10,8,0.29)" stroke-width="0.48" fill="none" />
<path d="M 0 467.2 L 50.0 460.2 L 100.0 462.3 L 150.0 465.2 L 200.0 470.8 L 250.0 473.4 L 300.0 475.2 L 350.0 477.5 L 400.0 477.3 L 450.0 475.3 L 500.0 472.4 L 550.0 468.9 L 600.0 465.4 L 650.0 460.7 L 700.0 459.2 L 750.0 457.4 L 800.0 458.5 L 850.0 459.1 L 900.0 462.6 L 950.0 466.8 L 1000.0 470.2 L 1050.0 473.7 L 1100.0 476.2 L 1150.0 476.6 L 1200.0 476.2" stroke="rgba(10,10,8,0.46)" stroke-width="0.94" fill="none" />
<path d="M 0 484.0 L 50.0 498.0 L 100.0 496.4 L 150.0 492.9 L 200.0 489.0 L 250.0 483.1 L 300.0 477.2 L 350.0 472.7 L 400.0 471.0 L 450.0 470.2 L 500.0 470.7 L 550.0 474.3 L 600.0 480.4 L 650.0 484.5 L 700.0 490.7 L 750.0 494.7 L 800.0 497.7 L 850.0 497.5 L 900.0 496.9 L 950.0 493.7 L 1000.0 487.8 L 1050.0 483.3 L 1100.0 478.5 L 1150.0 472.5 L 1200.0 470.0" stroke="rgba(10,10,8,0.50)" stroke-width="0.91" fill="none" />
<path d="M 0 498.1 L 50.0 495.8 L 100.0 502.3 L 150.0 509.5 L 200.0 513.7 L 250.0 516.5 L 300.0 516.6 L 350.0 513.5 L 400.0 508.2 L 450.0 501.3 L 500.0 494.1 L 550.0 485.6 L 600.0 482.1 L 650.0 478.7 L 700.0 479.6 L 750.0 482.9 L 800.0 489.1 L 850.0 495.1 L 900.0 502.8 L 950.0 508.8 L 1000.0 515.4 L 1050.0 516.2 L 1100.0 516.7 L 1150.0 512.2 L 1200.0 506.7" stroke="rgba(10,10,8,0.53)" stroke-width="0.40" fill="none" />
<path d="M 0 510.5 L 50.0 519.3 L 100.0 522.4 L 150.0 521.8 L 200.0 518.5 L 250.0 516.4 L 300.0 512.2 L 350.0 508.5 L 400.0 504.0 L 450.0 501.4 L 500.0 500.2 L 550.0 499.2 L 600.0 502.1 L 650.0 504.8 L 700.0 507.9 L 750.0 512.3 L 800.0 516.6 L 850.0 519.7 L 900.0 520.5 L 950.0 521.3 L 1000.0 519.8 L 1050.0 515.5 L 1100.0 512.5 L 1150.0 507.6 L 1200.0 504.5" stroke="rgba(10,10,8,0.28)" stroke-width="1.13" fill="none" />
<path d="M 0 522.2 L 50.0 508.6 L 100.0 509.2 L 150.0 509.2 L 200.0 512.7 L 250.0 519.1 L 300.0 523.7 L 350.0 529.7 L 400.0 533.6 L 450.0 535.1 L 500.0 535.7 L 550.0 533.6 L 600.0 530.0 L 650.0 526.9 L 700.0 520.5 L 750.0 514.9 L 800.0 512.3 L 850.0 509.8 L 900.0 509.5 L 950.0 510.8 L 1000.0 512.8 L 1050.0 519.3 L 1100.0 524.6 L 1150.0 528.4 L 1200.0 532.8" stroke="rgba(10,10,8,0.45)" stroke-width="1.19" fill="none" />
<path d="M 0 538.6 L 50.0 523.9 L 100.0 521.1 L 150.0 523.2 L 200.0 526.3 L 250.0 531.6 L 300.0 537.7 L 350.0 544.0 L 400.0 549.3 L 450.0 553.1 L 500.0 555.7 L 550.0 554.5 L 600.0 551.0 L 650.0 545.0 L 700.0 538.9 L 750.0 531.9 L 800.0 526.9 L 850.0 523.9 L 900.0 522.9 L 950.0 522.6 L 1000.0 525.6 L 1050.0 532.1 L 1100.0 538.0 L 1150.0 545.2 L 1200.0 550.2" stroke="rgba(10,10,8,0.36)" stroke-width="0.79" fill="none" />
<path d="M 0 548.1 L 50.0 552.0 L 100.0 544.5 L 150.0 538.9 L 200.0 534.9 L 250.0 533.9 L 300.0 533.8 L 350.0 535.0 L 400.0 540.1 L 450.0 546.0 L 500.0 551.3 L 550.0 556.3 L 600.0 559.8 L 650.0 563.5 L 700.0 562.8 L 750.0 561.0 L 800.0 555.9 L 850.0 550.4 L 900.0 544.3 L 950.0 539.1 L 1000.0 536.4 L 1050.0 533.5 L 1100.0 532.5 L 1150.0 534.6 L 1200.0 540.0" stroke="rgba(10,10,8,0.36)" stroke-width="0.47" fill="none" />
<path d="M 0 564.9 L 50.0 563.8 L 100.0 556.9 L 150.0 552.9 L 200.0 550.3 L 250.0 547.9 L 300.0 550.8 L 350.0 554.3 L 400.0 559.1 L 450.0 565.8 L 500.0 573.0 L 550.0 577.9 L 600.0 579.7 L 650.0 581.2 L 700.0 579.6 L 750.0 575.5 L 800.0 570.4 L 850.0 563.9 L 900.0 557.5 L 950.0 552.9 L 1000.0 548.8 L 1050.0 548.6 L 1100.0 551.1 L 1150.0 554.9 L 1200.0 559.0" stroke="rgba(10,10,8,0.24)" stroke-width="0.65" fill="none" />
<path d="M 0 573.8 L 50.0 560.6 L 100.0 562.1 L 150.0 565.9 L 200.0 570.6 L 250.0 575.1 L 300.0 579.8 L 350.0 583.4 L 400.0 586.8 L 450.0 585.9 L 500.0 584.7 L 550.0 582.5 L 600.0 577.3 L 650.0 572.3 L 700.0 567.0 L 750.0 562.9 L 800.0 561.2 L 850.0 561.1 L 900.0 562.3 L 950.0 565.8 L 1000.0 571.4 L 1050.0 575.5 L 1100.0 580.8 L 1150.0 584.9 L 1200.0 587.2" stroke="rgba(10,10,8,0.47)" stroke-width="0.91" fill="none" />
<path d="M 0 592.5 L 50.0 585.0 L 100.0 589.0 L 150.0 591.7 L 200.0 594.0 L 250.0 598.7 L 300.0 600.7 L 350.0 600.2 L 400.0 600.8 L 450.0 599.7 L 500.0 596.6 L 550.0 594.2 L 600.0 590.0 L 650.0 587.1 L 700.0 584.7 L 750.0 583.9 L 800.0 584.6 L 850.0 585.9 L 900.0 588.2 L 950.0 591.9 L 1000.0 594.1 L 1050.0 598.6 L 1100.0 600.9 L 1150.0 600.7 L 1200.0 601.9" stroke="rgba(10,10,8,0.40)" stroke-width="0.63" fill="none" />
<path d="M 0 600.6 L 50.0 592.2 L 100.0 593.3 L 150.0 595.2 L 200.0 597.1 L 250.0 600.9 L 300.0 603.9 L 350.0 606.8 L 400.0 608.6 L 450.0 609.3 L 500.0 607.9 L 550.0 607.1 L 600.0 603.8 L 650.0 601.4 L 700.0 597.9 L 750.0 593.3 L 800.0 592.3 L 850.0 592.1 L 900.0 592.5 L 950.0 593.6 L 1000.0 597.1 L 1050.0 600.5 L 1100.0 603.5 L 1150.0 606.5 L 1200.0 609.6" stroke="rgba(10,10,8,0.54)" stroke-width="0.95" fill="none" />
<path d="M 0 616.1 L 50.0 624.8 L 100.0 623.0 L 150.0 618.4 L 200.0 615.6 L 250.0 612.2 L 300.0 608.3 L 350.0 606.6 L 400.0 606.3 L 450.0 608.1 L 500.0 610.6 L 550.0 614.1 L 600.0 617.8 L 650.0 620.3 L 700.0 623.7 L 750.0 626.3 L 800.0 625.6 L 850.0 623.6 L 900.0 622.7 L 950.0 619.2 L 1000.0 615.6 L 1050.0 611.7 L 1100.0 608.5 L 1150.0 606.2 L 1200.0 607.3" stroke="rgba(10,10,8,0.24)" stroke-width="0.82" fill="none" />
<path d="M 0 632.2 L 50.0 644.2 L 100.0 637.2 L 150.0 627.6 L 200.0 620.1 L 250.0 614.4 L 300.0 612.1 L 350.0 610.5 L 400.0 614.4 L 450.0 620.0 L 500.0 628.1 L 550.0 636.9 L 600.0 643.4 L 650.0 649.4 L 700.0 653.6 L 750.0 653.7 L 800.0 649.7 L 850.0 644.0 L 900.0 637.7 L 950.0 628.9 L 1000.0 621.4 L 1050.0 614.4 L 1100.0 610.9 L 1150.0 610.4 L 1200.0 614.5" stroke="rgba(10,10,8,0.43)" stroke-width="0.88" fill="none" />
<path d="M 0 641.8 L 50.0 638.4 L 100.0 631.0 L 150.0 624.1 L 200.0 621.5 L 250.0 620.3 L 300.0 623.3 L 350.0 628.8 L 400.0 637.8 L 450.0 644.1 L 500.0 653.2 L 550.0 658.7 L 600.0 663.2 L 650.0 662.6 L 700.0 660.6 L 750.0 654.0 L 800.0 647.5 L 850.0 639.4 L 900.0 631.4 L 950.0 624.6 L 1000.0 622.1 L 1050.0 621.3 L 1100.0 623.9 L 1150.0 628.7 L 1200.0 636.4" stroke="rgba(10,10,8,0.41)" stroke-width="0.56" fill="none" />
<path d="M 0 654.1 L 50.0 661.7 L 100.0 652.5 L 150.0 644.5 L 200.0 637.8 L 250.0 634.1 L 300.0 633.8 L 350.0 634.2 L 400.0 639.6 L 450.0 646.0 L 500.0 654.1 L 550.0 662.8 L 600.0 668.9 L 650.0 673.5 L 700.0 675.9 L 750.0 673.1 L 800.0 667.8 L 850.0 660.6 L 900.0 652.8 L 950.0 644.6 L 1000.0 638.8 L 1050.0 633.8 L 1100.0 633.5 L 1150.0 635.7 L 1200.0 640.3" stroke="rgba(10,10,8,0.34)" stroke-width="0.60" fill="none" />
<path d="M 0 667.8 L 50.0 680.5 L 100.0 679.5 L 150.0 679.9 L 200.0 675.8 L 250.0 670.9 L 300.0 666.2 L 350.0 661.3 L 400.0 658.6 L 450.0 655.1 L 500.0 654.9 L 550.0 656.3 L 600.0 659.1 L 650.0 663.9 L 700.0 668.7 L 750.0 672.4 L 800.0 676.7 L 850.0 679.8 L 900.0 680.9 L 950.0 679.4 L 1000.0 676.7 L 1050.0 670.8 L 1100.0 666.7 L 1150.0 663.0 L 1200.0 657.5" stroke="rgba(10,10,8,0.48)" stroke-width="0.48" fill="none" />
<path d="M 0 682.9 L 50.0 676.3 L 100.0 680.0 L 150.0 685.2 L 200.0 689.8 L 250.0 691.9 L 300.0 694.8 L 350.0 694.3 L 400.0 692.5 L 450.0 689.7 L 500.0 684.4 L 550.0 680.4 L 600.0 676.8 L 650.0 672.2 L 700.0 671.2 L 750.0 671.2 L 800.0 673.6 L 850.0 675.5 L 900.0 680.0 L 950.0 685.6 L 1000.0 690.1 L 1050.0 692.7 L 1100.0 694.1 L 1150.0 695.5 L 1200.0 693.2" stroke="rgba(10,10,8,0.52)" stroke-width="1.14" fill="none" />
<path d="M 0 694.3 L 50.0 713.8 L 100.0 716.0 L 150.0 714.5 L 200.0 709.0 L 250.0 702.7 L 300.0 694.4 L 350.0 685.6 L 400.0 679.6 L 450.0 674.3 L 500.0 673.0 L 550.0 675.7 L 600.0 680.4 L 650.0 687.2 L 700.0 694.7 L 750.0 702.9 L 800.0 710.1 L 850.0 714.6 L 900.0 716.1 L 950.0 714.4 L 1000.0 708.8 L 1050.0 701.6 L 1100.0 694.2 L 1150.0 684.8 L 1200.0 679.1" stroke="rgba(10,10,8,0.48)" stroke-width="1.11" fill="none" />
<path d="M 0 711.6 L 50.0 721.1 L 100.0 718.6 L 150.0 715.2 L 200.0 711.3 L 250.0 705.8 L 300.0 703.3 L 350.0 701.3 L 400.0 700.7 L 450.0 701.4 L 500.0 705.4 L 550.0 709.2 L 600.0 712.0 L 650.0 716.3 L 700.0 720.9 L 750.0 722.7 L 800.0 721.9 L 850.0 722.1 L 900.0 718.9 L 950.0 713.9 L 1000.0 710.3 L 1050.0 707.4 L 1100.0 702.6 L 1150.0 701.2 L 1200.0 700.1" stroke="rgba(10,10,8,0.25)" stroke-width="1.10" fill="none" />
<path d="M 0 724.6 L 50.0 722.3 L 100.0 727.7 L 150.0 729.7 L 200.0 733.8 L 250.0 734.7 L 300.0 734.7 L 350.0 733.6 L 400.0 730.0 L 450.0 725.1 L 500.0 721.3 L 550.0 718.3 L 600.0 716.3 L 650.0 714.9 L 700.0 714.7 L 750.0 715.7 L 800.0 718.7 L 850.0 722.8 L 900.0 727.7 L 950.0 729.7 L 1000.0 732.9 L 1050.0 735.7 L 1100.0 734.5 L 1150.0 733.2 L 1200.0 729.1" stroke="rgba(10,10,8,0.24)" stroke-width="1.17" fill="none" />
<path d="M 0 737.1 L 50.0 729.0 L 100.0 726.2 L 150.0 727.8 L 200.0 728.6 L 250.0 731.9 L 300.0 735.5 L 350.0 739.8 L 400.0 743.9 L 450.0 746.3 L 500.0 748.2 L 550.0 746.7 L 600.0 746.1 L 650.0 742.8 L 700.0 738.1 L 750.0 734.3 L 800.0 730.3 L 850.0 727.5 L 900.0 727.1 L 950.0 726.0 L 1000.0 728.9 L 1050.0 731.2 L 1100.0 735.7 L 1150.0 740.4 L 1200.0 743.4" stroke="rgba(10,10,8,0.35)" stroke-width="0.82" fill="none" />
<path d="M 0 752.3 L 50.0 739.9 L 100.0 745.9 L 150.0 751.1 L 200.0 758.7 L 250.0 764.7 L 300.0 767.7 L 350.0 770.5 L 400.0 768.1 L 450.0 766.3 L 500.0 759.8 L 550.0 753.5 L 600.0 745.5 L 650.0 740.3 L 700.0 735.3 L 750.0 733.9 L 800.0 735.0 L 850.0 739.2 L 900.0 744.6 L 950.0 752.2 L 1000.0 758.1 L 1050.0 763.7 L 1100.0 769.0 L 1150.0 771.1 L 1200.0 769.9" stroke="rgba(10,10,8,0.42)" stroke-width="0.41" fill="none" />
<path d="M 0 761.2 L 50.0 745.0 L 100.0 749.5 L 150.0 755.8 L 200.0 762.8 L 250.0 768.6 L 300.0 773.7 L 350.0 778.5 L 400.0 779.0 L 450.0 777.0 L 500.0 773.8 L 550.0 767.6 L 600.0 759.6 L 650.0 753.7 L 700.0 747.8 L 750.0 745.2 L 800.0 743.3 L 850.0 745.9 L 900.0 750.0 L 950.0 755.3 L 1000.0 761.9 L 1050.0 768.3 L 1100.0 773.8 L 1150.0 777.6 L 1200.0 779.1" stroke="rgba(10,10,8,0.27)" stroke-width="0.71" fill="none" />
<path d="M 0 777.0 L 50.0 769.6 L 100.0 776.4 L 150.0 783.2 L 200.0 790.2 L 250.0 793.9 L 300.0 796.0 L 350.0 794.3 L 400.0 790.1 L 450.0 785.4 L 500.0 777.5 L 550.0 770.4 L 600.0 763.8 L 650.0 759.3 L 700.0 758.4 L 750.0 759.0 L 800.0 764.1 L 850.0 769.5 L 900.0 777.3 L 950.0 784.0 L 1000.0 790.8 L 1050.0 794.7 L 1100.0 795.2 L 1150.0 794.1 L 1200.0 790.7" stroke="rgba(10,10,8,0.32)" stroke-width="0.60" fill="none" />
<path d="M 0 790.3 L 50.0 778.7 L 100.0 786.8 L 150.0 795.0 L 200.0 802.4 L 250.0 807.7 L 300.0 809.4 L 350.0 810.5 L 400.0 807.3 L 450.0 801.2 L 500.0 793.8 L 550.0 786.9 L 600.0 778.4 L 650.0 773.2 L 700.0 771.3 L 750.0 769.6 L 800.0 773.0 L 850.0 778.6 L 900.0 785.9 L 950.0 795.6 L 1000.0 802.6 L 1050.0 808.0 L 1100.0 809.8 L 1150.0 810.2 L 1200.0 807.1" stroke="rgba(10,10,8,0.36)" stroke-width="0.87" fill="none" />
    </g>
    <rect width="100%" height="100%" fill="url(#vignette-ash-bottom)"/>
  </g>
</svg>