<?xml version="1.0" encoding="UTF-8"?>
<svg xmlns="http://www.w3.org/2000/svg" viewBox="0 0 1200 800" preserveAspectRatio="xMidYMid slice" role="img" aria-label="ash top">
  <defs>
    <radialGradient id="bg-ash-top" cx="50%" cy="40%" r="80%">
      <stop offset="0%" stop-color="#161410"/>
      <stop offset="100%" stop-color="#0a0a08"/>
    </radialGradient>
    <linearGradient id="wood-ash-top" x1="0" y1="0" x2="1" y2="1">
      <stop offset="0%" stop-color="#b29770"/>
      <stop offset="50%" stop-color="#c4a981"/>
      <stop offset="100%" stop-color="#d8c197"/>
    </linearGradient>
    <radialGradient id="vignette-ash-top" cx="50%" cy="50%" r="65%">
      <stop offset="60%" stop-color="rgba(0,0,0,0)"/>
      <stop offset="100%" stop-color="rgba(0,0,0,0.45)"/>
    </radialGradient>
    <clipPath id="clip-ash-top">
      <path d="M600 120 C760 120 880 200 920 320 C960 440 920 560 820 620 C720 680 600 660 600 660 C600 660 480 680 380 620 C280 560 240 440 280 320 C320 200 440 120 600 120 Z"/>
    </clipPath>
  </defs>
  <rect width="100%" height="100%" fill="url(#bg-ash-top)"/>
  <g clip-path="url(#clip-ash-top)">
    <rect width="100%" height="100%" fill="url(#wood-ash-top)"/>
    <g opacity="0.45">
      <path d="M 0 2.9 L 50.0 3.9 L 100.0 0.3 L 150.0 -3.6 L 200.0 -6.4 L 250.0 -8.0 L 300.0 -7.1 L 350.0 -5.2 L 400.0 -1.8 L 450.0 2.2 L 500.0 6.4 L 550.0 10.2 L 600.0 13.1 L 650.0 14.8 L 700.0 14.0 L 750.0 11.4 L 800.0 7.2 L 850.0 4.0 L 900.0 -0.5 L 950.0 -4.1 L 1000.0 -7.0 L 1050.0 -9.1 L 1100.0 -7.2 L 1150.0 -4.7 L 1200.0 -2.2" stroke="rgba(10,10,8,0.23)" stroke-width="0.62" fill="none" />
<path d="M 0 15.7 L 50.0 14.4 L 100.0 23.0 L 150.0 29.0 L 200.0 34.7 L 250.0 35.7 L 300.0 34.8 L 350.0 29.8 L 400.0 23.6 L 450.0 15.2 L 500.0 7.6 L 550.0 2.2 L 600.0 -3.0 L 650.0 -4.8 L 700.0 -3.1 L 750.0 2.0 L 800.0 7.0 L 850.0 14.3 L 900.0 22.2 L 950.0 29.0 L 1000.0 33.0 L 1050.0 36.0 L 1100.0 33.6 L 1150.0 29.2 L 1200.0 22.8" stroke="rgba(10,10,8,0.36)" stroke-width="0.75" fill="none" />
<path d="M 0 29.8 L 50.0 31.2 L 100.0 28.3 L 150.0 24.6 L 200.0 21.7 L 250.0 21.4 L 300.0 20.3 L 350.0 22.2 L 400.0 25.1 L 450.0 28.6 L 500.0 31.3 L 550.0 35.2 L 600.0 37.5 L 650.0 38.3 L 700.0 38.1 L 750.0 36.6 L 800.0 35.4 L 850.0 32.3 L 900.0 27.1 L 950.0 24.7 L 1000.0 21.6 L 1050.0 21.2 L 1100.0 21.2 L 1150.0 22.0 L 1200.0 24.3" stroke="rgba(10,10,8,0.36)" stroke-width="0.91" fill="none" />
<path d="M 0 40.3 L 50.0 26.3 L 100.0 28.4 L 150.0 34.7 L 200.0 40.6 L 250.0 45.2 L 300.0 51.6 L 350.0 55.1 L 400.0 56.2 L 450.0 55.2 L 500.0 52.1 L 550.0 47.6 L 600.0 41.3 L 650.0 33.9 L 700.0 29.5 L 750.0 26.3 L 800.0 24.3 L 850.0 26.1 L 900.0 29.4 L 950.0 32.9 L 1000.0 39.3 L 1050.0 46.1 L 1100.0 51.2 L 1150.0 54.4 L 1200.0 56.1" stroke="rgba(10,10,8,0.31)" stroke-width="0.80" fill="none" />
<path d="M 0 58.4 L 50.0 64.7 L 100.0 71.1 L 150.0 73.1 L 200.0 74.3 L 250.0 72.7 L 300.0 69.5 L 350.0 64.0 L 400.0 56.7 L 450.0 50.7 L 500.0 46.0 L 550.0 42.8 L 600.0 42.9 L 650.0 43.8 L 700.0 48.7 L 750.0 53.3 L 800.0 58.8 L 850.0 65.4 L 900.0 69.6 L 950.0 73.1 L 1000.0 74.3 L 1050.0 71.8 L 1100.0 68.5 L 1150.0 63.9 L 1200.0 56.2" stroke="rgba(10,10,8,0.48)" stroke-width="0.64" fill="none" />
<path d="M 0 66.7 L 50.0 52.0 L 100.0 49.4 L 150.0 47.9 L 200.0 50.6 L 250.0 55.6 L 300.0 62.0 L 350.0 69.0 L 400.0 76.5 L 450.0 81.1 L 500.0 85.3 L 550.0 84.0 L 600.0 82.8 L 650.0 78.2 L 700.0 71.0 L 750.0 63.2 L 800.0 57.5 L 850.0 51.2 L 900.0 49.9 L 950.0 48.9 L 1000.0 50.7 L 1050.0 55.9 L 1100.0 63.3 L 1150.0 69.2 L 1200.0 77.1" stroke="rgba(10,10,8,0.24)" stroke-width="0.95" fill="none" />
<path d="M 0 85.3 L 50.0 84.4 L 100.0 90.9 L 150.0 95.5 L 200.0 99.1 L 250.0 101.4 L 300.0 101.0 L 350.0 97.5 L 400.0 92.8 L 450.0 87.1 L 500.0 80.6 L 550.0 74.7 L 600.0 70.2 L 650.0 68.8 L 700.0 70.3 L 750.0 73.0 L 800.0 77.3 L 850.0 83.1 L 900.0 90.1 L 950.0 96.2 L 1000.0 100.3 L 1050.0 100.8 L 1100.0 102.0 L 1150.0 98.8 L 1200.0 93.4" stroke="rgba(10,10,8,0.38)" stroke-width="0.56" fill="none" />
<path d="M 0 98.9 L 50.0 102.4 L 100.0 110.3 L 150.0 114.2 L 200.0 116.5 L 250.0 116.4 L 300.0 113.3 L 350.0 106.9 L 400.0 101.6 L 450.0 94.5 L 500.0 88.8 L 550.0 84.3 L 600.0 81.4 L 650.0 82.7 L 700.0 85.1 L 750.0 90.8 L 800.0 95.7 L 850.0 103.6 L 900.0 109.1 L 950.0 114.7 L 1000.0 116.0 L 1050.0 115.5 L 1100.0 113.0 L 1150.0 107.1 L 1200.0 100.6" stroke="rgba(10,10,8,0.38)" stroke-width="0.65" fill="none" />
<path d="M 0 107.3 L 50.0 113.3 L 100.0 109.9 L 150.0 105.3 L 200.0 101.5 L 250.0 98.3 L 300.0 97.6 L 350.0 98.0 L 400.0 99.3 L 450.0 102.5 L 500.0 106.6 L 550.0 109.4 L 600.0 113.1 L 650.0 115.9 L 700.0 118.1 L 750.0 118.2 L 800.0 116.0 L 850.0 112.9 L 900.0 109.8 L 950.0 104.2 L 1000.0 102.3 L 1050.0 98.9 L 1100.0 96.5 L 1150.0 97.2 L 1200.0 99.1" stroke="rgba(10,10,8,0.24)" stroke-width="0.61" fill="none" />
<path d="M 0 120.2 L 50.0 129.2 L 100.0 133.1 L 150.0 133.8 L 200.0 134.3 L 250.0 131.0 L 300.0 128.2 L 350.0 121.8 L 400.0 116.0 L 450.0 112.1 L 500.0 107.7 L 550.0 105.9 L 600.0 106.0 L 650.0 108.4 L 700.0 112.5 L 750.0 119.0 L 800.0 123.5 L 850.0 129.8 L 900.0 133.1 L 950.0 134.9 L 1000.0 134.9 L 1050.0 131.3 L 1100.0 126.5 L 1150.0 122.2 L 1200.0 115.8" stroke="rgba(10,10,8,0.48)" stroke-width="0.76" fill="none" />
<path d="M 0 137.5 L 50.0 135.0 L 100.0 139.2 L 150.0 144.3 L 200.0 147.4 L 250.0 149.1 L 300.0 148.8 L 350.0 146.8 L 400.0 144.3 L 450.0 140.4 L 500.0 134.6 L 550.0 130.3 L 600.0 128.0 L 650.0 125.2 L 700.0 124.8 L 750.0 127.6 L 800.0 130.9 L 850.0 134.5 L 900.0 139.6 L 950.0 143.7 L 1000.0 148.1 L 1050.0 149.3 L 1100.0 149.7 L 1150.0 147.1 L 1200.0 143.9" stroke="rgba(10,10,8,0.44)" stroke-width="0.87" fill="none" />
<path d="M 0 152.3 L 50.0 139.4 L 100.0 143.8 L 150.0 148.5 L 200.0 154.4 L 250.0 158.9 L 300.0 164.0 L 350.0 166.0 L 400.0 167.0 L 450.0 163.8 L 500.0 160.5 L 550.0 156.7 L 600.0 149.8 L 650.0 145.4 L 700.0 139.9 L 750.0 138.4 L 800.0 139.0 L 850.0 139.9 L 900.0 142.9 L 950.0 148.4 L 1000.0 154.4 L 1050.0 159.6 L 1100.0 163.5 L 1150.0 166.5 L 1200.0 165.8" stroke="rgba(10,10,8,0.40)" stroke-width="0.76" fill="none" />
<path d="M 0 163.6 L 50.0 173.7 L 100.0 174.2 L 150.0 170.9 L 200.0 167.1 L 250.0 164.0 L 300.0 158.9 L 350.0 155.3 L 400.0 153.3 L 450.0 152.6 L 500.0 153.7 L 550.0 155.3 L 600.0 158.9 L 650.0 164.0 L 700.0 168.0 L 750.0 170.4 L 800.0 174.6 L 850.0 175.4 L 900.0 173.3 L 950.0 172.1 L 1000.0 168.3 L 1050.0 163.6 L 1100.0 160.1 L 1150.0 155.8 L 1200.0 152.6" stroke="rgba(10,10,8,0.30)" stroke-width="0.67" fill="none" />
<path d="M 0 174.7 L 50.0 171.3 L 100.0 176.0 L 150.0 182.6 L 200.0 186.8 L 250.0 188.8 L 300.0 189.9 L 350.0 187.4 L 400.0 183.8 L 450.0 178.8 L 500.0 172.8 L 550.0 166.9 L 600.0 161.9 L 650.0 160.6 L 700.0 159.4 L 750.0 161.4 L 800.0 166.8 L 850.0 170.9 L 900.0 177.0 L 950.0 183.3 L 1000.0 186.5 L 1050.0 189.1 L 1100.0 190.4 L 1150.0 187.5 L 1200.0 183.2" stroke="rgba(10,10,8,0.33)" stroke-width="0.55" fill="none" />
<path d="M 0 190.1 L 50.0 191.4 L 100.0 197.2 L 150.0 202.4 L 200.0 205.7 L 250.0 207.9 L 300.0 205.3 L 350.0 201.0 L 400.0 195.3 L 450.0 189.3 L 500.0 182.0 L 550.0 176.6 L 600.0 173.8 L 650.0 173.3 L 700.0 173.8 L 750.0 178.8 L 800.0 183.9 L 850.0 191.3 L 900.0 197.4 L 950.0 202.5 L 1000.0 207.3 L 1050.0 208.5 L 1100.0 206.5 L 1150.0 201.4 L 1200.0 196.9" stroke="rgba(10,10,8,0.41)" stroke-width="0.66" fill="none" />
<path d="M 0 204.0 L 50.0 203.6 L 100.0 195.0 L 150.0 187.9 L 200.0 183.8 L 250.0 182.3 L 300.0 185.1 L 350.0 190.2 L 400.0 196.9 L 450.0 204.3 L 500.0 213.0 L 550.0 219.1 L 600.0 224.1 L 650.0 225.0 L 700.0 223.9 L 750.0 218.1 L 800.0 211.8 L 850.0 203.4 L 900.0 195.6 L 950.0 188.9 L 1000.0 184.8 L 1050.0 183.7 L 1100.0 185.1 L 1150.0 190.0 L 1200.0 196.3" stroke="rgba(10,10,8,0.54)" stroke-width="1.16" fill="none" />
<path d="M 0 217.1 L 50.0 223.3 L 100.0 227.0 L 150.0 229.4 L 200.0 230.0 L 250.0 228.8 L 300.0 224.2 L 350.0 220.7 L 400.0 215.1 L 450.0 211.2 L 500.0 206.3 L 550.0 204.9 L 600.0 203.4 L 650.0 206.8 L 700.0 208.5 L 750.0 213.3 L 800.0 219.8 L 850.0 224.8 L 900.0 227.7 L 950.0 230.0 L 1000.0 230.4 L 1050.0 228.4 L 1100.0 224.7 L 1150.0 220.5 L 1200.0 215.3" stroke="rgba(10,10,8,0.43)" stroke-width="0.56" fill="none" />
<path d="M 0 227.2 L 50.0 228.8 L 100.0 236.9 L 150.0 242.6 L 200.0 247.0 L 250.0 247.5 L 300.0 246.0 L 350.0 241.9 L 400.0 234.5 L 450.0 224.8 L 500.0 218.1 L 550.0 210.6 L 600.0 207.0 L 650.0 207.1 L 700.0 208.5 L 750.0 214.2 L 800.0 220.0 L 850.0 228.5 L 900.0 235.7 L 950.0 244.0 L 1000.0 246.5 L 1050.0 247.7 L 1100.0 246.0 L 1150.0 240.5 L 1200.0 234.6" stroke="rgba(10,10,8,0.30)" stroke-width="1.18" fill="none" />
<path d="M 0 241.9 L 50.0 235.8 L 100.0 242.9 L 150.0 249.8 L 200.0 255.4 L 250.0 258.1 L 300.0 260.0 L 350.0 256.6 L 400.0 252.5 L 450.0 247.4 L 500.0 239.6 L 550.0 233.7 L 600.0 227.9 L 650.0 224.5 L 700.0 224.4 L 750.0 225.5 L 800.0 230.8 L 850.0 237.0 L 900.0 243.6 L 950.0 250.5 L 1000.0 255.2 L 1050.0 257.8 L 1100.0 258.5 L 1150.0 256.8 L 1200.0 252.3" stroke="rgba(10,10,8,0.22)" stroke-width="0.69" fill="none" />
<path d="M 0 259.2 L 50.0 267.9 L 100.0 260.1 L 150.0 252.1 L 200.0 243.7 L 250.0 239.9 L 300.0 237.5 L 350.0 237.9 L 400.0 242.5 L 450.0 249.9 L 500.0 258.6 L 550.0 266.5 L 600.0 272.9 L 650.0 278.5 L 700.0 281.7 L 750.0 279.7 L 800.0 274.9 L 850.0 269.0 L 900.0 259.7 L 950.0 250.9 L 1000.0 244.7 L 1050.0 239.9 L 1100.0 236.4 L 1150.0 239.1 L 1200.0 242.7" stroke="rgba(10,10,8,0.43)" stroke-width="0.97" fill="none" />
<path d="M 0 270.2 L 50.0 265.5 L 100.0 269.4 L 150.0 274.5 L 200.0 278.2 L 250.0 281.1 L 300.0 282.2 L 350.0 282.6 L 400.0 279.9 L 450.0 275.8 L 500.0 271.2 L 550.0 266.9 L 600.0 262.5 L 650.0 258.4 L 700.0 257.1 L 750.0 257.9 L 800.0 261.2 L 850.0 265.4 L 900.0 268.8 L 950.0 274.2 L 1000.0 278.3 L 1050.0 280.8 L 1100.0 282.2 L 1150.0 281.9 L 1200.0 278.3" stroke="rgba(10,10,8,0.42)" stroke-width="0.79" fill="none" />
<path d="M 0 283.8 L 50.0 269.7 L 100.0 268.1 L 150.0 268.1 L 200.0 271.2 L 250.0 276.2 L 300.0 281.8 L 350.0 288.4 L 400.0 293.5 L 450.0 298.1 L 500.0 300.7 L 550.0 298.7 L 600.0 296.4 L 650.0 291.2 L 700.0 284.6 L 750.0 278.1 L 800.0 273.5 L 850.0 269.3 L 900.0 267.3 L 950.0 268.3 L 1000.0 271.0 L 1050.0 276.6 L 1100.0 282.6 L 1150.0 288.1 L 1200.0 294.2" stroke="rgba(10,10,8,0.37)" stroke-width="0.93" fill="none" />
<path d="M 0 295.4 L 50.0 302.1 L 100.0 307.1 L 150.0 309.2 L 200.0 309.7 L 250.0 307.6 L 300.0 303.7 L 350.0 300.4 L 400.0 293.5 L 450.0 289.4 L 500.0 285.2 L 550.0 282.4 L 600.0 282.2 L 650.0 283.4 L 700.0 286.4 L 750.0 290.4 L 800.0 296.0 L 850.0 302.7 L 900.0 306.6 L 950.0 308.7 L 1000.0 309.0 L 1050.0 307.1 L 1100.0 303.6 L 1150.0 298.8 L 1200.0 294.7" stroke="rgba(10,10,8,0.35)" stroke-width="1.05" fill="none" />
<path d="M 0 307.4 L 50.0 290.9 L 100.0 297.1 L 150.0 303.4 L 200.0 311.2 L 250.0 319.2 L 300.0 323.5 L 350.0 326.6 L 400.0 326.5 L 450.0 324.1 L 500.0 318.5 L 550.0 311.2 L 600.0 304.1 L 650.0 296.1 L 700.0 291.5 L 750.0 287.6 L 800.0 287.7 L 850.0 291.5 L 900.0 296.8 L 950.0 302.7 L 1000.0 312.2 L 1050.0 318.1 L 1100.0 324.5 L 1150.0 327.0 L 1200.0 327.0" stroke="rgba(10,10,8,0.49)" stroke-width="1.16" fill="none" />
<path d="M 0 324.2 L 50.0 306.0 L 100.0 308.6 L 150.0 311.3 L 200.0 318.5 L 250.0 325.0 L 300.0 332.0 L 350.0 337.4 L 400.0 341.0 L 450.0 342.9 L 500.0 339.6 L 550.0 337.3 L 600.0 329.6 L 650.0 324.0 L 700.0 316.3 L 750.0 311.3 L 800.0 308.0 L 850.0 307.1 L 900.0 308.6 L 950.0 312.6 L 1000.0 317.4 L 1050.0 324.6 L 1100.0 331.0 L 1150.0 337.8 L 1200.0 341.1" stroke="rgba(10,10,8,0.36)" stroke-width="1.14" fill="none" />
<path d="M 0 338.3 L 50.0 350.6 L 100.0 355.8 L 150.0 357.5 L 200.0 355.7 L 250.0 353.5 L 300.0 348.1 L 350.0 341.0 L 400.0 332.0 L 450.0 326.1 L 500.0 321.5 L 550.0 319.3 L 600.0 320.7 L 650.0 323.2 L 700.0 328.6 L 750.0 336.0 L 800.0 344.2 L 850.0 350.3 L 900.0 354.4 L 950.0 358.1 L 1000.0 357.1 L 1050.0 353.7 L 1100.0 347.3 L 1150.0 340.4 L 1200.0 333.5" stroke="rgba(10,10,8,0.22)" stroke-width="0.85" fill="none" />
<path d="M 0 351.5 L 50.0 337.2 L 100.0 340.3 L 150.0 348.1 L 200.0 354.4 L 250.0 360.7 L 300.0 366.8 L 350.0 367.8 L 400.0 368.3 L 450.0 366.9 L 500.0 360.8 L 550.0 356.3 L 600.0 348.6 L 650.0 342.9 L 700.0 338.0 L 750.0 334.9 L 800.0 335.0 L 850.0 337.0 L 900.0 342.2 L 950.0 348.0 L 1000.0 354.7 L 1050.0 360.6 L 1100.0 366.0 L 1150.0 367.8 L 1200.0 368.7" stroke="rgba(10,10,8,0.51)" stroke-width="0.74" fill="none" />
<path d="M 0 363.5 L 50.0 372.8 L 100.0 372.2 L 150.0 369.8 L 200.0 366.6 L 250.0 360.9 L 300.0 358.5 L 350.0 356.4 L 400.0 354.0 L 450.0 353.0 L 500.0 355.8 L 550.0 358.1 L 600.0 361.6 L 650.0 365.8 L 700.0 369.1 L 750.0 371.7 L 800.0 372.8 L 850.0 372.5 L 900.0 371.6 L 950.0 370.1 L 1000.0 365.5 L 1050.0 362.0 L 1100.0 357.3 L 1150.0 354.5 L 1200.0 353.9" stroke="rgba(10,10,8,0.54)" stroke-width="0.60" fill="none" />
<path d="M 0 376.3 L 50.0 368.7 L 100.0 366.2 L 150.0 365.8 L 200.0 366.9 L 250.0 367.7 L 300.0 370.9 L 350.0 375.7 L 400.0 379.7 L 450.0 382.2 L 500.0 384.9 L 550.0 385.5 L 600.0 386.8 L 650.0 383.4 L 700.0 381.5 L 750.0 377.7 L 800.0 373.7 L 850.0 369.5 L 900.0 367.0 L 950.0 366.0 L 1000.0 366.1 L 1050.0 369.6 L 1100.0 371.9 L 1150.0 375.9 L 1200.0 380.4" stroke="rgba(10,10,8,0.41)" stroke-width="0.46" fill="none" />
<path d="M 0 390.9 L 50.0 391.4 L 100.0 399.5 L 150.0 405.6 L 200.0 409.6 L 250.0 410.4 L 300.0 410.1 L 350.0 404.8 L 400.0 399.3 L 450.0 390.7 L 500.0 383.1 L 550.0 376.5 L 600.0 371.5 L 650.0 370.9 L 700.0 372.2 L 750.0 376.5 L 800.0 382.5 L 850.0 390.7 L 900.0 399.2 L 950.0 405.3 L 1000.0 409.7 L 1050.0 411.0 L 1100.0 410.6 L 1150.0 404.8 L 1200.0 399.3" stroke="rgba(10,10,8,0.53)" stroke-width="0.41" fill="none" />
<path d="M 0 402.4 L 50.0 421.3 L 100.0 415.7 L 150.0 408.5 L 200.0 401.2 L 250.0 392.8 L 300.0 386.8 L 350.0 382.2 L 400.0 380.5 L 450.0 382.6 L 500.0 387.8 L 550.0 395.6 L 600.0 403.8 L 650.0 412.8 L 700.0 418.7 L 750.0 421.9 L 800.0 423.1 L 850.0 420.7 L 900.0 416.9 L 950.0 409.6 L 1000.0 401.4 L 1050.0 391.9 L 1100.0 385.3 L 1150.0 383.1 L 1200.0 380.7" stroke="rgba(10,10,8,0.27)" stroke-width="0.96" fill="none" />
<path d="M 0 415.9 L 50.0 401.2 L 100.0 400.3 L 150.0 399.5 L 200.0 402.7 L 250.0 407.6 L 300.0 414.5 L 350.0 420.9 L 400.0 425.7 L 450.0 430.3 L 500.0 433.0 L 550.0 431.1 L 600.0 428.0 L 650.0 423.6 L 700.0 418.1 L 750.0 410.6 L 800.0 406.2 L 850.0 400.7 L 900.0 400.3 L 950.0 399.7 L 1000.0 403.6 L 1050.0 408.3 L 1100.0 413.7 L 1150.0 421.6 L 1200.0 426.8" stroke="rgba(10,10,8,0.28)" stroke-width="0.72" fill="none" />
<path d="M 0 432.1 L 50.0 440.2 L 100.0 435.3 L 150.0 428.5 L 200.0 423.7 L 250.0 418.5 L 300.0 417.1 L 350.0 418.2 L 400.0 418.7 L 450.0 423.8 L 500.0 430.2 L 550.0 434.5 L 600.0 441.1 L 650.0 445.7 L 700.0 447.4 L 750.0 447.1 L 800.0 444.2 L 850.0 439.6 L 900.0 434.6 L 950.0 428.9 L 1000.0 424.1 L 1050.0 419.7 L 1100.0 418.0 L 1150.0 416.7 L 1200.0 420.1" stroke="rgba(10,10,8,0.23)" stroke-width="1.03" fill="none" />
<path d="M 0 441.2 L 50.0 439.7 L 100.0 445.2 L 150.0 447.2 L 200.0 451.0 L 250.0 452.3 L 300.0 451.9 L 350.0 449.3 L 400.0 446.4 L 450.0 442.9 L 500.0 438.9 L 550.0 433.5 L 600.0 431.0 L 650.0 429.1 L 700.0 431.5 L 750.0 432.5 L 800.0 436.6 L 850.0 439.9 L 900.0 444.7 L 950.0 448.9 L 1000.0 451.7 L 1050.0 451.9 L 1100.0 451.8 L 1150.0 450.2 L 1200.0 447.2" stroke="rgba(10,10,8,0.26)" stroke-width="0.70" fill="none" />
<path d="M 0 457.8 L 50.0 465.5 L 100.0 461.8 L 150.0 459.2 L 200.0 453.3 L 250.0 450.4 L 300.0 448.2 L 350.0 446.6 L 400.0 447.1 L 450.0 450.1 L 500.0 453.1 L 550.0 456.7 L 600.0 461.9 L 650.0 464.2 L 700.0 468.2 L 750.0 468.0 L 800.0 468.2 L 850.0 465.6 L 900.0 462.3 L 950.0 457.9 L 1000.0 453.7 L 1050.0 451.0 L 1100.0 448.1 L 1150.0 447.6 L 1200.0 447.7" stroke="rgba(10,10,8,0.51)" stroke-width="0.93" fill="none" />
<path d="M 0 469.7 L 50.0 484.2 L 100.0 486.3 L 150.0 487.0 L 200.0 485.7 L 250.0 479.9 L 300.0 473.9 L 350.0 467.0 L 400.0 460.0 L 450.0 455.1 L 500.0 452.6 L 550.0 453.3 L 600.0 454.1 L 650.0 459.3 L 700.0 465.0 L 750.0 473.0 L 800.0 477.9 L 850.0 484.1 L 900.0 487.1 L 950.0 487.5 L 1000.0 484.7 L 1050.0 479.4 L 1100.0 474.3 L 1150.0 466.4 L 1200.0 460.7" stroke="rgba(10,10,8,0.31)" stroke-width="1.08" fill="none" />
<path d="M 0 480.5 L 50.0 488.1 L 100.0 485.7 L 150.0 483.3 L 200.0 478.6 L 250.0 476.7 L 300.0 473.9 L 350.0 471.7 L 400.0 472.0 L 450.0 472.9 L 500.0 475.4 L 550.0 477.6 L 600.0 482.0 L 650.0 484.6 L 700.0 486.6 L 750.0 489.0 L 800.0 490.0 L 850.0 488.3 L 900.0 485.9 L 950.0 483.2 L 1000.0 478.8 L 1050.0 475.2 L 1100.0 473.0 L 1150.0 471.7 L 1200.0 471.9" stroke="rgba(10,10,8,0.51)" stroke-width="0.69" fill="none" />
<path d="M 0 496.2 L 50.0 487.0 L 100.0 488.2 L 150.0 491.9 L 200.0 493.6 L 250.0 498.0 L 300.0 500.1 L 350.0 503.8 L 400.0 505.5 L 450.0 505.7 L 500.0 503.2 L 550.0 500.8 L 600.0 498.7 L 650.0 494.4 L 700.0 491.2 L 750.0 488.1 L 800.0 487.4 L 850.0 487.4 L 900.0 488.1 L 950.0 491.5 L 1000.0 495.2 L 1050.0 497.7 L 1100.0 501.2 L 1150.0 502.9 L 1200.0 504.7" stroke="rgba(10,10,8,0.47)" stroke-width="1.12" fill="none" />
<path d="M 0 510.0 L 50.0 522.8 L 100.0 520.0 L 150.0 516.8 L 200.0 511.4 L 250.0 504.9 L 300.0 501.1 L 350.0 497.3 L 400.0 496.8 L 450.0 496.6 L 500.0 498.3 L 550.0 502.7 L 600.0 509.6 L 650.0 515.0 L 700.0 519.8 L 750.0 523.5 L 800.0 523.4 L 850.0 523.6 L 900.0 520.0 L 950.0 516.3 L 1000.0 511.6 L 1050.0 506.5 L 1100.0 500.1 L 1150.0 498.0 L 1200.0 496.5" stroke="rgba(10,10,8,0.46)" stroke-width="0.61" fill="none" />
<path d="M 0 520.8 L 50.0 524.4 L 100.0 517.8 L 150.0 513.4 L 200.0 509.1 L 250.0 506.0 L 300.0 505.5 L 350.0 508.2 L 400.0 511.6 L 450.0 516.4 L 500.0 522.1 L 550.0 528.6 L 600.0 532.9 L 650.0 536.5 L 700.0 536.8 L 750.0 534.0 L 800.0 530.4 L 850.0 525.7 L 900.0 519.1 L 950.0 513.5 L 1000.0 507.9 L 1050.0 505.9 L 1100.0 505.6 L 1150.0 508.3 L 1200.0 511.2" stroke="rgba(10,10,8,0.41)" stroke-width="0.98" fill="none" />
<path d="M 0 537.9 L 50.0 536.5 L 100.0 542.7 L 150.0 546.6 L 200.0 548.3 L 250.0 548.2 L 300.0 547.9 L 350.0 546.8 L 400.0 541.5 L 450.0 537.6 L 500.0 533.3 L 550.0 529.6 L 600.0 527.0 L 650.0 526.0 L 700.0 526.7 L 750.0 530.1 L 800.0 532.5 L 850.0 537.0 L 900.0 541.3 L 950.0 545.5 L 1000.0 548.8 L 1050.0 550.1 L 1100.0 548.6 L 1150.0 545.8 L 1200.0 542.5" stroke="rgba(10,10,8,0.53)" stroke-width="0.59" fill="none" />
<path d="M 0 547.7 L 50.0 541.4 L 100.0 550.4 L 150.0 557.8 L 200.0 564.0 L 250.0 567.3 L 300.0 567.7 L 350.0 565.8 L 400.0 561.6 L 450.0 554.2 L 500.0 546.6 L 550.0 538.2 L 600.0 532.0 L 650.0 528.3 L 700.0 528.0 L 750.0 529.1 L 800.0 533.6 L 850.0 541.5 L 900.0 549.4 L 950.0 557.4 L 1000.0 563.7 L 1050.0 566.8 L 1100.0 568.4 L 1150.0 566.3 L 1200.0 560.0" stroke="rgba(10,10,8,0.38)" stroke-width="0.49" fill="none" />
<path d="M 0 562.6 L 50.0 569.5 L 100.0 562.5 L 150.0 555.9 L 200.0 549.3 L 250.0 546.4 L 300.0 545.5 L 350.0 546.9 L 400.0 550.3 L 450.0 555.4 L 500.0 563.2 L 550.0 569.6 L 600.0 576.3 L 650.0 580.1 L 700.0 580.6 L 750.0 578.7 L 800.0 574.2 L 850.0 569.0 L 900.0 561.4 L 950.0 555.9 L 1000.0 549.8 L 1050.0 546.1 L 1100.0 544.3 L 1150.0 546.2 L 1200.0 549.9" stroke="rgba(10,10,8,0.31)" stroke-width="0.85" fill="none" />
<path d="M 0 577.1 L 50.0 589.2 L 100.0 593.8 L 150.0 596.4 L 200.0 596.2 L 250.0 593.6 L 300.0 586.9 L 350.0 581.1 L 400.0 573.4 L 450.0 565.9 L 500.0 560.4 L 550.0 557.3 L 600.0 557.4 L 650.0 561.5 L 700.0 566.8 L 750.0 573.8 L 800.0 580.6 L 850.0 587.6 L 900.0 594.1 L 950.0 597.2 L 1000.0 595.5 L 1050.0 592.7 L 1100.0 587.5 L 1150.0 579.8 L 1200.0 573.2" stroke="rgba(10,10,8,0.37)" stroke-width="0.98" fill="none" />
<path d="M 0 589.2 L 50.0 598.9 L 100.0 600.1 L 150.0 599.1 L 200.0 595.9 L 250.0 592.9 L 300.0 588.7 L 350.0 584.9 L 400.0 582.7 L 450.0 580.3 L 500.0 578.3 L 550.0 579.8 L 600.0 582.2 L 650.0 584.6 L 700.0 589.9 L 750.0 592.9 L 800.0 595.4 L 850.0 598.8 L 900.0 599.9 L 950.0 598.0 L 1000.0 595.7 L 1050.0 594.1 L 1100.0 590.3 L 1150.0 585.8 L 1200.0 581.7" stroke="rgba(10,10,8,0.42)" stroke-width="0.80" fill="none" />
<path d="M 0 600.3 L 50.0 614.5 L 100.0 608.3 L 150.0 601.0 L 200.0 593.8 L 250.0 588.8 L 300.0 583.5 L 350.0 582.3 L 400.0 583.7 L 450.0 586.5 L 500.0 593.6 L 550.0 599.6 L 600.0 606.9 L 650.0 611.7 L 700.0 617.6 L 750.0 617.8 L 800.0 617.1 L 850.0 613.3 L 900.0 607.2 L 950.0 600.6 L 1000.0 595.2 L 1050.0 588.7 L 1100.0 584.9 L 1150.0 582.1 L 1200.0 583.7" stroke="rgba(10,10,8,0.24)" stroke-width="1.16" fill="none" />
<path d="M 0 614.6 L 50.0 633.7 L 100.0 636.5 L 150.0 634.2 L 200.0 631.5 L 250.0 624.9 L 300.0 617.3 L 350.0 609.1 L 400.0 601.0 L 450.0 595.5 L 500.0 592.7 L 550.0 594.5 L 600.0 599.0 L 650.0 603.7 L 700.0 612.5 L 750.0 620.0 L 800.0 627.1 L 850.0 633.7 L 900.0 635.6 L 950.0 635.2 L 1000.0 631.4 L 1050.0 624.4 L 1100.0 616.5 L 1150.0 609.2 L 1200.0 600.8" stroke="rgba(10,10,8,0.36)" stroke-width="0.78" fill="none" />
<path d="M 0 629.0 L 50.0 634.0 L 100.0 637.4 L 150.0 640.7 L 200.0 639.9 L 250.0 639.8 L 300.0 636.3 L 350.0 633.0 L 400.0 628.1 L 450.0 623.5 L 500.0 620.3 L 550.0 618.9 L 600.0 618.7 L 650.0 619.3 L 700.0 622.9 L 750.0 625.8 L 800.0 630.2 L 850.0 634.2 L 900.0 637.7 L 950.0 640.1 L 1000.0 640.1 L 1050.0 638.4 L 1100.0 635.8 L 1150.0 632.5 L 1200.0 627.4" stroke="rgba(10,10,8,0.30)" stroke-width="0.79" fill="none" />
<path d="M 0 640.6 L 50.0 656.4 L 100.0 652.4 L 150.0 646.0 L 200.0 639.7 L 250.0 633.7 L 300.0 628.3 L 350.0 625.8 L 400.0 624.9 L 450.0 625.8 L 500.0 629.4 L 550.0 634.7 L 600.0 641.0 L 650.0 648.4 L 700.0 652.5 L 750.0 655.4 L 800.0 657.2 L 850.0 655.5 L 900.0 651.8 L 950.0 647.1 L 1000.0 639.0 L 1050.0 634.3 L 1100.0 628.0 L 1150.0 625.0 L 1200.0 623.9" stroke="rgba(10,10,8,0.55)" stroke-width="1.19" fill="none" />
<path d="M 0 656.6 L 50.0 673.3 L 100.0 669.3 L 150.0 664.5 L 200.0 658.9 L 250.0 650.9 L 300.0 645.9 L 350.0 642.6 L 400.0 640.8 L 450.0 640.2 L 500.0 643.1 L 550.0 650.0 L 600.0 654.6 L 650.0 660.9 L 700.0 666.5 L 750.0 670.4 L 800.0 673.0 L 850.0 672.7 L 900.0 668.4 L 950.0 664.2 L 1000.0 659.1 L 1050.0 652.0 L 1100.0 646.0 L 1150.0 641.9 L 1200.0 639.6" stroke="rgba(10,10,8,0.52)" stroke-width="0.83" fill="none" />
<path d="M 0 667.6 L 50.0 656.9 L 100.0 657.0 L 150.0 657.5 L 200.0 660.5 L 250.0 665.4 L 300.0 670.7 L 350.0 675.1 L 400.0 678.4 L 450.0 679.0 L 500.0 679.3 L 550.0 678.1 L 600.0 674.3 L 650.0 670.3 L 700.0 665.8 L 750.0 660.2 L 800.0 656.8 L 850.0 655.8 L 900.0 655.7 L 950.0 658.4 L 1000.0 661.7 L 1050.0 665.2 L 1100.0 671.3 L 1150.0 673.7 L 1200.0 677.8" stroke="rgba(10,10,8,0.35)" stroke-width="0.54" fill="none" />
<path d="M 0 683.8 L 50.0 694.5 L 100.0 688.9 L 150.0 684.3 L 200.0 678.7 L 250.0 674.4 L 300.0 670.4 L 350.0 670.1 L 400.0 670.3 L 450.0 673.5 L 500.0 678.0 L 550.0 684.7 L 600.0 690.1 L 650.0 693.9 L 700.0 698.1 L 750.0 697.9 L 800.0 697.6 L 850.0 693.1 L 900.0 689.2 L 950.0 682.6 L 1000.0 677.1 L 1050.0 674.1 L 1100.0 670.2 L 1150.0 670.0 L 1200.0 670.6" stroke="rgba(10,10,8,0.28)" stroke-width="0.98" fill="none" />
<path d="M 0 697.9 L 50.0 689.6 L 100.0 682.1 L 150.0 678.2 L 200.0 676.8 L 250.0 679.1 L 300.0 683.6 L 350.0 690.3 L 400.0 696.9 L 450.0 705.8 L 500.0 713.0 L 550.0 718.0 L 600.0 718.9 L 650.0 717.1 L 700.0 713.1 L 750.0 705.5 L 800.0 697.5 L 850.0 690.3 L 900.0 682.3 L 950.0 679.0 L 1000.0 677.1 L 1050.0 678.8 L 1100.0 683.0 L 1150.0 688.6 L 1200.0 697.9" stroke="rgba(10,10,8,0.22)" stroke-width="0.42" fill="none" />
<path d="M 0 711.6 L 50.0 724.6 L 100.0 723.3 L 150.0 723.5 L 200.0 719.8 L 250.0 715.7 L 300.0 710.3 L 350.0 706.3 L 400.0 701.5 L 450.0 699.1 L 500.0 698.2 L 550.0 700.6 L 600.0 704.3 L 650.0 706.9 L 700.0 711.7 L 750.0 718.1 L 800.0 720.4 L 850.0 724.6 L 900.0 724.1 L 950.0 722.9 L 1000.0 720.4 L 1050.0 716.4 L 1100.0 711.1 L 1150.0 706.5 L 1200.0 702.8" stroke="rgba(10,10,8,0.29)" stroke-width="0.90" fill="none" />
<path d="M 0 724.6 L 50.0 715.8 L 100.0 712.6 L 150.0 710.8 L 200.0 713.2 L 250.0 715.4 L 300.0 720.1 L 350.0 725.3 L 400.0 730.8 L 450.0 733.8 L 500.0 735.7 L 550.0 738.3 L 600.0 735.3 L 650.0 733.1 L 700.0 729.2 L 750.0 724.8 L 800.0 718.5 L 850.0 715.1 L 900.0 712.2 L 950.0 712.0 L 1000.0 713.7 L 1050.0 716.7 L 1100.0 719.8 L 1150.0 724.9 L 1200.0 730.9" stroke="rgba(10,10,8,0.45)" stroke-width="0.62" fill="none" />
<path d="M 0 738.8 L 50.0 740.4 L 100.0 744.7 L 150.0 747.1 L 200.0 746.4 L 250.0 746.9 L 300.0 745.5 L 350.0 742.2 L 400.0 739.5 L 450.0 735.9 L 500.0 734.0 L 550.0 732.3 L 600.0 730.2 L 650.0 730.3 L 700.0 732.5 L 750.0 734.7 L 800.0 737.5 L 850.0 742.0 L 900.0 745.0 L 950.0 745.5 L 1000.0 746.5 L 1050.0 746.3 L 1100.0 744.8 L 1150.0 743.3 L 1200.0 739.8" stroke="rgba(10,10,8,0.49)" stroke-width="0.41" fill="none" />
<path d="M 0 749.4 L 50.0 741.1 L 100.0 737.4 L 150.0 735.0 L 200.0 735.0 L 250.0 737.1 L 300.0 741.2 L 350.0 746.8 L 400.0 751.1 L 450.0 757.2 L 500.0 761.3 L 550.0 763.4 L 600.0 764.9 L 650.0 762.0 L 700.0 757.9 L 750.0 752.8 L 800.0 747.0 L 850.0 740.7 L 900.0 738.0 L 950.0 734.1 L 1000.0 735.3 L 1050.0 736.6 L 1100.0 741.3 L 1150.0 745.1 L 1200.0 752.0" stroke="rgba(10,10,8,0.46)" stroke-width="1.16" fill="none" />
<path d="M 0 763.3 L 50.0 775.4 L 100.0 776.0 L 150.0 777.2 L 200.0 773.4 L 250.0 770.8 L 300.0 766.1 L 350.0 760.1 L 400.0 754.6 L 450.0 751.0 L 500.0 749.5 L 550.0 750.8 L 600.0 751.6 L 650.0 755.4 L 700.0 760.8 L 750.0 766.6 L 800.0 771.2 L 850.0 774.4 L 900.0 777.4 L 950.0 777.2 L 1000.0 775.2 L 1050.0 770.2 L 1100.0 765.5 L 1150.0 760.6 L 1200.0 755.0" stroke="rgba(10,10,8,0.43)" stroke-width="0.97" fill="none" />
<path d="M 0 773.8 L 50.0 754.8 L 100.0 761.1 L 150.0 767.2 L 200.0 776.0 L 250.0 784.4 L 300.0 790.1 L 350.0 794.8 L 400.0 795.6 L 450.0 792.7 L 500.0 787.4 L 550.0 780.1 L 600.0 771.3 L 650.0 763.7 L 700.0 757.7 L 750.0 752.9 L 800.0 751.7 L 850.0 755.2 L 900.0 760.7 L 950.0 767.6 L 1000.0 775.8 L 1050.0 784.6 L 1100.0 789.6 L 1150.0 794.4 L 1200.0 794.3" stroke="rgba(10,10,8,0.34)" stroke-width="0.86" fill="none" />
<path d="M 0 787.5 L 50.0 784.0 L 100.0 793.2 L 150.0 800.4 L 200.0 805.5 L 250.0 808.3 L 300.0 806.2 L 350.0 803.4 L 400.0 797.5 L 450.0 790.9 L 500.0 782.0 L 550.0 775.5 L 600.0 769.8 L 650.0 768.2 L 700.0 768.8 L 750.0 770.9 L 800.0 777.3 L 850.0 783.6 L 900.0 791.5 L 950.0 800.4 L 1000.0 804.1 L 1050.0 808.4 L 1100.0 806.6 L 1150.0 804.1 L 1200.0 797.9" stroke="rgba(10,10,8,0.24)" stroke-width="0.57" fill="none" />
    </g>
    <rect width="100%" height="100%" fill="url(#vignette-ash-top)"/>
  </g>
</svg>