<?xml version="1.0" encoding="UTF-8"?>
<svg xmlns="http://www.w3.org/2000/svg" viewBox="0 0 1200 600" preserveAspectRatio="xMidYMid slice" role="img" aria-label="ash side">
  <defs>
    <radialGradient id="bg-ash-side" cx="50%" cy="40%" r="80%">
      <stop offset="0%" stop-color="#161410"/>
      <stop offset="100%" stop-color="#0a0a08"/>
    </radialGradient>
    <linearGradient id="wood-ash-side" x1="0" y1="0" x2="1" y2="1">
      <stop offset="0%" stop-color="#b29770"/>
      <stop offset="50%" stop-color="#c4a981"/>
      <stop offset="100%" stop-color="#d8c197"/>
    </linearGradient>
    <radialGradient id="vignette-ash-side" cx="50%" cy="50%" r="65%">
      <stop offset="60%" stop-color="rgba(0,0,0,0)"/>
      <stop offset="100%" stop-color="rgba(0,0,0,0.45)"/>
    </radialGradient>
    <clipPath id="clip-ash-side">
      <path d="M120 280 L1080 280 L1080 320 L120 320 Z"/>
    </clipPath>
  </defs>
  <rect width="100%" height="100%" fill="url(#bg-ash-side)"/>
  <g clip-path="url(#clip-ash-side)">
    <rect width="100%" height="100%" fill="url(#wood-ash-side)"/>
    <g opacity="0.45">
      <path d="M 0 1.4 L 50.0 -8.7 L 100.0 -6.4 L 150.0 -1.5 L 200.0 2.3 L 250.0 7.8 L 300.0 11.6 L 350.0 12.6 L 400.0 13.9 L 450.0 11.6 L 500.0 10.0 L 550.0 4.5 L 600.0 -0.6 L 650.0 -4.2 L 700.0 -8.9 L 750.0 -9.3 L 800.0 -10.4 L 850.0 -9.3 L 900.0 -6.6 L 950.0 -1.4 L 1000.0 2.0 L 1050.0 7.8 L 1100.0 10.9 L 1150.0 13.1 L 1200.0 13.8" stroke="rgba(10,10,8,0.53)" stroke-width="0.86" fill="none" />
<path d="M 0 33.5 L 50.0 45.2 L 100.0 48.8 L 150.0 48.9 L 200.0 48.6 L 250.0 43.6 L 300.0 39.7 L 350.0 32.3 L 400.0 27.9 L 450.0 22.8 L 500.0 19.2 L 550.0 17.9 L 600.0 20.0 L 650.0 21.9 L 700.0 27.9 L 750.0 33.8 L 800.0 40.5 L 850.0 44.3 L 900.0 48.9 L 950.0 48.6 L 1000.0 47.0 L 1050.0 44.4 L 1100.0 39.5 L 1150.0 33.0 L 1200.0 27.9" stroke="rgba(10,10,8,0.42)" stroke-width="1.03" fill="none" />
<path d="M 0 68.9 L 50.0 61.3 L 100.0 57.7 L 150.0 54.1 L 200.0 54.3 L 250.0 56.7 L 300.0 61.0 L 350.0 65.6 L 400.0 71.4 L 450.0 75.7 L 500.0 80.8 L 550.0 82.6 L 600.0 83.5 L 650.0 82.1 L 700.0 76.6 L 750.0 72.6 L 800.0 67.5 L 850.0 60.8 L 900.0 57.2 L 950.0 55.4 L 1000.0 53.8 L 1050.0 56.6 L 1100.0 59.4 L 1150.0 64.9 L 1200.0 70.7" stroke="rgba(10,10,8,0.30)" stroke-width="0.46" fill="none" />
<path d="M 0 101.8 L 50.0 108.2 L 100.0 114.5 L 150.0 117.8 L 200.0 119.5 L 250.0 118.3 L 300.0 115.9 L 350.0 109.2 L 400.0 103.9 L 450.0 95.8 L 500.0 90.6 L 550.0 86.0 L 600.0 84.3 L 650.0 85.1 L 700.0 88.8 L 750.0 93.5 L 800.0 100.2 L 850.0 107.9 L 900.0 113.8 L 950.0 118.8 L 1000.0 120.4 L 1050.0 119.3 L 1100.0 116.3 L 1150.0 109.7 L 1200.0 102.5" stroke="rgba(10,10,8,0.51)" stroke-width="0.51" fill="none" />
<path d="M 0 137.2 L 50.0 145.0 L 100.0 141.9 L 150.0 138.7 L 200.0 135.4 L 250.0 131.1 L 300.0 129.1 L 350.0 128.5 L 400.0 128.3 L 450.0 129.1 L 500.0 132.5 L 550.0 135.3 L 600.0 139.4 L 650.0 143.1 L 700.0 145.5 L 750.0 146.4 L 800.0 147.5 L 850.0 145.0 L 900.0 143.2 L 950.0 139.5 L 1000.0 135.0 L 1050.0 132.0 L 1100.0 129.4 L 1150.0 126.6 L 1200.0 127.3" stroke="rgba(10,10,8,0.34)" stroke-width="1.01" fill="none" />
<path d="M 0 168.1 L 50.0 171.7 L 100.0 178.3 L 150.0 184.7 L 200.0 188.7 L 250.0 190.5 L 300.0 186.7 L 350.0 180.5 L 400.0 172.5 L 450.0 165.0 L 500.0 157.9 L 550.0 151.2 L 600.0 147.5 L 650.0 145.6 L 700.0 149.6 L 750.0 155.2 L 800.0 163.4 L 850.0 170.3 L 900.0 179.0 L 950.0 186.1 L 1000.0 188.9 L 1050.0 189.7 L 1100.0 186.2 L 1150.0 181.9 L 1200.0 173.4" stroke="rgba(10,10,8,0.39)" stroke-width="0.60" fill="none" />
<path d="M 0 203.8 L 50.0 194.0 L 100.0 197.3 L 150.0 201.5 L 200.0 204.7 L 250.0 208.9 L 300.0 213.4 L 350.0 214.7 L 400.0 215.1 L 450.0 213.4 L 500.0 211.4 L 550.0 207.8 L 600.0 203.1 L 650.0 198.2 L 700.0 195.6 L 750.0 193.0 L 800.0 193.1 L 850.0 193.9 L 900.0 197.2 L 950.0 199.8 L 1000.0 204.6 L 1050.0 210.2 L 1100.0 213.4 L 1150.0 215.1 L 1200.0 215.4" stroke="rgba(10,10,8,0.51)" stroke-width="0.82" fill="none" />
<path d="M 0 236.8 L 50.0 227.5 L 100.0 228.9 L 150.0 233.4 L 200.0 236.4 L 250.0 240.5 L 300.0 243.6 L 350.0 246.0 L 400.0 247.0 L 450.0 246.7 L 500.0 243.2 L 550.0 241.0 L 600.0 236.4 L 650.0 233.3 L 700.0 230.7 L 750.0 227.0 L 800.0 226.7 L 850.0 227.0 L 900.0 229.2 L 950.0 232.4 L 1000.0 235.5 L 1050.0 241.4 L 1100.0 243.7 L 1150.0 245.9 L 1200.0 246.8" stroke="rgba(10,10,8,0.28)" stroke-width="1.15" fill="none" />
<path d="M 0 267.3 L 50.0 276.5 L 100.0 283.0 L 150.0 286.9 L 200.0 290.1 L 250.0 287.1 L 300.0 282.0 L 350.0 273.8 L 400.0 265.4 L 450.0 258.4 L 500.0 252.1 L 550.0 246.4 L 600.0 244.7 L 650.0 247.0 L 700.0 253.1 L 750.0 259.3 L 800.0 268.0 L 850.0 277.2 L 900.0 283.2 L 950.0 288.2 L 1000.0 290.0 L 1050.0 286.2 L 1100.0 282.2 L 1150.0 274.5 L 1200.0 266.4" stroke="rgba(10,10,8,0.39)" stroke-width="0.92" fill="none" />
<path d="M 0 301.9 L 50.0 322.9 L 100.0 320.1 L 150.0 316.4 L 200.0 310.1 L 250.0 302.6 L 300.0 294.9 L 350.0 288.3 L 400.0 283.9 L 450.0 281.5 L 500.0 283.8 L 550.0 286.5 L 600.0 293.0 L 650.0 301.5 L 700.0 310.2 L 750.0 315.3 L 800.0 321.2 L 850.0 322.7 L 900.0 321.7 L 950.0 316.5 L 1000.0 310.8 L 1050.0 303.1 L 1100.0 294.9 L 1150.0 288.4 L 1200.0 283.1" stroke="rgba(10,10,8,0.53)" stroke-width="1.07" fill="none" />
<path d="M 0 338.6 L 50.0 328.5 L 100.0 322.9 L 150.0 320.5 L 200.0 321.5 L 250.0 323.9 L 300.0 329.5 L 350.0 336.3 L 400.0 344.0 L 450.0 349.4 L 500.0 353.5 L 550.0 356.8 L 600.0 356.5 L 650.0 353.9 L 700.0 346.9 L 750.0 341.7 L 800.0 333.6 L 850.0 327.7 L 900.0 324.0 L 950.0 320.7 L 1000.0 320.6 L 1050.0 324.4 L 1100.0 330.4 L 1150.0 336.4 L 1200.0 342.3" stroke="rgba(10,10,8,0.27)" stroke-width="0.70" fill="none" />
<path d="M 0 366.9 L 50.0 352.7 L 100.0 355.5 L 150.0 359.8 L 200.0 366.7 L 250.0 372.5 L 300.0 376.8 L 350.0 380.5 L 400.0 383.4 L 450.0 382.3 L 500.0 378.7 L 550.0 372.7 L 600.0 368.2 L 650.0 361.7 L 700.0 356.4 L 750.0 353.0 L 800.0 351.2 L 850.0 352.8 L 900.0 355.8 L 950.0 360.7 L 1000.0 367.4 L 1050.0 371.8 L 1100.0 377.5 L 1150.0 381.7 L 1200.0 382.8" stroke="rgba(10,10,8,0.33)" stroke-width="0.68" fill="none" />
<path d="M 0 402.7 L 50.0 414.8 L 100.0 408.5 L 150.0 400.9 L 200.0 395.6 L 250.0 389.5 L 300.0 385.7 L 350.0 383.7 L 400.0 385.4 L 450.0 389.7 L 500.0 395.4 L 550.0 402.9 L 600.0 411.5 L 650.0 416.0 L 700.0 420.5 L 750.0 422.1 L 800.0 420.9 L 850.0 416.1 L 900.0 409.0 L 950.0 401.3 L 1000.0 394.8 L 1050.0 388.4 L 1100.0 384.2 L 1150.0 383.2 L 1200.0 386.5" stroke="rgba(10,10,8,0.30)" stroke-width="0.51" fill="none" />
<path d="M 0 437.3 L 50.0 419.5 L 100.0 423.0 L 150.0 429.5 L 200.0 438.2 L 250.0 444.8 L 300.0 451.9 L 350.0 455.7 L 400.0 456.9 L 450.0 456.7 L 500.0 451.8 L 550.0 444.6 L 600.0 437.3 L 650.0 430.6 L 700.0 424.0 L 750.0 419.3 L 800.0 418.0 L 850.0 418.9 L 900.0 422.6 L 950.0 430.2 L 1000.0 437.8 L 1050.0 444.8 L 1100.0 450.8 L 1150.0 456.5 L 1200.0 457.5" stroke="rgba(10,10,8,0.33)" stroke-width="0.54" fill="none" />
<path d="M 0 467.5 L 50.0 484.3 L 100.0 480.5 L 150.0 473.6 L 200.0 466.1 L 250.0 460.5 L 300.0 453.3 L 350.0 450.6 L 400.0 449.5 L 450.0 451.9 L 500.0 454.8 L 550.0 460.9 L 600.0 467.8 L 650.0 475.1 L 700.0 480.6 L 750.0 484.0 L 800.0 485.5 L 850.0 484.7 L 900.0 479.2 L 950.0 473.9 L 1000.0 466.8 L 1050.0 460.5 L 1100.0 454.3 L 1150.0 449.2 L 1200.0 449.8" stroke="rgba(10,10,8,0.25)" stroke-width="0.75" fill="none" />
<path d="M 0 500.7 L 50.0 507.9 L 100.0 507.2 L 150.0 504.3 L 200.0 500.9 L 250.0 496.8 L 300.0 495.1 L 350.0 491.9 L 400.0 492.6 L 450.0 492.9 L 500.0 494.9 L 550.0 497.3 L 600.0 500.2 L 650.0 503.9 L 700.0 506.7 L 750.0 507.9 L 800.0 508.4 L 850.0 508.7 L 900.0 505.7 L 950.0 503.3 L 1000.0 500.4 L 1050.0 497.2 L 1100.0 494.5 L 1150.0 492.5 L 1200.0 492.8" stroke="rgba(10,10,8,0.48)" stroke-width="0.82" fill="none" />
<path d="M 0 539.3 L 50.0 538.0 L 100.0 530.9 L 150.0 525.4 L 200.0 522.5 L 250.0 520.8 L 300.0 523.3 L 350.0 527.3 L 400.0 534.4 L 450.0 540.6 L 500.0 547.4 L 550.0 552.7 L 600.0 556.2 L 650.0 557.2 L 700.0 554.9 L 750.0 550.1 L 800.0 544.3 L 850.0 538.1 L 900.0 530.9 L 950.0 525.6 L 1000.0 521.0 L 1050.0 521.9 L 1100.0 523.2 L 1150.0 527.2 L 1200.0 535.1" stroke="rgba(10,10,8,0.48)" stroke-width="0.74" fill="none" />
<path d="M 0 569.6 L 50.0 552.7 L 100.0 552.0 L 150.0 553.1 L 200.0 557.1 L 250.0 562.8 L 300.0 569.6 L 350.0 577.5 L 400.0 582.0 L 450.0 585.3 L 500.0 587.3 L 550.0 585.7 L 600.0 581.9 L 650.0 575.1 L 700.0 568.9 L 750.0 562.0 L 800.0 557.6 L 850.0 552.6 L 900.0 551.6 L 950.0 554.7 L 1000.0 558.8 L 1050.0 563.8 L 1100.0 570.8 L 1150.0 576.7 L 1200.0 581.7" stroke="rgba(10,10,8,0.50)" stroke-width="0.40" fill="none" />
    </g>
    <rect width="100%" height="100%" fill="url(#vignette-ash-side)"/>
  </g>
</svg>