<?xml version="1.0" encoding="UTF-8"?>
<svg xmlns="http://www.w3.org/2000/svg" viewBox="0 0 1200 600" preserveAspectRatio="xMidYMid slice" role="img" aria-label="cedar side">
  <defs>
    <radialGradient id="bg-cedar-side" cx="50%" cy="40%" r="80%">
      <stop offset="0%" stop-color="#161410"/>
      <stop offset="100%" stop-color="#0a0a08"/>
    </radialGradient>
    <linearGradient id="wood-cedar-side" x1="0" y1="0" x2="1" y2="1">
      <stop offset="0%" stop-color="#6d4628"/>
      <stop offset="50%" stop-color="#8a5b37"/>
      <stop offset="100%" stop-color="#a87a4f"/>
    </linearGradient>
    <radialGradient id="vignette-cedar-side" cx="50%" cy="50%" r="65%">
      <stop offset="60%" stop-color="rgba(0,0,0,0)"/>
      <stop offset="100%" stop-color="rgba(0,0,0,0.45)"/>
    </radialGradient>
    <clipPath id="clip-cedar-side">
      <path d="M120 280 L1080 280 L1080 320 L120 320 Z"/>
    </clipPath>
  </defs>
  <rect width="100%" height="100%" fill="url(#bg-cedar-side)"/>
  <g clip-path="url(#clip-cedar-side)">
    <rect width="100%" height="100%" fill="url(#wood-cedar-side)"/>
    <g opacity="0.40">
      <path d="M 0 4.3 L 50.0 11.6 L 100.0 13.3 L 150.0 14.7 L 200.0 12.2 L 250.0 9.8 L 300.0 7.1 L 350.0 2.1 L 400.0 -0.3 L 450.0 -4.5 L 500.0 -5.6 L 550.0 -6.4 L 600.0 -4.4 L 650.0 -1.9 L 700.0 1.9 L 750.0 4.9 L 800.0 9.4 L 850.0 12.5 L 900.0 14.0 L 950.0 13.6 L 1000.0 13.3 L 1050.0 9.6 L 1100.0 7.7 L 1150.0 2.7 L 1200.0 -0.9" stroke="rgba(10,10,8,0.27)" stroke-width="1.18" fill="none" />
<path d="M 0 37.8 L 50.0 30.5 L 100.0 33.3 L 150.0 37.0 L 200.0 40.1 L 250.0 43.8 L 300.0 45.6 L 350.0 48.4 L 400.0 46.4 L 450.0 44.6 L 500.0 42.0 L 550.0 38.8 L 600.0 34.7 L 650.0 30.7 L 700.0 28.3 L 750.0 27.3 L 800.0 28.4 L 850.0 31.2 L 900.0 33.6 L 950.0 37.2 L 1000.0 40.5 L 1050.0 43.5 L 1100.0 47.5 L 1150.0 48.3 L 1200.0 46.7" stroke="rgba(10,10,8,0.29)" stroke-width="0.47" fill="none" />
<path d="M 0 70.8 L 50.0 84.2 L 100.0 79.5 L 150.0 73.2 L 200.0 64.8 L 250.0 60.2 L 300.0 55.0 L 350.0 52.5 L 400.0 53.7 L 450.0 56.4 L 500.0 63.1 L 550.0 69.7 L 600.0 75.8 L 650.0 82.2 L 700.0 86.2 L 750.0 89.0 L 800.0 88.6 L 850.0 84.9 L 900.0 79.6 L 950.0 72.1 L 1000.0 65.1 L 1050.0 59.9 L 1100.0 54.4 L 1150.0 52.8 L 1200.0 54.7" stroke="rgba(10,10,8,0.43)" stroke-width="0.56" fill="none" />
<path d="M 0 104.9 L 50.0 100.7 L 100.0 96.0 L 150.0 92.7 L 200.0 91.7 L 250.0 91.9 L 300.0 96.0 L 350.0 99.2 L 400.0 104.0 L 450.0 110.3 L 500.0 114.0 L 550.0 118.1 L 600.0 118.4 L 650.0 116.8 L 700.0 113.5 L 750.0 111.0 L 800.0 104.9 L 850.0 100.6 L 900.0 94.8 L 950.0 92.1 L 1000.0 92.2 L 1050.0 92.7 L 1100.0 94.8 L 1150.0 99.4 L 1200.0 105.3" stroke="rgba(10,10,8,0.43)" stroke-width="1.09" fill="none" />
<path d="M 0 133.7 L 50.0 114.2 L 100.0 118.1 L 150.0 124.4 L 200.0 132.9 L 250.0 140.1 L 300.0 147.8 L 350.0 153.5 L 400.0 155.3 L 450.0 154.6 L 500.0 149.7 L 550.0 143.3 L 600.0 134.5 L 650.0 126.7 L 700.0 120.0 L 750.0 114.2 L 800.0 111.9 L 850.0 113.4 L 900.0 117.7 L 950.0 123.6 L 1000.0 133.5 L 1050.0 141.4 L 1100.0 147.5 L 1150.0 153.2 L 1200.0 155.5" stroke="rgba(10,10,8,0.28)" stroke-width="1.06" fill="none" />
<path d="M 0 171.3 L 50.0 185.3 L 100.0 183.2 L 150.0 178.6 L 200.0 173.3 L 250.0 168.5 L 300.0 164.1 L 350.0 158.4 L 400.0 156.4 L 450.0 156.2 L 500.0 160.0 L 550.0 163.5 L 600.0 169.2 L 650.0 174.9 L 700.0 179.4 L 750.0 184.2 L 800.0 185.6 L 850.0 185.0 L 900.0 183.5 L 950.0 179.0 L 1000.0 173.4 L 1050.0 168.0 L 1100.0 163.3 L 1150.0 159.5 L 1200.0 156.6" stroke="rgba(10,10,8,0.42)" stroke-width="0.50" fill="none" />
<path d="M 0 200.8 L 50.0 217.0 L 100.0 220.8 L 150.0 223.3 L 200.0 219.3 L 250.0 214.6 L 300.0 208.4 L 350.0 199.7 L 400.0 190.0 L 450.0 184.5 L 500.0 179.4 L 550.0 179.7 L 600.0 181.6 L 650.0 186.7 L 700.0 193.2 L 750.0 201.7 L 800.0 210.0 L 850.0 216.5 L 900.0 221.4 L 950.0 222.5 L 1000.0 219.6 L 1050.0 214.1 L 1100.0 208.4 L 1150.0 197.9 L 1200.0 190.9" stroke="rgba(10,10,8,0.25)" stroke-width="1.10" fill="none" />
<path d="M 0 235.0 L 50.0 245.7 L 100.0 244.7 L 150.0 241.4 L 200.0 238.6 L 250.0 232.7 L 300.0 230.6 L 350.0 226.9 L 400.0 225.0 L 450.0 223.8 L 500.0 225.3 L 550.0 229.3 L 600.0 232.4 L 650.0 235.7 L 700.0 239.8 L 750.0 243.5 L 800.0 245.8 L 850.0 244.7 L 900.0 244.1 L 950.0 241.4 L 1000.0 238.4 L 1050.0 234.1 L 1100.0 230.0 L 1150.0 227.3 L 1200.0 225.3" stroke="rgba(10,10,8,0.48)" stroke-width="0.96" fill="none" />
<path d="M 0 267.4 L 50.0 254.2 L 100.0 256.3 L 150.0 258.4 L 200.0 262.2 L 250.0 267.0 L 300.0 273.2 L 350.0 276.6 L 400.0 278.4 L 450.0 280.5 L 500.0 279.7 L 550.0 275.6 L 600.0 272.2 L 650.0 267.3 L 700.0 263.1 L 750.0 258.8 L 800.0 256.8 L 850.0 254.6 L 900.0 255.9 L 950.0 258.9 L 1000.0 264.0 L 1050.0 267.2 L 1100.0 272.6 L 1150.0 276.2 L 1200.0 279.1" stroke="rgba(10,10,8,0.42)" stroke-width="1.10" fill="none" />
<path d="M 0 304.5 L 50.0 302.1 L 100.0 305.4 L 150.0 309.7 L 200.0 311.6 L 250.0 313.3 L 300.0 312.3 L 350.0 310.9 L 400.0 310.1 L 450.0 306.0 L 500.0 302.3 L 550.0 300.9 L 600.0 297.6 L 650.0 295.4 L 700.0 296.1 L 750.0 297.1 L 800.0 299.6 L 850.0 301.6 L 900.0 305.7 L 950.0 309.7 L 1000.0 312.2 L 1050.0 313.4 L 1100.0 312.8 L 1150.0 311.6 L 1200.0 308.5" stroke="rgba(10,10,8,0.42)" stroke-width="0.45" fill="none" />
<path d="M 0 336.3 L 50.0 353.7 L 100.0 348.0 L 150.0 340.2 L 200.0 333.3 L 250.0 324.6 L 300.0 318.4 L 350.0 316.9 L 400.0 316.1 L 450.0 319.2 L 500.0 325.3 L 550.0 331.7 L 600.0 339.4 L 650.0 348.2 L 700.0 352.6 L 750.0 355.9 L 800.0 356.6 L 850.0 353.5 L 900.0 347.7 L 950.0 340.7 L 1000.0 331.5 L 1050.0 324.4 L 1100.0 319.2 L 1150.0 315.4 L 1200.0 317.1" stroke="rgba(10,10,8,0.27)" stroke-width="1.04" fill="none" />
<path d="M 0 371.8 L 50.0 362.2 L 100.0 365.9 L 150.0 370.9 L 200.0 375.5 L 250.0 380.5 L 300.0 382.6 L 350.0 384.8 L 400.0 384.2 L 450.0 381.3 L 500.0 378.4 L 550.0 373.2 L 600.0 367.9 L 650.0 363.7 L 700.0 360.2 L 750.0 358.3 L 800.0 359.1 L 850.0 363.2 L 900.0 365.9 L 950.0 371.8 L 1000.0 376.7 L 1050.0 380.7 L 1100.0 382.8 L 1150.0 384.8 L 1200.0 384.4" stroke="rgba(10,10,8,0.46)" stroke-width="0.84" fill="none" />
<path d="M 0 404.5 L 50.0 415.1 L 100.0 419.4 L 150.0 421.4 L 200.0 419.9 L 250.0 416.7 L 300.0 411.6 L 350.0 405.9 L 400.0 398.3 L 450.0 393.0 L 500.0 388.4 L 550.0 387.3 L 600.0 388.9 L 650.0 391.7 L 700.0 398.0 L 750.0 403.5 L 800.0 411.2 L 850.0 415.2 L 900.0 419.1 L 950.0 421.3 L 1000.0 419.2 L 1050.0 417.1 L 1100.0 411.6 L 1150.0 405.5 L 1200.0 397.9" stroke="rgba(10,10,8,0.31)" stroke-width="0.83" fill="none" />
<path d="M 0 438.2 L 50.0 444.2 L 100.0 447.2 L 150.0 448.3 L 200.0 446.7 L 250.0 444.9 L 300.0 443.1 L 350.0 438.7 L 400.0 436.0 L 450.0 431.9 L 500.0 429.7 L 550.0 428.5 L 600.0 429.2 L 650.0 430.4 L 700.0 433.7 L 750.0 437.7 L 800.0 440.3 L 850.0 443.9 L 900.0 447.6 L 950.0 447.1 L 1000.0 448.5 L 1050.0 445.7 L 1100.0 443.1 L 1150.0 438.2 L 1200.0 434.2" stroke="rgba(10,10,8,0.34)" stroke-width="0.55" fill="none" />
<path d="M 0 466.7 L 50.0 451.8 L 100.0 450.8 L 150.0 452.4 L 200.0 456.2 L 250.0 460.8 L 300.0 466.8 L 350.0 473.6 L 400.0 479.3 L 450.0 481.5 L 500.0 482.5 L 550.0 481.0 L 600.0 476.9 L 650.0 472.0 L 700.0 465.6 L 750.0 459.5 L 800.0 454.3 L 850.0 451.1 L 900.0 450.3 L 950.0 452.2 L 1000.0 454.7 L 1050.0 462.0 L 1100.0 468.1 L 1150.0 473.7 L 1200.0 478.0" stroke="rgba(10,10,8,0.23)" stroke-width="0.57" fill="none" />
<path d="M 0 501.4 L 50.0 484.3 L 100.0 482.2 L 150.0 482.9 L 200.0 487.8 L 250.0 494.5 L 300.0 500.9 L 350.0 508.7 L 400.0 515.3 L 450.0 518.6 L 500.0 519.7 L 550.0 519.6 L 600.0 515.0 L 650.0 509.3 L 700.0 501.2 L 750.0 494.2 L 800.0 487.1 L 850.0 483.2 L 900.0 483.1 L 950.0 484.0 L 1000.0 488.2 L 1050.0 495.0 L 1100.0 501.5 L 1150.0 509.6 L 1200.0 515.9" stroke="rgba(10,10,8,0.26)" stroke-width="0.70" fill="none" />
<path d="M 0 535.0 L 50.0 528.1 L 100.0 526.9 L 150.0 527.6 L 200.0 527.0 L 250.0 529.6 L 300.0 533.8 L 350.0 535.9 L 400.0 539.2 L 450.0 542.3 L 500.0 543.4 L 550.0 543.1 L 600.0 543.0 L 650.0 539.7 L 700.0 537.4 L 750.0 532.6 L 800.0 530.0 L 850.0 529.0 L 900.0 526.5 L 950.0 526.5 L 1000.0 527.3 L 1050.0 529.7 L 1100.0 532.8 L 1150.0 535.6 L 1200.0 538.9" stroke="rgba(10,10,8,0.38)" stroke-width="1.18" fill="none" />
<path d="M 0 570.9 L 50.0 579.6 L 100.0 578.7 L 150.0 573.8 L 200.0 570.1 L 250.0 565.0 L 300.0 562.9 L 350.0 559.5 L 400.0 559.4 L 450.0 561.8 L 500.0 564.0 L 550.0 567.8 L 600.0 572.7 L 650.0 576.1 L 700.0 579.5 L 750.0 581.3 L 800.0 581.9 L 850.0 580.9 L 900.0 576.8 L 950.0 575.0 L 1000.0 569.6 L 1050.0 566.5 L 1100.0 561.8 L 1150.0 561.4 L 1200.0 560.0" stroke="rgba(10,10,8,0.42)" stroke-width="1.16" fill="none" />
    </g>
    <rect width="100%" height="100%" fill="url(#vignette-cedar-side)"/>
  </g>
</svg>