<?xml version="1.0" encoding="UTF-8"?>
<svg xmlns="http://www.w3.org/2000/svg" viewBox="0 0 1200 800" preserveAspectRatio="xMidYMid slice" role="img" aria-label="cedar top">
  <defs>
    <radialGradient id="bg-cedar-top" cx="50%" cy="40%" r="80%">
      <stop offset="0%" stop-color="#161410"/>
      <stop offset="100%" stop-color="#0a0a08"/>
    </radialGradient>
    <linearGradient id="wood-cedar-top" x1="0" y1="0" x2="1" y2="1">
      <stop offset="0%" stop-color="#6d4628"/>
      <stop offset="50%" stop-color="#8a5b37"/>
      <stop offset="100%" stop-color="#a87a4f"/>
    </linearGradient>
    <radialGradient id="vignette-cedar-top" cx="50%" cy="50%" r="65%">
      <stop offset="60%" stop-color="rgba(0,0,0,0)"/>
      <stop offset="100%" stop-color="rgba(0,0,0,0.45)"/>
    </radialGradient>
    <clipPath id="clip-cedar-top">
      <path d="M600 120 C760 120 880 200 920 320 C960 440 920 560 820 620 C720 680 600 660 600 660 C600 660 480 680 380 620 C280 560 240 440 280 320 C320 200 440 120 600 120 Z"/>
    </clipPath>
  </defs>
  <rect width="100%" height="100%" fill="url(#bg-cedar-top)"/>
  <g clip-path="url(#clip-cedar-top)">
    <rect width="100%" height="100%" fill="url(#wood-cedar-top)"/>
    <g opacity="0.40">
      <path d="M 0 5.7 L 50.0 -1.6 L 100.0 -0.4 L 150.0 2.8 L 200.0 5.8 L 250.0 7.9 L 300.0 11.9 L 350.0 13.8 L 400.0 15.1 L 450.0 13.9 L 500.0 11.2 L 550.0 9.1 L 600.0 5.0 L 650.0 3.1 L 700.0 -0.8 L 750.0 -2.0 L 800.0 -2.1 L 850.0 -2.1 L 900.0 -0.3 L 950.0 3.1 L 1000.0 4.7 L 1050.0 8.6 L 1100.0 11.2 L 1150.0 14.5 L 1200.0 14.2" stroke="rgba(10,10,8,0.30)" stroke-width="0.94" fill="none" />
<path d="M 0 14.0 L 50.0 1.2 L 100.0 0.2 L 150.0 3.2 L 200.0 6.9 L 250.0 13.2 L 300.0 17.3 L 350.0 22.4 L 400.0 26.8 L 450.0 27.6 L 500.0 27.9 L 550.0 25.1 L 600.0 21.0 L 650.0 14.7 L 700.0 10.7 L 750.0 5.2 L 800.0 2.1 L 850.0 0.5 L 900.0 1.5 L 950.0 3.6 L 1000.0 7.2 L 1050.0 12.4 L 1100.0 18.2 L 1150.0 22.9 L 1200.0 26.3" stroke="rgba(10,10,8,0.23)" stroke-width="0.99" fill="none" />
<path d="M 0 31.7 L 50.0 43.9 L 100.0 43.6 L 150.0 40.1 L 200.0 35.6 L 250.0 32.8 L 300.0 27.5 L 350.0 23.9 L 400.0 20.0 L 450.0 19.5 L 500.0 20.0 L 550.0 23.9 L 600.0 26.5 L 650.0 32.4 L 700.0 36.4 L 750.0 40.2 L 800.0 42.0 L 850.0 44.1 L 900.0 43.1 L 950.0 39.8 L 1000.0 36.3 L 1050.0 32.4 L 1100.0 27.4 L 1150.0 22.8 L 1200.0 20.8" stroke="rgba(10,10,8,0.49)" stroke-width="1.01" fill="none" />
<path d="M 0 43.4 L 50.0 54.4 L 100.0 50.4 L 150.0 46.7 L 200.0 42.6 L 250.0 38.5 L 300.0 36.2 L 350.0 33.8 L 400.0 32.9 L 450.0 34.0 L 500.0 35.0 L 550.0 38.6 L 600.0 43.6 L 650.0 47.9 L 700.0 51.7 L 750.0 53.1 L 800.0 54.5 L 850.0 54.5 L 900.0 50.9 L 950.0 47.4 L 1000.0 43.0 L 1050.0 39.1 L 1100.0 36.1 L 1150.0 32.8 L 1200.0 31.5" stroke="rgba(10,10,8,0.22)" stroke-width="0.59" fill="none" />
<path d="M 0 54.9 L 50.0 52.3 L 100.0 47.0 L 150.0 43.7 L 200.0 42.0 L 250.0 41.9 L 300.0 44.5 L 350.0 48.0 L 400.0 53.6 L 450.0 57.9 L 500.0 63.5 L 550.0 65.9 L 600.0 67.7 L 650.0 67.1 L 700.0 65.0 L 750.0 62.3 L 800.0 57.3 L 850.0 52.1 L 900.0 47.8 L 950.0 44.1 L 1000.0 41.1 L 1050.0 41.4 L 1100.0 44.9 L 1150.0 47.4 L 1200.0 52.3" stroke="rgba(10,10,8,0.41)" stroke-width="0.69" fill="none" />
<path d="M 0 69.9 L 50.0 63.6 L 100.0 67.2 L 150.0 71.4 L 200.0 76.9 L 250.0 79.6 L 300.0 80.7 L 350.0 79.4 L 400.0 79.0 L 450.0 76.2 L 500.0 72.4 L 550.0 66.8 L 600.0 64.7 L 650.0 61.5 L 700.0 59.4 L 750.0 59.7 L 800.0 61.0 L 850.0 63.8 L 900.0 67.4 L 950.0 71.4 L 1000.0 75.1 L 1050.0 78.1 L 1100.0 79.9 L 1150.0 81.3 L 1200.0 79.0" stroke="rgba(10,10,8,0.27)" stroke-width="0.85" fill="none" />
<path d="M 0 82.2 L 50.0 95.4 L 100.0 92.4 L 150.0 88.7 L 200.0 84.7 L 250.0 78.4 L 300.0 74.1 L 350.0 70.7 L 400.0 69.8 L 450.0 70.2 L 500.0 72.6 L 550.0 75.3 L 600.0 79.6 L 650.0 85.9 L 700.0 89.8 L 750.0 93.5 L 800.0 96.2 L 850.0 95.8 L 900.0 92.3 L 950.0 88.3 L 1000.0 84.3 L 1050.0 78.1 L 1100.0 73.1 L 1150.0 69.9 L 1200.0 69.0" stroke="rgba(10,10,8,0.45)" stroke-width="0.83" fill="none" />
<path d="M 0 97.2 L 50.0 96.0 L 100.0 90.0 L 150.0 83.8 L 200.0 79.7 L 250.0 78.8 L 300.0 80.1 L 350.0 84.1 L 400.0 90.8 L 450.0 98.2 L 500.0 104.9 L 550.0 109.1 L 600.0 114.3 L 650.0 114.9 L 700.0 114.3 L 750.0 109.0 L 800.0 103.4 L 850.0 96.8 L 900.0 90.0 L 950.0 85.2 L 1000.0 79.9 L 1050.0 78.4 L 1100.0 81.1 L 1150.0 84.8 L 1200.0 90.5" stroke="rgba(10,10,8,0.26)" stroke-width="0.47" fill="none" />
<path d="M 0 107.5 L 50.0 115.7 L 100.0 119.5 L 150.0 122.8 L 200.0 122.2 L 250.0 120.4 L 300.0 114.5 L 350.0 109.8 L 400.0 104.9 L 450.0 99.9 L 500.0 95.9 L 550.0 92.6 L 600.0 93.9 L 650.0 95.9 L 700.0 100.4 L 750.0 104.7 L 800.0 110.2 L 850.0 115.0 L 900.0 120.8 L 950.0 122.8 L 1000.0 121.0 L 1050.0 120.3 L 1100.0 114.6 L 1150.0 109.9 L 1200.0 104.5" stroke="rgba(10,10,8,0.27)" stroke-width="0.79" fill="none" />
<path d="M 0 122.7 L 50.0 106.7 L 100.0 112.3 L 150.0 117.4 L 200.0 123.9 L 250.0 129.6 L 300.0 135.1 L 350.0 139.0 L 400.0 139.1 L 450.0 138.3 L 500.0 134.3 L 550.0 128.1 L 600.0 122.4 L 650.0 116.4 L 700.0 111.1 L 750.0 106.2 L 800.0 106.9 L 850.0 107.2 L 900.0 110.8 L 950.0 116.4 L 1000.0 124.5 L 1050.0 129.4 L 1100.0 135.8 L 1150.0 138.0 L 1200.0 140.1" stroke="rgba(10,10,8,0.36)" stroke-width="0.95" fill="none" />
<path d="M 0 135.2 L 50.0 120.1 L 100.0 120.3 L 150.0 122.9 L 200.0 127.2 L 250.0 131.8 L 300.0 138.4 L 350.0 143.0 L 400.0 146.5 L 450.0 150.3 L 500.0 150.3 L 550.0 148.3 L 600.0 142.9 L 650.0 137.6 L 700.0 131.8 L 750.0 128.2 L 800.0 123.8 L 850.0 120.2 L 900.0 121.3 L 950.0 122.6 L 1000.0 126.9 L 1050.0 131.3 L 1100.0 137.2 L 1150.0 143.6 L 1200.0 146.9" stroke="rgba(10,10,8,0.44)" stroke-width="0.40" fill="none" />
<path d="M 0 151.2 L 50.0 145.0 L 100.0 147.7 L 150.0 152.7 L 200.0 155.9 L 250.0 159.5 L 300.0 162.6 L 350.0 163.2 L 400.0 161.2 L 450.0 158.8 L 500.0 154.6 L 550.0 150.1 L 600.0 146.7 L 650.0 142.8 L 700.0 141.0 L 750.0 140.7 L 800.0 141.4 L 850.0 144.4 L 900.0 148.5 L 950.0 152.6 L 1000.0 156.4 L 1050.0 159.2 L 1100.0 161.5 L 1150.0 162.6 L 1200.0 160.7" stroke="rgba(10,10,8,0.52)" stroke-width="0.91" fill="none" />
<path d="M 0 165.4 L 50.0 164.0 L 100.0 167.0 L 150.0 171.6 L 200.0 173.1 L 250.0 173.4 L 300.0 174.3 L 350.0 172.0 L 400.0 168.7 L 450.0 165.9 L 500.0 162.7 L 550.0 159.4 L 600.0 158.6 L 650.0 157.5 L 700.0 158.0 L 750.0 159.2 L 800.0 162.3 L 850.0 164.4 L 900.0 167.3 L 950.0 170.4 L 1000.0 172.4 L 1050.0 174.5 L 1100.0 173.0 L 1150.0 172.7 L 1200.0 168.5" stroke="rgba(10,10,8,0.31)" stroke-width="0.99" fill="none" />
<path d="M 0 175.6 L 50.0 193.5 L 100.0 191.9 L 150.0 188.4 L 200.0 181.8 L 250.0 175.1 L 300.0 167.5 L 350.0 161.0 L 400.0 157.2 L 450.0 156.5 L 500.0 159.1 L 550.0 163.7 L 600.0 169.3 L 650.0 176.2 L 700.0 184.7 L 750.0 189.1 L 800.0 192.9 L 850.0 195.4 L 900.0 191.7 L 950.0 187.4 L 1000.0 181.6 L 1050.0 174.3 L 1100.0 167.1 L 1150.0 161.8 L 1200.0 158.2" stroke="rgba(10,10,8,0.35)" stroke-width="0.56" fill="none" />
<path d="M 0 189.3 L 50.0 200.7 L 100.0 194.3 L 150.0 188.7 L 200.0 182.9 L 250.0 176.9 L 300.0 174.0 L 350.0 174.4 L 400.0 174.5 L 450.0 179.1 L 500.0 183.2 L 550.0 189.2 L 600.0 195.8 L 650.0 201.4 L 700.0 203.7 L 750.0 204.0 L 800.0 203.3 L 850.0 199.4 L 900.0 195.2 L 950.0 188.3 L 1000.0 182.3 L 1050.0 178.8 L 1100.0 175.4 L 1150.0 174.2 L 1200.0 174.6" stroke="rgba(10,10,8,0.39)" stroke-width="0.47" fill="none" />
<path d="M 0 204.7 L 50.0 191.3 L 100.0 198.3 L 150.0 204.0 L 200.0 211.8 L 250.0 216.7 L 300.0 221.8 L 350.0 221.5 L 400.0 221.3 L 450.0 216.6 L 500.0 211.4 L 550.0 204.0 L 600.0 197.8 L 650.0 191.6 L 700.0 187.6 L 750.0 187.9 L 800.0 188.9 L 850.0 191.4 L 900.0 197.5 L 950.0 205.0 L 1000.0 211.7 L 1050.0 216.2 L 1100.0 220.9 L 1150.0 221.7 L 1200.0 221.1" stroke="rgba(10,10,8,0.32)" stroke-width="1.04" fill="none" />
<path d="M 0 218.8 L 50.0 236.7 L 100.0 235.1 L 150.0 233.6 L 200.0 228.9 L 250.0 222.7 L 300.0 215.6 L 350.0 209.8 L 400.0 203.7 L 450.0 201.6 L 500.0 202.2 L 550.0 203.3 L 600.0 209.7 L 650.0 216.2 L 700.0 222.2 L 750.0 229.4 L 800.0 233.6 L 850.0 236.9 L 900.0 235.4 L 950.0 233.0 L 1000.0 229.2 L 1050.0 221.3 L 1100.0 215.1 L 1150.0 209.3 L 1200.0 205.0" stroke="rgba(10,10,8,0.32)" stroke-width="1.00" fill="none" />
<path d="M 0 228.5 L 50.0 216.8 L 100.0 213.8 L 150.0 213.9 L 200.0 216.6 L 250.0 218.9 L 300.0 223.7 L 350.0 229.6 L 400.0 236.1 L 450.0 240.3 L 500.0 242.6 L 550.0 244.1 L 600.0 241.2 L 650.0 236.9 L 700.0 232.7 L 750.0 225.8 L 800.0 222.1 L 850.0 215.9 L 900.0 213.2 L 950.0 212.9 L 1000.0 215.9 L 1050.0 219.5 L 1100.0 225.4 L 1150.0 230.9 L 1200.0 235.1" stroke="rgba(10,10,8,0.22)" stroke-width="1.15" fill="none" />
<path d="M 0 241.1 L 50.0 233.8 L 100.0 228.6 L 150.0 225.7 L 200.0 223.3 L 250.0 224.9 L 300.0 228.7 L 350.0 234.0 L 400.0 241.1 L 450.0 248.5 L 500.0 253.4 L 550.0 258.0 L 600.0 258.2 L 650.0 256.6 L 700.0 254.2 L 750.0 247.2 L 800.0 241.7 L 850.0 235.2 L 900.0 229.7 L 950.0 225.5 L 1000.0 223.5 L 1050.0 224.0 L 1100.0 228.8 L 1150.0 233.4 L 1200.0 241.9" stroke="rgba(10,10,8,0.42)" stroke-width="1.14" fill="none" />
<path d="M 0 259.3 L 50.0 248.8 L 100.0 246.3 L 150.0 247.8 L 200.0 249.7 L 250.0 253.3 L 300.0 259.3 L 350.0 262.6 L 400.0 266.7 L 450.0 269.9 L 500.0 270.5 L 550.0 271.0 L 600.0 268.2 L 650.0 264.2 L 700.0 260.7 L 750.0 255.0 L 800.0 250.5 L 850.0 247.6 L 900.0 247.0 L 950.0 248.7 L 1000.0 250.8 L 1050.0 253.1 L 1100.0 257.9 L 1150.0 263.2 L 1200.0 268.1" stroke="rgba(10,10,8,0.40)" stroke-width="1.00" fill="none" />
<path d="M 0 269.1 L 50.0 259.6 L 100.0 260.3 L 150.0 263.6 L 200.0 266.2 L 250.0 269.2 L 300.0 274.3 L 350.0 277.9 L 400.0 278.0 L 450.0 279.2 L 500.0 278.2 L 550.0 274.8 L 600.0 272.7 L 650.0 268.8 L 700.0 264.7 L 750.0 260.5 L 800.0 258.9 L 850.0 258.2 L 900.0 260.5 L 950.0 263.8 L 1000.0 266.6 L 1050.0 271.0 L 1100.0 274.2 L 1150.0 277.8 L 1200.0 278.3" stroke="rgba(10,10,8,0.39)" stroke-width="0.59" fill="none" />
<path d="M 0 281.3 L 50.0 287.5 L 100.0 290.6 L 150.0 291.1 L 200.0 289.3 L 250.0 288.2 L 300.0 284.9 L 350.0 280.6 L 400.0 276.4 L 450.0 274.7 L 500.0 273.1 L 550.0 272.4 L 600.0 273.5 L 650.0 275.8 L 700.0 279.3 L 750.0 281.5 L 800.0 286.0 L 850.0 288.2 L 900.0 290.7 L 950.0 289.9 L 1000.0 289.6 L 1050.0 287.9 L 1100.0 284.3 L 1150.0 280.9 L 1200.0 277.4" stroke="rgba(10,10,8,0.31)" stroke-width="0.58" fill="none" />
<path d="M 0 297.6 L 50.0 280.7 L 100.0 279.9 L 150.0 282.6 L 200.0 287.0 L 250.0 293.2 L 300.0 300.9 L 350.0 306.8 L 400.0 311.2 L 450.0 313.9 L 500.0 315.2 L 550.0 312.7 L 600.0 307.2 L 650.0 301.2 L 700.0 295.7 L 750.0 288.0 L 800.0 283.8 L 850.0 280.6 L 900.0 280.7 L 950.0 282.1 L 1000.0 287.6 L 1050.0 293.9 L 1100.0 299.6 L 1150.0 307.0 L 1200.0 312.5" stroke="rgba(10,10,8,0.27)" stroke-width="0.62" fill="none" />
<path d="M 0 311.7 L 50.0 297.8 L 100.0 302.3 L 150.0 307.4 L 200.0 313.0 L 250.0 319.8 L 300.0 324.0 L 350.0 327.4 L 400.0 328.4 L 450.0 326.6 L 500.0 322.6 L 550.0 316.9 L 600.0 310.6 L 650.0 302.6 L 700.0 298.9 L 750.0 295.0 L 800.0 294.9 L 850.0 297.0 L 900.0 301.9 L 950.0 306.7 L 1000.0 313.6 L 1050.0 319.1 L 1100.0 325.7 L 1150.0 327.0 L 1200.0 328.5" stroke="rgba(10,10,8,0.25)" stroke-width="0.48" fill="none" />
<path d="M 0 325.5 L 50.0 305.0 L 100.0 302.9 L 150.0 304.4 L 200.0 310.5 L 250.0 317.1 L 300.0 324.0 L 350.0 333.4 L 400.0 340.5 L 450.0 346.1 L 500.0 347.4 L 550.0 346.3 L 600.0 342.1 L 650.0 333.9 L 700.0 326.6 L 750.0 317.8 L 800.0 311.6 L 850.0 304.7 L 900.0 303.2 L 950.0 304.8 L 1000.0 308.7 L 1050.0 316.5 L 1100.0 325.2 L 1150.0 332.5 L 1200.0 340.8" stroke="rgba(10,10,8,0.35)" stroke-width="1.02" fill="none" />
<path d="M 0 334.2 L 50.0 344.4 L 100.0 337.3 L 150.0 328.7 L 200.0 322.5 L 250.0 317.5 L 300.0 314.9 L 350.0 315.0 L 400.0 317.7 L 450.0 324.6 L 500.0 331.9 L 550.0 339.0 L 600.0 346.4 L 650.0 351.3 L 700.0 353.7 L 750.0 355.0 L 800.0 350.4 L 850.0 344.0 L 900.0 337.9 L 950.0 329.9 L 1000.0 322.8 L 1050.0 317.1 L 1100.0 313.0 L 1150.0 315.2 L 1200.0 318.6" stroke="rgba(10,10,8,0.30)" stroke-width="0.72" fill="none" />
<path d="M 0 350.8 L 50.0 340.9 L 100.0 349.0 L 150.0 357.5 L 200.0 363.6 L 250.0 370.0 L 300.0 371.9 L 350.0 371.2 L 400.0 366.9 L 450.0 360.3 L 500.0 352.1 L 550.0 343.7 L 600.0 337.5 L 650.0 332.1 L 700.0 329.6 L 750.0 329.8 L 800.0 333.9 L 850.0 339.8 L 900.0 348.4 L 950.0 357.5 L 1000.0 365.4 L 1050.0 369.3 L 1100.0 371.3 L 1150.0 371.7 L 1200.0 367.3" stroke="rgba(10,10,8,0.49)" stroke-width="0.88" fill="none" />
<path d="M 0 362.4 L 50.0 376.7 L 100.0 374.3 L 150.0 371.4 L 200.0 364.5 L 250.0 360.6 L 300.0 353.5 L 350.0 350.7 L 400.0 348.6 L 450.0 347.6 L 500.0 350.7 L 550.0 355.3 L 600.0 359.9 L 650.0 365.3 L 700.0 369.8 L 750.0 375.2 L 800.0 376.7 L 850.0 377.1 L 900.0 373.9 L 950.0 369.8 L 1000.0 364.3 L 1050.0 358.8 L 1100.0 355.0 L 1150.0 350.4 L 1200.0 347.2" stroke="rgba(10,10,8,0.22)" stroke-width="0.92" fill="none" />
<path d="M 0 375.7 L 50.0 369.1 L 100.0 371.6 L 150.0 374.9 L 200.0 379.6 L 250.0 381.7 L 300.0 384.5 L 350.0 383.8 L 400.0 384.7 L 450.0 382.6 L 500.0 379.2 L 550.0 376.3 L 600.0 373.8 L 650.0 370.6 L 700.0 367.1 L 750.0 366.8 L 800.0 367.2 L 850.0 368.7 L 900.0 371.9 L 950.0 375.0 L 1000.0 378.2 L 1050.0 381.8 L 1100.0 382.9 L 1150.0 384.6 L 1200.0 385.0" stroke="rgba(10,10,8,0.51)" stroke-width="0.58" fill="none" />
<path d="M 0 386.8 L 50.0 394.9 L 100.0 398.3 L 150.0 398.6 L 200.0 397.6 L 250.0 395.6 L 300.0 391.8 L 350.0 386.6 L 400.0 381.8 L 450.0 377.6 L 500.0 376.0 L 550.0 373.9 L 600.0 375.1 L 650.0 378.9 L 700.0 382.2 L 750.0 386.8 L 800.0 391.0 L 850.0 394.7 L 900.0 398.0 L 950.0 399.2 L 1000.0 397.9 L 1050.0 395.4 L 1100.0 392.6 L 1150.0 387.0 L 1200.0 382.8" stroke="rgba(10,10,8,0.49)" stroke-width="1.06" fill="none" />
<path d="M 0 404.5 L 50.0 405.3 L 100.0 413.0 L 150.0 416.9 L 200.0 421.4 L 250.0 421.5 L 300.0 418.4 L 350.0 415.9 L 400.0 409.9 L 450.0 403.8 L 500.0 396.4 L 550.0 391.7 L 600.0 388.1 L 650.0 388.4 L 700.0 389.5 L 750.0 393.8 L 800.0 399.5 L 850.0 406.3 L 900.0 413.0 L 950.0 417.9 L 1000.0 420.6 L 1050.0 421.7 L 1100.0 418.5 L 1150.0 415.8 L 1200.0 410.1" stroke="rgba(10,10,8,0.30)" stroke-width="1.16" fill="none" />
<path d="M 0 416.5 L 50.0 425.0 L 100.0 428.3 L 150.0 428.7 L 200.0 427.5 L 250.0 424.4 L 300.0 419.2 L 350.0 415.0 L 400.0 410.2 L 450.0 406.8 L 500.0 404.7 L 550.0 404.5 L 600.0 405.4 L 650.0 409.6 L 700.0 413.4 L 750.0 419.0 L 800.0 423.4 L 850.0 425.0 L 900.0 427.9 L 950.0 428.7 L 1000.0 426.8 L 1050.0 422.8 L 1100.0 419.2 L 1150.0 414.6 L 1200.0 409.8" stroke="rgba(10,10,8,0.27)" stroke-width="1.05" fill="none" />
<path d="M 0 432.4 L 50.0 430.2 L 100.0 424.0 L 150.0 419.5 L 200.0 416.8 L 250.0 414.8 L 300.0 417.5 L 350.0 421.9 L 400.0 426.7 L 450.0 433.4 L 500.0 440.0 L 550.0 445.9 L 600.0 449.3 L 650.0 450.2 L 700.0 448.3 L 750.0 443.1 L 800.0 437.8 L 850.0 432.0 L 900.0 424.4 L 950.0 418.3 L 1000.0 416.5 L 1050.0 415.5 L 1100.0 417.5 L 1150.0 421.4 L 1200.0 426.9" stroke="rgba(10,10,8,0.27)" stroke-width="1.08" fill="none" />
<path d="M 0 440.2 L 50.0 438.5 L 100.0 443.1 L 150.0 448.3 L 200.0 453.2 L 250.0 456.1 L 300.0 454.4 L 350.0 452.4 L 400.0 449.3 L 450.0 442.4 L 500.0 437.4 L 550.0 431.7 L 600.0 428.1 L 650.0 426.3 L 700.0 425.1 L 750.0 427.3 L 800.0 432.4 L 850.0 437.7 L 900.0 442.6 L 950.0 448.2 L 1000.0 453.6 L 1050.0 455.4 L 1100.0 455.7 L 1150.0 452.4 L 1200.0 448.1" stroke="rgba(10,10,8,0.28)" stroke-width="0.99" fill="none" />
<path d="M 0 457.1 L 50.0 471.5 L 100.0 466.2 L 150.0 460.4 L 200.0 454.5 L 250.0 447.8 L 300.0 444.0 L 350.0 440.6 L 400.0 440.7 L 450.0 443.0 L 500.0 448.8 L 550.0 452.7 L 600.0 460.4 L 650.0 465.6 L 700.0 471.2 L 750.0 472.8 L 800.0 473.8 L 850.0 470.5 L 900.0 467.1 L 950.0 461.4 L 1000.0 454.9 L 1050.0 448.3 L 1100.0 444.6 L 1150.0 441.6 L 1200.0 441.3" stroke="rgba(10,10,8,0.27)" stroke-width="0.62" fill="none" />
<path d="M 0 469.9 L 50.0 480.3 L 100.0 480.2 L 150.0 480.1 L 200.0 476.9 L 250.0 473.7 L 300.0 469.8 L 350.0 466.3 L 400.0 463.7 L 450.0 459.7 L 500.0 459.2 L 550.0 459.2 L 600.0 461.2 L 650.0 465.1 L 700.0 468.6 L 750.0 472.9 L 800.0 477.6 L 850.0 479.1 L 900.0 479.7 L 950.0 479.0 L 1000.0 477.3 L 1050.0 473.8 L 1100.0 470.7 L 1150.0 465.9 L 1200.0 463.5" stroke="rgba(10,10,8,0.51)" stroke-width="1.00" fill="none" />
<path d="M 0 482.1 L 50.0 492.9 L 100.0 492.2 L 150.0 491.9 L 200.0 486.8 L 250.0 484.4 L 300.0 478.9 L 350.0 474.3 L 400.0 471.5 L 450.0 470.0 L 500.0 471.5 L 550.0 472.4 L 600.0 476.1 L 650.0 480.4 L 700.0 484.6 L 750.0 489.1 L 800.0 491.9 L 850.0 492.3 L 900.0 492.4 L 950.0 491.1 L 1000.0 488.3 L 1050.0 483.8 L 1100.0 479.8 L 1150.0 474.2 L 1200.0 472.1" stroke="rgba(10,10,8,0.52)" stroke-width="0.49" fill="none" />
<path d="M 0 498.0 L 50.0 495.6 L 100.0 493.5 L 150.0 490.4 L 200.0 488.5 L 250.0 489.1 L 300.0 490.9 L 350.0 492.3 L 400.0 496.7 L 450.0 499.7 L 500.0 502.9 L 550.0 505.8 L 600.0 506.1 L 650.0 506.6 L 700.0 505.9 L 750.0 502.0 L 800.0 499.5 L 850.0 495.9 L 900.0 493.3 L 950.0 489.6 L 1000.0 488.5 L 1050.0 489.5 L 1100.0 491.2 L 1150.0 493.1 L 1200.0 496.0" stroke="rgba(10,10,8,0.54)" stroke-width="0.94" fill="none" />
<path d="M 0 512.0 L 50.0 532.8 L 100.0 531.9 L 150.0 529.9 L 200.0 525.6 L 250.0 518.8 L 300.0 510.1 L 350.0 503.0 L 400.0 496.6 L 450.0 492.1 L 500.0 492.0 L 550.0 493.5 L 600.0 498.7 L 650.0 506.8 L 700.0 514.7 L 750.0 522.2 L 800.0 527.8 L 850.0 531.8 L 900.0 533.0 L 950.0 530.7 L 1000.0 525.7 L 1050.0 518.7 L 1100.0 509.8 L 1150.0 501.9 L 1200.0 496.4" stroke="rgba(10,10,8,0.26)" stroke-width="0.91" fill="none" />
<path d="M 0 524.6 L 50.0 509.7 L 100.0 516.4 L 150.0 524.5 L 200.0 532.4 L 250.0 539.3 L 300.0 544.0 L 350.0 544.1 L 400.0 543.3 L 450.0 539.0 L 500.0 532.2 L 550.0 524.0 L 600.0 517.5 L 650.0 511.1 L 700.0 505.2 L 750.0 503.9 L 800.0 506.8 L 850.0 511.0 L 900.0 516.2 L 950.0 525.5 L 1000.0 532.6 L 1050.0 538.0 L 1100.0 542.9 L 1150.0 545.7 L 1200.0 542.7" stroke="rgba(10,10,8,0.37)" stroke-width="0.51" fill="none" />
<path d="M 0 533.8 L 50.0 514.3 L 100.0 520.0 L 150.0 524.8 L 200.0 533.8 L 250.0 541.9 L 300.0 547.9 L 350.0 552.0 L 400.0 553.9 L 450.0 553.3 L 500.0 548.4 L 550.0 543.0 L 600.0 533.5 L 650.0 526.5 L 700.0 520.5 L 750.0 515.9 L 800.0 513.8 L 850.0 514.4 L 900.0 518.6 L 950.0 525.3 L 1000.0 533.8 L 1050.0 539.9 L 1100.0 547.0 L 1150.0 553.0 L 1200.0 553.8" stroke="rgba(10,10,8,0.43)" stroke-width="0.48" fill="none" />
<path d="M 0 547.0 L 50.0 527.5 L 100.0 526.0 L 150.0 527.5 L 200.0 530.0 L 250.0 537.9 L 300.0 544.9 L 350.0 553.4 L 400.0 560.5 L 450.0 566.1 L 500.0 568.8 L 550.0 567.6 L 600.0 564.2 L 650.0 556.4 L 700.0 549.6 L 750.0 540.9 L 800.0 532.8 L 850.0 527.8 L 900.0 525.1 L 950.0 526.0 L 1000.0 530.9 L 1050.0 536.1 L 1100.0 545.2 L 1150.0 552.8 L 1200.0 560.8" stroke="rgba(10,10,8,0.53)" stroke-width="0.85" fill="none" />
<path d="M 0 562.3 L 50.0 561.7 L 100.0 567.8 L 150.0 572.9 L 200.0 576.8 L 250.0 576.8 L 300.0 576.8 L 350.0 573.9 L 400.0 568.2 L 450.0 563.6 L 500.0 556.5 L 550.0 553.2 L 600.0 548.7 L 650.0 547.6 L 700.0 547.3 L 750.0 551.0 L 800.0 554.7 L 850.0 560.6 L 900.0 566.5 L 950.0 572.2 L 1000.0 575.6 L 1050.0 577.9 L 1100.0 576.2 L 1150.0 572.9 L 1200.0 569.5" stroke="rgba(10,10,8,0.54)" stroke-width="1.14" fill="none" />
<path d="M 0 576.8 L 50.0 599.2 L 100.0 597.8 L 150.0 592.4 L 200.0 585.6 L 250.0 577.7 L 300.0 569.3 L 350.0 561.2 L 400.0 555.9 L 450.0 555.4 L 500.0 556.5 L 550.0 560.8 L 600.0 568.8 L 650.0 577.0 L 700.0 584.2 L 750.0 592.3 L 800.0 596.8 L 850.0 599.5 L 900.0 597.0 L 950.0 593.3 L 1000.0 586.1 L 1050.0 577.1 L 1100.0 568.4 L 1150.0 561.0 L 1200.0 556.1" stroke="rgba(10,10,8,0.32)" stroke-width="0.90" fill="none" />
<path d="M 0 587.5 L 50.0 576.6 L 100.0 575.1 L 150.0 574.6 L 200.0 576.6 L 250.0 580.1 L 300.0 585.9 L 350.0 590.6 L 400.0 595.9 L 450.0 598.9 L 500.0 600.3 L 550.0 601.2 L 600.0 598.1 L 650.0 594.3 L 700.0 588.9 L 750.0 583.4 L 800.0 579.4 L 850.0 575.3 L 900.0 574.7 L 950.0 574.5 L 1000.0 577.5 L 1050.0 580.9 L 1100.0 586.5 L 1150.0 591.5 L 1200.0 595.1" stroke="rgba(10,10,8,0.35)" stroke-width="0.91" fill="none" />
<path d="M 0 601.6 L 50.0 593.0 L 100.0 591.3 L 150.0 589.9 L 200.0 592.4 L 250.0 595.8 L 300.0 599.9 L 350.0 604.2 L 400.0 607.0 L 450.0 611.3 L 500.0 612.9 L 550.0 612.5 L 600.0 610.7 L 650.0 608.6 L 700.0 603.3 L 750.0 599.2 L 800.0 596.2 L 850.0 591.3 L 900.0 589.9 L 950.0 589.9 L 1000.0 591.5 L 1050.0 596.4 L 1100.0 600.2 L 1150.0 604.4 L 1200.0 607.4" stroke="rgba(10,10,8,0.39)" stroke-width="0.83" fill="none" />
<path d="M 0 615.7 L 50.0 609.9 L 100.0 615.0 L 150.0 620.6 L 200.0 626.1 L 250.0 630.4 L 300.0 632.3 L 350.0 631.0 L 400.0 627.0 L 450.0 621.8 L 500.0 616.6 L 550.0 609.2 L 600.0 605.3 L 650.0 601.4 L 700.0 599.3 L 750.0 601.6 L 800.0 603.1 L 850.0 608.9 L 900.0 614.6 L 950.0 621.0 L 1000.0 627.5 L 1050.0 631.1 L 1100.0 632.5 L 1150.0 629.9 L 1200.0 627.3" stroke="rgba(10,10,8,0.22)" stroke-width="0.68" fill="none" />
<path d="M 0 628.0 L 50.0 640.1 L 100.0 637.3 L 150.0 634.4 L 200.0 631.0 L 250.0 627.1 L 300.0 621.9 L 350.0 618.8 L 400.0 617.1 L 450.0 615.8 L 500.0 617.8 L 550.0 620.5 L 600.0 624.6 L 650.0 630.2 L 700.0 633.2 L 750.0 636.8 L 800.0 638.6 L 850.0 640.3 L 900.0 637.8 L 950.0 635.5 L 1000.0 630.9 L 1050.0 627.1 L 1100.0 622.6 L 1150.0 618.3 L 1200.0 617.6" stroke="rgba(10,10,8,0.43)" stroke-width="1.14" fill="none" />
<path d="M 0 643.1 L 50.0 641.5 L 100.0 644.5 L 150.0 648.2 L 200.0 650.4 L 250.0 651.6 L 300.0 652.1 L 350.0 650.8 L 400.0 648.5 L 450.0 645.3 L 500.0 641.0 L 550.0 638.7 L 600.0 635.6 L 650.0 633.9 L 700.0 634.1 L 750.0 634.1 L 800.0 637.9 L 850.0 641.1 L 900.0 644.3 L 950.0 647.3 L 1000.0 651.6 L 1050.0 652.8 L 1100.0 651.8 L 1150.0 652.0 L 1200.0 649.0" stroke="rgba(10,10,8,0.27)" stroke-width="0.46" fill="none" />
<path d="M 0 656.9 L 50.0 652.3 L 100.0 657.3 L 150.0 665.2 L 200.0 669.5 L 250.0 674.2 L 300.0 673.4 L 350.0 672.9 L 400.0 667.9 L 450.0 661.8 L 500.0 656.2 L 550.0 649.8 L 600.0 643.8 L 650.0 641.2 L 700.0 640.4 L 750.0 641.6 L 800.0 645.7 L 850.0 650.5 L 900.0 659.0 L 950.0 664.2 L 1000.0 670.3 L 1050.0 673.9 L 1100.0 673.8 L 1150.0 673.3 L 1200.0 668.1" stroke="rgba(10,10,8,0.50)" stroke-width="0.68" fill="none" />
<path d="M 0 669.0 L 50.0 661.7 L 100.0 655.7 L 150.0 652.9 L 200.0 650.5 L 250.0 652.4 L 300.0 655.9 L 350.0 662.6 L 400.0 668.6 L 450.0 676.5 L 500.0 681.5 L 550.0 684.7 L 600.0 687.5 L 650.0 685.8 L 700.0 680.8 L 750.0 675.7 L 800.0 669.2 L 850.0 662.5 L 900.0 655.6 L 950.0 653.0 L 1000.0 650.6 L 1050.0 652.0 L 1100.0 656.5 L 1150.0 661.8 L 1200.0 668.9" stroke="rgba(10,10,8,0.45)" stroke-width="0.81" fill="none" />
<path d="M 0 681.3 L 50.0 680.6 L 100.0 685.3 L 150.0 687.8 L 200.0 691.0 L 250.0 692.8 L 300.0 691.9 L 350.0 690.1 L 400.0 685.9 L 450.0 681.8 L 500.0 678.6 L 550.0 672.9 L 600.0 670.5 L 650.0 670.3 L 700.0 670.3 L 750.0 672.6 L 800.0 675.9 L 850.0 681.2 L 900.0 685.1 L 950.0 688.5 L 1000.0 692.1 L 1050.0 691.8 L 1100.0 691.4 L 1150.0 690.1 L 1200.0 685.7" stroke="rgba(10,10,8,0.55)" stroke-width="0.88" fill="none" />
<path d="M 0 695.0 L 50.0 705.0 L 100.0 700.3 L 150.0 693.8 L 200.0 689.3 L 250.0 685.2 L 300.0 682.3 L 350.0 681.1 L 400.0 681.8 L 450.0 686.3 L 500.0 691.1 L 550.0 696.1 L 600.0 700.4 L 650.0 705.3 L 700.0 707.2 L 750.0 709.2 L 800.0 706.6 L 850.0 704.8 L 900.0 699.8 L 950.0 694.6 L 1000.0 689.9 L 1050.0 685.6 L 1100.0 681.9 L 1150.0 681.6 L 1200.0 681.6" stroke="rgba(10,10,8,0.53)" stroke-width="0.97" fill="none" />
<path d="M 0 710.9 L 50.0 696.5 L 100.0 692.7 L 150.0 692.0 L 200.0 692.7 L 250.0 698.7 L 300.0 703.4 L 350.0 711.8 L 400.0 717.9 L 450.0 725.1 L 500.0 728.3 L 550.0 729.2 L 600.0 728.4 L 650.0 723.9 L 700.0 717.5 L 750.0 709.8 L 800.0 703.1 L 850.0 697.1 L 900.0 692.4 L 950.0 692.8 L 1000.0 694.1 L 1050.0 698.3 L 1100.0 703.7 L 1150.0 711.8 L 1200.0 718.5" stroke="rgba(10,10,8,0.44)" stroke-width="0.79" fill="none" />
<path d="M 0 722.6 L 50.0 706.0 L 100.0 710.7 L 150.0 716.7 L 200.0 723.2 L 250.0 729.2 L 300.0 734.8 L 350.0 739.5 L 400.0 740.7 L 450.0 738.3 L 500.0 735.6 L 550.0 728.7 L 600.0 721.8 L 650.0 715.4 L 700.0 709.9 L 750.0 706.6 L 800.0 704.0 L 850.0 705.3 L 900.0 709.8 L 950.0 715.4 L 1000.0 721.9 L 1050.0 729.0 L 1100.0 734.5 L 1150.0 740.1 L 1200.0 740.9" stroke="rgba(10,10,8,0.25)" stroke-width="0.56" fill="none" />
<path d="M 0 736.3 L 50.0 754.8 L 100.0 750.3 L 150.0 744.0 L 200.0 736.0 L 250.0 729.9 L 300.0 722.7 L 350.0 719.5 L 400.0 717.9 L 450.0 717.8 L 500.0 722.3 L 550.0 728.1 L 600.0 735.9 L 650.0 742.7 L 700.0 749.4 L 750.0 754.2 L 800.0 755.9 L 850.0 754.6 L 900.0 749.4 L 950.0 743.6 L 1000.0 736.8 L 1050.0 728.9 L 1100.0 722.7 L 1150.0 718.4 L 1200.0 717.1" stroke="rgba(10,10,8,0.32)" stroke-width="0.81" fill="none" />
<path d="M 0 748.4 L 50.0 741.5 L 100.0 737.4 L 150.0 733.9 L 200.0 731.2 L 250.0 733.8 L 300.0 736.6 L 350.0 742.6 L 400.0 748.2 L 450.0 754.1 L 500.0 760.5 L 550.0 763.2 L 600.0 765.3 L 650.0 763.9 L 700.0 760.5 L 750.0 754.1 L 800.0 748.4 L 850.0 742.9 L 900.0 737.3 L 950.0 733.3 L 1000.0 733.0 L 1050.0 733.9 L 1100.0 736.3 L 1150.0 742.5 L 1200.0 747.5" stroke="rgba(10,10,8,0.43)" stroke-width="1.15" fill="none" />
<path d="M 0 761.5 L 50.0 757.9 L 100.0 752.9 L 150.0 749.0 L 200.0 745.7 L 250.0 745.1 L 300.0 748.4 L 350.0 752.7 L 400.0 758.7 L 450.0 763.9 L 500.0 771.3 L 550.0 775.0 L 600.0 778.1 L 650.0 778.3 L 700.0 774.5 L 750.0 769.9 L 800.0 765.8 L 850.0 757.7 L 900.0 752.5 L 950.0 748.1 L 1000.0 745.8 L 1050.0 744.8 L 1100.0 748.7 L 1150.0 751.5 L 1200.0 758.4" stroke="rgba(10,10,8,0.41)" stroke-width="1.18" fill="none" />
<path d="M 0 775.5 L 50.0 756.3 L 100.0 760.8 L 150.0 768.6 L 200.0 775.9 L 250.0 784.8 L 300.0 791.5 L 350.0 795.4 L 400.0 797.6 L 450.0 795.0 L 500.0 789.6 L 550.0 782.3 L 600.0 775.2 L 650.0 766.2 L 700.0 759.4 L 750.0 754.4 L 800.0 753.6 L 850.0 756.5 L 900.0 761.3 L 950.0 768.1 L 1000.0 775.3 L 1050.0 784.1 L 1100.0 791.0 L 1150.0 795.2 L 1200.0 798.0" stroke="rgba(10,10,8,0.24)" stroke-width="1.07" fill="none" />
<path d="M 0 787.8 L 50.0 792.5 L 100.0 787.8 L 150.0 783.6 L 200.0 780.0 L 250.0 777.9 L 300.0 777.5 L 350.0 778.2 L 400.0 779.3 L 450.0 783.0 L 500.0 787.5 L 550.0 790.9 L 600.0 795.4 L 650.0 797.0 L 700.0 799.1 L 750.0 798.8 L 800.0 796.6 L 850.0 791.8 L 900.0 788.4 L 950.0 783.4 L 1000.0 781.3 L 1050.0 778.8 L 1100.0 776.4 L 1150.0 777.2 L 1200.0 779.8" stroke="rgba(10,10,8,0.45)" stroke-width="1.15" fill="none" />
    </g>
    <rect width="100%" height="100%" fill="url(#vignette-cedar-top)"/>
  </g>
</svg>