<?xml version="1.0" encoding="UTF-8"?>
<svg xmlns="http://www.w3.org/2000/svg" viewBox="0 0 1200 800" preserveAspectRatio="xMidYMid slice" role="img" aria-label="cedar bottom">
  <defs>
    <radialGradient id="bg-cedar-bottom" cx="50%" cy="40%" r="80%">
      <stop offset="0%" stop-color="#161410"/>
      <stop offset="100%" stop-color="#0a0a08"/>
    </radialGradient>
    <linearGradient id="wood-cedar-bottom" x1="0" y1="0" x2="1" y2="1">
      <stop offset="0%" stop-color="#6d4628"/>
      <stop offset="50%" stop-color="#8a5b37"/>
      <stop offset="100%" stop-color="#a87a4f"/>
    </linearGradient>
    <radialGradient id="vignette-cedar-bottom" cx="50%" cy="50%" r="65%">
      <stop offset="60%" stop-color="rgba(0,0,0,0)"/>
      <stop offset="100%" stop-color="rgba(0,0,0,0.45)"/>
    </radialGradient>
    <clipPath id="clip-cedar-bottom">
      <path d="M600 120 C760 120 880 200 920 320 C960 440 920 560 820 620 C720 680 600 660 600 660 C600 660 480 680 380 620 C280 560 240 440 280 320 C320 200 440 120 600 120 Z"/>
    </clipPath>
  </defs>
  <rect width="100%" height="100%" fill="url(#bg-cedar-bottom)"/>
  <g clip-path="url(#clip-cedar-bottom)">
    <rect width="100%" height="100%" fill="url(#wood-cedar-bottom)"/>
    <g opacity="0.40">
      <path d="M 0 4.2 L 50.0 -4.3 L 100.0 1.0 L 150.0 7.3 L 200.0 13.0 L 250.0 18.8 L 300.0 20.2 L 350.0 20.7 L 400.0 17.5 L 450.0 14.4 L 500.0 8.5 L 550.0 1.6 L 600.0 -4.7 L 650.0 -8.7 L 700.0 -11.1 L 750.0 -11.6 L 800.0 -9.1 L 850.0 -5.5 L 900.0 1.4 L 950.0 6.3 L 1000.0 12.6 L 1050.0 17.2 L 1100.0 19.6 L 1150.0 21.4 L 1200.0 17.6" stroke="rgba(10,10,8,0.34)" stroke-width="0.49" fill="none" />
<path d="M 0 16.8 L 50.0 24.0 L 100.0 26.8 L 150.0 28.2 L 200.0 28.3 L 250.0 27.0 L 300.0 23.8 L 350.0 18.8 L 400.0 13.0 L 450.0 9.9 L 500.0 6.9 L 550.0 5.2 L 600.0 5.8 L 650.0 6.3 L 700.0 9.7 L 750.0 15.9 L 800.0 19.1 L 850.0 24.2 L 900.0 26.8 L 950.0 28.3 L 1000.0 28.8 L 1050.0 26.1 L 1100.0 23.8 L 1150.0 18.8 L 1200.0 13.7" stroke="rgba(10,10,8,0.35)" stroke-width="0.41" fill="none" />
<path d="M 0 27.1 L 50.0 38.7 L 100.0 37.4 L 150.0 34.0 L 200.0 29.9 L 250.0 25.4 L 300.0 21.5 L 350.0 17.6 L 400.0 17.0 L 450.0 16.6 L 500.0 17.2 L 550.0 20.2 L 600.0 24.5 L 650.0 29.8 L 700.0 32.4 L 750.0 37.2 L 800.0 38.1 L 850.0 38.7 L 900.0 37.1 L 950.0 33.5 L 1000.0 29.6 L 1050.0 24.5 L 1100.0 20.6 L 1150.0 16.8 L 1200.0 16.6" stroke="rgba(10,10,8,0.36)" stroke-width="0.87" fill="none" />
<path d="M 0 45.8 L 50.0 33.5 L 100.0 34.0 L 150.0 36.9 L 200.0 40.4 L 250.0 44.7 L 300.0 49.9 L 350.0 52.0 L 400.0 55.1 L 450.0 56.5 L 500.0 57.2 L 550.0 55.7 L 600.0 51.2 L 650.0 47.8 L 700.0 42.5 L 750.0 37.9 L 800.0 34.7 L 850.0 33.5 L 900.0 35.4 L 950.0 37.1 L 1000.0 40.0 L 1050.0 43.7 L 1100.0 48.7 L 1150.0 53.7 L 1200.0 55.5" stroke="rgba(10,10,8,0.31)" stroke-width="0.92" fill="none" />
<path d="M 0 56.7 L 50.0 70.1 L 100.0 63.2 L 150.0 54.3 L 200.0 47.1 L 250.0 39.6 L 300.0 37.5 L 350.0 35.1 L 400.0 37.8 L 450.0 43.6 L 500.0 50.7 L 550.0 59.6 L 600.0 67.3 L 650.0 72.5 L 700.0 76.6 L 750.0 76.8 L 800.0 76.1 L 850.0 69.4 L 900.0 63.3 L 950.0 55.1 L 1000.0 47.0 L 1050.0 39.7 L 1100.0 37.6 L 1150.0 36.7 L 1200.0 38.4" stroke="rgba(10,10,8,0.30)" stroke-width="1.02" fill="none" />
<path d="M 0 71.2 L 50.0 60.4 L 100.0 53.6 L 150.0 50.5 L 200.0 50.3 L 250.0 52.9 L 300.0 58.9 L 350.0 65.9 L 400.0 75.6 L 450.0 82.5 L 500.0 89.5 L 550.0 91.7 L 600.0 92.7 L 650.0 88.6 L 700.0 82.9 L 750.0 75.0 L 800.0 67.8 L 850.0 59.0 L 900.0 54.5 L 950.0 51.0 L 1000.0 50.2 L 1050.0 53.5 L 1100.0 59.9 L 1150.0 66.9 L 1200.0 75.1" stroke="rgba(10,10,8,0.31)" stroke-width="0.96" fill="none" />
<path d="M 0 85.6 L 50.0 83.3 L 100.0 78.8 L 150.0 73.8 L 200.0 72.1 L 250.0 72.4 L 300.0 73.7 L 350.0 77.2 L 400.0 82.8 L 450.0 87.6 L 500.0 92.9 L 550.0 96.0 L 600.0 99.3 L 650.0 99.1 L 700.0 97.1 L 750.0 93.8 L 800.0 88.8 L 850.0 84.3 L 900.0 78.5 L 950.0 73.6 L 1000.0 71.6 L 1050.0 71.1 L 1100.0 74.2 L 1150.0 77.7 L 1200.0 82.4" stroke="rgba(10,10,8,0.43)" stroke-width="0.76" fill="none" />
<path d="M 0 94.8 L 50.0 106.7 L 100.0 102.3 L 150.0 97.6 L 200.0 92.1 L 250.0 86.4 L 300.0 83.4 L 350.0 81.7 L 400.0 81.7 L 450.0 83.5 L 500.0 87.8 L 550.0 92.6 L 600.0 97.0 L 650.0 102.3 L 700.0 106.8 L 750.0 107.4 L 800.0 109.2 L 850.0 105.6 L 900.0 102.2 L 950.0 98.1 L 1000.0 91.8 L 1050.0 87.2 L 1100.0 82.8 L 1150.0 81.3 L 1200.0 82.0" stroke="rgba(10,10,8,0.41)" stroke-width="0.53" fill="none" />
<path d="M 0 111.8 L 50.0 104.3 L 100.0 111.2 L 150.0 118.3 L 200.0 123.1 L 250.0 126.6 L 300.0 128.4 L 350.0 126.4 L 400.0 123.7 L 450.0 119.3 L 500.0 112.0 L 550.0 106.8 L 600.0 101.5 L 650.0 96.6 L 700.0 95.9 L 750.0 97.1 L 800.0 99.4 L 850.0 104.6 L 900.0 112.0 L 950.0 117.7 L 1000.0 122.3 L 1050.0 125.3 L 1100.0 127.1 L 1150.0 126.2 L 1200.0 123.3" stroke="rgba(10,10,8,0.30)" stroke-width="0.76" fill="none" />
<path d="M 0 124.0 L 50.0 132.1 L 100.0 127.5 L 150.0 123.5 L 200.0 120.9 L 250.0 116.3 L 300.0 115.1 L 350.0 114.4 L 400.0 114.0 L 450.0 116.0 L 500.0 121.0 L 550.0 124.2 L 600.0 128.3 L 650.0 132.1 L 700.0 132.4 L 750.0 133.4 L 800.0 132.8 L 850.0 131.9 L 900.0 128.4 L 950.0 123.3 L 1000.0 120.1 L 1050.0 117.8 L 1100.0 113.9 L 1150.0 113.4 L 1200.0 114.0" stroke="rgba(10,10,8,0.39)" stroke-width="0.86" fill="none" />
<path d="M 0 137.8 L 50.0 142.2 L 100.0 149.6 L 150.0 155.4 L 200.0 157.9 L 250.0 157.3 L 300.0 153.4 L 350.0 146.9 L 400.0 139.8 L 450.0 132.7 L 500.0 126.0 L 550.0 120.3 L 600.0 117.6 L 650.0 118.8 L 700.0 121.7 L 750.0 128.8 L 800.0 134.9 L 850.0 143.1 L 900.0 149.2 L 950.0 154.8 L 1000.0 157.8 L 1050.0 156.7 L 1100.0 153.2 L 1150.0 147.0 L 1200.0 139.5" stroke="rgba(10,10,8,0.38)" stroke-width="0.58" fill="none" />
<path d="M 0 149.4 L 50.0 155.2 L 100.0 153.4 L 150.0 149.8 L 200.0 144.7 L 250.0 142.8 L 300.0 139.8 L 350.0 139.3 L 400.0 140.9 L 450.0 141.8 L 500.0 145.1 L 550.0 150.6 L 600.0 153.6 L 650.0 156.8 L 700.0 159.1 L 750.0 158.6 L 800.0 158.0 L 850.0 156.3 L 900.0 152.4 L 950.0 149.6 L 1000.0 146.2 L 1050.0 142.0 L 1100.0 139.9 L 1150.0 139.1 L 1200.0 141.3" stroke="rgba(10,10,8,0.38)" stroke-width="1.13" fill="none" />
<path d="M 0 161.6 L 50.0 174.2 L 100.0 169.8 L 150.0 163.8 L 200.0 158.0 L 250.0 150.9 L 300.0 148.7 L 350.0 145.4 L 400.0 146.7 L 450.0 148.7 L 500.0 155.0 L 550.0 160.0 L 600.0 166.4 L 650.0 171.4 L 700.0 175.3 L 750.0 176.1 L 800.0 176.2 L 850.0 174.5 L 900.0 169.1 L 950.0 164.0 L 1000.0 156.5 L 1050.0 152.4 L 1100.0 148.2 L 1150.0 146.7 L 1200.0 146.2" stroke="rgba(10,10,8,0.22)" stroke-width="0.50" fill="none" />
<path d="M 0 174.1 L 50.0 169.6 L 100.0 166.0 L 150.0 162.6 L 200.0 161.1 L 250.0 163.1 L 300.0 165.7 L 350.0 170.9 L 400.0 173.9 L 450.0 179.3 L 500.0 183.7 L 550.0 185.1 L 600.0 185.9 L 650.0 184.7 L 700.0 182.5 L 750.0 178.3 L 800.0 172.5 L 850.0 169.0 L 900.0 165.0 L 950.0 161.9 L 1000.0 161.8 L 1050.0 162.8 L 1100.0 167.0 L 1150.0 169.8 L 1200.0 174.8" stroke="rgba(10,10,8,0.22)" stroke-width="0.46" fill="none" />
<path d="M 0 190.5 L 50.0 192.1 L 100.0 200.1 L 150.0 205.2 L 200.0 207.7 L 250.0 209.8 L 300.0 207.1 L 350.0 201.3 L 400.0 194.5 L 450.0 188.0 L 500.0 180.0 L 550.0 176.1 L 600.0 171.8 L 650.0 172.3 L 700.0 173.6 L 750.0 178.3 L 800.0 186.2 L 850.0 193.2 L 900.0 199.9 L 950.0 205.3 L 1000.0 208.8 L 1050.0 209.8 L 1100.0 206.5 L 1150.0 202.1 L 1200.0 196.0" stroke="rgba(10,10,8,0.24)" stroke-width="0.55" fill="none" />
<path d="M 0 204.8 L 50.0 198.7 L 100.0 192.6 L 150.0 187.5 L 200.0 187.9 L 250.0 188.9 L 300.0 192.1 L 350.0 199.0 L 400.0 205.8 L 450.0 212.0 L 500.0 217.3 L 550.0 221.7 L 600.0 222.2 L 650.0 221.9 L 700.0 217.6 L 750.0 210.5 L 800.0 205.4 L 850.0 197.4 L 900.0 191.5 L 950.0 188.7 L 1000.0 187.6 L 1050.0 189.5 L 1100.0 192.7 L 1150.0 198.4 L 1200.0 205.9" stroke="rgba(10,10,8,0.29)" stroke-width="0.53" fill="none" />
<path d="M 0 216.2 L 50.0 217.4 L 100.0 226.6 L 150.0 231.3 L 200.0 236.1 L 250.0 236.7 L 300.0 234.1 L 350.0 229.0 L 400.0 221.2 L 450.0 214.3 L 500.0 207.2 L 550.0 200.3 L 600.0 196.9 L 650.0 196.5 L 700.0 198.7 L 750.0 203.5 L 800.0 210.2 L 850.0 217.6 L 900.0 224.8 L 950.0 231.7 L 1000.0 235.8 L 1050.0 236.6 L 1100.0 234.0 L 1150.0 229.4 L 1200.0 221.1" stroke="rgba(10,10,8,0.30)" stroke-width="1.03" fill="none" />
<path d="M 0 229.5 L 50.0 223.0 L 100.0 230.6 L 150.0 235.7 L 200.0 240.5 L 250.0 244.7 L 300.0 244.6 L 350.0 242.8 L 400.0 241.2 L 450.0 235.5 L 500.0 229.0 L 550.0 223.3 L 600.0 219.1 L 650.0 215.4 L 700.0 214.5 L 750.0 214.8 L 800.0 218.2 L 850.0 223.1 L 900.0 229.4 L 950.0 236.0 L 1000.0 240.1 L 1050.0 244.1 L 1100.0 244.9 L 1150.0 243.8 L 1200.0 240.3" stroke="rgba(10,10,8,0.24)" stroke-width="0.68" fill="none" />
<path d="M 0 242.2 L 50.0 250.0 L 100.0 255.8 L 150.0 257.5 L 200.0 259.6 L 250.0 258.4 L 300.0 254.0 L 350.0 248.3 L 400.0 240.6 L 450.0 234.8 L 500.0 229.5 L 550.0 225.8 L 600.0 224.2 L 650.0 226.9 L 700.0 231.6 L 750.0 236.9 L 800.0 244.3 L 850.0 250.7 L 900.0 255.2 L 950.0 258.1 L 1000.0 260.3 L 1050.0 257.1 L 1100.0 254.2 L 1150.0 247.6 L 1200.0 240.5" stroke="rgba(10,10,8,0.27)" stroke-width="1.03" fill="none" />
<path d="M 0 258.6 L 50.0 262.8 L 100.0 256.4 L 150.0 250.7 L 200.0 246.2 L 250.0 242.9 L 300.0 241.7 L 350.0 245.5 L 400.0 249.6 L 450.0 253.7 L 500.0 260.8 L 550.0 266.0 L 600.0 272.5 L 650.0 274.7 L 700.0 274.6 L 750.0 272.0 L 800.0 267.4 L 850.0 262.5 L 900.0 255.7 L 950.0 251.2 L 1000.0 245.5 L 1050.0 242.6 L 1100.0 243.3 L 1150.0 243.6 L 1200.0 248.3" stroke="rgba(10,10,8,0.32)" stroke-width="0.75" fill="none" />
<path d="M 0 267.0 L 50.0 281.4 L 100.0 282.8 L 150.0 280.0 L 200.0 275.7 L 250.0 269.5 L 300.0 263.8 L 350.0 259.8 L 400.0 254.3 L 450.0 251.9 L 500.0 251.2 L 550.0 255.2 L 600.0 258.1 L 650.0 263.2 L 700.0 269.7 L 750.0 275.8 L 800.0 280.3 L 850.0 281.8 L 900.0 281.3 L 950.0 280.2 L 1000.0 275.2 L 1050.0 270.8 L 1100.0 264.9 L 1150.0 258.1 L 1200.0 255.4" stroke="rgba(10,10,8,0.40)" stroke-width="0.78" fill="none" />
<path d="M 0 280.2 L 50.0 277.5 L 100.0 282.5 L 150.0 289.4 L 200.0 292.7 L 250.0 296.2 L 300.0 295.5 L 350.0 292.5 L 400.0 289.8 L 450.0 283.0 L 500.0 277.6 L 550.0 272.2 L 600.0 268.0 L 650.0 264.6 L 700.0 263.9 L 750.0 267.3 L 800.0 271.8 L 850.0 276.1 L 900.0 283.7 L 950.0 289.7 L 1000.0 292.3 L 1050.0 296.3 L 1100.0 295.7 L 1150.0 293.4 L 1200.0 288.5" stroke="rgba(10,10,8,0.54)" stroke-width="0.46" fill="none" />
<path d="M 0 295.8 L 50.0 294.6 L 100.0 301.5 L 150.0 306.5 L 200.0 310.8 L 250.0 311.9 L 300.0 311.6 L 350.0 308.9 L 400.0 302.8 L 450.0 298.1 L 500.0 291.7 L 550.0 285.8 L 600.0 280.6 L 650.0 278.2 L 700.0 280.3 L 750.0 282.2 L 800.0 287.7 L 850.0 294.1 L 900.0 301.5 L 950.0 306.3 L 1000.0 310.2 L 1050.0 313.3 L 1100.0 312.0 L 1150.0 309.2 L 1200.0 304.0" stroke="rgba(10,10,8,0.30)" stroke-width="0.48" fill="none" />
<path d="M 0 309.6 L 50.0 302.3 L 100.0 309.2 L 150.0 316.1 L 200.0 321.8 L 250.0 326.5 L 300.0 328.1 L 350.0 328.0 L 400.0 322.7 L 450.0 317.8 L 500.0 309.7 L 550.0 302.8 L 600.0 295.8 L 650.0 292.9 L 700.0 291.2 L 750.0 290.8 L 800.0 294.7 L 850.0 301.9 L 900.0 309.7 L 950.0 315.9 L 1000.0 322.1 L 1050.0 326.0 L 1100.0 327.7 L 1150.0 326.7 L 1200.0 324.3" stroke="rgba(10,10,8,0.42)" stroke-width="0.93" fill="none" />
<path d="M 0 325.4 L 50.0 337.5 L 100.0 334.9 L 150.0 328.8 L 200.0 324.5 L 250.0 318.5 L 300.0 314.0 L 350.0 312.4 L 400.0 311.9 L 450.0 313.6 L 500.0 316.9 L 550.0 322.4 L 600.0 327.9 L 650.0 332.4 L 700.0 336.2 L 750.0 338.3 L 800.0 338.5 L 850.0 337.8 L 900.0 335.0 L 950.0 329.4 L 1000.0 324.5 L 1050.0 319.0 L 1100.0 314.7 L 1150.0 310.8 L 1200.0 310.5" stroke="rgba(10,10,8,0.46)" stroke-width="0.48" fill="none" />
<path d="M 0 334.4 L 50.0 327.3 L 100.0 325.3 L 150.0 327.6 L 200.0 328.2 L 250.0 329.9 L 300.0 333.9 L 350.0 337.0 L 400.0 340.2 L 450.0 342.5 L 500.0 341.8 L 550.0 342.1 L 600.0 340.4 L 650.0 338.6 L 700.0 335.2 L 750.0 331.7 L 800.0 329.3 L 850.0 327.0 L 900.0 325.9 L 950.0 325.8 L 1000.0 328.0 L 1050.0 330.7 L 1100.0 334.3 L 1150.0 336.0 L 1200.0 339.7" stroke="rgba(10,10,8,0.27)" stroke-width="1.11" fill="none" />
<path d="M 0 351.6 L 50.0 364.8 L 100.0 365.4 L 150.0 364.8 L 200.0 362.7 L 250.0 358.7 L 300.0 353.0 L 350.0 347.8 L 400.0 342.3 L 450.0 339.2 L 500.0 336.1 L 550.0 336.8 L 600.0 339.6 L 650.0 344.9 L 700.0 350.6 L 750.0 356.8 L 800.0 361.2 L 850.0 364.8 L 900.0 366.4 L 950.0 366.1 L 1000.0 362.9 L 1050.0 358.9 L 1100.0 353.0 L 1150.0 347.9 L 1200.0 342.8" stroke="rgba(10,10,8,0.33)" stroke-width="1.18" fill="none" />
<path d="M 0 360.2 L 50.0 374.7 L 100.0 372.3 L 150.0 370.8 L 200.0 365.9 L 250.0 359.7 L 300.0 355.4 L 350.0 349.7 L 400.0 348.4 L 450.0 347.5 L 500.0 347.3 L 550.0 350.8 L 600.0 354.1 L 650.0 361.2 L 700.0 366.0 L 750.0 369.6 L 800.0 372.3 L 850.0 374.3 L 900.0 372.3 L 950.0 370.1 L 1000.0 366.3 L 1050.0 359.6 L 1100.0 355.0 L 1150.0 351.3 L 1200.0 348.1" stroke="rgba(10,10,8,0.39)" stroke-width="1.17" fill="none" />
<path d="M 0 374.8 L 50.0 361.4 L 100.0 358.4 L 150.0 354.3 L 200.0 355.9 L 250.0 359.1 L 300.0 366.2 L 350.0 372.1 L 400.0 379.9 L 450.0 387.4 L 500.0 392.1 L 550.0 394.0 L 600.0 393.6 L 650.0 390.6 L 700.0 384.8 L 750.0 377.7 L 800.0 369.1 L 850.0 361.8 L 900.0 357.2 L 950.0 356.0 L 1000.0 356.7 L 1050.0 359.1 L 1100.0 365.7 L 1150.0 372.3 L 1200.0 379.5" stroke="rgba(10,10,8,0.26)" stroke-width="1.09" fill="none" />
<path d="M 0 387.5 L 50.0 391.1 L 100.0 396.5 L 150.0 400.1 L 200.0 404.2 L 250.0 403.9 L 300.0 401.5 L 350.0 396.4 L 400.0 391.8 L 450.0 385.3 L 500.0 378.7 L 550.0 374.6 L 600.0 370.9 L 650.0 370.6 L 700.0 374.4 L 750.0 377.7 L 800.0 384.1 L 850.0 390.6 L 900.0 396.4 L 950.0 400.5 L 1000.0 403.4 L 1050.0 403.2 L 1100.0 401.6 L 1150.0 397.2 L 1200.0 391.6" stroke="rgba(10,10,8,0.49)" stroke-width="0.81" fill="none" />
<path d="M 0 403.2 L 50.0 387.7 L 100.0 391.0 L 150.0 396.9 L 200.0 403.1 L 250.0 409.5 L 300.0 413.9 L 350.0 416.3 L 400.0 418.8 L 450.0 417.0 L 500.0 414.1 L 550.0 409.2 L 600.0 403.8 L 650.0 398.5 L 700.0 392.5 L 750.0 388.4 L 800.0 387.1 L 850.0 388.6 L 900.0 392.0 L 950.0 397.3 L 1000.0 401.6 L 1050.0 408.1 L 1100.0 412.9 L 1150.0 416.9 L 1200.0 418.7" stroke="rgba(10,10,8,0.36)" stroke-width="1.00" fill="none" />
<path d="M 0 417.5 L 50.0 409.6 L 100.0 414.1 L 150.0 418.3 L 200.0 422.1 L 250.0 425.7 L 300.0 427.2 L 350.0 428.1 L 400.0 427.4 L 450.0 425.7 L 500.0 422.2 L 550.0 417.2 L 600.0 413.4 L 650.0 409.5 L 700.0 408.1 L 750.0 407.5 L 800.0 407.1 L 850.0 409.1 L 900.0 413.1 L 950.0 416.6 L 1000.0 422.2 L 1050.0 424.7 L 1100.0 426.9 L 1150.0 427.9 L 1200.0 426.9" stroke="rgba(10,10,8,0.29)" stroke-width="0.49" fill="none" />
<path d="M 0 430.0 L 50.0 425.0 L 100.0 421.9 L 150.0 419.4 L 200.0 418.6 L 250.0 419.3 L 300.0 422.6 L 350.0 426.4 L 400.0 431.2 L 450.0 435.6 L 500.0 439.4 L 550.0 441.9 L 600.0 442.9 L 650.0 440.1 L 700.0 439.0 L 750.0 434.4 L 800.0 428.8 L 850.0 425.2 L 900.0 421.1 L 950.0 418.8 L 1000.0 418.0 L 1050.0 418.2 L 1100.0 422.5 L 1150.0 425.0 L 1200.0 430.8" stroke="rgba(10,10,8,0.26)" stroke-width="0.69" fill="none" />
<path d="M 0 442.8 L 50.0 452.2 L 100.0 459.5 L 150.0 462.7 L 200.0 462.7 L 250.0 461.6 L 300.0 456.8 L 350.0 448.8 L 400.0 440.8 L 450.0 432.0 L 500.0 425.8 L 550.0 423.2 L 600.0 421.7 L 650.0 424.0 L 700.0 429.6 L 750.0 437.8 L 800.0 444.5 L 850.0 452.1 L 900.0 458.7 L 950.0 462.7 L 1000.0 463.1 L 1050.0 461.9 L 1100.0 455.6 L 1150.0 448.1 L 1200.0 439.9" stroke="rgba(10,10,8,0.38)" stroke-width="0.82" fill="none" />
<path d="M 0 457.0 L 50.0 453.5 L 100.0 450.7 L 150.0 447.9 L 200.0 446.5 L 250.0 448.1 L 300.0 448.9 L 350.0 452.6 L 400.0 456.8 L 450.0 461.0 L 500.0 463.5 L 550.0 466.5 L 600.0 467.4 L 650.0 466.3 L 700.0 464.1 L 750.0 460.9 L 800.0 458.4 L 850.0 452.6 L 900.0 449.5 L 950.0 448.0 L 1000.0 446.4 L 1050.0 447.8 L 1100.0 449.9 L 1150.0 452.4 L 1200.0 456.0" stroke="rgba(10,10,8,0.39)" stroke-width="0.98" fill="none" />
<path d="M 0 467.5 L 50.0 457.6 L 100.0 462.3 L 150.0 468.2 L 200.0 474.4 L 250.0 480.1 L 300.0 484.4 L 350.0 484.9 L 400.0 482.7 L 450.0 478.6 L 500.0 472.9 L 550.0 466.7 L 600.0 460.2 L 650.0 453.7 L 700.0 451.4 L 750.0 451.1 L 800.0 452.5 L 850.0 457.4 L 900.0 463.3 L 950.0 468.4 L 1000.0 475.2 L 1050.0 481.0 L 1100.0 484.0 L 1150.0 484.3 L 1200.0 482.6" stroke="rgba(10,10,8,0.33)" stroke-width="0.87" fill="none" />
<path d="M 0 485.6 L 50.0 499.1 L 100.0 503.1 L 150.0 502.0 L 200.0 499.9 L 250.0 495.2 L 300.0 487.7 L 350.0 483.0 L 400.0 475.7 L 450.0 471.1 L 500.0 468.7 L 550.0 468.6 L 600.0 472.0 L 650.0 475.9 L 700.0 483.1 L 750.0 489.0 L 800.0 494.5 L 850.0 499.7 L 900.0 501.6 L 950.0 502.0 L 1000.0 499.9 L 1050.0 494.3 L 1100.0 488.8 L 1150.0 482.8 L 1200.0 475.3" stroke="rgba(10,10,8,0.50)" stroke-width="0.70" fill="none" />
<path d="M 0 493.9 L 50.0 474.9 L 100.0 476.0 L 150.0 478.3 L 200.0 484.3 L 250.0 491.6 L 300.0 499.1 L 350.0 505.6 L 400.0 511.2 L 450.0 512.8 L 500.0 511.4 L 550.0 508.4 L 600.0 503.7 L 650.0 494.8 L 700.0 488.6 L 750.0 481.2 L 800.0 477.4 L 850.0 474.1 L 900.0 474.5 L 950.0 479.2 L 1000.0 484.4 L 1050.0 491.9 L 1100.0 500.4 L 1150.0 505.9 L 1200.0 511.8" stroke="rgba(10,10,8,0.27)" stroke-width="1.02" fill="none" />
<path d="M 0 512.4 L 50.0 520.6 L 100.0 526.3 L 150.0 528.9 L 200.0 529.6 L 250.0 528.4 L 300.0 524.6 L 350.0 518.3 L 400.0 511.8 L 450.0 505.5 L 500.0 499.8 L 550.0 496.0 L 600.0 494.4 L 650.0 496.5 L 700.0 501.4 L 750.0 506.9 L 800.0 513.0 L 850.0 519.3 L 900.0 525.6 L 950.0 529.6 L 1000.0 530.7 L 1050.0 527.8 L 1100.0 523.6 L 1150.0 517.6 L 1200.0 512.4" stroke="rgba(10,10,8,0.41)" stroke-width="0.63" fill="none" />
<path d="M 0 520.1 L 50.0 532.4 L 100.0 536.3 L 150.0 539.2 L 200.0 537.9 L 250.0 534.2 L 300.0 528.0 L 350.0 519.6 L 400.0 513.5 L 450.0 507.2 L 500.0 503.4 L 550.0 502.0 L 600.0 502.7 L 650.0 507.6 L 700.0 513.1 L 750.0 520.8 L 800.0 526.4 L 850.0 533.6 L 900.0 537.2 L 950.0 539.6 L 1000.0 537.3 L 1050.0 533.3 L 1100.0 527.7 L 1150.0 519.8 L 1200.0 512.6" stroke="rgba(10,10,8,0.41)" stroke-width="0.72" fill="none" />
<path d="M 0 534.5 L 50.0 535.6 L 100.0 529.6 L 150.0 527.2 L 200.0 524.4 L 250.0 523.0 L 300.0 524.4 L 350.0 527.0 L 400.0 530.3 L 450.0 534.9 L 500.0 537.6 L 550.0 542.1 L 600.0 544.8 L 650.0 545.9 L 700.0 546.0 L 750.0 541.9 L 800.0 539.7 L 850.0 535.2 L 900.0 531.5 L 950.0 526.1 L 1000.0 523.2 L 1050.0 523.6 L 1100.0 523.2 L 1150.0 526.2 L 1200.0 530.1" stroke="rgba(10,10,8,0.27)" stroke-width="0.68" fill="none" />
<path d="M 0 547.4 L 50.0 562.1 L 100.0 563.5 L 150.0 561.2 L 200.0 558.6 L 250.0 552.8 L 300.0 546.3 L 350.0 541.3 L 400.0 536.1 L 450.0 533.8 L 500.0 531.9 L 550.0 533.2 L 600.0 536.3 L 650.0 541.2 L 700.0 547.1 L 750.0 554.2 L 800.0 558.1 L 850.0 562.8 L 900.0 563.5 L 950.0 562.3 L 1000.0 559.3 L 1050.0 553.1 L 1100.0 546.5 L 1150.0 541.6 L 1200.0 535.8" stroke="rgba(10,10,8,0.51)" stroke-width="0.83" fill="none" />
<path d="M 0 564.7 L 50.0 569.0 L 100.0 572.9 L 150.0 576.7 L 200.0 577.7 L 250.0 576.9 L 300.0 574.0 L 350.0 569.7 L 400.0 565.6 L 450.0 559.0 L 500.0 555.6 L 550.0 552.6 L 600.0 552.3 L 650.0 552.1 L 700.0 554.3 L 750.0 559.3 L 800.0 564.2 L 850.0 568.5 L 900.0 573.3 L 950.0 576.1 L 1000.0 578.4 L 1050.0 577.1 L 1100.0 574.9 L 1150.0 570.0 L 1200.0 565.3" stroke="rgba(10,10,8,0.46)" stroke-width="0.94" fill="none" />
<path d="M 0 573.5 L 50.0 565.5 L 100.0 571.8 L 150.0 577.5 L 200.0 583.2 L 250.0 586.3 L 300.0 589.2 L 350.0 588.3 L 400.0 586.3 L 450.0 580.4 L 500.0 575.1 L 550.0 568.4 L 600.0 563.6 L 650.0 560.6 L 700.0 557.4 L 750.0 558.7 L 800.0 562.3 L 850.0 566.0 L 900.0 570.9 L 950.0 577.5 L 1000.0 583.2 L 1050.0 587.1 L 1100.0 588.7 L 1150.0 588.8 L 1200.0 585.1" stroke="rgba(10,10,8,0.42)" stroke-width="0.83" fill="none" />
<path d="M 0 590.8 L 50.0 600.6 L 100.0 598.8 L 150.0 593.6 L 200.0 588.7 L 250.0 585.3 L 300.0 580.9 L 350.0 578.7 L 400.0 578.8 L 450.0 580.4 L 500.0 583.7 L 550.0 587.2 L 600.0 591.9 L 650.0 597.3 L 700.0 600.7 L 750.0 601.6 L 800.0 601.8 L 850.0 600.3 L 900.0 597.9 L 950.0 594.8 L 1000.0 589.9 L 1050.0 584.9 L 1100.0 582.1 L 1150.0 579.2 L 1200.0 578.1" stroke="rgba(10,10,8,0.33)" stroke-width="0.74" fill="none" />
<path d="M 0 601.9 L 50.0 606.7 L 100.0 611.2 L 150.0 616.3 L 200.0 618.2 L 250.0 617.1 L 300.0 615.1 L 350.0 609.7 L 400.0 604.1 L 450.0 598.1 L 500.0 592.3 L 550.0 587.8 L 600.0 585.2 L 650.0 586.9 L 700.0 588.9 L 750.0 593.7 L 800.0 599.2 L 850.0 606.3 L 900.0 612.2 L 950.0 615.1 L 1000.0 617.8 L 1050.0 617.5 L 1100.0 615.5 L 1150.0 609.8 L 1200.0 603.5" stroke="rgba(10,10,8,0.36)" stroke-width="0.62" fill="none" />
<path d="M 0 617.3 L 50.0 628.0 L 100.0 632.4 L 150.0 635.0 L 200.0 634.9 L 250.0 633.4 L 300.0 627.5 L 350.0 620.6 L 400.0 613.4 L 450.0 607.4 L 500.0 601.5 L 550.0 598.7 L 600.0 599.3 L 650.0 602.4 L 700.0 606.3 L 750.0 614.0 L 800.0 620.5 L 850.0 627.8 L 900.0 632.5 L 950.0 635.1 L 1000.0 636.5 L 1050.0 632.1 L 1100.0 628.6 L 1150.0 620.9 L 1200.0 613.0" stroke="rgba(10,10,8,0.43)" stroke-width="0.73" fill="none" />
<path d="M 0 631.2 L 50.0 620.0 L 100.0 613.0 L 150.0 609.0 L 200.0 609.0 L 250.0 611.7 L 300.0 618.6 L 350.0 626.8 L 400.0 635.2 L 450.0 642.5 L 500.0 649.7 L 550.0 652.7 L 600.0 653.6 L 650.0 650.2 L 700.0 643.1 L 750.0 636.2 L 800.0 628.2 L 850.0 619.8 L 900.0 613.7 L 950.0 610.1 L 1000.0 609.9 L 1050.0 613.2 L 1100.0 618.5 L 1150.0 626.6 L 1200.0 634.5" stroke="rgba(10,10,8,0.23)" stroke-width="0.42" fill="none" />
<path d="M 0 644.3 L 50.0 656.4 L 100.0 658.0 L 150.0 657.8 L 200.0 655.5 L 250.0 651.9 L 300.0 645.3 L 350.0 640.9 L 400.0 635.4 L 450.0 632.8 L 500.0 630.0 L 550.0 631.2 L 600.0 632.5 L 650.0 636.4 L 700.0 642.1 L 750.0 647.8 L 800.0 654.2 L 850.0 655.9 L 900.0 658.7 L 950.0 658.4 L 1000.0 656.0 L 1050.0 651.5 L 1100.0 645.8 L 1150.0 640.7 L 1200.0 635.7" stroke="rgba(10,10,8,0.46)" stroke-width="0.63" fill="none" />
<path d="M 0 654.4 L 50.0 659.3 L 100.0 661.7 L 150.0 662.1 L 200.0 662.4 L 250.0 660.6 L 300.0 659.0 L 350.0 657.0 L 400.0 653.5 L 450.0 649.0 L 500.0 648.0 L 550.0 645.8 L 600.0 646.2 L 650.0 646.6 L 700.0 650.1 L 750.0 653.8 L 800.0 655.6 L 850.0 659.0 L 900.0 660.5 L 950.0 663.5 L 1000.0 662.0 L 1050.0 660.9 L 1100.0 659.0 L 1150.0 655.6 L 1200.0 653.6" stroke="rgba(10,10,8,0.32)" stroke-width="0.45" fill="none" />
<path d="M 0 669.1 L 50.0 672.5 L 100.0 679.4 L 150.0 684.8 L 200.0 687.7 L 250.0 687.0 L 300.0 685.1 L 350.0 678.4 L 400.0 671.8 L 450.0 665.4 L 500.0 657.8 L 550.0 653.4 L 600.0 650.3 L 650.0 650.4 L 700.0 653.9 L 750.0 658.4 L 800.0 666.2 L 850.0 673.7 L 900.0 680.1 L 950.0 685.5 L 1000.0 687.5 L 1050.0 686.7 L 1100.0 683.6 L 1150.0 678.6 L 1200.0 671.6" stroke="rgba(10,10,8,0.25)" stroke-width="0.75" fill="none" />
<path d="M 0 680.4 L 50.0 679.1 L 100.0 676.3 L 150.0 673.9 L 200.0 671.1 L 250.0 672.0 L 300.0 672.6 L 350.0 674.0 L 400.0 677.3 L 450.0 681.3 L 500.0 685.1 L 550.0 687.4 L 600.0 688.2 L 650.0 689.1 L 700.0 689.2 L 750.0 686.3 L 800.0 682.8 L 850.0 680.3 L 900.0 675.8 L 950.0 672.7 L 1000.0 672.1 L 1050.0 672.0 L 1100.0 671.5 L 1150.0 675.2 L 1200.0 677.5" stroke="rgba(10,10,8,0.45)" stroke-width="1.04" fill="none" />
<path d="M 0 697.4 L 50.0 699.1 L 100.0 703.4 L 150.0 707.9 L 200.0 710.1 L 250.0 710.8 L 300.0 709.3 L 350.0 705.1 L 400.0 702.3 L 450.0 696.8 L 500.0 691.9 L 550.0 688.1 L 600.0 685.3 L 650.0 683.3 L 700.0 684.7 L 750.0 688.0 L 800.0 693.4 L 850.0 699.1 L 900.0 702.8 L 950.0 707.7 L 1000.0 710.2 L 1050.0 710.5 L 1100.0 709.2 L 1150.0 706.4 L 1200.0 700.7" stroke="rgba(10,10,8,0.45)" stroke-width="0.86" fill="none" />
<path d="M 0 711.0 L 50.0 694.1 L 100.0 695.9 L 150.0 699.2 L 200.0 705.0 L 250.0 711.8 L 300.0 717.9 L 350.0 723.6 L 400.0 726.7 L 450.0 728.4 L 500.0 727.7 L 550.0 722.3 L 600.0 717.3 L 650.0 710.4 L 700.0 703.2 L 750.0 697.5 L 800.0 694.9 L 850.0 693.6 L 900.0 695.0 L 950.0 699.3 L 1000.0 704.8 L 1050.0 712.2 L 1100.0 718.7 L 1150.0 723.4 L 1200.0 727.4" stroke="rgba(10,10,8,0.40)" stroke-width="0.99" fill="none" />
<path d="M 0 722.6 L 50.0 735.8 L 100.0 736.6 L 150.0 738.0 L 200.0 735.5 L 250.0 730.6 L 300.0 724.6 L 350.0 720.2 L 400.0 713.3 L 450.0 710.3 L 500.0 708.3 L 550.0 708.3 L 600.0 709.1 L 650.0 715.0 L 700.0 720.1 L 750.0 725.3 L 800.0 730.8 L 850.0 736.4 L 900.0 738.1 L 950.0 737.5 L 1000.0 734.7 L 1050.0 730.1 L 1100.0 724.5 L 1150.0 718.6 L 1200.0 714.5" stroke="rgba(10,10,8,0.38)" stroke-width="1.11" fill="none" />
<path d="M 0 734.6 L 50.0 725.5 L 100.0 734.1 L 150.0 741.4 L 200.0 748.6 L 250.0 754.5 L 300.0 755.3 L 350.0 754.4 L 400.0 750.2 L 450.0 744.2 L 500.0 736.1 L 550.0 727.9 L 600.0 721.4 L 650.0 715.5 L 700.0 714.3 L 750.0 714.5 L 800.0 718.7 L 850.0 726.1 L 900.0 733.8 L 950.0 740.7 L 1000.0 747.6 L 1050.0 753.4 L 1100.0 756.4 L 1150.0 754.8 L 1200.0 750.7" stroke="rgba(10,10,8,0.51)" stroke-width="0.42" fill="none" />
<path d="M 0 751.3 L 50.0 735.0 L 100.0 741.1 L 150.0 746.5 L 200.0 755.3 L 250.0 761.8 L 300.0 767.5 L 350.0 770.3 L 400.0 770.4 L 450.0 766.5 L 500.0 761.8 L 550.0 754.7 L 600.0 747.5 L 650.0 741.8 L 700.0 735.5 L 750.0 733.1 L 800.0 733.3 L 850.0 736.1 L 900.0 741.2 L 950.0 747.8 L 1000.0 754.1 L 1050.0 761.4 L 1100.0 766.4 L 1150.0 770.6 L 1200.0 770.5" stroke="rgba(10,10,8,0.39)" stroke-width="0.41" fill="none" />
<path d="M 0 765.4 L 50.0 784.7 L 100.0 786.5 L 150.0 784.2 L 200.0 778.6 L 250.0 773.2 L 300.0 763.7 L 350.0 756.1 L 400.0 750.1 L 450.0 746.7 L 500.0 745.5 L 550.0 747.3 L 600.0 752.5 L 650.0 758.3 L 700.0 765.7 L 750.0 773.6 L 800.0 780.8 L 850.0 784.5 L 900.0 785.0 L 950.0 784.8 L 1000.0 780.0 L 1050.0 773.3 L 1100.0 764.9 L 1150.0 757.5 L 1200.0 749.6" stroke="rgba(10,10,8,0.25)" stroke-width="0.92" fill="none" />
<path d="M 0 778.7 L 50.0 770.7 L 100.0 776.1 L 150.0 785.0 L 200.0 790.7 L 250.0 795.2 L 300.0 796.5 L 350.0 795.9 L 400.0 792.7 L 450.0 788.1 L 500.0 779.7 L 550.0 772.1 L 600.0 766.9 L 650.0 762.9 L 700.0 759.0 L 750.0 761.5 L 800.0 763.3 L 850.0 770.5 L 900.0 776.0 L 950.0 784.9 L 1000.0 791.0 L 1050.0 795.1 L 1100.0 797.7 L 1150.0 795.9 L 1200.0 793.1" stroke="rgba(10,10,8,0.54)" stroke-width="0.81" fill="none" />
<path d="M 0 790.7 L 50.0 798.9 L 100.0 796.3 L 150.0 792.4 L 200.0 786.5 L 250.0 782.9 L 300.0 781.4 L 350.0 778.9 L 400.0 780.4 L 450.0 781.6 L 500.0 786.3 L 550.0 790.1 L 600.0 794.3 L 650.0 798.4 L 700.0 800.9 L 750.0 801.9 L 800.0 801.0 L 850.0 798.5 L 900.0 795.8 L 950.0 790.7 L 1000.0 787.5 L 1050.0 784.0 L 1100.0 780.2 L 1150.0 779.0 L 1200.0 780.3" stroke="rgba(10,10,8,0.23)" stroke-width="0.66" fill="none" />
    </g>
    <rect width="100%" height="100%" fill="url(#vignette-cedar-bottom)"/>
  </g>
</svg>