<?xml version="1.0" encoding="UTF-8"?>
<svg xmlns="http://www.w3.org/2000/svg" viewBox="0 0 1200 800" preserveAspectRatio="xMidYMid slice" role="img" aria-label="korina top">
  <defs>
    <radialGradient id="bg-korina-top" cx="50%" cy="40%" r="80%">
      <stop offset="0%" stop-color="#161410"/>
      <stop offset="100%" stop-color="#0a0a08"/>
    </radialGradient>
    <linearGradient id="wood-korina-top" x1="0" y1="0" x2="1" y2="1">
      <stop offset="0%" stop-color="#a48a64"/>
      <stop offset="50%" stop-color="#bba076"/>
      <stop offset="100%" stop-color="#d3bb8e"/>
    </linearGradient>
    <radialGradient id="vignette-korina-top" cx="50%" cy="50%" r="65%">
      <stop offset="60%" stop-color="rgba(0,0,0,0)"/>
      <stop offset="100%" stop-color="rgba(0,0,0,0.45)"/>
    </radialGradient>
    <clipPath id="clip-korina-top">
      <path d="M600 120 C760 120 880 200 920 320 C960 440 920 560 820 620 C720 680 600 660 600 660 C600 660 480 680 380 620 C280 560 240 440 280 320 C320 200 440 120 600 120 Z"/>
    </clipPath>
  </defs>
  <rect width="100%" height="100%" fill="url(#bg-korina-top)"/>
  <g clip-path="url(#clip-korina-top)">
    <rect width="100%" height="100%" fill="url(#wood-korina-top)"/>
    <g opacity="0.35">
      <path d="M 0 5.0 L 50.0 12.1 L 100.0 15.6 L 150.0 17.8 L 200.0 18.2 L 250.0 16.1 L 300.0 12.3 L 350.0 6.2 L 400.0 2.1 L 450.0 -2.9 L 500.0 -6.1 L 550.0 -7.0 L 600.0 -7.2 L 650.0 -5.7 L 700.0 -2.4 L 750.0 2.2 L 800.0 7.3 L 850.0 13.3 L 900.0 17.0 L 950.0 17.2 L 1000.0 17.1 L 1050.0 16.1 L 1100.0 10.8 L 1150.0 7.8 L 1200.0 1.0" stroke="rgba(10,10,8,0.25)" stroke-width="0.60" fill="none" />
<path d="M 0 13.4 L 50.0 -3.1 L 100.0 -4.5 L 150.0 -3.0 L 200.0 1.6 L 250.0 5.7 L 300.0 12.1 L 350.0 20.1 L 400.0 24.5 L 450.0 28.7 L 500.0 30.0 L 550.0 29.2 L 600.0 27.1 L 650.0 20.0 L 700.0 15.0 L 750.0 8.0 L 800.0 1.7 L 850.0 -1.8 L 900.0 -4.5 L 950.0 -2.6 L 1000.0 -0.1 L 1050.0 6.5 L 1100.0 13.4 L 1150.0 19.3 L 1200.0 25.2" stroke="rgba(10,10,8,0.40)" stroke-width="1.17" fill="none" />
<path d="M 0 27.0 L 50.0 36.9 L 100.0 32.5 L 150.0 29.6 L 200.0 24.5 L 250.0 19.9 L 300.0 18.5 L 350.0 16.9 L 400.0 15.3 L 450.0 18.8 L 500.0 21.6 L 550.0 25.2 L 600.0 29.1 L 650.0 33.6 L 700.0 35.7 L 750.0 38.2 L 800.0 38.5 L 850.0 35.7 L 900.0 32.6 L 950.0 29.5 L 1000.0 24.2 L 1050.0 20.8 L 1100.0 18.3 L 1150.0 16.0 L 1200.0 16.9" stroke="rgba(10,10,8,0.32)" stroke-width="0.64" fill="none" />
<path d="M 0 43.6 L 50.0 59.2 L 100.0 54.2 L 150.0 46.9 L 200.0 38.2 L 250.0 31.5 L 300.0 25.9 L 350.0 23.1 L 400.0 24.2 L 450.0 26.9 L 500.0 32.9 L 550.0 40.2 L 600.0 49.2 L 650.0 56.2 L 700.0 61.4 L 750.0 63.5 L 800.0 62.4 L 850.0 60.2 L 900.0 54.5 L 950.0 45.6 L 1000.0 39.1 L 1050.0 31.1 L 1100.0 27.2 L 1150.0 23.0 L 1200.0 23.7" stroke="rgba(10,10,8,0.55)" stroke-width="0.52" fill="none" />
<path d="M 0 58.8 L 50.0 71.9 L 100.0 65.2 L 150.0 57.5 L 200.0 51.9 L 250.0 46.6 L 300.0 42.8 L 350.0 41.0 L 400.0 43.5 L 450.0 47.1 L 500.0 52.9 L 550.0 59.1 L 600.0 66.2 L 650.0 70.6 L 700.0 75.7 L 750.0 77.0 L 800.0 75.3 L 850.0 70.4 L 900.0 65.2 L 950.0 57.5 L 1000.0 51.1 L 1050.0 45.6 L 1100.0 42.6 L 1150.0 40.5 L 1200.0 42.7" stroke="rgba(10,10,8,0.50)" stroke-width="0.89" fill="none" />
<path d="M 0 70.6 L 50.0 66.4 L 100.0 71.2 L 150.0 73.9 L 200.0 76.6 L 250.0 78.6 L 300.0 79.8 L 350.0 79.1 L 400.0 76.2 L 450.0 74.6 L 500.0 70.3 L 550.0 67.2 L 600.0 64.2 L 650.0 61.6 L 700.0 60.9 L 750.0 61.6 L 800.0 64.1 L 850.0 66.9 L 900.0 70.1 L 950.0 74.1 L 1000.0 76.9 L 1050.0 80.0 L 1100.0 80.1 L 1150.0 79.7 L 1200.0 77.7" stroke="rgba(10,10,8,0.40)" stroke-width="0.45" fill="none" />
<path d="M 0 82.1 L 50.0 80.8 L 100.0 75.4 L 150.0 70.4 L 200.0 68.4 L 250.0 66.8 L 300.0 69.4 L 350.0 73.1 L 400.0 78.8 L 450.0 85.0 L 500.0 89.3 L 550.0 92.8 L 600.0 95.9 L 650.0 95.8 L 700.0 94.7 L 750.0 91.8 L 800.0 86.4 L 850.0 80.0 L 900.0 74.2 L 950.0 69.5 L 1000.0 67.7 L 1050.0 67.9 L 1100.0 68.7 L 1150.0 73.7 L 1200.0 78.5" stroke="rgba(10,10,8,0.43)" stroke-width="1.13" fill="none" />
<path d="M 0 96.2 L 50.0 112.6 L 100.0 105.9 L 150.0 98.8 L 200.0 92.0 L 250.0 83.9 L 300.0 79.0 L 350.0 77.5 L 400.0 76.2 L 450.0 81.0 L 500.0 86.4 L 550.0 93.2 L 600.0 100.5 L 650.0 108.1 L 700.0 113.5 L 750.0 114.8 L 800.0 116.2 L 850.0 111.5 L 900.0 106.4 L 950.0 98.3 L 1000.0 91.1 L 1050.0 83.6 L 1100.0 79.2 L 1150.0 76.6 L 1200.0 76.3" stroke="rgba(10,10,8,0.40)" stroke-width="0.53" fill="none" />
<path d="M 0 108.3 L 50.0 92.6 L 100.0 97.1 L 150.0 104.2 L 200.0 110.2 L 250.0 117.5 L 300.0 123.3 L 350.0 126.7 L 400.0 126.5 L 450.0 124.0 L 500.0 119.9 L 550.0 112.0 L 600.0 105.8 L 650.0 99.3 L 700.0 92.3 L 750.0 89.2 L 800.0 89.8 L 850.0 92.6 L 900.0 98.0 L 950.0 103.0 L 1000.0 110.8 L 1050.0 118.3 L 1100.0 124.5 L 1150.0 126.5 L 1200.0 127.1" stroke="rgba(10,10,8,0.41)" stroke-width="0.72" fill="none" />
<path d="M 0 120.8 L 50.0 110.4 L 100.0 109.0 L 150.0 109.8 L 200.0 113.3 L 250.0 116.8 L 300.0 120.9 L 350.0 124.4 L 400.0 129.1 L 450.0 131.1 L 500.0 132.7 L 550.0 132.6 L 600.0 129.6 L 650.0 125.7 L 700.0 120.9 L 750.0 116.3 L 800.0 113.3 L 850.0 110.4 L 900.0 108.0 L 950.0 110.5 L 1000.0 111.6 L 1050.0 117.0 L 1100.0 121.3 L 1150.0 126.2 L 1200.0 128.9" stroke="rgba(10,10,8,0.24)" stroke-width="0.90" fill="none" />
<path d="M 0 138.1 L 50.0 128.4 L 100.0 127.3 L 150.0 127.4 L 200.0 129.9 L 250.0 133.8 L 300.0 137.0 L 350.0 141.8 L 400.0 146.1 L 450.0 148.3 L 500.0 148.4 L 550.0 148.3 L 600.0 147.1 L 650.0 141.7 L 700.0 139.5 L 750.0 134.7 L 800.0 130.3 L 850.0 128.8 L 900.0 126.7 L 950.0 128.1 L 1000.0 130.0 L 1050.0 132.7 L 1100.0 137.3 L 1150.0 141.5 L 1200.0 145.6" stroke="rgba(10,10,8,0.47)" stroke-width="0.95" fill="none" />
<path d="M 0 152.7 L 50.0 162.8 L 100.0 165.2 L 150.0 166.8 L 200.0 165.8 L 250.0 163.2 L 300.0 158.1 L 350.0 153.9 L 400.0 148.0 L 450.0 143.1 L 500.0 140.9 L 550.0 138.5 L 600.0 140.8 L 650.0 143.4 L 700.0 148.1 L 750.0 152.2 L 800.0 157.1 L 850.0 161.9 L 900.0 165.1 L 950.0 166.8 L 1000.0 164.5 L 1050.0 162.7 L 1100.0 158.6 L 1150.0 152.7 L 1200.0 148.8" stroke="rgba(10,10,8,0.37)" stroke-width="0.73" fill="none" />
<path d="M 0 160.4 L 50.0 154.7 L 100.0 160.9 L 150.0 164.3 L 200.0 168.8 L 250.0 172.5 L 300.0 173.6 L 350.0 171.8 L 400.0 170.2 L 450.0 166.0 L 500.0 160.4 L 550.0 156.0 L 600.0 151.7 L 650.0 148.2 L 700.0 148.1 L 750.0 147.4 L 800.0 151.3 L 850.0 155.8 L 900.0 160.0 L 950.0 165.5 L 1000.0 168.4 L 1050.0 171.7 L 1100.0 174.2 L 1150.0 173.1 L 1200.0 170.0" stroke="rgba(10,10,8,0.35)" stroke-width="0.68" fill="none" />
<path d="M 0 178.9 L 50.0 185.5 L 100.0 177.2 L 150.0 168.6 L 200.0 163.6 L 250.0 158.9 L 300.0 158.2 L 350.0 160.1 L 400.0 165.1 L 450.0 172.1 L 500.0 180.3 L 550.0 188.4 L 600.0 195.3 L 650.0 198.2 L 700.0 199.6 L 750.0 197.8 L 800.0 191.2 L 850.0 184.5 L 900.0 175.9 L 950.0 168.3 L 1000.0 163.9 L 1050.0 159.3 L 1100.0 158.3 L 1150.0 161.5 L 1200.0 166.4" stroke="rgba(10,10,8,0.40)" stroke-width="0.60" fill="none" />
<path d="M 0 192.2 L 50.0 177.0 L 100.0 182.9 L 150.0 192.8 L 200.0 200.5 L 250.0 207.4 L 300.0 213.1 L 350.0 214.6 L 400.0 211.8 L 450.0 207.1 L 500.0 201.1 L 550.0 193.0 L 600.0 183.2 L 650.0 177.5 L 700.0 172.8 L 750.0 170.0 L 800.0 172.3 L 850.0 177.1 L 900.0 183.0 L 950.0 192.3 L 1000.0 201.1 L 1050.0 208.6 L 1100.0 211.4 L 1150.0 214.1 L 1200.0 211.9" stroke="rgba(10,10,8,0.30)" stroke-width="0.53" fill="none" />
<path d="M 0 201.3 L 50.0 217.4 L 100.0 211.3 L 150.0 204.7 L 200.0 197.5 L 250.0 190.6 L 300.0 185.3 L 350.0 182.3 L 400.0 182.3 L 450.0 185.1 L 500.0 189.5 L 550.0 197.2 L 600.0 205.0 L 650.0 211.9 L 700.0 217.7 L 750.0 219.4 L 800.0 219.7 L 850.0 218.1 L 900.0 212.3 L 950.0 205.7 L 1000.0 197.0 L 1050.0 190.6 L 1100.0 185.2 L 1150.0 181.7 L 1200.0 181.6" stroke="rgba(10,10,8,0.45)" stroke-width="0.55" fill="none" />
<path d="M 0 219.2 L 50.0 197.8 L 100.0 200.0 L 150.0 203.6 L 200.0 212.3 L 250.0 218.9 L 300.0 228.3 L 350.0 235.3 L 400.0 239.9 L 450.0 239.9 L 500.0 239.0 L 550.0 233.7 L 600.0 227.5 L 650.0 219.2 L 700.0 211.4 L 750.0 204.6 L 800.0 199.3 L 850.0 198.6 L 900.0 200.5 L 950.0 204.0 L 1000.0 211.9 L 1050.0 219.4 L 1100.0 228.1 L 1150.0 235.5 L 1200.0 239.3" stroke="rgba(10,10,8,0.22)" stroke-width="1.17" fill="none" />
<path d="M 0 227.3 L 50.0 242.8 L 100.0 244.3 L 150.0 244.6 L 200.0 240.1 L 250.0 235.3 L 300.0 228.2 L 350.0 220.3 L 400.0 214.5 L 450.0 211.8 L 500.0 209.8 L 550.0 210.5 L 600.0 214.8 L 650.0 219.7 L 700.0 225.8 L 750.0 234.3 L 800.0 240.2 L 850.0 243.7 L 900.0 245.7 L 950.0 244.2 L 1000.0 240.4 L 1050.0 235.4 L 1100.0 228.8 L 1150.0 220.4 L 1200.0 214.9" stroke="rgba(10,10,8,0.25)" stroke-width="1.00" fill="none" />
<path d="M 0 244.0 L 50.0 243.9 L 100.0 250.1 L 150.0 255.8 L 200.0 261.1 L 250.0 262.2 L 300.0 260.5 L 350.0 256.4 L 400.0 251.6 L 450.0 244.6 L 500.0 237.5 L 550.0 231.0 L 600.0 227.2 L 650.0 227.1 L 700.0 226.9 L 750.0 231.3 L 800.0 237.4 L 850.0 244.6 L 900.0 250.8 L 950.0 257.6 L 1000.0 260.8 L 1050.0 262.7 L 1100.0 260.7 L 1150.0 256.2 L 1200.0 250.4" stroke="rgba(10,10,8,0.23)" stroke-width="0.57" fill="none" />
<path d="M 0 253.6 L 50.0 240.9 L 100.0 238.9 L 150.0 240.1 L 200.0 242.3 L 250.0 245.2 L 300.0 251.4 L 350.0 257.5 L 400.0 262.0 L 450.0 265.5 L 500.0 268.7 L 550.0 267.8 L 600.0 266.6 L 650.0 260.7 L 700.0 256.1 L 750.0 250.1 L 800.0 244.4 L 850.0 240.5 L 900.0 239.7 L 950.0 239.0 L 1000.0 242.3 L 1050.0 246.2 L 1100.0 250.7 L 1150.0 257.7 L 1200.0 262.2" stroke="rgba(10,10,8,0.29)" stroke-width="1.11" fill="none" />
<path d="M 0 270.7 L 50.0 281.7 L 100.0 285.6 L 150.0 287.1 L 200.0 285.0 L 250.0 281.2 L 300.0 277.3 L 350.0 271.6 L 400.0 264.5 L 450.0 259.1 L 500.0 256.2 L 550.0 255.4 L 600.0 256.3 L 650.0 259.3 L 700.0 264.6 L 750.0 270.1 L 800.0 275.6 L 850.0 281.1 L 900.0 285.3 L 950.0 287.1 L 1000.0 284.7 L 1050.0 281.1 L 1100.0 276.6 L 1150.0 270.0 L 1200.0 264.4" stroke="rgba(10,10,8,0.23)" stroke-width="0.60" fill="none" />
<path d="M 0 283.1 L 50.0 281.6 L 100.0 285.2 L 150.0 289.6 L 200.0 291.5 L 250.0 292.1 L 300.0 292.5 L 350.0 289.4 L 400.0 286.7 L 450.0 284.2 L 500.0 279.9 L 550.0 276.6 L 600.0 273.7 L 650.0 274.3 L 700.0 273.2 L 750.0 275.1 L 800.0 279.3 L 850.0 282.8 L 900.0 285.4 L 950.0 289.3 L 1000.0 291.9 L 1050.0 292.9 L 1100.0 292.3 L 1150.0 290.1 L 1200.0 286.7" stroke="rgba(10,10,8,0.39)" stroke-width="0.82" fill="none" />
<path d="M 0 294.4 L 50.0 311.0 L 100.0 308.1 L 150.0 305.8 L 200.0 300.0 L 250.0 294.1 L 300.0 286.6 L 350.0 281.9 L 400.0 280.0 L 450.0 277.9 L 500.0 280.5 L 550.0 284.3 L 600.0 289.4 L 650.0 295.7 L 700.0 302.0 L 750.0 306.7 L 800.0 309.4 L 850.0 310.5 L 900.0 309.6 L 950.0 305.1 L 1000.0 299.6 L 1050.0 293.9 L 1100.0 287.1 L 1150.0 283.1 L 1200.0 279.3" stroke="rgba(10,10,8,0.30)" stroke-width="0.50" fill="none" />
<path d="M 0 310.6 L 50.0 294.3 L 100.0 295.9 L 150.0 300.9 L 200.0 308.6 L 250.0 315.1 L 300.0 320.9 L 350.0 325.4 L 400.0 326.9 L 450.0 327.6 L 500.0 324.3 L 550.0 320.2 L 600.0 313.8 L 650.0 307.2 L 700.0 299.9 L 750.0 295.7 L 800.0 292.8 L 850.0 294.0 L 900.0 297.2 L 950.0 301.9 L 1000.0 307.5 L 1050.0 314.1 L 1100.0 321.3 L 1150.0 325.9 L 1200.0 327.4" stroke="rgba(10,10,8,0.28)" stroke-width="1.00" fill="none" />
<path d="M 0 324.9 L 50.0 331.2 L 100.0 326.6 L 150.0 322.8 L 200.0 320.0 L 250.0 317.0 L 300.0 315.1 L 350.0 315.3 L 400.0 316.3 L 450.0 318.7 L 500.0 321.9 L 550.0 326.5 L 600.0 330.5 L 650.0 332.1 L 700.0 334.6 L 750.0 334.0 L 800.0 334.1 L 850.0 331.3 L 900.0 328.0 L 950.0 323.7 L 1000.0 319.5 L 1050.0 317.9 L 1100.0 315.4 L 1150.0 315.3 L 1200.0 317.3" stroke="rgba(10,10,8,0.30)" stroke-width="0.55" fill="none" />
<path d="M 0 336.2 L 50.0 328.0 L 100.0 323.8 L 150.0 323.3 L 200.0 325.5 L 250.0 328.8 L 300.0 331.6 L 350.0 337.9 L 400.0 340.7 L 450.0 344.6 L 500.0 347.5 L 550.0 347.9 L 600.0 347.3 L 650.0 344.2 L 700.0 340.9 L 750.0 336.2 L 800.0 330.8 L 850.0 326.6 L 900.0 324.5 L 950.0 324.7 L 1000.0 325.7 L 1050.0 328.0 L 1100.0 333.0 L 1150.0 337.3 L 1200.0 341.6" stroke="rgba(10,10,8,0.28)" stroke-width="0.99" fill="none" />
<path d="M 0 347.7 L 50.0 357.2 L 100.0 355.1 L 150.0 354.0 L 200.0 350.9 L 250.0 347.2 L 300.0 343.0 L 350.0 340.1 L 400.0 339.4 L 450.0 338.1 L 500.0 339.8 L 550.0 340.7 L 600.0 344.5 L 650.0 348.8 L 700.0 351.1 L 750.0 353.9 L 800.0 355.4 L 850.0 357.1 L 900.0 357.0 L 950.0 354.3 L 1000.0 350.8 L 1050.0 348.4 L 1100.0 343.0 L 1150.0 340.5 L 1200.0 339.7" stroke="rgba(10,10,8,0.42)" stroke-width="0.66" fill="none" />
<path d="M 0 364.1 L 50.0 382.4 L 100.0 378.7 L 150.0 373.2 L 200.0 366.7 L 250.0 359.4 L 300.0 350.9 L 350.0 347.2 L 400.0 344.6 L 450.0 345.8 L 500.0 348.5 L 550.0 354.5 L 600.0 362.8 L 650.0 369.3 L 700.0 375.6 L 750.0 382.2 L 800.0 382.8 L 850.0 383.8 L 900.0 379.0 L 950.0 374.2 L 1000.0 365.8 L 1050.0 358.2 L 1100.0 351.0 L 1150.0 347.1 L 1200.0 344.4" stroke="rgba(10,10,8,0.30)" stroke-width="0.63" fill="none" />
<path d="M 0 373.5 L 50.0 360.2 L 100.0 366.7 L 150.0 372.8 L 200.0 379.8 L 250.0 385.5 L 300.0 390.8 L 350.0 391.1 L 400.0 390.3 L 450.0 386.5 L 500.0 380.4 L 550.0 373.9 L 600.0 366.6 L 650.0 361.4 L 700.0 357.4 L 750.0 356.3 L 800.0 355.7 L 850.0 361.0 L 900.0 364.9 L 950.0 372.0 L 1000.0 379.6 L 1050.0 386.5 L 1100.0 389.0 L 1150.0 391.9 L 1200.0 391.2" stroke="rgba(10,10,8,0.26)" stroke-width="1.06" fill="none" />
<path d="M 0 388.5 L 50.0 375.9 L 100.0 370.8 L 150.0 367.0 L 200.0 368.6 L 250.0 371.8 L 300.0 377.8 L 350.0 385.9 L 400.0 394.8 L 450.0 402.4 L 500.0 406.2 L 550.0 409.2 L 600.0 409.1 L 650.0 405.1 L 700.0 399.4 L 750.0 390.1 L 800.0 382.0 L 850.0 375.6 L 900.0 370.4 L 950.0 367.1 L 1000.0 369.3 L 1050.0 372.3 L 1100.0 377.8 L 1150.0 385.9 L 1200.0 393.9" stroke="rgba(10,10,8,0.34)" stroke-width="0.46" fill="none" />
<path d="M 0 401.1 L 50.0 389.4 L 100.0 390.4 L 150.0 394.2 L 200.0 398.3 L 250.0 402.2 L 300.0 407.2 L 350.0 411.6 L 400.0 413.5 L 450.0 414.3 L 500.0 412.2 L 550.0 408.5 L 600.0 403.3 L 650.0 398.5 L 700.0 394.3 L 750.0 390.7 L 800.0 388.8 L 850.0 388.6 L 900.0 391.4 L 950.0 394.4 L 1000.0 397.4 L 1050.0 402.7 L 1100.0 408.1 L 1150.0 411.8 L 1200.0 413.8" stroke="rgba(10,10,8,0.43)" stroke-width="1.14" fill="none" />
<path d="M 0 418.7 L 50.0 423.7 L 100.0 431.5 L 150.0 437.3 L 200.0 440.5 L 250.0 439.7 L 300.0 435.5 L 350.0 428.4 L 400.0 421.5 L 450.0 413.1 L 500.0 405.9 L 550.0 400.5 L 600.0 397.0 L 650.0 397.4 L 700.0 401.7 L 750.0 407.5 L 800.0 416.7 L 850.0 423.8 L 900.0 431.7 L 950.0 438.2 L 1000.0 441.2 L 1050.0 438.9 L 1100.0 436.3 L 1150.0 429.5 L 1200.0 420.9" stroke="rgba(10,10,8,0.27)" stroke-width="0.77" fill="none" />
<path d="M 0 427.5 L 50.0 423.5 L 100.0 427.2 L 150.0 431.1 L 200.0 435.1 L 250.0 438.2 L 300.0 438.5 L 350.0 438.5 L 400.0 436.1 L 450.0 432.9 L 500.0 428.9 L 550.0 424.1 L 600.0 419.7 L 650.0 416.1 L 700.0 414.9 L 750.0 415.7 L 800.0 418.9 L 850.0 422.8 L 900.0 427.7 L 950.0 431.5 L 1000.0 436.2 L 1050.0 439.1 L 1100.0 438.9 L 1150.0 438.0 L 1200.0 435.2" stroke="rgba(10,10,8,0.42)" stroke-width="0.45" fill="none" />
<path d="M 0 442.4 L 50.0 434.5 L 100.0 441.8 L 150.0 446.6 L 200.0 454.1 L 250.0 458.5 L 300.0 460.5 L 350.0 459.3 L 400.0 456.3 L 450.0 449.5 L 500.0 444.1 L 550.0 436.8 L 600.0 431.9 L 650.0 427.8 L 700.0 425.5 L 750.0 426.1 L 800.0 430.1 L 850.0 434.0 L 900.0 441.4 L 950.0 447.3 L 1000.0 453.7 L 1050.0 458.4 L 1100.0 459.4 L 1150.0 458.1 L 1200.0 455.0" stroke="rgba(10,10,8,0.38)" stroke-width="0.53" fill="none" />
<path d="M 0 454.5 L 50.0 463.6 L 100.0 463.6 L 150.0 461.5 L 200.0 459.3 L 250.0 454.7 L 300.0 451.7 L 350.0 448.2 L 400.0 445.0 L 450.0 444.4 L 500.0 445.7 L 550.0 448.3 L 600.0 450.2 L 650.0 453.8 L 700.0 457.3 L 750.0 460.8 L 800.0 462.6 L 850.0 464.1 L 900.0 464.3 L 950.0 461.9 L 1000.0 458.0 L 1050.0 454.7 L 1100.0 450.8 L 1150.0 448.8 L 1200.0 445.3" stroke="rgba(10,10,8,0.33)" stroke-width="0.99" fill="none" />
<path d="M 0 471.0 L 50.0 480.9 L 100.0 478.6 L 150.0 476.1 L 200.0 471.4 L 250.0 466.5 L 300.0 464.5 L 350.0 461.6 L 400.0 459.5 L 450.0 461.8 L 500.0 462.7 L 550.0 466.8 L 600.0 470.2 L 650.0 475.1 L 700.0 479.4 L 750.0 480.5 L 800.0 481.1 L 850.0 481.7 L 900.0 479.0 L 950.0 475.2 L 1000.0 471.0 L 1050.0 466.9 L 1100.0 463.9 L 1150.0 460.3 L 1200.0 459.6" stroke="rgba(10,10,8,0.33)" stroke-width="0.71" fill="none" />
<path d="M 0 482.5 L 50.0 463.1 L 100.0 468.7 L 150.0 475.2 L 200.0 483.8 L 250.0 491.3 L 300.0 497.5 L 350.0 503.0 L 400.0 503.4 L 450.0 501.3 L 500.0 497.8 L 550.0 490.2 L 600.0 482.5 L 650.0 473.5 L 700.0 467.8 L 750.0 462.8 L 800.0 462.0 L 850.0 463.3 L 900.0 468.7 L 950.0 475.3 L 1000.0 482.3 L 1050.0 490.4 L 1100.0 497.5 L 1150.0 503.0 L 1200.0 504.1" stroke="rgba(10,10,8,0.52)" stroke-width="0.48" fill="none" />
<path d="M 0 499.2 L 50.0 495.5 L 100.0 491.9 L 150.0 489.1 L 200.0 488.7 L 250.0 488.4 L 300.0 490.4 L 350.0 495.3 L 400.0 499.2 L 450.0 502.3 L 500.0 506.5 L 550.0 509.1 L 600.0 511.0 L 650.0 510.3 L 700.0 508.2 L 750.0 504.5 L 800.0 500.1 L 850.0 495.5 L 900.0 491.5 L 950.0 488.6 L 1000.0 488.4 L 1050.0 489.5 L 1100.0 491.6 L 1150.0 494.5 L 1200.0 498.9" stroke="rgba(10,10,8,0.47)" stroke-width="0.99" fill="none" />
<path d="M 0 507.8 L 50.0 489.6 L 100.0 494.4 L 150.0 502.3 L 200.0 508.8 L 250.0 515.6 L 300.0 522.4 L 350.0 524.8 L 400.0 527.2 L 450.0 524.9 L 500.0 519.6 L 550.0 514.4 L 600.0 507.1 L 650.0 500.4 L 700.0 493.8 L 750.0 490.1 L 800.0 488.0 L 850.0 489.6 L 900.0 495.8 L 950.0 500.5 L 1000.0 508.4 L 1050.0 516.7 L 1100.0 521.1 L 1150.0 526.5 L 1200.0 527.5" stroke="rgba(10,10,8,0.45)" stroke-width="0.50" fill="none" />
<path d="M 0 522.0 L 50.0 519.4 L 100.0 514.3 L 150.0 511.6 L 200.0 510.4 L 250.0 511.7 L 300.0 512.2 L 350.0 517.2 L 400.0 521.5 L 450.0 524.8 L 500.0 529.4 L 550.0 532.3 L 600.0 533.2 L 650.0 534.0 L 700.0 530.7 L 750.0 527.7 L 800.0 522.7 L 850.0 518.7 L 900.0 514.3 L 950.0 512.4 L 1000.0 510.3 L 1050.0 509.8 L 1100.0 512.3 L 1150.0 516.7 L 1200.0 520.1" stroke="rgba(10,10,8,0.54)" stroke-width="1.05" fill="none" />
<path d="M 0 535.4 L 50.0 540.5 L 100.0 545.1 L 150.0 547.8 L 200.0 549.0 L 250.0 548.3 L 300.0 544.8 L 350.0 541.7 L 400.0 536.2 L 450.0 530.9 L 500.0 526.8 L 550.0 524.4 L 600.0 522.3 L 650.0 522.8 L 700.0 526.7 L 750.0 530.2 L 800.0 534.6 L 850.0 539.1 L 900.0 544.0 L 950.0 546.4 L 1000.0 548.9 L 1050.0 546.9 L 1100.0 545.9 L 1150.0 540.6 L 1200.0 535.7" stroke="rgba(10,10,8,0.40)" stroke-width="0.83" fill="none" />
<path d="M 0 550.2 L 50.0 546.0 L 100.0 542.9 L 150.0 541.7 L 200.0 539.8 L 250.0 540.0 L 300.0 543.0 L 350.0 546.1 L 400.0 549.1 L 450.0 553.4 L 500.0 556.6 L 550.0 558.2 L 600.0 560.9 L 650.0 559.0 L 700.0 556.6 L 750.0 554.0 L 800.0 550.8 L 850.0 547.0 L 900.0 544.6 L 950.0 541.5 L 1000.0 541.3 L 1050.0 540.8 L 1100.0 543.5 L 1150.0 546.5 L 1200.0 548.7" stroke="rgba(10,10,8,0.46)" stroke-width="0.69" fill="none" />
<path d="M 0 561.3 L 50.0 577.0 L 100.0 578.0 L 150.0 577.7 L 200.0 575.0 L 250.0 568.3 L 300.0 562.6 L 350.0 554.9 L 400.0 548.3 L 450.0 545.7 L 500.0 542.9 L 550.0 544.5 L 600.0 548.3 L 650.0 553.9 L 700.0 561.3 L 750.0 567.3 L 800.0 573.9 L 850.0 577.9 L 900.0 578.0 L 950.0 578.2 L 1000.0 574.7 L 1050.0 569.2 L 1100.0 562.0 L 1150.0 554.5 L 1200.0 548.5" stroke="rgba(10,10,8,0.47)" stroke-width="0.70" fill="none" />
<path d="M 0 575.7 L 50.0 561.9 L 100.0 565.9 L 150.0 572.1 L 200.0 577.9 L 250.0 584.2 L 300.0 590.2 L 350.0 593.1 L 400.0 591.7 L 450.0 590.3 L 500.0 585.1 L 550.0 579.1 L 600.0 574.0 L 650.0 566.5 L 700.0 562.9 L 750.0 559.4 L 800.0 559.6 L 850.0 560.2 L 900.0 564.6 L 950.0 571.4 L 1000.0 579.0 L 1050.0 584.9 L 1100.0 588.9 L 1150.0 592.9 L 1200.0 593.4" stroke="rgba(10,10,8,0.46)" stroke-width="0.58" fill="none" />
<path d="M 0 586.7 L 50.0 580.2 L 100.0 576.5 L 150.0 574.1 L 200.0 575.4 L 250.0 576.3 L 300.0 579.8 L 350.0 583.8 L 400.0 589.5 L 450.0 592.4 L 500.0 596.8 L 550.0 597.7 L 600.0 598.1 L 650.0 597.6 L 700.0 593.6 L 750.0 589.0 L 800.0 584.6 L 850.0 580.0 L 900.0 577.5 L 950.0 573.9 L 1000.0 574.5 L 1050.0 575.9 L 1100.0 580.6 L 1150.0 584.8 L 1200.0 589.5" stroke="rgba(10,10,8,0.40)" stroke-width="0.54" fill="none" />
<path d="M 0 600.9 L 50.0 589.9 L 100.0 592.9 L 150.0 595.8 L 200.0 601.1 L 250.0 606.7 L 300.0 609.7 L 350.0 611.6 L 400.0 613.0 L 450.0 611.5 L 500.0 608.5 L 550.0 605.9 L 600.0 599.7 L 650.0 594.9 L 700.0 592.2 L 750.0 589.2 L 800.0 588.0 L 850.0 590.8 L 900.0 592.4 L 950.0 597.1 L 1000.0 601.1 L 1050.0 606.1 L 1100.0 609.4 L 1150.0 611.6 L 1200.0 612.7" stroke="rgba(10,10,8,0.33)" stroke-width="1.11" fill="none" />
<path d="M 0 614.4 L 50.0 612.4 L 100.0 616.1 L 150.0 620.5 L 200.0 623.1 L 250.0 623.5 L 300.0 624.5 L 350.0 623.7 L 400.0 620.6 L 450.0 617.1 L 500.0 611.2 L 550.0 607.8 L 600.0 605.5 L 650.0 603.7 L 700.0 604.2 L 750.0 605.3 L 800.0 609.7 L 850.0 613.5 L 900.0 617.1 L 950.0 620.4 L 1000.0 622.7 L 1050.0 624.6 L 1100.0 624.6 L 1150.0 623.4 L 1200.0 619.0" stroke="rgba(10,10,8,0.35)" stroke-width="1.11" fill="none" />
<path d="M 0 629.9 L 50.0 631.0 L 100.0 636.9 L 150.0 639.9 L 200.0 642.4 L 250.0 643.4 L 300.0 642.3 L 350.0 638.6 L 400.0 634.3 L 450.0 628.4 L 500.0 623.7 L 550.0 619.9 L 600.0 617.2 L 650.0 616.5 L 700.0 618.6 L 750.0 621.9 L 800.0 624.8 L 850.0 631.3 L 900.0 636.3 L 950.0 640.2 L 1000.0 642.9 L 1050.0 643.0 L 1100.0 641.8 L 1150.0 637.9 L 1200.0 633.8" stroke="rgba(10,10,8,0.30)" stroke-width="0.92" fill="none" />
<path d="M 0 641.3 L 50.0 638.1 L 100.0 635.6 L 150.0 631.4 L 200.0 631.2 L 250.0 630.8 L 300.0 633.5 L 350.0 635.3 L 400.0 639.7 L 450.0 643.3 L 500.0 646.9 L 550.0 650.4 L 600.0 652.1 L 650.0 652.6 L 700.0 650.5 L 750.0 646.9 L 800.0 642.0 L 850.0 639.5 L 900.0 634.6 L 950.0 632.7 L 1000.0 629.9 L 1050.0 630.6 L 1100.0 632.7 L 1150.0 636.2 L 1200.0 640.6" stroke="rgba(10,10,8,0.48)" stroke-width="0.73" fill="none" />
<path d="M 0 658.0 L 50.0 650.5 L 100.0 643.9 L 150.0 638.4 L 200.0 636.2 L 250.0 638.0 L 300.0 641.5 L 350.0 647.3 L 400.0 655.8 L 450.0 664.2 L 500.0 672.0 L 550.0 676.8 L 600.0 680.6 L 650.0 677.7 L 700.0 673.9 L 750.0 667.3 L 800.0 659.1 L 850.0 651.6 L 900.0 643.6 L 950.0 638.6 L 1000.0 637.3 L 1050.0 638.1 L 1100.0 640.9 L 1150.0 648.1 L 1200.0 657.3" stroke="rgba(10,10,8,0.44)" stroke-width="0.87" fill="none" />
<path d="M 0 668.2 L 50.0 659.3 L 100.0 666.3 L 150.0 671.2 L 200.0 677.1 L 250.0 680.4 L 300.0 682.0 L 350.0 681.8 L 400.0 680.8 L 450.0 675.9 L 500.0 670.5 L 550.0 666.1 L 600.0 661.2 L 650.0 656.0 L 700.0 653.5 L 750.0 654.8 L 800.0 655.7 L 850.0 660.0 L 900.0 665.1 L 950.0 670.4 L 1000.0 676.9 L 1050.0 681.0 L 1100.0 682.6 L 1150.0 683.2 L 1200.0 680.9" stroke="rgba(10,10,8,0.50)" stroke-width="1.10" fill="none" />
<path d="M 0 683.0 L 50.0 689.7 L 100.0 685.0 L 150.0 679.4 L 200.0 673.4 L 250.0 670.0 L 300.0 668.6 L 350.0 670.2 L 400.0 671.4 L 450.0 676.5 L 500.0 680.6 L 550.0 686.2 L 600.0 690.9 L 650.0 694.7 L 700.0 696.9 L 750.0 697.4 L 800.0 694.3 L 850.0 690.0 L 900.0 685.2 L 950.0 679.8 L 1000.0 675.2 L 1050.0 669.8 L 1100.0 668.5 L 1150.0 668.5 L 1200.0 671.3" stroke="rgba(10,10,8,0.29)" stroke-width="0.45" fill="none" />
<path d="M 0 695.2 L 50.0 685.8 L 100.0 685.1 L 150.0 683.9 L 200.0 687.4 L 250.0 689.8 L 300.0 693.5 L 350.0 696.7 L 400.0 700.3 L 450.0 703.2 L 500.0 705.3 L 550.0 705.1 L 600.0 704.5 L 650.0 701.8 L 700.0 697.4 L 750.0 694.0 L 800.0 690.3 L 850.0 686.0 L 900.0 685.9 L 950.0 684.2 L 1000.0 687.1 L 1050.0 689.2 L 1100.0 693.9 L 1150.0 697.7 L 1200.0 701.5" stroke="rgba(10,10,8,0.41)" stroke-width="0.75" fill="none" />
<path d="M 0 708.2 L 50.0 721.6 L 100.0 716.8 L 150.0 711.2 L 200.0 704.4 L 250.0 698.2 L 300.0 693.2 L 350.0 691.2 L 400.0 691.1 L 450.0 695.7 L 500.0 700.3 L 550.0 706.2 L 600.0 712.6 L 650.0 718.6 L 700.0 723.3 L 750.0 725.0 L 800.0 724.1 L 850.0 722.3 L 900.0 716.3 L 950.0 711.7 L 1000.0 705.2 L 1050.0 699.0 L 1100.0 693.4 L 1150.0 692.5 L 1200.0 691.0" stroke="rgba(10,10,8,0.38)" stroke-width="1.15" fill="none" />
<path d="M 0 720.6 L 50.0 717.5 L 100.0 714.3 L 150.0 712.8 L 200.0 711.2 L 250.0 710.7 L 300.0 713.9 L 350.0 717.2 L 400.0 719.8 L 450.0 723.5 L 500.0 727.7 L 550.0 729.9 L 600.0 729.8 L 650.0 730.3 L 700.0 728.2 L 750.0 725.3 L 800.0 720.5 L 850.0 717.2 L 900.0 713.5 L 950.0 711.4 L 1000.0 710.5 L 1050.0 710.4 L 1100.0 713.5 L 1150.0 715.3 L 1200.0 720.5" stroke="rgba(10,10,8,0.45)" stroke-width="1.12" fill="none" />
<path d="M 0 738.4 L 50.0 753.2 L 100.0 746.8 L 150.0 739.7 L 200.0 731.4 L 250.0 724.1 L 300.0 720.3 L 350.0 719.0 L 400.0 720.5 L 450.0 722.7 L 500.0 729.0 L 550.0 737.5 L 600.0 745.7 L 650.0 752.1 L 700.0 756.0 L 750.0 757.7 L 800.0 756.3 L 850.0 753.5 L 900.0 747.2 L 950.0 739.8 L 1000.0 730.8 L 1050.0 725.3 L 1100.0 721.4 L 1150.0 719.3 L 1200.0 719.7" stroke="rgba(10,10,8,0.30)" stroke-width="0.80" fill="none" />
<path d="M 0 750.4 L 50.0 759.0 L 100.0 750.9 L 150.0 743.5 L 200.0 735.6 L 250.0 730.6 L 300.0 729.1 L 350.0 729.5 L 400.0 735.7 L 450.0 742.0 L 500.0 750.0 L 550.0 758.1 L 600.0 765.4 L 650.0 769.8 L 700.0 772.1 L 750.0 769.3 L 800.0 765.1 L 850.0 759.6 L 900.0 750.1 L 950.0 741.8 L 1000.0 735.1 L 1050.0 730.6 L 1100.0 729.3 L 1150.0 730.4 L 1200.0 734.4" stroke="rgba(10,10,8,0.30)" stroke-width="1.13" fill="none" />
<path d="M 0 760.4 L 50.0 761.1 L 100.0 765.8 L 150.0 769.1 L 200.0 772.4 L 250.0 773.3 L 300.0 771.8 L 350.0 769.2 L 400.0 764.5 L 450.0 760.2 L 500.0 755.2 L 550.0 751.2 L 600.0 748.4 L 650.0 748.4 L 700.0 748.9 L 750.0 752.9 L 800.0 756.3 L 850.0 760.5 L 900.0 765.8 L 950.0 770.9 L 1000.0 771.7 L 1050.0 772.6 L 1100.0 772.3 L 1150.0 769.6 L 1200.0 763.7" stroke="rgba(10,10,8,0.33)" stroke-width="0.41" fill="none" />
<path d="M 0 776.0 L 50.0 767.1 L 100.0 768.1 L 150.0 770.5 L 200.0 774.2 L 250.0 777.7 L 300.0 781.0 L 350.0 783.3 L 400.0 784.6 L 450.0 785.5 L 500.0 783.6 L 550.0 780.4 L 600.0 777.7 L 650.0 775.3 L 700.0 772.1 L 750.0 768.5 L 800.0 768.2 L 850.0 766.7 L 900.0 768.5 L 950.0 770.4 L 1000.0 774.5 L 1050.0 777.2 L 1100.0 780.6 L 1150.0 784.0 L 1200.0 784.2" stroke="rgba(10,10,8,0.47)" stroke-width="1.10" fill="none" />
<path d="M 0 789.2 L 50.0 804.4 L 100.0 803.4 L 150.0 800.5 L 200.0 796.5 L 250.0 790.2 L 300.0 784.4 L 350.0 779.2 L 400.0 774.9 L 450.0 773.3 L 500.0 774.2 L 550.0 776.8 L 600.0 781.1 L 650.0 788.3 L 700.0 794.6 L 750.0 798.6 L 800.0 803.8 L 850.0 804.6 L 900.0 803.4 L 950.0 801.0 L 1000.0 796.6 L 1050.0 790.6 L 1100.0 785.1 L 1150.0 779.5 L 1200.0 775.5" stroke="rgba(10,10,8,0.29)" stroke-width="1.10" fill="none" />
    </g>
    <rect width="100%" height="100%" fill="url(#vignette-korina-top)"/>
  </g>
</svg>