<?xml version="1.0" encoding="UTF-8"?>
<svg xmlns="http://www.w3.org/2000/svg" viewBox="0 0 1200 600" preserveAspectRatio="xMidYMid slice" role="img" aria-label="korina side">
  <defs>
    <radialGradient id="bg-korina-side" cx="50%" cy="40%" r="80%">
      <stop offset="0%" stop-color="#161410"/>
      <stop offset="100%" stop-color="#0a0a08"/>
    </radialGradient>
    <linearGradient id="wood-korina-side" x1="0" y1="0" x2="1" y2="1">
      <stop offset="0%" stop-color="#a48a64"/>
      <stop offset="50%" stop-color="#bba076"/>
      <stop offset="100%" stop-color="#d3bb8e"/>
    </linearGradient>
    <radialGradient id="vignette-korina-side" cx="50%" cy="50%" r="65%">
      <stop offset="60%" stop-color="rgba(0,0,0,0)"/>
      <stop offset="100%" stop-color="rgba(0,0,0,0.45)"/>
    </radialGradient>
    <clipPath id="clip-korina-side">
      <path d="M120 280 L1080 280 L1080 320 L120 320 Z"/>
    </clipPath>
  </defs>
  <rect width="100%" height="100%" fill="url(#bg-korina-side)"/>
  <g clip-path="url(#clip-korina-side)">
    <rect width="100%" height="100%" fill="url(#wood-korina-side)"/>
    <g opacity="0.35">
      <path d="M 0 3.6 L 50.0 8.9 L 100.0 4.2 L 150.0 -1.9 L 200.0 -6.7 L 250.0 -10.3 L 300.0 -9.8 L 350.0 -9.1 L 400.0 -6.3 L 450.0 -0.8 L 500.0 4.2 L 550.0 9.1 L 600.0 14.7 L 650.0 17.5 L 700.0 17.6 L 750.0 16.6 L 800.0 13.9 L 850.0 9.4 L 900.0 4.2 L 950.0 -1.9 L 1000.0 -5.6 L 1050.0 -9.3 L 1100.0 -9.9 L 1150.0 -9.5 L 1200.0 -7.1" stroke="rgba(10,10,8,0.54)" stroke-width="0.84" fill="none" />
<path d="M 0 37.2 L 50.0 25.4 L 100.0 27.8 L 150.0 32.0 L 200.0 38.1 L 250.0 42.9 L 300.0 45.9 L 350.0 49.5 L 400.0 50.7 L 450.0 50.7 L 500.0 47.1 L 550.0 41.7 L 600.0 37.5 L 650.0 31.4 L 700.0 27.1 L 750.0 24.8 L 800.0 23.4 L 850.0 23.9 L 900.0 28.7 L 950.0 32.2 L 1000.0 36.4 L 1050.0 42.2 L 1100.0 46.2 L 1150.0 50.0 L 1200.0 50.2" stroke="rgba(10,10,8,0.46)" stroke-width="0.64" fill="none" />
<path d="M 0 72.1 L 50.0 77.1 L 100.0 69.4 L 150.0 63.6 L 200.0 59.0 L 250.0 57.1 L 300.0 56.0 L 350.0 57.1 L 400.0 61.4 L 450.0 67.8 L 500.0 73.7 L 550.0 80.1 L 600.0 85.1 L 650.0 87.6 L 700.0 87.4 L 750.0 85.4 L 800.0 82.6 L 850.0 76.3 L 900.0 70.1 L 950.0 64.8 L 1000.0 58.3 L 1050.0 56.1 L 1100.0 55.3 L 1150.0 57.7 L 1200.0 61.2" stroke="rgba(10,10,8,0.26)" stroke-width="0.98" fill="none" />
<path d="M 0 105.1 L 50.0 99.8 L 100.0 97.6 L 150.0 96.3 L 200.0 97.4 L 250.0 98.3 L 300.0 100.1 L 350.0 104.0 L 400.0 107.8 L 450.0 110.9 L 500.0 112.0 L 550.0 114.3 L 600.0 113.9 L 650.0 111.8 L 700.0 108.7 L 750.0 105.9 L 800.0 102.4 L 850.0 100.6 L 900.0 98.1 L 950.0 97.7 L 1000.0 96.5 L 1050.0 98.0 L 1100.0 100.3 L 1150.0 103.1 L 1200.0 107.9" stroke="rgba(10,10,8,0.42)" stroke-width="1.03" fill="none" />
<path d="M 0 137.6 L 50.0 127.3 L 100.0 126.5 L 150.0 126.8 L 200.0 127.6 L 250.0 130.1 L 300.0 134.3 L 350.0 139.4 L 400.0 143.8 L 450.0 146.3 L 500.0 148.9 L 550.0 150.0 L 600.0 148.3 L 650.0 144.7 L 700.0 140.6 L 750.0 136.1 L 800.0 131.3 L 850.0 127.2 L 900.0 125.4 L 950.0 125.6 L 1000.0 128.2 L 1050.0 131.0 L 1100.0 135.5 L 1150.0 139.2 L 1200.0 144.4" stroke="rgba(10,10,8,0.37)" stroke-width="0.47" fill="none" />
<path d="M 0 172.0 L 50.0 183.4 L 100.0 180.3 L 150.0 176.8 L 200.0 171.9 L 250.0 168.2 L 300.0 163.7 L 350.0 160.4 L 400.0 159.3 L 450.0 159.2 L 500.0 162.7 L 550.0 166.2 L 600.0 171.8 L 650.0 176.4 L 700.0 180.4 L 750.0 183.8 L 800.0 185.0 L 850.0 183.3 L 900.0 181.4 L 950.0 177.4 L 1000.0 172.1 L 1050.0 166.4 L 1100.0 162.0 L 1150.0 160.2 L 1200.0 159.1" stroke="rgba(10,10,8,0.22)" stroke-width="0.90" fill="none" />
<path d="M 0 200.6 L 50.0 207.3 L 100.0 204.9 L 150.0 201.9 L 200.0 198.2 L 250.0 193.7 L 300.0 191.2 L 350.0 192.1 L 400.0 192.9 L 450.0 194.5 L 500.0 197.2 L 550.0 200.3 L 600.0 204.6 L 650.0 205.9 L 700.0 208.6 L 750.0 210.1 L 800.0 208.4 L 850.0 207.7 L 900.0 204.3 L 950.0 200.6 L 1000.0 198.4 L 1050.0 194.6 L 1100.0 191.5 L 1150.0 191.7 L 1200.0 192.3" stroke="rgba(10,10,8,0.22)" stroke-width="0.60" fill="none" />
<path d="M 0 234.1 L 50.0 242.1 L 100.0 245.5 L 150.0 246.7 L 200.0 245.9 L 250.0 244.1 L 300.0 238.5 L 350.0 234.2 L 400.0 228.8 L 450.0 224.8 L 500.0 221.9 L 550.0 221.2 L 600.0 221.5 L 650.0 224.5 L 700.0 228.0 L 750.0 233.4 L 800.0 238.1 L 850.0 243.3 L 900.0 245.4 L 950.0 246.6 L 1000.0 246.6 L 1050.0 243.6 L 1100.0 239.0 L 1150.0 235.0 L 1200.0 229.6" stroke="rgba(10,10,8,0.30)" stroke-width="1.03" fill="none" />
<path d="M 0 268.2 L 50.0 268.7 L 100.0 263.2 L 150.0 256.1 L 200.0 253.1 L 250.0 251.4 L 300.0 252.1 L 350.0 256.6 L 400.0 261.7 L 450.0 267.0 L 500.0 274.4 L 550.0 278.7 L 600.0 283.2 L 650.0 285.3 L 700.0 282.9 L 750.0 280.2 L 800.0 274.7 L 850.0 267.8 L 900.0 262.3 L 950.0 257.4 L 1000.0 252.7 L 1050.0 250.7 L 1100.0 252.6 L 1150.0 255.9 L 1200.0 261.4" stroke="rgba(10,10,8,0.23)" stroke-width="1.03" fill="none" />
<path d="M 0 302.6 L 50.0 286.0 L 100.0 292.2 L 150.0 298.0 L 200.0 305.2 L 250.0 310.4 L 300.0 316.0 L 350.0 319.4 L 400.0 321.1 L 450.0 318.7 L 500.0 314.6 L 550.0 307.6 L 600.0 300.6 L 650.0 294.7 L 700.0 288.1 L 750.0 286.1 L 800.0 285.0 L 850.0 287.1 L 900.0 291.0 L 950.0 297.7 L 1000.0 303.5 L 1050.0 310.9 L 1100.0 316.1 L 1150.0 318.8 L 1200.0 320.3" stroke="rgba(10,10,8,0.30)" stroke-width="0.40" fill="none" />
<path d="M 0 339.2 L 50.0 354.2 L 100.0 352.1 L 150.0 345.3 L 200.0 339.9 L 250.0 333.3 L 300.0 327.3 L 350.0 324.5 L 400.0 321.7 L 450.0 322.9 L 500.0 326.3 L 550.0 333.1 L 600.0 339.7 L 650.0 345.7 L 700.0 349.9 L 750.0 353.6 L 800.0 355.3 L 850.0 354.3 L 900.0 352.2 L 950.0 344.8 L 1000.0 338.5 L 1050.0 332.5 L 1100.0 327.7 L 1150.0 324.1 L 1200.0 321.7" stroke="rgba(10,10,8,0.30)" stroke-width="0.78" fill="none" />
<path d="M 0 367.2 L 50.0 375.5 L 100.0 379.9 L 150.0 382.2 L 200.0 382.8 L 250.0 379.3 L 300.0 376.4 L 350.0 370.6 L 400.0 364.9 L 450.0 358.1 L 500.0 354.2 L 550.0 352.3 L 600.0 352.6 L 650.0 355.2 L 700.0 359.0 L 750.0 364.7 L 800.0 370.9 L 850.0 376.2 L 900.0 379.0 L 950.0 381.2 L 1000.0 382.2 L 1050.0 379.3 L 1100.0 376.3 L 1150.0 370.0 L 1200.0 364.3" stroke="rgba(10,10,8,0.30)" stroke-width="0.65" fill="none" />
<path d="M 0 405.5 L 50.0 413.5 L 100.0 420.4 L 150.0 426.0 L 200.0 427.8 L 250.0 425.6 L 300.0 419.8 L 350.0 413.1 L 400.0 405.7 L 450.0 397.3 L 500.0 390.9 L 550.0 385.9 L 600.0 383.8 L 650.0 386.6 L 700.0 391.1 L 750.0 398.3 L 800.0 406.3 L 850.0 414.3 L 900.0 421.0 L 950.0 424.4 L 1000.0 427.4 L 1050.0 426.1 L 1100.0 419.7 L 1150.0 413.4 L 1200.0 405.2" stroke="rgba(10,10,8,0.34)" stroke-width="0.52" fill="none" />
<path d="M 0 435.5 L 50.0 445.7 L 100.0 443.3 L 150.0 439.7 L 200.0 435.6 L 250.0 431.6 L 300.0 427.4 L 350.0 424.3 L 400.0 424.4 L 450.0 424.0 L 500.0 426.1 L 550.0 429.9 L 600.0 434.1 L 650.0 439.6 L 700.0 442.9 L 750.0 445.9 L 800.0 446.1 L 850.0 446.5 L 900.0 444.7 L 950.0 441.3 L 1000.0 435.8 L 1050.0 431.6 L 1100.0 428.0 L 1150.0 424.4 L 1200.0 424.8" stroke="rgba(10,10,8,0.40)" stroke-width="0.60" fill="none" />
<path d="M 0 469.6 L 50.0 478.1 L 100.0 478.8 L 150.0 477.2 L 200.0 476.5 L 250.0 473.4 L 300.0 470.3 L 350.0 465.9 L 400.0 463.6 L 450.0 461.5 L 500.0 461.1 L 550.0 462.1 L 600.0 463.7 L 650.0 465.9 L 700.0 470.3 L 750.0 473.4 L 800.0 476.3 L 850.0 478.8 L 900.0 477.5 L 950.0 477.0 L 1000.0 476.2 L 1050.0 473.9 L 1100.0 470.5 L 1150.0 465.7 L 1200.0 462.4" stroke="rgba(10,10,8,0.48)" stroke-width="0.62" fill="none" />
<path d="M 0 504.0 L 50.0 521.0 L 100.0 525.1 L 150.0 523.6 L 200.0 520.4 L 250.0 515.9 L 300.0 508.3 L 350.0 500.1 L 400.0 492.0 L 450.0 486.5 L 500.0 483.8 L 550.0 482.8 L 600.0 487.3 L 650.0 492.0 L 700.0 499.6 L 750.0 509.1 L 800.0 516.2 L 850.0 520.5 L 900.0 523.9 L 950.0 524.6 L 1000.0 520.4 L 1050.0 514.9 L 1100.0 507.5 L 1150.0 500.3 L 1200.0 492.2" stroke="rgba(10,10,8,0.39)" stroke-width="1.01" fill="none" />
<path d="M 0 535.4 L 50.0 545.8 L 100.0 546.9 L 150.0 546.5 L 200.0 543.6 L 250.0 540.3 L 300.0 534.5 L 350.0 530.4 L 400.0 527.8 L 450.0 524.0 L 500.0 523.1 L 550.0 524.5 L 600.0 527.6 L 650.0 530.1 L 700.0 534.6 L 750.0 540.9 L 800.0 543.1 L 850.0 547.2 L 900.0 546.7 L 950.0 546.5 L 1000.0 543.3 L 1050.0 540.3 L 1100.0 535.8 L 1150.0 530.8 L 1200.0 527.8" stroke="rgba(10,10,8,0.28)" stroke-width="0.55" fill="none" />
<path d="M 0 569.7 L 50.0 559.9 L 100.0 564.2 L 150.0 569.2 L 200.0 573.3 L 250.0 579.2 L 300.0 581.6 L 350.0 584.3 L 400.0 583.1 L 450.0 581.1 L 500.0 576.2 L 550.0 571.5 L 600.0 564.7 L 650.0 561.2 L 700.0 556.4 L 750.0 555.7 L 800.0 556.8 L 850.0 559.0 L 900.0 564.3 L 950.0 568.9 L 1000.0 573.7 L 1050.0 578.1 L 1100.0 581.4 L 1150.0 583.1 L 1200.0 583.1" stroke="rgba(10,10,8,0.45)" stroke-width="1.02" fill="none" />
    </g>
    <rect width="100%" height="100%" fill="url(#vignette-korina-side)"/>
  </g>
</svg>