<?xml version="1.0" encoding="UTF-8"?>
<svg xmlns="http://www.w3.org/2000/svg" viewBox="0 0 1200 800" preserveAspectRatio="xMidYMid slice" role="img" aria-label="korina bottom">
  <defs>
    <radialGradient id="bg-korina-bottom" cx="50%" cy="40%" r="80%">
      <stop offset="0%" stop-color="#161410"/>
      <stop offset="100%" stop-color="#0a0a08"/>
    </radialGradient>
    <linearGradient id="wood-korina-bottom" x1="0" y1="0" x2="1" y2="1">
      <stop offset="0%" stop-color="#a48a64"/>
      <stop offset="50%" stop-color="#bba076"/>
      <stop offset="100%" stop-color="#d3bb8e"/>
    </linearGradient>
    <radialGradient id="vignette-korina-bottom" cx="50%" cy="50%" r="65%">
      <stop offset="60%" stop-color="rgba(0,0,0,0)"/>
      <stop offset="100%" stop-color="rgba(0,0,0,0.45)"/>
    </radialGradient>
    <clipPath id="clip-korina-bottom">
      <path d="M600 120 C760 120 880 200 920 320 C960 440 920 560 820 620 C720 680 600 660 600 660 C600 660 480 680 380 620 C280 560 240 440 280 320 C320 200 440 120 600 120 Z"/>
    </clipPath>
  </defs>
  <rect width="100%" height="100%" fill="url(#bg-korina-bottom)"/>
  <g clip-path="url(#clip-korina-bottom)">
    <rect width="100%" height="100%" fill="url(#wood-korina-bottom)"/>
    <g opacity="0.35">
      <path d="M 0 3.5 L 50.0 22.6 L 100.0 23.8 L 150.0 21.7 L 200.0 17.7 L 250.0 11.0 L 300.0 2.6 L 350.0 -6.1 L 400.0 -11.1 L 450.0 -15.5 L 500.0 -17.7 L 550.0 -15.9 L 600.0 -11.1 L 650.0 -3.6 L 700.0 5.4 L 750.0 11.8 L 800.0 19.9 L 850.0 23.1 L 900.0 23.6 L 950.0 21.9 L 1000.0 17.1 L 1050.0 10.6 L 1100.0 3.3 L 1150.0 -4.5 L 1200.0 -11.1" stroke="rgba(10,10,8,0.29)" stroke-width="0.95" fill="none" />
<path d="M 0 16.2 L 50.0 21.6 L 100.0 26.4 L 150.0 29.9 L 200.0 31.4 L 250.0 30.8 L 300.0 29.2 L 350.0 22.6 L 400.0 17.2 L 450.0 11.1 L 500.0 6.8 L 550.0 1.4 L 600.0 -0.6 L 650.0 0.3 L 700.0 3.5 L 750.0 8.7 L 800.0 14.2 L 850.0 21.7 L 900.0 27.0 L 950.0 30.0 L 1000.0 31.9 L 1050.0 31.5 L 1100.0 27.6 L 1150.0 23.3 L 1200.0 17.1" stroke="rgba(10,10,8,0.52)" stroke-width="0.58" fill="none" />
<path d="M 0 28.5 L 50.0 34.8 L 100.0 31.9 L 150.0 27.6 L 200.0 25.5 L 250.0 21.6 L 300.0 19.9 L 350.0 18.0 L 400.0 19.6 L 450.0 20.8 L 500.0 25.1 L 550.0 29.4 L 600.0 32.4 L 650.0 35.8 L 700.0 38.2 L 750.0 37.8 L 800.0 37.2 L 850.0 35.3 L 900.0 32.1 L 950.0 29.4 L 1000.0 24.3 L 1050.0 22.0 L 1100.0 18.9 L 1150.0 17.6 L 1200.0 20.0" stroke="rgba(10,10,8,0.53)" stroke-width="0.49" fill="none" />
<path d="M 0 40.1 L 50.0 19.5 L 100.0 22.5 L 150.0 26.9 L 200.0 35.0 L 250.0 43.3 L 300.0 49.9 L 350.0 56.0 L 400.0 60.6 L 450.0 60.3 L 500.0 58.4 L 550.0 53.6 L 600.0 45.7 L 650.0 38.5 L 700.0 29.8 L 750.0 23.6 L 800.0 20.6 L 850.0 20.4 L 900.0 21.8 L 950.0 27.1 L 1000.0 35.2 L 1050.0 43.3 L 1100.0 50.1 L 1150.0 56.6 L 1200.0 59.7" stroke="rgba(10,10,8,0.31)" stroke-width="0.86" fill="none" />
<path d="M 0 54.6 L 50.0 66.4 L 100.0 65.9 L 150.0 64.0 L 200.0 60.2 L 250.0 55.4 L 300.0 52.3 L 350.0 48.5 L 400.0 44.2 L 450.0 44.2 L 500.0 43.6 L 550.0 44.9 L 600.0 48.6 L 650.0 52.9 L 700.0 56.9 L 750.0 61.1 L 800.0 63.5 L 850.0 66.3 L 900.0 65.2 L 950.0 62.4 L 1000.0 60.1 L 1050.0 55.1 L 1100.0 51.8 L 1150.0 48.2 L 1200.0 45.3" stroke="rgba(10,10,8,0.39)" stroke-width="0.43" fill="none" />
<path d="M 0 72.0 L 50.0 58.8 L 100.0 53.1 L 150.0 52.8 L 200.0 54.2 L 250.0 58.2 L 300.0 63.6 L 350.0 71.7 L 400.0 78.5 L 450.0 85.2 L 500.0 89.8 L 550.0 92.2 L 600.0 90.0 L 650.0 86.4 L 700.0 80.8 L 750.0 72.8 L 800.0 65.2 L 850.0 57.6 L 900.0 54.8 L 950.0 51.6 L 1000.0 54.3 L 1050.0 57.7 L 1100.0 63.8 L 1150.0 71.4 L 1200.0 79.5" stroke="rgba(10,10,8,0.44)" stroke-width="0.55" fill="none" />
<path d="M 0 85.4 L 50.0 70.6 L 100.0 71.3 L 150.0 74.7 L 200.0 79.7 L 250.0 86.0 L 300.0 91.5 L 350.0 96.1 L 400.0 99.7 L 450.0 100.6 L 500.0 98.3 L 550.0 96.3 L 600.0 91.7 L 650.0 85.9 L 700.0 79.5 L 750.0 73.7 L 800.0 71.1 L 850.0 70.4 L 900.0 71.8 L 950.0 75.9 L 1000.0 81.0 L 1050.0 86.1 L 1100.0 92.3 L 1150.0 96.0 L 1200.0 99.8" stroke="rgba(10,10,8,0.41)" stroke-width="1.06" fill="none" />
<path d="M 0 93.8 L 50.0 108.2 L 100.0 108.8 L 150.0 108.2 L 200.0 103.7 L 250.0 100.3 L 300.0 93.7 L 350.0 87.3 L 400.0 81.9 L 450.0 79.4 L 500.0 78.8 L 550.0 79.1 L 600.0 83.8 L 650.0 88.6 L 700.0 94.6 L 750.0 99.1 L 800.0 105.2 L 850.0 109.2 L 900.0 109.2 L 950.0 108.7 L 1000.0 104.3 L 1050.0 99.3 L 1100.0 94.2 L 1150.0 87.2 L 1200.0 82.6" stroke="rgba(10,10,8,0.23)" stroke-width="0.59" fill="none" />
<path d="M 0 112.6 L 50.0 94.7 L 100.0 93.1 L 150.0 94.1 L 200.0 96.4 L 250.0 104.1 L 300.0 110.2 L 350.0 118.5 L 400.0 124.6 L 450.0 130.0 L 500.0 131.8 L 550.0 131.8 L 600.0 128.2 L 650.0 121.5 L 700.0 114.8 L 750.0 106.3 L 800.0 99.6 L 850.0 95.7 L 900.0 93.4 L 950.0 94.2 L 1000.0 97.4 L 1050.0 103.8 L 1100.0 109.9 L 1150.0 118.0 L 1200.0 125.3" stroke="rgba(10,10,8,0.44)" stroke-width="0.68" fill="none" />
<path d="M 0 122.1 L 50.0 141.9 L 100.0 139.3 L 150.0 136.0 L 200.0 130.0 L 250.0 123.7 L 300.0 116.5 L 350.0 108.5 L 400.0 104.3 L 450.0 102.8 L 500.0 104.3 L 550.0 106.8 L 600.0 113.7 L 650.0 121.2 L 700.0 128.6 L 750.0 134.8 L 800.0 138.8 L 850.0 141.1 L 900.0 140.8 L 950.0 137.4 L 1000.0 130.9 L 1050.0 123.6 L 1100.0 115.1 L 1150.0 110.2 L 1200.0 105.2" stroke="rgba(10,10,8,0.27)" stroke-width="0.81" fill="none" />
<path d="M 0 134.6 L 50.0 135.8 L 100.0 141.9 L 150.0 146.6 L 200.0 149.7 L 250.0 149.6 L 300.0 149.8 L 350.0 144.7 L 400.0 140.9 L 450.0 133.3 L 500.0 126.9 L 550.0 123.6 L 600.0 118.7 L 650.0 118.6 L 700.0 119.6 L 750.0 124.4 L 800.0 130.0 L 850.0 135.0 L 900.0 141.8 L 950.0 147.0 L 1000.0 150.0 L 1050.0 150.4 L 1100.0 149.1 L 1150.0 145.9 L 1200.0 139.6" stroke="rgba(10,10,8,0.41)" stroke-width="1.13" fill="none" />
<path d="M 0 150.9 L 50.0 142.4 L 100.0 139.5 L 150.0 138.1 L 200.0 140.0 L 250.0 141.5 L 300.0 146.1 L 350.0 149.4 L 400.0 154.9 L 450.0 158.7 L 500.0 160.9 L 550.0 162.7 L 600.0 162.2 L 650.0 160.5 L 700.0 157.3 L 750.0 152.7 L 800.0 146.6 L 850.0 143.2 L 900.0 139.6 L 950.0 138.0 L 1000.0 139.8 L 1050.0 142.4 L 1100.0 145.9 L 1150.0 150.6 L 1200.0 154.4" stroke="rgba(10,10,8,0.23)" stroke-width="0.95" fill="none" />
<path d="M 0 162.6 L 50.0 182.5 L 100.0 178.3 L 150.0 170.3 L 200.0 163.7 L 250.0 155.6 L 300.0 149.2 L 350.0 144.7 L 400.0 143.3 L 450.0 143.1 L 500.0 148.1 L 550.0 154.7 L 600.0 161.5 L 650.0 168.6 L 700.0 176.3 L 750.0 180.9 L 800.0 182.1 L 850.0 181.5 L 900.0 178.5 L 950.0 171.1 L 1000.0 162.6 L 1050.0 155.1 L 1100.0 148.5 L 1150.0 144.6 L 1200.0 142.7" stroke="rgba(10,10,8,0.26)" stroke-width="0.99" fill="none" />
<path d="M 0 177.4 L 50.0 164.5 L 100.0 165.5 L 150.0 169.9 L 200.0 173.1 L 250.0 179.5 L 300.0 184.8 L 350.0 188.1 L 400.0 191.0 L 450.0 190.0 L 500.0 188.8 L 550.0 186.7 L 600.0 181.8 L 650.0 176.2 L 700.0 170.9 L 750.0 166.8 L 800.0 163.5 L 850.0 165.0 L 900.0 165.5 L 950.0 169.9 L 1000.0 174.2 L 1050.0 178.5 L 1100.0 184.7 L 1150.0 187.7 L 1200.0 190.1" stroke="rgba(10,10,8,0.28)" stroke-width="0.51" fill="none" />
<path d="M 0 187.3 L 50.0 187.0 L 100.0 182.0 L 150.0 179.3 L 200.0 175.9 L 250.0 175.9 L 300.0 177.5 L 350.0 179.6 L 400.0 183.4 L 450.0 187.5 L 500.0 192.7 L 550.0 195.8 L 600.0 198.6 L 650.0 198.8 L 700.0 197.4 L 750.0 194.0 L 800.0 189.6 L 850.0 185.4 L 900.0 182.9 L 950.0 179.4 L 1000.0 176.2 L 1050.0 177.2 L 1100.0 177.8 L 1150.0 180.2 L 1200.0 184.9" stroke="rgba(10,10,8,0.49)" stroke-width="0.61" fill="none" />
<path d="M 0 201.4 L 50.0 205.2 L 100.0 211.5 L 150.0 216.7 L 200.0 220.3 L 250.0 220.9 L 300.0 217.9 L 350.0 211.3 L 400.0 205.2 L 450.0 198.1 L 500.0 189.5 L 550.0 184.4 L 600.0 182.7 L 650.0 182.2 L 700.0 185.4 L 750.0 190.6 L 800.0 197.7 L 850.0 206.4 L 900.0 212.2 L 950.0 217.8 L 1000.0 219.7 L 1050.0 219.9 L 1100.0 217.2 L 1150.0 211.9 L 1200.0 204.9" stroke="rgba(10,10,8,0.41)" stroke-width="0.84" fill="none" />
<path d="M 0 216.7 L 50.0 213.9 L 100.0 210.5 L 150.0 208.8 L 200.0 206.6 L 250.0 207.3 L 300.0 210.4 L 350.0 212.8 L 400.0 216.7 L 450.0 219.2 L 500.0 223.0 L 550.0 225.2 L 600.0 225.6 L 650.0 225.1 L 700.0 224.4 L 750.0 220.5 L 800.0 216.5 L 850.0 212.7 L 900.0 211.0 L 950.0 208.2 L 1000.0 207.6 L 1050.0 207.0 L 1100.0 208.5 L 1150.0 211.9 L 1200.0 216.7" stroke="rgba(10,10,8,0.53)" stroke-width="1.19" fill="none" />
<path d="M 0 228.4 L 50.0 231.9 L 100.0 224.7 L 150.0 218.5 L 200.0 213.7 L 250.0 210.5 L 300.0 211.5 L 350.0 212.7 L 400.0 218.7 L 450.0 226.2 L 500.0 232.6 L 550.0 239.6 L 600.0 243.0 L 650.0 246.8 L 700.0 245.3 L 750.0 242.2 L 800.0 237.3 L 850.0 231.8 L 900.0 223.6 L 950.0 217.3 L 1000.0 212.4 L 1050.0 211.3 L 1100.0 210.7 L 1150.0 214.5 L 1200.0 219.2" stroke="rgba(10,10,8,0.27)" stroke-width="0.53" fill="none" />
<path d="M 0 245.0 L 50.0 244.3 L 100.0 237.1 L 150.0 231.2 L 200.0 227.6 L 250.0 226.8 L 300.0 230.1 L 350.0 234.6 L 400.0 240.2 L 450.0 246.7 L 500.0 253.8 L 550.0 259.2 L 600.0 261.0 L 650.0 262.2 L 700.0 259.9 L 750.0 257.0 L 800.0 251.0 L 850.0 244.3 L 900.0 236.2 L 950.0 231.8 L 1000.0 227.9 L 1050.0 227.0 L 1100.0 230.4 L 1150.0 234.4 L 1200.0 240.0" stroke="rgba(10,10,8,0.41)" stroke-width="0.46" fill="none" />
<path d="M 0 258.9 L 50.0 265.1 L 100.0 259.0 L 150.0 250.1 L 200.0 244.7 L 250.0 241.2 L 300.0 240.5 L 350.0 241.7 L 400.0 245.2 L 450.0 253.0 L 500.0 258.9 L 550.0 267.5 L 600.0 273.0 L 650.0 276.8 L 700.0 277.2 L 750.0 275.8 L 800.0 271.0 L 850.0 265.5 L 900.0 258.4 L 950.0 250.8 L 1000.0 244.9 L 1050.0 240.1 L 1100.0 240.8 L 1150.0 241.4 L 1200.0 246.6" stroke="rgba(10,10,8,0.54)" stroke-width="0.86" fill="none" />
<path d="M 0 268.6 L 50.0 258.8 L 100.0 252.6 L 150.0 249.4 L 200.0 248.0 L 250.0 249.6 L 300.0 254.4 L 350.0 262.6 L 400.0 269.8 L 450.0 278.5 L 500.0 284.7 L 550.0 287.9 L 600.0 288.3 L 650.0 287.5 L 700.0 282.0 L 750.0 276.4 L 800.0 268.0 L 850.0 260.0 L 900.0 252.6 L 950.0 249.3 L 1000.0 248.7 L 1050.0 251.0 L 1100.0 255.0 L 1150.0 261.4 L 1200.0 270.6" stroke="rgba(10,10,8,0.25)" stroke-width="0.79" fill="none" />
<path d="M 0 282.0 L 50.0 267.9 L 100.0 271.2 L 150.0 276.8 L 200.0 282.5 L 250.0 288.1 L 300.0 293.5 L 350.0 297.5 L 400.0 297.0 L 450.0 296.2 L 500.0 292.3 L 550.0 287.4 L 600.0 280.7 L 650.0 275.0 L 700.0 269.4 L 750.0 266.7 L 800.0 266.3 L 850.0 267.0 L 900.0 270.4 L 950.0 276.1 L 1000.0 282.1 L 1050.0 289.3 L 1100.0 294.0 L 1150.0 296.8 L 1200.0 298.7" stroke="rgba(10,10,8,0.29)" stroke-width="0.69" fill="none" />
<path d="M 0 298.6 L 50.0 295.0 L 100.0 291.0 L 150.0 285.1 L 200.0 282.8 L 250.0 284.1 L 300.0 286.3 L 350.0 289.4 L 400.0 295.8 L 450.0 302.1 L 500.0 307.7 L 550.0 311.9 L 600.0 313.9 L 650.0 313.5 L 700.0 311.7 L 750.0 307.5 L 800.0 301.3 L 850.0 296.0 L 900.0 289.7 L 950.0 286.8 L 1000.0 283.1 L 1050.0 282.6 L 1100.0 286.4 L 1150.0 290.8 L 1200.0 295.0" stroke="rgba(10,10,8,0.32)" stroke-width="1.16" fill="none" />
<path d="M 0 308.5 L 50.0 296.2 L 100.0 303.0 L 150.0 310.9 L 200.0 318.0 L 250.0 323.5 L 300.0 327.5 L 350.0 327.1 L 400.0 326.3 L 450.0 321.4 L 500.0 315.2 L 550.0 306.8 L 600.0 300.5 L 650.0 293.8 L 700.0 289.6 L 750.0 288.5 L 800.0 291.6 L 850.0 296.3 L 900.0 303.1 L 950.0 310.5 L 1000.0 316.6 L 1050.0 322.7 L 1100.0 327.9 L 1150.0 328.6 L 1200.0 326.3" stroke="rgba(10,10,8,0.45)" stroke-width="0.64" fill="none" />
<path d="M 0 324.8 L 50.0 329.9 L 100.0 335.5 L 150.0 338.3 L 200.0 340.5 L 250.0 339.4 L 300.0 337.5 L 350.0 333.1 L 400.0 326.9 L 450.0 320.1 L 500.0 314.5 L 550.0 311.6 L 600.0 309.8 L 650.0 309.5 L 700.0 311.8 L 750.0 317.7 L 800.0 323.7 L 850.0 328.6 L 900.0 334.6 L 950.0 339.2 L 1000.0 339.9 L 1050.0 339.4 L 1100.0 337.3 L 1150.0 332.4 L 1200.0 326.3" stroke="rgba(10,10,8,0.41)" stroke-width="0.81" fill="none" />
<path d="M 0 336.3 L 50.0 326.8 L 100.0 332.2 L 150.0 338.3 L 200.0 342.4 L 250.0 347.8 L 300.0 350.0 L 350.0 350.5 L 400.0 348.4 L 450.0 344.4 L 500.0 341.0 L 550.0 335.0 L 600.0 330.1 L 650.0 324.8 L 700.0 322.9 L 750.0 322.3 L 800.0 324.5 L 850.0 327.5 L 900.0 332.8 L 950.0 338.7 L 1000.0 342.0 L 1050.0 346.3 L 1100.0 349.8 L 1150.0 350.7 L 1200.0 347.9" stroke="rgba(10,10,8,0.25)" stroke-width="0.58" fill="none" />
<path d="M 0 348.5 L 50.0 348.3 L 100.0 341.9 L 150.0 337.7 L 200.0 334.4 L 250.0 332.6 L 300.0 333.6 L 350.0 337.5 L 400.0 343.8 L 450.0 349.8 L 500.0 355.4 L 550.0 361.4 L 600.0 364.3 L 650.0 364.9 L 700.0 362.7 L 750.0 360.1 L 800.0 353.6 L 850.0 347.2 L 900.0 341.3 L 950.0 337.2 L 1000.0 332.6 L 1050.0 332.6 L 1100.0 334.1 L 1150.0 337.6 L 1200.0 342.3" stroke="rgba(10,10,8,0.26)" stroke-width="0.96" fill="none" />
<path d="M 0 361.9 L 50.0 380.7 L 100.0 379.4 L 150.0 373.6 L 200.0 367.2 L 250.0 359.5 L 300.0 353.5 L 350.0 346.6 L 400.0 344.4 L 450.0 343.2 L 500.0 344.4 L 550.0 349.1 L 600.0 355.9 L 650.0 364.3 L 700.0 371.0 L 750.0 376.1 L 800.0 380.3 L 850.0 381.4 L 900.0 378.1 L 950.0 373.5 L 1000.0 366.9 L 1050.0 360.0 L 1100.0 353.7 L 1150.0 348.4 L 1200.0 343.2" stroke="rgba(10,10,8,0.46)" stroke-width="0.88" fill="none" />
<path d="M 0 378.5 L 50.0 368.0 L 100.0 365.3 L 150.0 363.1 L 200.0 363.4 L 250.0 366.4 L 300.0 370.7 L 350.0 377.0 L 400.0 383.9 L 450.0 387.9 L 500.0 391.5 L 550.0 392.8 L 600.0 393.1 L 650.0 389.9 L 700.0 385.1 L 750.0 379.6 L 800.0 373.3 L 850.0 369.6 L 900.0 366.1 L 950.0 364.0 L 1000.0 363.4 L 1050.0 367.4 L 1100.0 371.9 L 1150.0 377.2 L 1200.0 382.0" stroke="rgba(10,10,8,0.33)" stroke-width="0.77" fill="none" />
<path d="M 0 389.2 L 50.0 387.9 L 100.0 384.5 L 150.0 381.2 L 200.0 377.5 L 250.0 377.4 L 300.0 378.2 L 350.0 381.2 L 400.0 385.3 L 450.0 390.3 L 500.0 395.4 L 550.0 397.2 L 600.0 400.5 L 650.0 401.5 L 700.0 398.8 L 750.0 397.5 L 800.0 392.5 L 850.0 387.3 L 900.0 384.3 L 950.0 381.3 L 1000.0 379.2 L 1050.0 377.4 L 1100.0 379.5 L 1150.0 381.6 L 1200.0 385.2" stroke="rgba(10,10,8,0.34)" stroke-width="1.01" fill="none" />
<path d="M 0 405.8 L 50.0 401.9 L 100.0 398.0 L 150.0 394.2 L 200.0 394.0 L 250.0 395.0 L 300.0 398.4 L 350.0 402.2 L 400.0 405.7 L 450.0 409.5 L 500.0 414.3 L 550.0 415.9 L 600.0 416.9 L 650.0 415.8 L 700.0 413.6 L 750.0 409.2 L 800.0 405.1 L 850.0 401.0 L 900.0 398.2 L 950.0 396.0 L 1000.0 394.4 L 1050.0 395.8 L 1100.0 398.1 L 1150.0 400.9 L 1200.0 405.7" stroke="rgba(10,10,8,0.48)" stroke-width="0.98" fill="none" />
<path d="M 0 413.7 L 50.0 393.0 L 100.0 395.8 L 150.0 401.5 L 200.0 408.7 L 250.0 416.7 L 300.0 424.3 L 350.0 429.3 L 400.0 434.3 L 450.0 433.3 L 500.0 431.0 L 550.0 426.6 L 600.0 419.4 L 650.0 411.5 L 700.0 403.7 L 750.0 396.3 L 800.0 394.8 L 850.0 392.6 L 900.0 395.3 L 950.0 400.8 L 1000.0 408.2 L 1050.0 416.6 L 1100.0 424.7 L 1150.0 430.5 L 1200.0 433.6" stroke="rgba(10,10,8,0.28)" stroke-width="1.01" fill="none" />
<path d="M 0 431.1 L 50.0 429.7 L 100.0 437.4 L 150.0 444.9 L 200.0 449.1 L 250.0 452.5 L 300.0 450.1 L 350.0 446.4 L 400.0 441.1 L 450.0 431.7 L 500.0 424.1 L 550.0 418.2 L 600.0 413.0 L 650.0 410.3 L 700.0 410.9 L 750.0 415.6 L 800.0 421.3 L 850.0 429.4 L 900.0 438.6 L 950.0 443.9 L 1000.0 450.0 L 1050.0 451.5 L 1100.0 450.5 L 1150.0 446.9 L 1200.0 439.7" stroke="rgba(10,10,8,0.41)" stroke-width="0.86" fill="none" />
<path d="M 0 445.0 L 50.0 447.3 L 100.0 449.6 L 150.0 452.0 L 200.0 453.4 L 250.0 454.1 L 300.0 453.0 L 350.0 450.8 L 400.0 446.8 L 450.0 444.1 L 500.0 439.1 L 550.0 437.4 L 600.0 435.8 L 650.0 435.4 L 700.0 437.9 L 750.0 439.4 L 800.0 443.3 L 850.0 447.3 L 900.0 451.0 L 950.0 452.8 L 1000.0 452.9 L 1050.0 453.1 L 1100.0 453.3 L 1150.0 450.9 L 1200.0 445.8" stroke="rgba(10,10,8,0.49)" stroke-width="1.16" fill="none" />
<path d="M 0 454.4 L 50.0 459.5 L 100.0 452.8 L 150.0 445.9 L 200.0 440.7 L 250.0 436.6 L 300.0 436.8 L 350.0 440.1 L 400.0 443.8 L 450.0 450.6 L 500.0 457.8 L 550.0 463.3 L 600.0 467.8 L 650.0 470.9 L 700.0 471.9 L 750.0 468.9 L 800.0 464.4 L 850.0 458.1 L 900.0 451.4 L 950.0 445.3 L 1000.0 440.8 L 1050.0 437.8 L 1100.0 436.3 L 1150.0 439.5 L 1200.0 444.7" stroke="rgba(10,10,8,0.45)" stroke-width="0.55" fill="none" />
<path d="M 0 468.6 L 50.0 470.3 L 100.0 476.7 L 150.0 481.7 L 200.0 485.1 L 250.0 485.3 L 300.0 483.9 L 350.0 478.4 L 400.0 474.0 L 450.0 466.4 L 500.0 460.3 L 550.0 455.0 L 600.0 451.1 L 650.0 451.2 L 700.0 453.4 L 750.0 458.6 L 800.0 464.5 L 850.0 470.2 L 900.0 476.6 L 950.0 482.0 L 1000.0 485.0 L 1050.0 486.5 L 1100.0 483.9 L 1150.0 478.8 L 1200.0 472.3" stroke="rgba(10,10,8,0.48)" stroke-width="0.57" fill="none" />
<path d="M 0 480.1 L 50.0 466.9 L 100.0 468.5 L 150.0 469.9 L 200.0 474.7 L 250.0 479.2 L 300.0 485.4 L 350.0 489.2 L 400.0 491.7 L 450.0 492.7 L 500.0 492.0 L 550.0 489.8 L 600.0 484.6 L 650.0 480.0 L 700.0 475.3 L 750.0 471.2 L 800.0 468.4 L 850.0 466.3 L 900.0 468.8 L 950.0 470.9 L 1000.0 475.8 L 1050.0 480.0 L 1100.0 485.4 L 1150.0 489.1 L 1200.0 491.4" stroke="rgba(10,10,8,0.51)" stroke-width="0.70" fill="none" />
<path d="M 0 495.0 L 50.0 474.9 L 100.0 475.9 L 150.0 481.8 L 200.0 488.2 L 250.0 496.8 L 300.0 504.3 L 350.0 511.4 L 400.0 515.3 L 450.0 515.4 L 500.0 513.4 L 550.0 508.9 L 600.0 503.0 L 650.0 494.6 L 700.0 485.2 L 750.0 478.9 L 800.0 474.4 L 850.0 473.6 L 900.0 476.2 L 950.0 481.1 L 1000.0 488.0 L 1050.0 495.9 L 1100.0 504.5 L 1150.0 510.1 L 1200.0 514.2" stroke="rgba(10,10,8,0.53)" stroke-width="1.07" fill="none" />
<path d="M 0 508.2 L 50.0 492.7 L 100.0 491.4 L 150.0 492.5 L 200.0 497.6 L 250.0 502.4 L 300.0 508.1 L 350.0 513.8 L 400.0 518.7 L 450.0 523.1 L 500.0 524.8 L 550.0 523.7 L 600.0 519.9 L 650.0 515.0 L 700.0 509.3 L 750.0 503.1 L 800.0 496.8 L 850.0 494.4 L 900.0 493.0 L 950.0 492.6 L 1000.0 496.3 L 1050.0 500.9 L 1100.0 508.1 L 1150.0 513.9 L 1200.0 519.9" stroke="rgba(10,10,8,0.27)" stroke-width="1.02" fill="none" />
<path d="M 0 523.4 L 50.0 514.2 L 100.0 514.5 L 150.0 518.8 L 200.0 522.6 L 250.0 525.4 L 300.0 528.7 L 350.0 531.1 L 400.0 532.6 L 450.0 532.9 L 500.0 532.3 L 550.0 527.9 L 600.0 525.7 L 650.0 521.8 L 700.0 518.0 L 750.0 514.2 L 800.0 513.4 L 850.0 513.5 L 900.0 515.6 L 950.0 519.0 L 1000.0 521.7 L 1050.0 525.9 L 1100.0 529.6 L 1150.0 531.2 L 1200.0 532.9" stroke="rgba(10,10,8,0.25)" stroke-width="0.45" fill="none" />
<path d="M 0 536.2 L 50.0 517.7 L 100.0 520.0 L 150.0 522.5 L 200.0 528.8 L 250.0 535.0 L 300.0 542.7 L 350.0 548.4 L 400.0 553.6 L 450.0 554.6 L 500.0 552.6 L 550.0 549.2 L 600.0 544.4 L 650.0 536.5 L 700.0 528.8 L 750.0 524.4 L 800.0 519.4 L 850.0 517.8 L 900.0 518.2 L 950.0 523.5 L 1000.0 529.5 L 1050.0 536.3 L 1100.0 543.4 L 1150.0 549.6 L 1200.0 553.0" stroke="rgba(10,10,8,0.23)" stroke-width="1.03" fill="none" />
<path d="M 0 550.5 L 50.0 558.4 L 100.0 563.7 L 150.0 568.6 L 200.0 569.0 L 250.0 566.7 L 300.0 562.0 L 350.0 556.5 L 400.0 548.9 L 450.0 543.4 L 500.0 536.6 L 550.0 532.6 L 600.0 532.4 L 650.0 534.1 L 700.0 538.6 L 750.0 544.7 L 800.0 551.8 L 850.0 557.7 L 900.0 564.1 L 950.0 566.9 L 1000.0 568.2 L 1050.0 567.5 L 1100.0 562.4 L 1150.0 556.0 L 1200.0 550.0" stroke="rgba(10,10,8,0.44)" stroke-width="0.66" fill="none" />
<path d="M 0 563.6 L 50.0 578.4 L 100.0 577.9 L 150.0 574.1 L 200.0 569.5 L 250.0 563.9 L 300.0 558.0 L 350.0 551.7 L 400.0 549.5 L 450.0 547.1 L 500.0 549.1 L 550.0 553.3 L 600.0 558.3 L 650.0 562.8 L 700.0 570.2 L 750.0 574.6 L 800.0 577.7 L 850.0 579.9 L 900.0 577.6 L 950.0 574.7 L 1000.0 569.1 L 1050.0 563.9 L 1100.0 556.8 L 1150.0 552.6 L 1200.0 550.1" stroke="rgba(10,10,8,0.39)" stroke-width="0.49" fill="none" />
<path d="M 0 578.3 L 50.0 577.8 L 100.0 573.8 L 150.0 571.3 L 200.0 568.4 L 250.0 568.7 L 300.0 569.7 L 350.0 570.6 L 400.0 575.5 L 450.0 579.7 L 500.0 583.8 L 550.0 586.5 L 600.0 587.9 L 650.0 588.3 L 700.0 588.5 L 750.0 585.3 L 800.0 581.8 L 850.0 578.2 L 900.0 574.5 L 950.0 569.6 L 1000.0 569.0 L 1050.0 568.6 L 1100.0 568.7 L 1150.0 571.2 L 1200.0 575.8" stroke="rgba(10,10,8,0.23)" stroke-width="0.50" fill="none" />
<path d="M 0 590.0 L 50.0 602.0 L 100.0 599.7 L 150.0 596.5 L 200.0 594.1 L 250.0 588.5 L 300.0 584.7 L 350.0 581.2 L 400.0 579.8 L 450.0 578.1 L 500.0 580.7 L 550.0 582.4 L 600.0 587.2 L 650.0 591.6 L 700.0 595.4 L 750.0 597.8 L 800.0 599.6 L 850.0 600.8 L 900.0 600.2 L 950.0 597.6 L 1000.0 593.6 L 1050.0 588.9 L 1100.0 586.1 L 1150.0 581.9 L 1200.0 579.9" stroke="rgba(10,10,8,0.38)" stroke-width="1.17" fill="none" />
<path d="M 0 601.1 L 50.0 617.2 L 100.0 618.9 L 150.0 616.1 L 200.0 611.6 L 250.0 605.9 L 300.0 599.1 L 350.0 593.7 L 400.0 587.0 L 450.0 584.7 L 500.0 583.8 L 550.0 585.3 L 600.0 591.5 L 650.0 597.4 L 700.0 603.4 L 750.0 609.0 L 800.0 614.0 L 850.0 617.4 L 900.0 618.8 L 950.0 616.3 L 1000.0 612.1 L 1050.0 605.0 L 1100.0 599.1 L 1150.0 593.7 L 1200.0 587.7" stroke="rgba(10,10,8,0.30)" stroke-width="0.89" fill="none" />
<path d="M 0 615.9 L 50.0 624.9 L 100.0 627.4 L 150.0 629.2 L 200.0 627.6 L 250.0 624.1 L 300.0 619.5 L 350.0 615.4 L 400.0 611.2 L 450.0 606.3 L 500.0 604.2 L 550.0 602.9 L 600.0 603.8 L 650.0 607.1 L 700.0 611.4 L 750.0 617.4 L 800.0 620.9 L 850.0 624.9 L 900.0 627.0 L 950.0 628.8 L 1000.0 627.3 L 1050.0 625.1 L 1100.0 620.6 L 1150.0 614.6 L 1200.0 610.8" stroke="rgba(10,10,8,0.23)" stroke-width="1.15" fill="none" />
<path d="M 0 627.1 L 50.0 635.4 L 100.0 632.5 L 150.0 629.6 L 200.0 625.3 L 250.0 621.3 L 300.0 618.6 L 350.0 618.5 L 400.0 617.9 L 450.0 618.6 L 500.0 621.7 L 550.0 625.1 L 600.0 629.3 L 650.0 631.3 L 700.0 634.8 L 750.0 637.4 L 800.0 636.9 L 850.0 635.4 L 900.0 632.0 L 950.0 629.8 L 1000.0 624.9 L 1050.0 622.3 L 1100.0 619.4 L 1150.0 618.2 L 1200.0 618.3" stroke="rgba(10,10,8,0.43)" stroke-width="1.01" fill="none" />
<path d="M 0 642.4 L 50.0 627.4 L 100.0 628.1 L 150.0 631.9 L 200.0 636.9 L 250.0 641.1 L 300.0 648.3 L 350.0 653.4 L 400.0 656.7 L 450.0 658.3 L 500.0 656.8 L 550.0 653.9 L 600.0 648.4 L 650.0 643.1 L 700.0 636.8 L 750.0 632.5 L 800.0 628.1 L 850.0 626.7 L 900.0 628.2 L 950.0 630.7 L 1000.0 636.8 L 1050.0 641.2 L 1100.0 648.4 L 1150.0 652.9 L 1200.0 657.3" stroke="rgba(10,10,8,0.34)" stroke-width="0.91" fill="none" />
<path d="M 0 655.5 L 50.0 644.4 L 100.0 642.4 L 150.0 645.3 L 200.0 647.6 L 250.0 650.7 L 300.0 657.1 L 350.0 660.7 L 400.0 665.4 L 450.0 666.4 L 500.0 667.7 L 550.0 666.9 L 600.0 664.4 L 650.0 658.8 L 700.0 655.6 L 750.0 650.2 L 800.0 647.1 L 850.0 643.0 L 900.0 643.4 L 950.0 643.8 L 1000.0 647.5 L 1050.0 651.4 L 1100.0 656.2 L 1150.0 661.6 L 1200.0 664.9" stroke="rgba(10,10,8,0.26)" stroke-width="0.64" fill="none" />
<path d="M 0 668.4 L 50.0 678.0 L 100.0 673.0 L 150.0 667.6 L 200.0 661.7 L 250.0 656.9 L 300.0 654.6 L 350.0 653.0 L 400.0 654.6 L 450.0 656.9 L 500.0 663.8 L 550.0 668.3 L 600.0 674.7 L 650.0 678.6 L 700.0 683.2 L 750.0 684.0 L 800.0 682.0 L 850.0 679.0 L 900.0 674.7 L 950.0 667.3 L 1000.0 661.2 L 1050.0 657.6 L 1100.0 653.2 L 1150.0 653.5 L 1200.0 654.2" stroke="rgba(10,10,8,0.30)" stroke-width="1.05" fill="none" />
<path d="M 0 682.1 L 50.0 677.4 L 100.0 682.7 L 150.0 686.7 L 200.0 691.7 L 250.0 692.8 L 300.0 693.8 L 350.0 692.6 L 400.0 689.4 L 450.0 686.8 L 500.0 682.4 L 550.0 677.4 L 600.0 674.3 L 650.0 671.9 L 700.0 671.4 L 750.0 672.6 L 800.0 674.5 L 850.0 678.3 L 900.0 682.6 L 950.0 687.3 L 1000.0 691.4 L 1050.0 693.6 L 1100.0 693.1 L 1150.0 692.1 L 1200.0 689.7" stroke="rgba(10,10,8,0.53)" stroke-width="0.61" fill="none" />
<path d="M 0 697.6 L 50.0 706.9 L 100.0 705.6 L 150.0 703.2 L 200.0 698.4 L 250.0 695.8 L 300.0 692.1 L 350.0 689.8 L 400.0 688.4 L 450.0 686.8 L 500.0 688.6 L 550.0 691.9 L 600.0 695.1 L 650.0 699.4 L 700.0 703.3 L 750.0 705.7 L 800.0 707.6 L 850.0 707.2 L 900.0 706.4 L 950.0 702.5 L 1000.0 699.6 L 1050.0 694.5 L 1100.0 690.8 L 1150.0 689.6 L 1200.0 688.1" stroke="rgba(10,10,8,0.34)" stroke-width="0.64" fill="none" />
<path d="M 0 708.3 L 50.0 711.0 L 100.0 705.3 L 150.0 699.4 L 200.0 696.3 L 250.0 692.5 L 300.0 693.4 L 350.0 695.5 L 400.0 700.2 L 450.0 707.1 L 500.0 712.2 L 550.0 718.4 L 600.0 722.0 L 650.0 723.9 L 700.0 723.2 L 750.0 720.3 L 800.0 715.6 L 850.0 710.8 L 900.0 704.2 L 950.0 699.2 L 1000.0 695.4 L 1050.0 694.1 L 1100.0 694.2 L 1150.0 696.5 L 1200.0 700.2" stroke="rgba(10,10,8,0.34)" stroke-width="0.55" fill="none" />
<path d="M 0 720.6 L 50.0 708.3 L 100.0 715.7 L 150.0 724.1 L 200.0 731.5 L 250.0 737.0 L 300.0 741.7 L 350.0 741.0 L 400.0 738.0 L 450.0 732.6 L 500.0 726.9 L 550.0 717.5 L 600.0 709.1 L 650.0 703.1 L 700.0 700.4 L 750.0 698.7 L 800.0 701.7 L 850.0 707.2 L 900.0 715.3 L 950.0 723.5 L 1000.0 731.4 L 1050.0 736.4 L 1100.0 741.4 L 1150.0 741.1 L 1200.0 739.7" stroke="rgba(10,10,8,0.25)" stroke-width="0.87" fill="none" />
<path d="M 0 736.7 L 50.0 734.5 L 100.0 743.9 L 150.0 751.1 L 200.0 756.6 L 250.0 757.8 L 300.0 757.4 L 350.0 753.0 L 400.0 746.6 L 450.0 738.5 L 500.0 729.5 L 550.0 723.2 L 600.0 716.7 L 650.0 715.8 L 700.0 716.5 L 750.0 720.9 L 800.0 727.4 L 850.0 735.6 L 900.0 743.0 L 950.0 751.0 L 1000.0 756.2 L 1050.0 759.0 L 1100.0 757.5 L 1150.0 752.8 L 1200.0 747.0" stroke="rgba(10,10,8,0.50)" stroke-width="0.42" fill="none" />
<path d="M 0 747.4 L 50.0 738.4 L 100.0 738.0 L 150.0 738.7 L 200.0 741.2 L 250.0 744.6 L 300.0 749.7 L 350.0 753.3 L 400.0 756.3 L 450.0 756.5 L 500.0 757.8 L 550.0 755.1 L 600.0 754.2 L 650.0 749.8 L 700.0 745.4 L 750.0 742.2 L 800.0 739.6 L 850.0 736.7 L 900.0 737.4 L 950.0 739.0 L 1000.0 741.7 L 1050.0 744.1 L 1100.0 749.2 L 1150.0 752.6 L 1200.0 755.8" stroke="rgba(10,10,8,0.26)" stroke-width="1.18" fill="none" />
<path d="M 0 764.4 L 50.0 749.7 L 100.0 747.6 L 150.0 748.9 L 200.0 750.8 L 250.0 756.3 L 300.0 763.9 L 350.0 769.1 L 400.0 774.8 L 450.0 779.2 L 500.0 781.2 L 550.0 780.8 L 600.0 777.3 L 650.0 771.5 L 700.0 765.2 L 750.0 758.0 L 800.0 752.6 L 850.0 749.1 L 900.0 746.6 L 950.0 748.2 L 1000.0 751.4 L 1050.0 756.0 L 1100.0 763.2 L 1150.0 770.1 L 1200.0 775.7" stroke="rgba(10,10,8,0.50)" stroke-width="0.95" fill="none" />
<path d="M 0 779.3 L 50.0 765.4 L 100.0 772.6 L 150.0 779.4 L 200.0 788.0 L 250.0 793.7 L 300.0 797.2 L 350.0 799.2 L 400.0 796.8 L 450.0 792.7 L 500.0 786.5 L 550.0 779.8 L 600.0 770.5 L 650.0 764.5 L 700.0 760.5 L 750.0 758.4 L 800.0 760.8 L 850.0 764.5 L 900.0 772.4 L 950.0 779.6 L 1000.0 787.1 L 1050.0 793.7 L 1100.0 798.6 L 1150.0 800.0 L 1200.0 798.3" stroke="rgba(10,10,8,0.44)" stroke-width="0.83" fill="none" />
<path d="M 0 792.1 L 50.0 805.3 L 100.0 808.3 L 150.0 807.9 L 200.0 804.2 L 250.0 798.7 L 300.0 793.7 L 350.0 788.3 L 400.0 782.4 L 450.0 779.4 L 500.0 776.7 L 550.0 777.3 L 600.0 778.9 L 650.0 784.2 L 700.0 791.0 L 750.0 797.3 L 800.0 801.8 L 850.0 805.9 L 900.0 807.1 L 950.0 807.1 L 1000.0 804.0 L 1050.0 799.3 L 1100.0 794.3 L 1150.0 787.7 L 1200.0 782.5" stroke="rgba(10,10,8,0.40)" stroke-width="0.61" fill="none" />
    </g>
    <rect width="100%" height="100%" fill="url(#vignette-korina-bottom)"/>
  </g>
</svg>