<?xml version="1.0" encoding="UTF-8"?>
<svg xmlns="http://www.w3.org/2000/svg" viewBox="0 0 1200 600" preserveAspectRatio="xMidYMid slice" role="img" aria-label="limba side">
  <defs>
    <radialGradient id="bg-limba-side" cx="50%" cy="40%" r="80%">
      <stop offset="0%" stop-color="#161410"/>
      <stop offset="100%" stop-color="#0a0a08"/>
    </radialGradient>
    <linearGradient id="wood-limba-side" x1="0" y1="0" x2="1" y2="1">
      <stop offset="0%" stop-color="#2b2520"/>
      <stop offset="50%" stop-color="#54473a"/>
      <stop offset="100%" stop-color="#a89478"/>
    </linearGradient>
    <radialGradient id="vignette-limba-side" cx="50%" cy="50%" r="65%">
      <stop offset="60%" stop-color="rgba(0,0,0,0)"/>
      <stop offset="100%" stop-color="rgba(0,0,0,0.45)"/>
    </radialGradient>
    <clipPath id="clip-limba-side">
      <path d="M120 280 L1080 280 L1080 320 L120 320 Z"/>
    </clipPath>
  </defs>
  <rect width="100%" height="100%" fill="url(#bg-limba-side)"/>
  <g clip-path="url(#clip-limba-side)">
    <rect width="100%" height="100%" fill="url(#wood-limba-side)"/>
    <g opacity="0.70">
      <path d="M 0 5.0 L 50.0 12.1 L 100.0 15.6 L 150.0 17.8 L 200.0 18.2 L 250.0 16.1 L 300.0 12.3 L 350.0 6.2 L 400.0 2.1 L 450.0 -2.9 L 500.0 -6.1 L 550.0 -7.0 L 600.0 -7.2 L 650.0 -5.7 L 700.0 -2.4 L 750.0 2.2 L 800.0 7.3 L 850.0 13.3 L 900.0 17.0 L 950.0 17.2 L 1000.0 17.1 L 1050.0 16.1 L 1100.0 10.8 L 1150.0 7.8 L 1200.0 1.0" stroke="rgba(10,10,8,0.25)" stroke-width="0.60" fill="none" />
<path d="M 0 33.4 L 50.0 16.9 L 100.0 15.5 L 150.0 17.0 L 200.0 21.6 L 250.0 25.7 L 300.0 32.1 L 350.0 40.1 L 400.0 44.5 L 450.0 48.7 L 500.0 50.0 L 550.0 49.2 L 600.0 47.1 L 650.0 40.0 L 700.0 35.0 L 750.0 28.0 L 800.0 21.7 L 850.0 18.2 L 900.0 15.5 L 950.0 17.4 L 1000.0 19.9 L 1050.0 26.5 L 1100.0 33.4 L 1150.0 39.3 L 1200.0 45.2" stroke="rgba(10,10,8,0.40)" stroke-width="1.17" fill="none" />
<path d="M 0 67.0 L 50.0 76.9 L 100.0 72.5 L 150.0 69.6 L 200.0 64.5 L 250.0 59.9 L 300.0 58.5 L 350.0 56.9 L 400.0 55.3 L 450.0 58.8 L 500.0 61.6 L 550.0 65.2 L 600.0 69.1 L 650.0 73.6 L 700.0 75.7 L 750.0 78.2 L 800.0 78.5 L 850.0 75.7 L 900.0 72.6 L 950.0 69.5 L 1000.0 64.2 L 1050.0 60.8 L 1100.0 58.3 L 1150.0 56.0 L 1200.0 56.9" stroke="rgba(10,10,8,0.32)" stroke-width="0.64" fill="none" />
<path d="M 0 103.6 L 50.0 119.2 L 100.0 114.2 L 150.0 106.9 L 200.0 98.2 L 250.0 91.5 L 300.0 85.9 L 350.0 83.1 L 400.0 84.2 L 450.0 86.9 L 500.0 92.9 L 550.0 100.2 L 600.0 109.2 L 650.0 116.2 L 700.0 121.4 L 750.0 123.5 L 800.0 122.4 L 850.0 120.2 L 900.0 114.5 L 950.0 105.6 L 1000.0 99.1 L 1050.0 91.1 L 1100.0 87.2 L 1150.0 83.0 L 1200.0 83.7" stroke="rgba(10,10,8,0.55)" stroke-width="0.52" fill="none" />
<path d="M 0 138.8 L 50.0 151.9 L 100.0 145.2 L 150.0 137.5 L 200.0 131.9 L 250.0 126.6 L 300.0 122.8 L 350.0 121.0 L 400.0 123.5 L 450.0 127.1 L 500.0 132.9 L 550.0 139.1 L 600.0 146.2 L 650.0 150.6 L 700.0 155.7 L 750.0 157.0 L 800.0 155.3 L 850.0 150.4 L 900.0 145.2 L 950.0 137.5 L 1000.0 131.1 L 1050.0 125.6 L 1100.0 122.6 L 1150.0 120.5 L 1200.0 122.7" stroke="rgba(10,10,8,0.50)" stroke-width="0.89" fill="none" />
<path d="M 0 170.6 L 50.0 166.4 L 100.0 171.2 L 150.0 173.9 L 200.0 176.6 L 250.0 178.6 L 300.0 179.8 L 350.0 179.1 L 400.0 176.2 L 450.0 174.6 L 500.0 170.3 L 550.0 167.2 L 600.0 164.2 L 650.0 161.6 L 700.0 160.9 L 750.0 161.6 L 800.0 164.1 L 850.0 166.9 L 900.0 170.1 L 950.0 174.1 L 1000.0 176.9 L 1050.0 180.0 L 1100.0 180.1 L 1150.0 179.7 L 1200.0 177.7" stroke="rgba(10,10,8,0.40)" stroke-width="0.45" fill="none" />
<path d="M 0 202.1 L 50.0 200.8 L 100.0 195.4 L 150.0 190.4 L 200.0 188.4 L 250.0 186.8 L 300.0 189.4 L 350.0 193.1 L 400.0 198.8 L 450.0 205.0 L 500.0 209.3 L 550.0 212.8 L 600.0 215.9 L 650.0 215.8 L 700.0 214.7 L 750.0 211.8 L 800.0 206.4 L 850.0 200.0 L 900.0 194.2 L 950.0 189.5 L 1000.0 187.7 L 1050.0 187.9 L 1100.0 188.7 L 1150.0 193.7 L 1200.0 198.5" stroke="rgba(10,10,8,0.43)" stroke-width="1.13" fill="none" />
<path d="M 0 236.2 L 50.0 252.6 L 100.0 245.9 L 150.0 238.8 L 200.0 232.0 L 250.0 223.9 L 300.0 219.0 L 350.0 217.5 L 400.0 216.2 L 450.0 221.0 L 500.0 226.4 L 550.0 233.2 L 600.0 240.5 L 650.0 248.1 L 700.0 253.5 L 750.0 254.8 L 800.0 256.2 L 850.0 251.5 L 900.0 246.4 L 950.0 238.3 L 1000.0 231.1 L 1050.0 223.6 L 1100.0 219.2 L 1150.0 216.6 L 1200.0 216.3" stroke="rgba(10,10,8,0.40)" stroke-width="0.53" fill="none" />
<path d="M 0 268.3 L 50.0 252.6 L 100.0 257.1 L 150.0 264.2 L 200.0 270.2 L 250.0 277.5 L 300.0 283.3 L 350.0 286.7 L 400.0 286.5 L 450.0 284.0 L 500.0 279.9 L 550.0 272.0 L 600.0 265.8 L 650.0 259.3 L 700.0 252.3 L 750.0 249.2 L 800.0 249.8 L 850.0 252.6 L 900.0 258.0 L 950.0 263.0 L 1000.0 270.8 L 1050.0 278.3 L 1100.0 284.5 L 1150.0 286.5 L 1200.0 287.1" stroke="rgba(10,10,8,0.41)" stroke-width="0.72" fill="none" />
<path d="M 0 300.8 L 50.0 290.4 L 100.0 289.0 L 150.0 289.8 L 200.0 293.3 L 250.0 296.8 L 300.0 300.9 L 350.0 304.4 L 400.0 309.1 L 450.0 311.1 L 500.0 312.7 L 550.0 312.6 L 600.0 309.6 L 650.0 305.7 L 700.0 300.9 L 750.0 296.3 L 800.0 293.3 L 850.0 290.4 L 900.0 288.0 L 950.0 290.5 L 1000.0 291.6 L 1050.0 297.0 L 1100.0 301.3 L 1150.0 306.2 L 1200.0 308.9" stroke="rgba(10,10,8,0.24)" stroke-width="0.90" fill="none" />
<path d="M 0 338.1 L 50.0 328.4 L 100.0 327.3 L 150.0 327.4 L 200.0 329.9 L 250.0 333.8 L 300.0 337.0 L 350.0 341.8 L 400.0 346.1 L 450.0 348.3 L 500.0 348.4 L 550.0 348.3 L 600.0 347.1 L 650.0 341.7 L 700.0 339.5 L 750.0 334.7 L 800.0 330.3 L 850.0 328.8 L 900.0 326.7 L 950.0 328.1 L 1000.0 330.0 L 1050.0 332.7 L 1100.0 337.3 L 1150.0 341.5 L 1200.0 345.6" stroke="rgba(10,10,8,0.47)" stroke-width="0.95" fill="none" />
<path d="M 0 372.7 L 50.0 382.8 L 100.0 385.2 L 150.0 386.8 L 200.0 385.8 L 250.0 383.2 L 300.0 378.1 L 350.0 373.9 L 400.0 368.0 L 450.0 363.1 L 500.0 360.9 L 550.0 358.5 L 600.0 360.8 L 650.0 363.4 L 700.0 368.1 L 750.0 372.2 L 800.0 377.1 L 850.0 381.9 L 900.0 385.1 L 950.0 386.8 L 1000.0 384.5 L 1050.0 382.7 L 1100.0 378.6 L 1150.0 372.7 L 1200.0 368.8" stroke="rgba(10,10,8,0.37)" stroke-width="0.73" fill="none" />
<path d="M 0 400.4 L 50.0 394.7 L 100.0 400.9 L 150.0 404.3 L 200.0 408.8 L 250.0 412.5 L 300.0 413.6 L 350.0 411.8 L 400.0 410.2 L 450.0 406.0 L 500.0 400.4 L 550.0 396.0 L 600.0 391.7 L 650.0 388.2 L 700.0 388.1 L 750.0 387.4 L 800.0 391.3 L 850.0 395.8 L 900.0 400.0 L 950.0 405.5 L 1000.0 408.4 L 1050.0 411.7 L 1100.0 414.2 L 1150.0 413.1 L 1200.0 410.0" stroke="rgba(10,10,8,0.35)" stroke-width="0.68" fill="none" />
<path d="M 0 438.9 L 50.0 445.5 L 100.0 437.2 L 150.0 428.6 L 200.0 423.6 L 250.0 418.9 L 300.0 418.2 L 350.0 420.1 L 400.0 425.1 L 450.0 432.1 L 500.0 440.3 L 550.0 448.4 L 600.0 455.3 L 650.0 458.2 L 700.0 459.6 L 750.0 457.8 L 800.0 451.2 L 850.0 444.5 L 900.0 435.9 L 950.0 428.3 L 1000.0 423.9 L 1050.0 419.3 L 1100.0 418.3 L 1150.0 421.5 L 1200.0 426.4" stroke="rgba(10,10,8,0.40)" stroke-width="0.60" fill="none" />
<path d="M 0 472.2 L 50.0 457.0 L 100.0 462.9 L 150.0 472.8 L 200.0 480.5 L 250.0 487.4 L 300.0 493.1 L 350.0 494.6 L 400.0 491.8 L 450.0 487.1 L 500.0 481.1 L 550.0 473.0 L 600.0 463.2 L 650.0 457.5 L 700.0 452.8 L 750.0 450.0 L 800.0 452.3 L 850.0 457.1 L 900.0 463.0 L 950.0 472.3 L 1000.0 481.1 L 1050.0 488.6 L 1100.0 491.4 L 1150.0 494.1 L 1200.0 491.9" stroke="rgba(10,10,8,0.30)" stroke-width="0.53" fill="none" />
<path d="M 0 501.3 L 50.0 517.4 L 100.0 511.3 L 150.0 504.7 L 200.0 497.5 L 250.0 490.6 L 300.0 485.3 L 350.0 482.3 L 400.0 482.3 L 450.0 485.1 L 500.0 489.5 L 550.0 497.2 L 600.0 505.0 L 650.0 511.9 L 700.0 517.7 L 750.0 519.4 L 800.0 519.7 L 850.0 518.1 L 900.0 512.3 L 950.0 505.7 L 1000.0 497.0 L 1050.0 490.6 L 1100.0 485.2 L 1150.0 481.7 L 1200.0 481.6" stroke="rgba(10,10,8,0.45)" stroke-width="0.55" fill="none" />
<path d="M 0 539.2 L 50.0 517.8 L 100.0 520.0 L 150.0 523.6 L 200.0 532.3 L 250.0 538.9 L 300.0 548.3 L 350.0 555.3 L 400.0 559.9 L 450.0 559.9 L 500.0 559.0 L 550.0 553.7 L 600.0 547.5 L 650.0 539.2 L 700.0 531.4 L 750.0 524.6 L 800.0 519.3 L 850.0 518.6 L 900.0 520.5 L 950.0 524.0 L 1000.0 531.9 L 1050.0 539.4 L 1100.0 548.1 L 1150.0 555.5 L 1200.0 559.3" stroke="rgba(10,10,8,0.22)" stroke-width="1.17" fill="none" />
<path d="M 0 567.3 L 50.0 582.8 L 100.0 584.3 L 150.0 584.6 L 200.0 580.1 L 250.0 575.3 L 300.0 568.2 L 350.0 560.3 L 400.0 554.5 L 450.0 551.8 L 500.0 549.8 L 550.0 550.5 L 600.0 554.8 L 650.0 559.7 L 700.0 565.8 L 750.0 574.3 L 800.0 580.2 L 850.0 583.7 L 900.0 585.7 L 950.0 584.2 L 1000.0 580.4 L 1050.0 575.4 L 1100.0 568.8 L 1150.0 560.4 L 1200.0 554.9" stroke="rgba(10,10,8,0.25)" stroke-width="1.00" fill="none" />
    </g>
    <rect width="100%" height="100%" fill="url(#vignette-limba-side)"/>
  </g>
</svg>