<?xml version="1.0" encoding="UTF-8"?>
<svg xmlns="http://www.w3.org/2000/svg" viewBox="0 0 1200 800" preserveAspectRatio="xMidYMid slice" role="img" aria-label="limba top">
  <defs>
    <radialGradient id="bg-limba-top" cx="50%" cy="40%" r="80%">
      <stop offset="0%" stop-color="#161410"/>
      <stop offset="100%" stop-color="#0a0a08"/>
    </radialGradient>
    <linearGradient id="wood-limba-top" x1="0" y1="0" x2="1" y2="1">
      <stop offset="0%" stop-color="#2b2520"/>
      <stop offset="50%" stop-color="#54473a"/>
      <stop offset="100%" stop-color="#a89478"/>
    </linearGradient>
    <radialGradient id="vignette-limba-top" cx="50%" cy="50%" r="65%">
      <stop offset="60%" stop-color="rgba(0,0,0,0)"/>
      <stop offset="100%" stop-color="rgba(0,0,0,0.45)"/>
    </radialGradient>
    <clipPath id="clip-limba-top">
      <path d="M600 120 C760 120 880 200 920 320 C960 440 920 560 820 620 C720 680 600 660 600 660 C600 660 480 680 380 620 C280 560 240 440 280 320 C320 200 440 120 600 120 Z"/>
    </clipPath>
  </defs>
  <rect width="100%" height="100%" fill="url(#bg-limba-top)"/>
  <g clip-path="url(#clip-limba-top)">
    <rect width="100%" height="100%" fill="url(#wood-limba-top)"/>
    <g opacity="0.70">
      <path d="M 0 0.4 L 50.0 -10.5 L 100.0 -9.9 L 150.0 -7.3 L 200.0 -3.7 L 250.0 1.5 L 300.0 6.2 L 350.0 9.4 L 400.0 11.9 L 450.0 12.8 L 500.0 10.4 L 550.0 7.7 L 600.0 3.8 L 650.0 0.0 L 700.0 -4.1 L 750.0 -8.3 L 800.0 -10.7 L 850.0 -10.6 L 900.0 -11.0 L 950.0 -6.4 L 1000.0 -3.1 L 1050.0 2.3 L 1100.0 5.3 L 1150.0 9.2 L 1200.0 12.5" stroke="rgba(10,10,8,0.28)" stroke-width="1.16" fill="none" />
<path d="M 0 15.6 L 50.0 9.2 L 100.0 0.8 L 150.0 -3.6 L 200.0 -6.6 L 250.0 -4.1 L 300.0 -1.1 L 350.0 5.3 L 400.0 14.5 L 450.0 22.1 L 500.0 29.4 L 550.0 34.2 L 600.0 36.4 L 650.0 35.3 L 700.0 32.4 L 750.0 24.6 L 800.0 17.9 L 850.0 9.1 L 900.0 1.8 L 950.0 -2.9 L 1000.0 -6.3 L 1050.0 -3.9 L 1100.0 -0.7 L 1150.0 5.1 L 1200.0 14.3" stroke="rgba(10,10,8,0.34)" stroke-width="0.89" fill="none" />
<path d="M 0 28.0 L 50.0 48.3 L 100.0 46.3 L 150.0 42.7 L 200.0 36.9 L 250.0 29.4 L 300.0 21.7 L 350.0 15.9 L 400.0 11.5 L 450.0 8.2 L 500.0 8.9 L 550.0 13.3 L 600.0 18.1 L 650.0 24.8 L 700.0 33.2 L 750.0 39.9 L 800.0 46.0 L 850.0 46.7 L 900.0 47.7 L 950.0 43.3 L 1000.0 37.0 L 1050.0 30.3 L 1100.0 22.0 L 1150.0 15.6 L 1200.0 10.9" stroke="rgba(10,10,8,0.39)" stroke-width="1.09" fill="none" />
<path d="M 0 42.2 L 50.0 53.1 L 100.0 57.2 L 150.0 59.5 L 200.0 58.1 L 250.0 56.0 L 300.0 50.2 L 350.0 44.4 L 400.0 36.2 L 450.0 30.5 L 500.0 27.4 L 550.0 24.0 L 600.0 25.5 L 650.0 29.4 L 700.0 33.5 L 750.0 40.9 L 800.0 46.8 L 850.0 54.2 L 900.0 57.1 L 950.0 59.5 L 1000.0 58.8 L 1050.0 55.4 L 1100.0 50.7 L 1150.0 43.2 L 1200.0 37.0" stroke="rgba(10,10,8,0.34)" stroke-width="0.82" fill="none" />
<path d="M 0 54.1 L 50.0 60.4 L 100.0 61.8 L 150.0 62.7 L 200.0 63.3 L 250.0 60.7 L 300.0 57.7 L 350.0 54.6 L 400.0 51.0 L 450.0 48.0 L 500.0 44.9 L 550.0 43.8 L 600.0 45.1 L 650.0 46.7 L 700.0 50.4 L 750.0 53.9 L 800.0 57.6 L 850.0 59.5 L 900.0 63.0 L 950.0 63.9 L 1000.0 63.0 L 1050.0 61.9 L 1100.0 58.3 L 1150.0 55.9 L 1200.0 50.7" stroke="rgba(10,10,8,0.30)" stroke-width="0.52" fill="none" />
<path d="M 0 69.2 L 50.0 62.0 L 100.0 54.9 L 150.0 50.8 L 200.0 49.1 L 250.0 51.7 L 300.0 55.5 L 350.0 62.4 L 400.0 70.1 L 450.0 77.3 L 500.0 83.1 L 550.0 86.4 L 600.0 88.8 L 650.0 86.2 L 700.0 81.8 L 750.0 76.8 L 800.0 68.1 L 850.0 61.1 L 900.0 55.7 L 950.0 50.5 L 1000.0 49.4 L 1050.0 52.1 L 1100.0 55.7 L 1150.0 61.8 L 1200.0 69.4" stroke="rgba(10,10,8,0.25)" stroke-width="0.79" fill="none" />
<path d="M 0 83.6 L 50.0 65.1 L 100.0 62.7 L 150.0 65.4 L 200.0 68.5 L 250.0 73.7 L 300.0 81.0 L 350.0 88.9 L 400.0 96.5 L 450.0 100.7 L 500.0 102.8 L 550.0 102.6 L 600.0 99.3 L 650.0 91.9 L 700.0 85.4 L 750.0 76.9 L 800.0 70.6 L 850.0 65.2 L 900.0 62.8 L 950.0 65.0 L 1000.0 69.1 L 1050.0 74.9 L 1100.0 81.4 L 1150.0 90.5 L 1200.0 96.6" stroke="rgba(10,10,8,0.30)" stroke-width="0.87" fill="none" />
<path d="M 0 98.3 L 50.0 91.3 L 100.0 89.0 L 150.0 84.9 L 200.0 86.3 L 250.0 86.8 L 300.0 90.5 L 350.0 94.9 L 400.0 99.3 L 450.0 105.0 L 500.0 108.3 L 550.0 111.3 L 600.0 111.3 L 650.0 110.4 L 700.0 106.0 L 750.0 102.1 L 800.0 96.7 L 850.0 92.0 L 900.0 88.0 L 950.0 85.9 L 1000.0 85.7 L 1050.0 86.8 L 1100.0 90.3 L 1150.0 94.2 L 1200.0 100.6" stroke="rgba(10,10,8,0.51)" stroke-width="0.84" fill="none" />
<path d="M 0 108.4 L 50.0 126.6 L 100.0 128.9 L 150.0 128.0 L 200.0 124.3 L 250.0 118.5 L 300.0 109.7 L 350.0 101.0 L 400.0 94.9 L 450.0 88.9 L 500.0 87.6 L 550.0 87.5 L 600.0 93.5 L 650.0 98.4 L 700.0 106.5 L 750.0 116.1 L 800.0 123.2 L 850.0 127.3 L 900.0 129.4 L 950.0 128.4 L 1000.0 123.9 L 1050.0 117.0 L 1100.0 109.5 L 1150.0 101.3 L 1200.0 94.4" stroke="rgba(10,10,8,0.26)" stroke-width="0.41" fill="none" />
<path d="M 0 125.1 L 50.0 119.6 L 100.0 111.8 L 150.0 107.1 L 200.0 104.1 L 250.0 105.5 L 300.0 110.0 L 350.0 115.8 L 400.0 123.7 L 450.0 130.7 L 500.0 136.8 L 550.0 142.3 L 600.0 145.8 L 650.0 144.3 L 700.0 141.5 L 750.0 134.1 L 800.0 127.0 L 850.0 120.5 L 900.0 113.2 L 950.0 106.6 L 1000.0 104.4 L 1050.0 105.5 L 1100.0 108.6 L 1150.0 115.9 L 1200.0 122.1" stroke="rgba(10,10,8,0.52)" stroke-width="0.59" fill="none" />
<path d="M 0 136.9 L 50.0 142.4 L 100.0 149.2 L 150.0 154.1 L 200.0 155.5 L 250.0 155.6 L 300.0 152.4 L 350.0 144.6 L 400.0 138.2 L 450.0 129.9 L 500.0 123.9 L 550.0 118.9 L 600.0 116.8 L 650.0 118.4 L 700.0 123.4 L 750.0 128.3 L 800.0 135.8 L 850.0 143.1 L 900.0 149.9 L 950.0 153.9 L 1000.0 155.2 L 1050.0 156.1 L 1100.0 150.6 L 1150.0 144.5 L 1200.0 139.0" stroke="rgba(10,10,8,0.31)" stroke-width="1.11" fill="none" />
<path d="M 0 152.1 L 50.0 161.4 L 100.0 163.8 L 150.0 164.9 L 200.0 162.6 L 250.0 159.1 L 300.0 154.1 L 350.0 149.6 L 400.0 145.8 L 450.0 142.8 L 500.0 140.3 L 550.0 141.2 L 600.0 141.3 L 650.0 145.5 L 700.0 148.9 L 750.0 153.2 L 800.0 158.6 L 850.0 161.0 L 900.0 164.6 L 950.0 163.9 L 1000.0 162.6 L 1050.0 160.1 L 1100.0 155.3 L 1150.0 149.8 L 1200.0 146.0" stroke="rgba(10,10,8,0.43)" stroke-width="0.80" fill="none" />
<path d="M 0 161.3 L 50.0 143.0 L 100.0 147.0 L 150.0 152.5 L 200.0 159.7 L 250.0 166.9 L 300.0 174.4 L 350.0 178.7 L 400.0 180.3 L 450.0 179.5 L 500.0 176.2 L 550.0 170.1 L 600.0 163.7 L 650.0 156.3 L 700.0 147.9 L 750.0 144.3 L 800.0 142.8 L 850.0 142.4 L 900.0 146.8 L 950.0 152.6 L 1000.0 159.4 L 1050.0 166.9 L 1100.0 173.7 L 1150.0 179.1 L 1200.0 180.3" stroke="rgba(10,10,8,0.35)" stroke-width="0.84" fill="none" />
<path d="M 0 176.3 L 50.0 167.3 L 100.0 162.6 L 150.0 160.7 L 200.0 161.1 L 250.0 163.3 L 300.0 168.1 L 350.0 173.4 L 400.0 180.0 L 450.0 186.3 L 500.0 189.0 L 550.0 191.7 L 600.0 191.1 L 650.0 187.8 L 700.0 183.1 L 750.0 178.3 L 800.0 172.0 L 850.0 166.4 L 900.0 162.7 L 950.0 160.4 L 1000.0 161.5 L 1050.0 164.1 L 1100.0 167.9 L 1150.0 174.1 L 1200.0 180.0" stroke="rgba(10,10,8,0.41)" stroke-width="0.61" fill="none" />
<path d="M 0 188.8 L 50.0 181.6 L 100.0 174.3 L 150.0 169.5 L 200.0 167.3 L 250.0 168.4 L 300.0 174.3 L 350.0 179.7 L 400.0 188.8 L 450.0 197.0 L 500.0 203.8 L 550.0 208.8 L 600.0 210.1 L 650.0 208.1 L 700.0 202.8 L 750.0 196.2 L 800.0 189.6 L 850.0 181.2 L 900.0 173.8 L 950.0 168.8 L 1000.0 166.8 L 1050.0 170.2 L 1100.0 172.8 L 1150.0 180.9 L 1200.0 188.1" stroke="rgba(10,10,8,0.46)" stroke-width="0.44" fill="none" />
<path d="M 0 204.6 L 50.0 202.3 L 100.0 194.9 L 150.0 189.9 L 200.0 187.9 L 250.0 186.4 L 300.0 189.0 L 350.0 193.7 L 400.0 200.6 L 450.0 207.3 L 500.0 213.8 L 550.0 219.5 L 600.0 221.5 L 650.0 222.6 L 700.0 219.3 L 750.0 214.6 L 800.0 209.1 L 850.0 202.0 L 900.0 194.2 L 950.0 190.9 L 1000.0 186.8 L 1050.0 187.4 L 1100.0 189.4 L 1150.0 194.2 L 1200.0 201.1" stroke="rgba(10,10,8,0.50)" stroke-width="0.89" fill="none" />
<path d="M 0 217.1 L 50.0 232.6 L 100.0 227.4 L 150.0 223.2 L 200.0 216.5 L 250.0 210.4 L 300.0 204.9 L 350.0 201.5 L 400.0 201.2 L 450.0 201.1 L 500.0 206.6 L 550.0 212.4 L 600.0 218.0 L 650.0 223.4 L 700.0 229.2 L 750.0 233.0 L 800.0 234.1 L 850.0 232.6 L 900.0 228.7 L 950.0 222.0 L 1000.0 216.0 L 1050.0 209.4 L 1100.0 205.3 L 1150.0 201.5 L 1200.0 200.2" stroke="rgba(10,10,8,0.50)" stroke-width="0.99" fill="none" />
<path d="M 0 230.9 L 50.0 231.6 L 100.0 223.0 L 150.0 215.0 L 200.0 211.6 L 250.0 210.2 L 300.0 211.8 L 350.0 214.9 L 400.0 222.5 L 450.0 230.7 L 500.0 238.9 L 550.0 246.5 L 600.0 250.2 L 650.0 251.6 L 700.0 250.2 L 750.0 246.4 L 800.0 239.1 L 850.0 232.2 L 900.0 223.6 L 950.0 216.3 L 1000.0 211.7 L 1050.0 209.4 L 1100.0 211.2 L 1150.0 216.3 L 1200.0 223.3" stroke="rgba(10,10,8,0.38)" stroke-width="0.98" fill="none" />
<path d="M 0 243.6 L 50.0 227.9 L 100.0 231.0 L 150.0 235.9 L 200.0 242.5 L 250.0 250.5 L 300.0 256.5 L 350.0 259.0 L 400.0 261.6 L 450.0 261.2 L 500.0 257.4 L 550.0 251.0 L 600.0 244.9 L 650.0 238.3 L 700.0 232.1 L 750.0 228.3 L 800.0 226.2 L 850.0 227.7 L 900.0 230.9 L 950.0 236.2 L 1000.0 242.4 L 1050.0 249.7 L 1100.0 256.5 L 1150.0 259.3 L 1200.0 261.9" stroke="rgba(10,10,8,0.33)" stroke-width="0.80" fill="none" />
<path d="M 0 253.6 L 50.0 263.5 L 100.0 262.2 L 150.0 259.7 L 200.0 256.3 L 250.0 251.7 L 300.0 248.8 L 350.0 245.2 L 400.0 244.9 L 450.0 244.4 L 500.0 245.5 L 550.0 248.2 L 600.0 252.2 L 650.0 255.8 L 700.0 259.1 L 750.0 261.4 L 800.0 262.4 L 850.0 262.9 L 900.0 262.5 L 950.0 258.7 L 1000.0 255.4 L 1050.0 252.5 L 1100.0 248.9 L 1150.0 245.1 L 1200.0 244.7" stroke="rgba(10,10,8,0.27)" stroke-width="0.73" fill="none" />
<path d="M 0 267.1 L 50.0 272.0 L 100.0 275.7 L 150.0 279.9 L 200.0 282.5 L 250.0 282.1 L 300.0 278.4 L 350.0 274.1 L 400.0 267.8 L 450.0 262.5 L 500.0 258.9 L 550.0 255.1 L 600.0 251.9 L 650.0 253.6 L 700.0 256.3 L 750.0 260.5 L 800.0 265.2 L 850.0 270.8 L 900.0 275.9 L 950.0 279.1 L 1000.0 282.3 L 1050.0 281.1 L 1100.0 278.6 L 1150.0 274.8 L 1200.0 268.8" stroke="rgba(10,10,8,0.55)" stroke-width="0.90" fill="none" />
<path d="M 0 284.8 L 50.0 265.8 L 100.0 265.5 L 150.0 268.1 L 200.0 275.0 L 250.0 281.4 L 300.0 288.3 L 350.0 296.6 L 400.0 301.1 L 450.0 304.3 L 500.0 304.0 L 550.0 300.3 L 600.0 295.8 L 650.0 288.2 L 700.0 280.3 L 750.0 272.6 L 800.0 267.6 L 850.0 265.5 L 900.0 265.1 L 950.0 268.2 L 1000.0 273.6 L 1050.0 281.9 L 1100.0 288.3 L 1150.0 296.6 L 1200.0 302.3" stroke="rgba(10,10,8,0.53)" stroke-width="0.65" fill="none" />
<path d="M 0 298.5 L 50.0 293.1 L 100.0 290.0 L 150.0 288.9 L 200.0 288.1 L 250.0 289.7 L 300.0 291.6 L 350.0 294.5 L 400.0 300.4 L 450.0 304.3 L 500.0 306.1 L 550.0 308.0 L 600.0 309.5 L 650.0 307.7 L 700.0 304.3 L 750.0 301.1 L 800.0 296.9 L 850.0 294.3 L 900.0 291.1 L 950.0 289.2 L 1000.0 287.2 L 1050.0 288.2 L 1100.0 292.5 L 1150.0 294.7 L 1200.0 298.7" stroke="rgba(10,10,8,0.42)" stroke-width="0.68" fill="none" />
<path d="M 0 309.7 L 50.0 325.2 L 100.0 321.5 L 150.0 317.4 L 200.0 311.9 L 250.0 306.6 L 300.0 301.2 L 350.0 296.2 L 400.0 294.4 L 450.0 295.3 L 500.0 296.4 L 550.0 300.6 L 600.0 306.7 L 650.0 313.2 L 700.0 317.6 L 750.0 323.0 L 800.0 325.8 L 850.0 325.3 L 900.0 321.7 L 950.0 318.4 L 1000.0 312.6 L 1050.0 305.9 L 1100.0 301.9 L 1150.0 297.3 L 1200.0 293.8" stroke="rgba(10,10,8,0.33)" stroke-width="1.06" fill="none" />
<path d="M 0 322.6 L 50.0 331.9 L 100.0 327.5 L 150.0 323.9 L 200.0 320.3 L 250.0 315.1 L 300.0 313.1 L 350.0 311.9 L 400.0 311.2 L 450.0 314.2 L 500.0 316.0 L 550.0 321.5 L 600.0 326.5 L 650.0 330.0 L 700.0 332.7 L 750.0 333.5 L 800.0 334.7 L 850.0 331.2 L 900.0 328.0 L 950.0 324.3 L 1000.0 319.4 L 1050.0 316.0 L 1100.0 311.6 L 1150.0 311.4 L 1200.0 312.3" stroke="rgba(10,10,8,0.45)" stroke-width="0.49" fill="none" />
<path d="M 0 334.2 L 50.0 354.0 L 100.0 351.0 L 150.0 344.4 L 200.0 337.2 L 250.0 329.5 L 300.0 322.0 L 350.0 317.1 L 400.0 315.1 L 450.0 315.7 L 500.0 317.3 L 550.0 323.3 L 600.0 331.9 L 650.0 339.5 L 700.0 345.5 L 750.0 351.4 L 800.0 353.3 L 850.0 353.5 L 900.0 350.7 L 950.0 345.1 L 1000.0 336.8 L 1050.0 329.4 L 1100.0 322.9 L 1150.0 318.0 L 1200.0 313.7" stroke="rgba(10,10,8,0.32)" stroke-width="0.92" fill="none" />
<path d="M 0 347.4 L 50.0 357.1 L 100.0 356.6 L 150.0 353.5 L 200.0 348.1 L 250.0 344.1 L 300.0 339.8 L 350.0 337.0 L 400.0 336.6 L 450.0 336.7 L 500.0 338.3 L 550.0 342.6 L 600.0 345.4 L 650.0 351.1 L 700.0 353.6 L 750.0 357.1 L 800.0 357.9 L 850.0 357.6 L 900.0 355.3 L 950.0 351.9 L 1000.0 348.7 L 1050.0 344.1 L 1100.0 340.9 L 1150.0 337.7 L 1200.0 336.9" stroke="rgba(10,10,8,0.41)" stroke-width="0.73" fill="none" />
<path d="M 0 363.6 L 50.0 355.5 L 100.0 357.3 L 150.0 360.5 L 200.0 362.3 L 250.0 365.6 L 300.0 368.2 L 350.0 369.6 L 400.0 370.7 L 450.0 370.9 L 500.0 370.5 L 550.0 366.6 L 600.0 364.3 L 650.0 360.8 L 700.0 359.2 L 750.0 355.7 L 800.0 355.9 L 850.0 356.2 L 900.0 357.7 L 950.0 359.6 L 1000.0 361.8 L 1050.0 366.0 L 1100.0 369.6 L 1150.0 370.3 L 1200.0 370.9" stroke="rgba(10,10,8,0.47)" stroke-width="1.20" fill="none" />
<path d="M 0 379.2 L 50.0 379.3 L 100.0 375.8 L 150.0 371.1 L 200.0 370.0 L 250.0 368.8 L 300.0 368.8 L 350.0 371.4 L 400.0 374.6 L 450.0 378.9 L 500.0 382.1 L 550.0 386.6 L 600.0 388.3 L 650.0 390.8 L 700.0 389.0 L 750.0 387.6 L 800.0 383.7 L 850.0 379.5 L 900.0 375.8 L 950.0 371.3 L 1000.0 370.5 L 1050.0 367.9 L 1100.0 368.7 L 1150.0 371.4 L 1200.0 375.3" stroke="rgba(10,10,8,0.31)" stroke-width="0.72" fill="none" />
<path d="M 0 392.5 L 50.0 406.4 L 100.0 409.7 L 150.0 407.8 L 200.0 405.8 L 250.0 399.7 L 300.0 394.6 L 350.0 388.4 L 400.0 382.7 L 450.0 377.2 L 500.0 375.2 L 550.0 376.7 L 600.0 378.9 L 650.0 383.8 L 700.0 391.5 L 750.0 396.6 L 800.0 402.6 L 850.0 406.3 L 900.0 409.3 L 950.0 409.3 L 1000.0 405.5 L 1050.0 400.8 L 1100.0 393.8 L 1150.0 387.7 L 1200.0 382.4" stroke="rgba(10,10,8,0.49)" stroke-width="0.78" fill="none" />
<path d="M 0 402.2 L 50.0 408.2 L 100.0 411.7 L 150.0 412.4 L 200.0 410.7 L 250.0 409.6 L 300.0 406.0 L 350.0 403.2 L 400.0 398.4 L 450.0 396.0 L 500.0 393.8 L 550.0 392.5 L 600.0 393.1 L 650.0 395.2 L 700.0 398.7 L 750.0 401.0 L 800.0 405.7 L 850.0 408.3 L 900.0 411.2 L 950.0 412.6 L 1000.0 412.4 L 1050.0 408.6 L 1100.0 406.8 L 1150.0 402.8 L 1200.0 398.7" stroke="rgba(10,10,8,0.28)" stroke-width="0.44" fill="none" />
<path d="M 0 416.0 L 50.0 429.0 L 100.0 426.5 L 150.0 423.2 L 200.0 418.4 L 250.0 413.4 L 300.0 409.7 L 350.0 405.8 L 400.0 403.3 L 450.0 403.0 L 500.0 405.7 L 550.0 408.9 L 600.0 414.3 L 650.0 419.0 L 700.0 422.6 L 750.0 426.4 L 800.0 428.8 L 850.0 428.3 L 900.0 426.5 L 950.0 422.0 L 1000.0 418.2 L 1050.0 413.5 L 1100.0 409.8 L 1150.0 405.3 L 1200.0 403.9" stroke="rgba(10,10,8,0.43)" stroke-width="0.94" fill="none" />
<path d="M 0 427.6 L 50.0 426.2 L 100.0 434.1 L 150.0 440.1 L 200.0 446.0 L 250.0 446.7 L 300.0 447.1 L 350.0 443.9 L 400.0 436.3 L 450.0 428.9 L 500.0 421.2 L 550.0 414.3 L 600.0 409.3 L 650.0 407.0 L 700.0 408.9 L 750.0 411.3 L 800.0 417.5 L 850.0 424.8 L 900.0 433.0 L 950.0 440.7 L 1000.0 445.9 L 1050.0 447.4 L 1100.0 446.2 L 1150.0 442.8 L 1200.0 437.7" stroke="rgba(10,10,8,0.27)" stroke-width="0.47" fill="none" />
<path d="M 0 444.9 L 50.0 455.2 L 100.0 447.7 L 150.0 440.1 L 200.0 432.8 L 250.0 427.4 L 300.0 425.4 L 350.0 426.8 L 400.0 429.9 L 450.0 436.0 L 500.0 442.4 L 550.0 450.0 L 600.0 456.9 L 650.0 462.4 L 700.0 463.6 L 750.0 464.5 L 800.0 460.0 L 850.0 454.2 L 900.0 447.3 L 950.0 439.9 L 1000.0 432.3 L 1050.0 428.1 L 1100.0 426.0 L 1150.0 427.2 L 1200.0 429.5" stroke="rgba(10,10,8,0.23)" stroke-width="0.68" fill="none" />
<path d="M 0 457.2 L 50.0 445.3 L 100.0 446.1 L 150.0 447.4 L 200.0 451.9 L 250.0 456.7 L 300.0 461.2 L 350.0 464.8 L 400.0 467.0 L 450.0 469.2 L 500.0 468.3 L 550.0 467.0 L 600.0 463.4 L 650.0 458.2 L 700.0 453.2 L 750.0 448.5 L 800.0 446.3 L 850.0 444.2 L 900.0 446.0 L 950.0 448.0 L 1000.0 451.6 L 1050.0 455.6 L 1100.0 460.6 L 1150.0 464.4 L 1200.0 467.2" stroke="rgba(10,10,8,0.38)" stroke-width="0.84" fill="none" />
<path d="M 0 471.2 L 50.0 451.9 L 100.0 456.9 L 150.0 464.2 L 200.0 472.9 L 250.0 479.8 L 300.0 487.8 L 350.0 491.9 L 400.0 492.5 L 450.0 490.0 L 500.0 484.6 L 550.0 477.2 L 600.0 469.9 L 650.0 461.6 L 700.0 454.8 L 750.0 451.8 L 800.0 450.8 L 850.0 452.2 L 900.0 457.7 L 950.0 463.5 L 1000.0 472.1 L 1050.0 480.5 L 1100.0 486.5 L 1150.0 491.7 L 1200.0 492.2" stroke="rgba(10,10,8,0.43)" stroke-width="0.67" fill="none" />
<path d="M 0 480.3 L 50.0 472.6 L 100.0 473.2 L 150.0 474.2 L 200.0 477.4 L 250.0 480.3 L 300.0 483.6 L 350.0 487.2 L 400.0 488.6 L 450.0 489.7 L 500.0 487.6 L 550.0 485.8 L 600.0 482.1 L 650.0 480.3 L 700.0 476.2 L 750.0 472.9 L 800.0 472.5 L 850.0 472.4 L 900.0 472.2 L 950.0 474.0 L 1000.0 478.6 L 1050.0 481.9 L 1100.0 484.4 L 1150.0 486.2 L 1200.0 488.6" stroke="rgba(10,10,8,0.36)" stroke-width="1.18" fill="none" />
<path d="M 0 497.1 L 50.0 492.7 L 100.0 496.5 L 150.0 500.5 L 200.0 505.2 L 250.0 506.6 L 300.0 508.0 L 350.0 507.6 L 400.0 504.4 L 450.0 502.4 L 500.0 497.4 L 550.0 493.4 L 600.0 488.6 L 650.0 487.8 L 700.0 485.3 L 750.0 486.4 L 800.0 488.5 L 850.0 491.6 L 900.0 496.1 L 950.0 501.9 L 1000.0 505.1 L 1050.0 508.0 L 1100.0 507.8 L 1150.0 507.7 L 1200.0 506.1" stroke="rgba(10,10,8,0.51)" stroke-width="0.50" fill="none" />
<path d="M 0 511.7 L 50.0 504.3 L 100.0 503.9 L 150.0 507.3 L 200.0 509.9 L 250.0 513.4 L 300.0 516.5 L 350.0 518.0 L 400.0 519.1 L 450.0 520.9 L 500.0 518.8 L 550.0 517.3 L 600.0 514.7 L 650.0 510.4 L 700.0 506.7 L 750.0 504.1 L 800.0 504.1 L 850.0 503.4 L 900.0 504.9 L 950.0 507.1 L 1000.0 509.4 L 1050.0 512.6 L 1100.0 516.6 L 1150.0 517.8 L 1200.0 519.5" stroke="rgba(10,10,8,0.35)" stroke-width="0.65" fill="none" />
<path d="M 0 520.9 L 50.0 541.4 L 100.0 541.0 L 150.0 535.2 L 200.0 529.6 L 250.0 520.8 L 300.0 513.4 L 350.0 506.1 L 400.0 501.2 L 450.0 499.8 L 500.0 502.1 L 550.0 506.9 L 600.0 513.0 L 650.0 521.8 L 700.0 528.9 L 750.0 535.7 L 800.0 540.0 L 850.0 541.7 L 900.0 540.3 L 950.0 535.4 L 1000.0 528.1 L 1050.0 520.3 L 1100.0 512.9 L 1150.0 505.4 L 1200.0 500.7" stroke="rgba(10,10,8,0.35)" stroke-width="0.41" fill="none" />
<path d="M 0 536.4 L 50.0 534.6 L 100.0 537.8 L 150.0 541.6 L 200.0 544.7 L 250.0 546.1 L 300.0 547.0 L 350.0 545.7 L 400.0 542.4 L 450.0 538.5 L 500.0 534.2 L 550.0 530.4 L 600.0 528.7 L 650.0 526.0 L 700.0 525.4 L 750.0 527.7 L 800.0 530.3 L 850.0 534.0 L 900.0 538.8 L 950.0 542.9 L 1000.0 545.3 L 1050.0 545.9 L 1100.0 546.3 L 1150.0 544.7 L 1200.0 543.3" stroke="rgba(10,10,8,0.52)" stroke-width="0.78" fill="none" />
<path d="M 0 549.8 L 50.0 544.4 L 100.0 548.3 L 150.0 552.8 L 200.0 556.8 L 250.0 558.1 L 300.0 560.2 L 350.0 560.0 L 400.0 557.1 L 450.0 556.0 L 500.0 552.1 L 550.0 546.6 L 600.0 542.9 L 650.0 540.3 L 700.0 540.7 L 750.0 539.8 L 800.0 541.8 L 850.0 545.5 L 900.0 548.0 L 950.0 553.0 L 1000.0 555.9 L 1050.0 558.2 L 1100.0 559.6 L 1150.0 558.8 L 1200.0 558.6" stroke="rgba(10,10,8,0.37)" stroke-width="0.46" fill="none" />
<path d="M 0 561.1 L 50.0 557.5 L 100.0 562.3 L 150.0 569.9 L 200.0 573.3 L 250.0 576.8 L 300.0 577.5 L 350.0 575.7 L 400.0 570.6 L 450.0 565.5 L 500.0 559.9 L 550.0 553.5 L 600.0 549.1 L 650.0 546.4 L 700.0 544.4 L 750.0 546.1 L 800.0 550.8 L 850.0 556.1 L 900.0 563.2 L 950.0 569.1 L 1000.0 573.1 L 1050.0 577.4 L 1100.0 578.1 L 1150.0 575.1 L 1200.0 570.7" stroke="rgba(10,10,8,0.25)" stroke-width="0.84" fill="none" />
<path d="M 0 575.5 L 50.0 569.2 L 100.0 574.2 L 150.0 578.4 L 200.0 582.7 L 250.0 584.7 L 300.0 586.9 L 350.0 585.8 L 400.0 584.1 L 450.0 580.7 L 500.0 577.9 L 550.0 573.5 L 600.0 568.6 L 650.0 566.8 L 700.0 564.1 L 750.0 565.0 L 800.0 565.6 L 850.0 569.5 L 900.0 574.4 L 950.0 578.8 L 1000.0 582.4 L 1050.0 584.5 L 1100.0 586.8 L 1150.0 586.1 L 1200.0 584.0" stroke="rgba(10,10,8,0.43)" stroke-width="0.94" fill="none" />
<path d="M 0 591.9 L 50.0 604.9 L 100.0 600.1 L 150.0 595.7 L 200.0 591.1 L 250.0 585.9 L 300.0 581.6 L 350.0 579.6 L 400.0 577.9 L 450.0 579.8 L 500.0 583.7 L 550.0 587.7 L 600.0 592.8 L 650.0 598.4 L 700.0 601.8 L 750.0 604.4 L 800.0 605.8 L 850.0 603.1 L 900.0 601.0 L 950.0 595.9 L 1000.0 590.8 L 1050.0 585.3 L 1100.0 581.9 L 1150.0 578.6 L 1200.0 579.0" stroke="rgba(10,10,8,0.53)" stroke-width="0.99" fill="none" />
<path d="M 0 601.5 L 50.0 600.5 L 100.0 603.4 L 150.0 606.0 L 200.0 608.6 L 250.0 609.6 L 300.0 610.4 L 350.0 608.3 L 400.0 605.9 L 450.0 602.5 L 500.0 600.2 L 550.0 597.6 L 600.0 593.4 L 650.0 594.0 L 700.0 593.5 L 750.0 593.1 L 800.0 597.2 L 850.0 599.2 L 900.0 602.8 L 950.0 606.5 L 1000.0 609.4 L 1050.0 610.3 L 1100.0 610.6 L 1150.0 609.6 L 1200.0 605.8" stroke="rgba(10,10,8,0.40)" stroke-width="0.94" fill="none" />
<path d="M 0 614.9 L 50.0 603.1 L 100.0 608.3 L 150.0 613.0 L 200.0 618.0 L 250.0 623.7 L 300.0 627.7 L 350.0 630.3 L 400.0 628.9 L 450.0 627.7 L 500.0 623.1 L 550.0 618.0 L 600.0 611.0 L 650.0 606.2 L 700.0 602.8 L 750.0 599.4 L 800.0 600.4 L 850.0 602.7 L 900.0 607.5 L 950.0 613.5 L 1000.0 619.3 L 1050.0 623.4 L 1100.0 627.3 L 1150.0 630.4 L 1200.0 629.5" stroke="rgba(10,10,8,0.28)" stroke-width="1.06" fill="none" />
<path d="M 0 632.4 L 50.0 645.6 L 100.0 651.0 L 150.0 653.8 L 200.0 652.0 L 250.0 648.5 L 300.0 641.6 L 350.0 634.4 L 400.0 626.2 L 450.0 620.1 L 500.0 615.3 L 550.0 611.7 L 600.0 612.2 L 650.0 616.5 L 700.0 622.2 L 750.0 629.5 L 800.0 638.7 L 850.0 645.9 L 900.0 649.5 L 950.0 651.9 L 1000.0 651.4 L 1050.0 647.7 L 1100.0 642.7 L 1150.0 634.7 L 1200.0 627.3" stroke="rgba(10,10,8,0.53)" stroke-width="0.69" fill="none" />
<path d="M 0 642.5 L 50.0 653.7 L 100.0 649.3 L 150.0 644.2 L 200.0 638.7 L 250.0 633.9 L 300.0 630.6 L 350.0 627.4 L 400.0 628.6 L 450.0 631.1 L 500.0 635.0 L 550.0 641.7 L 600.0 646.4 L 650.0 651.2 L 700.0 655.0 L 750.0 656.7 L 800.0 655.3 L 850.0 654.3 L 900.0 648.5 L 950.0 644.5 L 1000.0 638.2 L 1050.0 634.0 L 1100.0 630.9 L 1150.0 628.3 L 1200.0 629.3" stroke="rgba(10,10,8,0.51)" stroke-width="0.77" fill="none" />
<path d="M 0 655.2 L 50.0 648.7 L 100.0 652.7 L 150.0 656.1 L 200.0 658.4 L 250.0 661.3 L 300.0 662.3 L 350.0 664.2 L 400.0 663.6 L 450.0 660.3 L 500.0 658.8 L 550.0 654.4 L 600.0 651.3 L 650.0 649.2 L 700.0 647.9 L 750.0 647.1 L 800.0 647.2 L 850.0 650.1 L 900.0 652.7 L 950.0 655.9 L 1000.0 657.8 L 1050.0 660.6 L 1100.0 662.7 L 1150.0 662.6 L 1200.0 662.8" stroke="rgba(10,10,8,0.43)" stroke-width="1.20" fill="none" />
<path d="M 0 671.9 L 50.0 688.1 L 100.0 682.6 L 150.0 677.2 L 200.0 670.7 L 250.0 663.5 L 300.0 658.9 L 350.0 655.6 L 400.0 654.4 L 450.0 656.2 L 500.0 660.6 L 550.0 666.1 L 600.0 673.2 L 650.0 680.2 L 700.0 684.7 L 750.0 689.5 L 800.0 689.4 L 850.0 687.7 L 900.0 683.0 L 950.0 677.0 L 1000.0 671.0 L 1050.0 664.9 L 1100.0 658.5 L 1150.0 654.3 L 1200.0 653.9" stroke="rgba(10,10,8,0.38)" stroke-width="0.44" fill="none" />
<path d="M 0 684.7 L 50.0 704.8 L 100.0 704.5 L 150.0 701.2 L 200.0 695.7 L 250.0 688.8 L 300.0 679.8 L 350.0 672.7 L 400.0 668.3 L 450.0 664.6 L 500.0 665.5 L 550.0 668.3 L 600.0 674.9 L 650.0 682.4 L 700.0 688.7 L 750.0 696.3 L 800.0 702.3 L 850.0 705.0 L 900.0 704.6 L 950.0 699.7 L 1000.0 695.8 L 1050.0 687.3 L 1100.0 680.5 L 1150.0 673.1 L 1200.0 669.0" stroke="rgba(10,10,8,0.26)" stroke-width="1.20" fill="none" />
<path d="M 0 696.7 L 50.0 704.6 L 100.0 711.2 L 150.0 716.6 L 200.0 718.2 L 250.0 714.8 L 300.0 710.2 L 350.0 704.5 L 400.0 696.0 L 450.0 689.4 L 500.0 682.2 L 550.0 677.4 L 600.0 676.7 L 650.0 677.9 L 700.0 683.1 L 750.0 688.5 L 800.0 697.7 L 850.0 704.3 L 900.0 711.8 L 950.0 716.8 L 1000.0 718.0 L 1050.0 715.6 L 1100.0 710.6 L 1150.0 703.5 L 1200.0 697.5" stroke="rgba(10,10,8,0.23)" stroke-width="0.62" fill="none" />
<path d="M 0 710.9 L 50.0 718.1 L 100.0 724.6 L 150.0 729.8 L 200.0 730.7 L 250.0 728.5 L 300.0 724.8 L 350.0 717.6 L 400.0 710.3 L 450.0 702.1 L 500.0 697.2 L 550.0 692.1 L 600.0 691.8 L 650.0 693.3 L 700.0 697.1 L 750.0 703.2 L 800.0 711.4 L 850.0 718.1 L 900.0 725.5 L 950.0 729.0 L 1000.0 730.9 L 1050.0 728.7 L 1100.0 724.7 L 1150.0 717.7 L 1200.0 710.9" stroke="rgba(10,10,8,0.46)" stroke-width="1.09" fill="none" />
<path d="M 0 722.5 L 50.0 713.6 L 100.0 711.1 L 150.0 711.2 L 200.0 711.2 L 250.0 714.3 L 300.0 718.5 L 350.0 723.0 L 400.0 728.1 L 450.0 732.8 L 500.0 734.8 L 550.0 734.7 L 600.0 733.0 L 650.0 730.8 L 700.0 725.2 L 750.0 720.6 L 800.0 716.9 L 850.0 713.2 L 900.0 711.1 L 950.0 710.5 L 1000.0 711.6 L 1050.0 714.3 L 1100.0 720.1 L 1150.0 724.5 L 1200.0 727.8" stroke="rgba(10,10,8,0.35)" stroke-width="0.69" fill="none" />
<path d="M 0 734.1 L 50.0 734.0 L 100.0 730.6 L 150.0 726.1 L 200.0 723.6 L 250.0 723.3 L 300.0 724.5 L 350.0 726.4 L 400.0 729.2 L 450.0 735.1 L 500.0 738.2 L 550.0 742.5 L 600.0 744.1 L 650.0 744.6 L 700.0 744.9 L 750.0 741.6 L 800.0 738.1 L 850.0 734.3 L 900.0 729.4 L 950.0 725.9 L 1000.0 724.4 L 1050.0 723.3 L 1100.0 723.9 L 1150.0 726.6 L 1200.0 730.8" stroke="rgba(10,10,8,0.38)" stroke-width="1.00" fill="none" />
<path d="M 0 749.9 L 50.0 757.8 L 100.0 752.7 L 150.0 746.7 L 200.0 739.9 L 250.0 736.7 L 300.0 735.8 L 350.0 734.5 L 400.0 737.4 L 450.0 742.8 L 500.0 748.8 L 550.0 754.2 L 600.0 759.4 L 650.0 762.0 L 700.0 764.4 L 750.0 763.8 L 800.0 760.7 L 850.0 757.4 L 900.0 752.6 L 950.0 745.2 L 1000.0 741.2 L 1050.0 736.0 L 1100.0 735.8 L 1150.0 735.3 L 1200.0 737.3" stroke="rgba(10,10,8,0.45)" stroke-width="1.13" fill="none" />
<path d="M 0 762.5 L 50.0 742.6 L 100.0 740.6 L 150.0 742.7 L 200.0 748.9 L 250.0 755.5 L 300.0 763.9 L 350.0 771.6 L 400.0 778.2 L 450.0 782.4 L 500.0 782.8 L 550.0 781.6 L 600.0 776.2 L 650.0 768.8 L 700.0 760.8 L 750.0 753.4 L 800.0 746.0 L 850.0 743.5 L 900.0 741.6 L 950.0 743.1 L 1000.0 749.4 L 1050.0 756.1 L 1100.0 764.8 L 1150.0 772.2 L 1200.0 778.1" stroke="rgba(10,10,8,0.48)" stroke-width="0.91" fill="none" />
<path d="M 0 773.8 L 50.0 782.3 L 100.0 781.4 L 150.0 780.2 L 200.0 775.8 L 250.0 773.3 L 300.0 770.1 L 350.0 766.4 L 400.0 765.9 L 450.0 765.2 L 500.0 765.2 L 550.0 767.5 L 600.0 772.0 L 650.0 774.1 L 700.0 777.4 L 750.0 781.5 L 800.0 782.8 L 850.0 783.9 L 900.0 782.3 L 950.0 780.5 L 1000.0 775.8 L 1050.0 772.3 L 1100.0 769.8 L 1150.0 766.2 L 1200.0 765.4" stroke="rgba(10,10,8,0.25)" stroke-width="0.80" fill="none" />
<path d="M 0 789.4 L 50.0 792.6 L 100.0 787.4 L 150.0 779.8 L 200.0 775.6 L 250.0 771.2 L 300.0 772.4 L 350.0 773.5 L 400.0 779.2 L 450.0 784.3 L 500.0 792.2 L 550.0 797.8 L 600.0 804.1 L 650.0 806.4 L 700.0 807.4 L 750.0 803.6 L 800.0 799.0 L 850.0 792.7 L 900.0 786.6 L 950.0 779.3 L 1000.0 775.1 L 1050.0 772.1 L 1100.0 772.3 L 1150.0 774.1 L 1200.0 778.9" stroke="rgba(10,10,8,0.39)" stroke-width="0.60" fill="none" />
    </g>
    <rect width="100%" height="100%" fill="url(#vignette-limba-top)"/>
  </g>
</svg>