<?xml version="1.0" encoding="UTF-8"?>
<svg xmlns="http://www.w3.org/2000/svg" viewBox="0 0 1200 800" preserveAspectRatio="xMidYMid slice" role="img" aria-label="limba bottom">
  <defs>
    <radialGradient id="bg-limba-bottom" cx="50%" cy="40%" r="80%">
      <stop offset="0%" stop-color="#161410"/>
      <stop offset="100%" stop-color="#0a0a08"/>
    </radialGradient>
    <linearGradient id="wood-limba-bottom" x1="0" y1="0" x2="1" y2="1">
      <stop offset="0%" stop-color="#2b2520"/>
      <stop offset="50%" stop-color="#54473a"/>
      <stop offset="100%" stop-color="#a89478"/>
    </linearGradient>
    <radialGradient id="vignette-limba-bottom" cx="50%" cy="50%" r="65%">
      <stop offset="60%" stop-color="rgba(0,0,0,0)"/>
      <stop offset="100%" stop-color="rgba(0,0,0,0.45)"/>
    </radialGradient>
    <clipPath id="clip-limba-bottom">
      <path d="M600 120 C760 120 880 200 920 320 C960 440 920 560 820 620 C720 680 600 660 600 660 C600 660 480 680 380 620 C280 560 240 440 280 320 C320 200 440 120 600 120 Z"/>
    </clipPath>
  </defs>
  <rect width="100%" height="100%" fill="url(#bg-limba-bottom)"/>
  <g clip-path="url(#clip-limba-bottom)">
    <rect width="100%" height="100%" fill="url(#wood-limba-bottom)"/>
    <g opacity="0.70">
      <path d="M 0 4.9 L 50.0 -9.6 L 100.0 -4.4 L 150.0 2.1 L 200.0 9.4 L 250.0 17.2 L 300.0 22.1 L 350.0 24.6 L 400.0 22.8 L 450.0 19.8 L 500.0 13.5 L 550.0 7.3 L 600.0 0.2 L 650.0 -6.6 L 700.0 -12.0 L 750.0 -14.2 L 800.0 -14.2 L 850.0 -10.4 L 900.0 -5.1 L 950.0 3.7 L 1000.0 10.6 L 1050.0 17.7 L 1100.0 21.4 L 1150.0 24.3 L 1200.0 24.5" stroke="rgba(10,10,8,0.32)" stroke-width="0.71" fill="none" />
<path d="M 0 18.4 L 50.0 8.0 L 100.0 15.4 L 150.0 23.3 L 200.0 30.2 L 250.0 36.3 L 300.0 37.2 L 350.0 37.6 L 400.0 35.0 L 450.0 28.4 L 500.0 20.5 L 550.0 12.5 L 600.0 5.8 L 650.0 0.4 L 700.0 -0.4 L 750.0 -0.4 L 800.0 2.5 L 850.0 8.7 L 900.0 15.0 L 950.0 23.6 L 1000.0 30.6 L 1050.0 36.4 L 1100.0 38.6 L 1150.0 36.8 L 1200.0 34.1" stroke="rgba(10,10,8,0.46)" stroke-width="1.10" fill="none" />
<path d="M 0 29.4 L 50.0 47.3 L 100.0 45.8 L 150.0 41.6 L 200.0 35.9 L 250.0 28.5 L 300.0 20.2 L 350.0 14.4 L 400.0 11.7 L 450.0 11.0 L 500.0 12.3 L 550.0 16.5 L 600.0 23.3 L 650.0 31.7 L 700.0 38.6 L 750.0 44.1 L 800.0 46.8 L 850.0 47.4 L 900.0 45.3 L 950.0 42.2 L 1000.0 35.1 L 1050.0 28.9 L 1100.0 21.8 L 1150.0 14.4 L 1200.0 12.0" stroke="rgba(10,10,8,0.26)" stroke-width="0.94" fill="none" />
<path d="M 0 44.6 L 50.0 42.0 L 100.0 34.6 L 150.0 30.7 L 200.0 26.7 L 250.0 27.4 L 300.0 28.7 L 350.0 34.5 L 400.0 39.9 L 450.0 47.2 L 500.0 53.7 L 550.0 60.2 L 600.0 62.2 L 650.0 62.1 L 700.0 59.4 L 750.0 55.9 L 800.0 49.7 L 850.0 41.1 L 900.0 35.6 L 950.0 30.2 L 1000.0 26.7 L 1050.0 27.2 L 1100.0 28.1 L 1150.0 33.8 L 1200.0 40.4" stroke="rgba(10,10,8,0.43)" stroke-width="1.16" fill="none" />
<path d="M 0 55.8 L 50.0 52.0 L 100.0 58.6 L 150.0 65.5 L 200.0 69.8 L 250.0 72.9 L 300.0 72.3 L 350.0 71.0 L 400.0 66.1 L 450.0 59.9 L 500.0 53.6 L 550.0 47.2 L 600.0 41.2 L 650.0 39.7 L 700.0 38.5 L 750.0 41.0 L 800.0 45.3 L 850.0 52.6 L 900.0 59.0 L 950.0 65.1 L 1000.0 70.3 L 1050.0 72.7 L 1100.0 72.5 L 1150.0 70.5 L 1200.0 65.7" stroke="rgba(10,10,8,0.52)" stroke-width="0.86" fill="none" />
<path d="M 0 70.6 L 50.0 86.8 L 100.0 86.0 L 150.0 82.6 L 200.0 77.2 L 250.0 69.6 L 300.0 63.3 L 350.0 59.2 L 400.0 56.1 L 450.0 53.5 L 500.0 55.3 L 550.0 58.6 L 600.0 64.2 L 650.0 70.7 L 700.0 77.6 L 750.0 81.8 L 800.0 85.7 L 850.0 86.2 L 900.0 85.6 L 950.0 82.8 L 1000.0 77.2 L 1050.0 70.2 L 1100.0 63.4 L 1150.0 59.6 L 1200.0 54.8" stroke="rgba(10,10,8,0.29)" stroke-width="0.90" fill="none" />
<path d="M 0 80.9 L 50.0 68.9 L 100.0 77.3 L 150.0 85.9 L 200.0 91.9 L 250.0 98.2 L 300.0 102.0 L 350.0 101.9 L 400.0 97.4 L 450.0 92.3 L 500.0 85.1 L 550.0 76.1 L 600.0 68.9 L 650.0 62.7 L 700.0 61.3 L 750.0 60.8 L 800.0 63.4 L 850.0 69.6 L 900.0 77.1 L 950.0 85.6 L 1000.0 92.5 L 1050.0 98.4 L 1100.0 101.8 L 1150.0 100.7 L 1200.0 97.8" stroke="rgba(10,10,8,0.28)" stroke-width="0.80" fill="none" />
<path d="M 0 96.0 L 50.0 100.9 L 100.0 97.7 L 150.0 93.1 L 200.0 89.9 L 250.0 87.5 L 300.0 87.9 L 350.0 88.4 L 400.0 88.5 L 450.0 91.4 L 500.0 94.8 L 550.0 98.4 L 600.0 100.7 L 650.0 104.7 L 700.0 104.4 L 750.0 104.6 L 800.0 102.1 L 850.0 99.7 L 900.0 96.6 L 950.0 93.1 L 1000.0 90.8 L 1050.0 88.8 L 1100.0 88.1 L 1150.0 86.6 L 1200.0 88.5" stroke="rgba(10,10,8,0.33)" stroke-width="0.90" fill="none" />
<path d="M 0 106.7 L 50.0 107.8 L 100.0 110.2 L 150.0 112.9 L 200.0 114.9 L 250.0 115.5 L 300.0 113.9 L 350.0 111.7 L 400.0 109.5 L 450.0 105.8 L 500.0 102.1 L 550.0 100.4 L 600.0 99.4 L 650.0 98.3 L 700.0 99.7 L 750.0 102.3 L 800.0 104.5 L 850.0 107.6 L 900.0 110.3 L 950.0 112.6 L 1000.0 114.9 L 1050.0 114.8 L 1100.0 114.3 L 1150.0 111.6 L 1200.0 109.1" stroke="rgba(10,10,8,0.29)" stroke-width="1.18" fill="none" />
<path d="M 0 120.4 L 50.0 128.1 L 100.0 131.9 L 150.0 134.4 L 200.0 132.9 L 250.0 130.8 L 300.0 126.7 L 350.0 123.1 L 400.0 117.9 L 450.0 113.4 L 500.0 108.7 L 550.0 107.2 L 600.0 107.8 L 650.0 109.4 L 700.0 114.2 L 750.0 117.4 L 800.0 123.5 L 850.0 128.2 L 900.0 131.6 L 950.0 132.8 L 1000.0 133.8 L 1050.0 130.5 L 1100.0 127.4 L 1150.0 123.1 L 1200.0 117.4" stroke="rgba(10,10,8,0.54)" stroke-width="0.51" fill="none" />
<path d="M 0 133.5 L 50.0 139.8 L 100.0 136.9 L 150.0 133.7 L 200.0 128.9 L 250.0 125.3 L 300.0 124.4 L 350.0 123.9 L 400.0 124.5 L 450.0 126.8 L 500.0 129.2 L 550.0 133.8 L 600.0 136.8 L 650.0 141.4 L 700.0 142.3 L 750.0 143.5 L 800.0 142.0 L 850.0 141.3 L 900.0 136.2 L 950.0 133.2 L 1000.0 128.8 L 1050.0 125.8 L 1100.0 123.6 L 1150.0 123.2 L 1200.0 124.6" stroke="rgba(10,10,8,0.25)" stroke-width="0.49" fill="none" />
<path d="M 0 150.3 L 50.0 142.2 L 100.0 139.3 L 150.0 139.3 L 200.0 141.2 L 250.0 142.5 L 300.0 147.1 L 350.0 151.4 L 400.0 155.4 L 450.0 159.2 L 500.0 161.0 L 550.0 160.3 L 600.0 160.3 L 650.0 157.4 L 700.0 153.1 L 750.0 149.5 L 800.0 145.4 L 850.0 141.5 L 900.0 140.3 L 950.0 140.2 L 1000.0 140.2 L 1050.0 142.9 L 1100.0 147.6 L 1150.0 152.0 L 1200.0 154.4" stroke="rgba(10,10,8,0.29)" stroke-width="1.02" fill="none" />
<path d="M 0 163.5 L 50.0 175.1 L 100.0 175.4 L 150.0 174.7 L 200.0 173.3 L 250.0 168.5 L 300.0 165.4 L 350.0 159.6 L 400.0 156.5 L 450.0 152.3 L 500.0 150.8 L 550.0 152.7 L 600.0 154.7 L 650.0 158.2 L 700.0 162.7 L 750.0 167.7 L 800.0 170.5 L 850.0 174.5 L 900.0 176.3 L 950.0 174.2 L 1000.0 172.2 L 1050.0 168.8 L 1100.0 165.5 L 1150.0 160.6 L 1200.0 156.1" stroke="rgba(10,10,8,0.27)" stroke-width="1.15" fill="none" />
<path d="M 0 174.8 L 50.0 170.5 L 100.0 172.8 L 150.0 176.1 L 200.0 180.5 L 250.0 182.3 L 300.0 184.0 L 350.0 183.1 L 400.0 180.9 L 450.0 179.9 L 500.0 175.6 L 550.0 171.9 L 600.0 169.6 L 650.0 167.2 L 700.0 167.1 L 750.0 167.5 L 800.0 167.4 L 850.0 171.2 L 900.0 174.2 L 950.0 176.2 L 1000.0 179.7 L 1050.0 181.8 L 1100.0 183.5 L 1150.0 182.0 L 1200.0 180.8" stroke="rgba(10,10,8,0.28)" stroke-width="0.51" fill="none" />
<path d="M 0 189.9 L 50.0 200.5 L 100.0 200.8 L 150.0 198.7 L 200.0 197.0 L 250.0 193.9 L 300.0 188.9 L 350.0 185.3 L 400.0 182.5 L 450.0 180.5 L 500.0 179.9 L 550.0 180.8 L 600.0 183.1 L 650.0 186.4 L 700.0 191.3 L 750.0 193.6 L 800.0 196.8 L 850.0 200.4 L 900.0 199.2 L 950.0 198.6 L 1000.0 196.2 L 1050.0 193.8 L 1100.0 189.3 L 1150.0 185.6 L 1200.0 181.3" stroke="rgba(10,10,8,0.31)" stroke-width="0.51" fill="none" />
<path d="M 0 204.7 L 50.0 222.2 L 100.0 221.6 L 150.0 218.8 L 200.0 215.2 L 250.0 208.2 L 300.0 201.5 L 350.0 195.8 L 400.0 190.5 L 450.0 188.1 L 500.0 187.2 L 550.0 189.8 L 600.0 194.6 L 650.0 201.4 L 700.0 209.0 L 750.0 214.6 L 800.0 220.2 L 850.0 222.5 L 900.0 222.6 L 950.0 219.9 L 1000.0 214.0 L 1050.0 208.2 L 1100.0 201.4 L 1150.0 195.6 L 1200.0 189.4" stroke="rgba(10,10,8,0.47)" stroke-width="1.18" fill="none" />
<path d="M 0 214.5 L 50.0 228.0 L 100.0 232.4 L 150.0 233.1 L 200.0 232.7 L 250.0 229.0 L 300.0 222.8 L 350.0 214.9 L 400.0 208.6 L 450.0 201.0 L 500.0 198.1 L 550.0 195.1 L 600.0 196.1 L 650.0 201.1 L 700.0 206.5 L 750.0 213.0 L 800.0 220.7 L 850.0 226.2 L 900.0 231.7 L 950.0 233.0 L 1000.0 231.7 L 1050.0 229.2 L 1100.0 221.5 L 1150.0 215.8 L 1200.0 208.2" stroke="rgba(10,10,8,0.48)" stroke-width="1.01" fill="none" />
<path d="M 0 232.0 L 50.0 223.8 L 100.0 224.9 L 150.0 227.1 L 200.0 230.4 L 250.0 234.3 L 300.0 236.4 L 350.0 238.2 L 400.0 240.6 L 450.0 240.0 L 500.0 238.1 L 550.0 235.4 L 600.0 233.2 L 650.0 229.6 L 700.0 226.4 L 750.0 225.3 L 800.0 224.2 L 850.0 223.4 L 900.0 225.0 L 950.0 227.8 L 1000.0 230.9 L 1050.0 234.3 L 1100.0 236.4 L 1150.0 239.4 L 1200.0 239.6" stroke="rgba(10,10,8,0.39)" stroke-width="0.51" fill="none" />
<path d="M 0 244.7 L 50.0 260.2 L 100.0 255.8 L 150.0 250.7 L 200.0 244.1 L 250.0 236.9 L 300.0 231.2 L 350.0 228.5 L 400.0 227.1 L 450.0 229.3 L 500.0 231.9 L 550.0 237.8 L 600.0 245.6 L 650.0 251.5 L 700.0 258.1 L 750.0 260.7 L 800.0 262.8 L 850.0 261.3 L 900.0 256.0 L 950.0 249.8 L 1000.0 244.6 L 1050.0 237.8 L 1100.0 231.4 L 1150.0 228.8 L 1200.0 226.4" stroke="rgba(10,10,8,0.51)" stroke-width="0.69" fill="none" />
<path d="M 0 258.9 L 50.0 265.0 L 100.0 268.9 L 150.0 271.4 L 200.0 273.1 L 250.0 272.6 L 300.0 267.7 L 350.0 263.1 L 400.0 258.6 L 450.0 252.6 L 500.0 249.2 L 550.0 246.4 L 600.0 244.1 L 650.0 246.9 L 700.0 248.5 L 750.0 253.4 L 800.0 258.5 L 850.0 265.2 L 900.0 269.8 L 950.0 272.1 L 1000.0 272.4 L 1050.0 271.3 L 1100.0 268.8 L 1150.0 264.5 L 1200.0 257.7" stroke="rgba(10,10,8,0.52)" stroke-width="0.47" fill="none" />
<path d="M 0 271.1 L 50.0 272.3 L 100.0 265.1 L 150.0 257.5 L 200.0 254.4 L 250.0 250.6 L 300.0 253.4 L 350.0 256.3 L 400.0 261.9 L 450.0 270.8 L 500.0 277.2 L 550.0 284.3 L 600.0 289.0 L 650.0 289.8 L 700.0 289.8 L 750.0 285.7 L 800.0 278.8 L 850.0 272.7 L 900.0 265.4 L 950.0 258.7 L 1000.0 253.3 L 1050.0 251.1 L 1100.0 252.9 L 1150.0 257.4 L 1200.0 261.7" stroke="rgba(10,10,8,0.23)" stroke-width="1.09" fill="none" />
<path d="M 0 283.7 L 50.0 279.5 L 100.0 276.4 L 150.0 272.1 L 200.0 271.9 L 250.0 271.7 L 300.0 274.7 L 350.0 277.9 L 400.0 282.0 L 450.0 286.8 L 500.0 291.5 L 550.0 294.5 L 600.0 296.8 L 650.0 294.7 L 700.0 293.1 L 750.0 289.1 L 800.0 283.9 L 850.0 279.1 L 900.0 275.1 L 950.0 271.7 L 1000.0 271.9 L 1050.0 272.6 L 1100.0 273.5 L 1150.0 278.5 L 1200.0 282.9" stroke="rgba(10,10,8,0.43)" stroke-width="0.52" fill="none" />
<path d="M 0 296.7 L 50.0 288.8 L 100.0 290.5 L 150.0 296.0 L 200.0 299.9 L 250.0 303.0 L 300.0 304.3 L 350.0 305.7 L 400.0 306.8 L 450.0 304.9 L 500.0 301.6 L 550.0 297.8 L 600.0 295.0 L 650.0 290.2 L 700.0 289.0 L 750.0 286.2 L 800.0 286.0 L 850.0 289.5 L 900.0 290.9 L 950.0 294.6 L 1000.0 299.8 L 1050.0 302.1 L 1100.0 304.9 L 1150.0 305.9 L 1200.0 307.0" stroke="rgba(10,10,8,0.45)" stroke-width="0.55" fill="none" />
<path d="M 0 307.6 L 50.0 320.3 L 100.0 314.3 L 150.0 305.8 L 200.0 299.3 L 250.0 294.2 L 300.0 291.2 L 350.0 289.9 L 400.0 292.2 L 450.0 296.0 L 500.0 301.6 L 550.0 308.8 L 600.0 315.3 L 650.0 320.7 L 700.0 323.9 L 750.0 325.7 L 800.0 324.2 L 850.0 318.7 L 900.0 313.3 L 950.0 307.3 L 1000.0 299.7 L 1050.0 293.6 L 1100.0 291.8 L 1150.0 290.1 L 1200.0 291.0" stroke="rgba(10,10,8,0.50)" stroke-width="0.71" fill="none" />
<path d="M 0 322.4 L 50.0 324.0 L 100.0 329.2 L 150.0 336.3 L 200.0 340.3 L 250.0 339.8 L 300.0 338.2 L 350.0 334.0 L 400.0 328.8 L 450.0 322.1 L 500.0 313.9 L 550.0 309.7 L 600.0 306.2 L 650.0 305.2 L 700.0 305.2 L 750.0 311.0 L 800.0 315.4 L 850.0 323.9 L 900.0 329.4 L 950.0 334.8 L 1000.0 339.4 L 1050.0 339.7 L 1100.0 338.1 L 1150.0 334.7 L 1200.0 328.2" stroke="rgba(10,10,8,0.24)" stroke-width="0.75" fill="none" />
<path d="M 0 334.3 L 50.0 329.4 L 100.0 320.7 L 150.0 315.0 L 200.0 312.5 L 250.0 313.9 L 300.0 318.2 L 350.0 323.3 L 400.0 331.1 L 450.0 341.0 L 500.0 347.5 L 550.0 352.7 L 600.0 356.3 L 650.0 354.7 L 700.0 351.7 L 750.0 344.0 L 800.0 336.7 L 850.0 329.1 L 900.0 320.3 L 950.0 316.7 L 1000.0 313.6 L 1050.0 313.1 L 1100.0 317.4 L 1150.0 323.0 L 1200.0 332.3" stroke="rgba(10,10,8,0.28)" stroke-width="0.51" fill="none" />
<path d="M 0 348.2 L 50.0 342.0 L 100.0 336.4 L 150.0 332.1 L 200.0 330.8 L 250.0 331.3 L 300.0 334.4 L 350.0 340.1 L 400.0 347.5 L 450.0 352.6 L 500.0 358.9 L 550.0 364.4 L 600.0 365.9 L 650.0 365.5 L 700.0 361.2 L 750.0 355.7 L 800.0 349.7 L 850.0 343.5 L 900.0 336.6 L 950.0 331.7 L 1000.0 329.8 L 1050.0 330.1 L 1100.0 334.0 L 1150.0 340.4 L 1200.0 345.9" stroke="rgba(10,10,8,0.25)" stroke-width="1.03" fill="none" />
<path d="M 0 361.3 L 50.0 340.6 L 100.0 342.4 L 150.0 348.9 L 200.0 356.1 L 250.0 363.8 L 300.0 372.2 L 350.0 377.6 L 400.0 381.2 L 450.0 381.5 L 500.0 380.0 L 550.0 375.3 L 600.0 368.0 L 650.0 359.6 L 700.0 351.2 L 750.0 345.1 L 800.0 340.8 L 850.0 340.7 L 900.0 343.1 L 950.0 348.7 L 1000.0 356.2 L 1050.0 363.9 L 1100.0 371.8 L 1150.0 378.2 L 1200.0 382.4" stroke="rgba(10,10,8,0.31)" stroke-width="0.65" fill="none" />
<path d="M 0 378.2 L 50.0 400.1 L 100.0 398.0 L 150.0 395.0 L 200.0 387.6 L 250.0 379.9 L 300.0 371.5 L 350.0 364.8 L 400.0 358.3 L 450.0 357.1 L 500.0 357.6 L 550.0 361.7 L 600.0 368.9 L 650.0 377.1 L 700.0 383.8 L 750.0 391.4 L 800.0 397.1 L 850.0 399.1 L 900.0 398.5 L 950.0 394.9 L 1000.0 388.2 L 1050.0 380.9 L 1100.0 372.5 L 1150.0 364.2 L 1200.0 360.3" stroke="rgba(10,10,8,0.38)" stroke-width="0.43" fill="none" />
<path d="M 0 387.2 L 50.0 397.0 L 100.0 403.6 L 150.0 407.8 L 200.0 407.5 L 250.0 405.3 L 300.0 401.2 L 350.0 394.3 L 400.0 385.6 L 450.0 378.5 L 500.0 370.2 L 550.0 366.8 L 600.0 365.5 L 650.0 368.2 L 700.0 372.8 L 750.0 381.5 L 800.0 388.8 L 850.0 396.7 L 900.0 403.4 L 950.0 407.3 L 1000.0 408.2 L 1050.0 405.8 L 1100.0 401.6 L 1150.0 393.9 L 1200.0 386.0" stroke="rgba(10,10,8,0.49)" stroke-width="0.54" fill="none" />
<path d="M 0 400.8 L 50.0 395.2 L 100.0 400.3 L 150.0 403.8 L 200.0 406.9 L 250.0 409.3 L 300.0 410.6 L 350.0 410.7 L 400.0 407.6 L 450.0 404.7 L 500.0 403.0 L 550.0 398.6 L 600.0 396.3 L 650.0 393.7 L 700.0 392.6 L 750.0 392.6 L 800.0 393.0 L 850.0 395.1 L 900.0 398.8 L 950.0 403.5 L 1000.0 405.7 L 1050.0 408.6 L 1100.0 410.1 L 1150.0 408.9 L 1200.0 407.6" stroke="rgba(10,10,8,0.33)" stroke-width="1.08" fill="none" />
<path d="M 0 417.0 L 50.0 417.1 L 100.0 422.5 L 150.0 426.1 L 200.0 427.3 L 250.0 427.9 L 300.0 427.9 L 350.0 424.4 L 400.0 420.4 L 450.0 416.4 L 500.0 411.1 L 550.0 408.3 L 600.0 405.9 L 650.0 405.7 L 700.0 407.1 L 750.0 409.4 L 800.0 412.6 L 850.0 417.9 L 900.0 421.8 L 950.0 425.3 L 1000.0 428.0 L 1050.0 428.6 L 1100.0 427.7 L 1150.0 424.1 L 1200.0 421.0" stroke="rgba(10,10,8,0.45)" stroke-width="1.17" fill="none" />
<path d="M 0 431.2 L 50.0 434.8 L 100.0 440.5 L 150.0 444.6 L 200.0 446.7 L 250.0 445.5 L 300.0 443.6 L 350.0 439.3 L 400.0 433.2 L 450.0 427.4 L 500.0 422.2 L 550.0 417.7 L 600.0 416.0 L 650.0 416.7 L 700.0 420.1 L 750.0 423.7 L 800.0 430.0 L 850.0 435.7 L 900.0 440.2 L 950.0 443.8 L 1000.0 446.3 L 1050.0 446.3 L 1100.0 442.6 L 1150.0 439.3 L 1200.0 432.2" stroke="rgba(10,10,8,0.26)" stroke-width="0.88" fill="none" />
<path d="M 0 441.5 L 50.0 438.8 L 100.0 436.7 L 150.0 433.2 L 200.0 431.4 L 250.0 431.4 L 300.0 431.4 L 350.0 436.1 L 400.0 438.6 L 450.0 443.7 L 500.0 448.2 L 550.0 450.8 L 600.0 451.4 L 650.0 451.6 L 700.0 450.6 L 750.0 448.1 L 800.0 444.9 L 850.0 440.4 L 900.0 436.0 L 950.0 433.1 L 1000.0 430.8 L 1050.0 431.2 L 1100.0 431.4 L 1150.0 435.7 L 1200.0 438.6" stroke="rgba(10,10,8,0.33)" stroke-width="0.50" fill="none" />
<path d="M 0 457.1 L 50.0 450.1 L 100.0 457.7 L 150.0 466.1 L 200.0 472.2 L 250.0 476.2 L 300.0 476.9 L 350.0 475.7 L 400.0 470.1 L 450.0 464.4 L 500.0 455.9 L 550.0 447.7 L 600.0 442.2 L 650.0 437.7 L 700.0 437.2 L 750.0 439.8 L 800.0 443.8 L 850.0 451.1 L 900.0 457.6 L 950.0 465.6 L 1000.0 471.3 L 1050.0 476.3 L 1100.0 476.7 L 1150.0 476.1 L 1200.0 471.0" stroke="rgba(10,10,8,0.50)" stroke-width="1.20" fill="none" />
<path d="M 0 468.7 L 50.0 465.6 L 100.0 460.6 L 150.0 457.8 L 200.0 455.3 L 250.0 454.7 L 300.0 457.5 L 350.0 460.6 L 400.0 465.9 L 450.0 472.4 L 500.0 476.7 L 550.0 481.3 L 600.0 482.0 L 650.0 481.6 L 700.0 480.6 L 750.0 476.1 L 800.0 471.4 L 850.0 465.0 L 900.0 460.9 L 950.0 456.4 L 1000.0 454.9 L 1050.0 456.2 L 1100.0 456.8 L 1150.0 462.1 L 1200.0 465.7" stroke="rgba(10,10,8,0.26)" stroke-width="0.54" fill="none" />
<path d="M 0 483.9 L 50.0 471.1 L 100.0 469.9 L 150.0 471.4 L 200.0 475.1 L 250.0 479.7 L 300.0 484.9 L 350.0 489.8 L 400.0 494.7 L 450.0 496.4 L 500.0 498.9 L 550.0 496.9 L 600.0 493.3 L 650.0 489.3 L 700.0 482.3 L 750.0 478.9 L 800.0 473.1 L 850.0 470.1 L 900.0 469.2 L 950.0 472.1 L 1000.0 474.8 L 1050.0 479.0 L 1100.0 483.8 L 1150.0 490.7 L 1200.0 493.7" stroke="rgba(10,10,8,0.34)" stroke-width="0.59" fill="none" />
<path d="M 0 498.9 L 50.0 515.7 L 100.0 518.7 L 150.0 520.8 L 200.0 518.5 L 250.0 513.9 L 300.0 506.8 L 350.0 498.0 L 400.0 488.9 L 450.0 483.8 L 500.0 478.2 L 550.0 477.6 L 600.0 480.8 L 650.0 485.2 L 700.0 491.4 L 750.0 500.6 L 800.0 508.5 L 850.0 515.5 L 900.0 518.8 L 950.0 519.9 L 1000.0 518.6 L 1050.0 513.2 L 1100.0 505.6 L 1150.0 497.5 L 1200.0 489.9" stroke="rgba(10,10,8,0.24)" stroke-width="0.58" fill="none" />
<path d="M 0 512.2 L 50.0 498.5 L 100.0 493.1 L 150.0 493.8 L 200.0 494.1 L 250.0 499.0 L 300.0 506.3 L 350.0 513.9 L 400.0 521.2 L 450.0 526.0 L 500.0 529.9 L 550.0 532.3 L 600.0 530.1 L 650.0 524.2 L 700.0 518.0 L 750.0 510.3 L 800.0 504.4 L 850.0 497.4 L 900.0 494.3 L 950.0 493.6 L 1000.0 494.7 L 1050.0 499.7 L 1100.0 505.7 L 1150.0 514.0 L 1200.0 520.4" stroke="rgba(10,10,8,0.50)" stroke-width="1.17" fill="none" />
<path d="M 0 522.3 L 50.0 521.9 L 100.0 515.3 L 150.0 508.9 L 200.0 503.7 L 250.0 503.4 L 300.0 504.9 L 350.0 508.8 L 400.0 514.9 L 450.0 522.3 L 500.0 528.8 L 550.0 536.0 L 600.0 539.6 L 650.0 542.6 L 700.0 541.2 L 750.0 535.4 L 800.0 530.1 L 850.0 522.1 L 900.0 515.7 L 950.0 508.6 L 1000.0 503.5 L 1050.0 503.4 L 1100.0 505.3 L 1150.0 508.6 L 1200.0 514.1" stroke="rgba(10,10,8,0.39)" stroke-width="0.62" fill="none" />
<path d="M 0 537.1 L 50.0 524.4 L 100.0 521.8 L 150.0 522.5 L 200.0 523.2 L 250.0 528.4 L 300.0 534.0 L 350.0 539.1 L 400.0 545.7 L 450.0 549.6 L 500.0 553.0 L 550.0 553.0 L 600.0 550.0 L 650.0 546.2 L 700.0 540.3 L 750.0 535.3 L 800.0 529.1 L 850.0 525.2 L 900.0 522.1 L 950.0 522.2 L 1000.0 524.7 L 1050.0 528.7 L 1100.0 533.0 L 1150.0 540.2 L 1200.0 544.5" stroke="rgba(10,10,8,0.35)" stroke-width="0.98" fill="none" />
<path d="M 0 550.2 L 50.0 558.8 L 100.0 551.4 L 150.0 543.0 L 200.0 537.6 L 250.0 533.7 L 300.0 531.2 L 350.0 532.9 L 400.0 537.4 L 450.0 541.9 L 500.0 549.7 L 550.0 555.7 L 600.0 562.9 L 650.0 566.5 L 700.0 568.7 L 750.0 568.0 L 800.0 564.3 L 850.0 558.3 L 900.0 551.9 L 950.0 543.8 L 1000.0 538.4 L 1050.0 533.9 L 1100.0 532.5 L 1150.0 532.8 L 1200.0 536.5" stroke="rgba(10,10,8,0.35)" stroke-width="0.44" fill="none" />
<path d="M 0 563.5 L 50.0 565.6 L 100.0 570.7 L 150.0 575.2 L 200.0 577.6 L 250.0 578.2 L 300.0 575.6 L 350.0 571.9 L 400.0 567.8 L 450.0 562.1 L 500.0 555.7 L 550.0 551.5 L 600.0 549.2 L 650.0 549.6 L 700.0 550.6 L 750.0 554.1 L 800.0 560.6 L 850.0 564.8 L 900.0 571.2 L 950.0 574.5 L 1000.0 577.3 L 1050.0 577.8 L 1100.0 575.7 L 1150.0 572.5 L 1200.0 566.3" stroke="rgba(10,10,8,0.50)" stroke-width="0.64" fill="none" />
<path d="M 0 578.2 L 50.0 569.8 L 100.0 563.7 L 150.0 560.8 L 200.0 560.6 L 250.0 562.8 L 300.0 567.1 L 350.0 573.0 L 400.0 581.5 L 450.0 587.4 L 500.0 593.0 L 550.0 595.7 L 600.0 597.0 L 650.0 595.0 L 700.0 589.0 L 750.0 583.3 L 800.0 576.2 L 850.0 568.2 L 900.0 563.8 L 950.0 560.2 L 1000.0 559.8 L 1050.0 561.8 L 1100.0 567.4 L 1150.0 574.1 L 1200.0 579.9" stroke="rgba(10,10,8,0.54)" stroke-width="0.86" fill="none" />
<path d="M 0 589.1 L 50.0 589.1 L 100.0 593.7 L 150.0 597.9 L 200.0 601.4 L 250.0 601.7 L 300.0 600.8 L 350.0 598.8 L 400.0 593.2 L 450.0 589.2 L 500.0 585.3 L 550.0 580.5 L 600.0 578.3 L 650.0 576.8 L 700.0 577.4 L 750.0 579.4 L 800.0 583.8 L 850.0 588.2 L 900.0 594.0 L 950.0 597.4 L 1000.0 601.5 L 1050.0 601.9 L 1100.0 601.7 L 1150.0 597.5 L 1200.0 594.4" stroke="rgba(10,10,8,0.51)" stroke-width="0.82" fill="none" />
<path d="M 0 601.8 L 50.0 613.3 L 100.0 609.8 L 150.0 604.6 L 200.0 598.5 L 250.0 594.6 L 300.0 590.5 L 350.0 587.3 L 400.0 589.2 L 450.0 590.2 L 500.0 595.1 L 550.0 600.7 L 600.0 605.7 L 650.0 610.6 L 700.0 614.2 L 750.0 616.1 L 800.0 614.1 L 850.0 613.3 L 900.0 609.6 L 950.0 603.9 L 1000.0 597.9 L 1050.0 593.0 L 1100.0 590.8 L 1150.0 588.5 L 1200.0 588.0" stroke="rgba(10,10,8,0.37)" stroke-width="0.72" fill="none" />
<path d="M 0 616.5 L 50.0 617.5 L 100.0 625.1 L 150.0 630.0 L 200.0 632.3 L 250.0 634.1 L 300.0 631.1 L 350.0 627.7 L 400.0 621.5 L 450.0 615.0 L 500.0 608.7 L 550.0 602.7 L 600.0 599.5 L 650.0 599.8 L 700.0 601.6 L 750.0 605.9 L 800.0 611.6 L 850.0 617.9 L 900.0 625.0 L 950.0 630.3 L 1000.0 633.8 L 1050.0 633.8 L 1100.0 631.7 L 1150.0 627.3 L 1200.0 621.4" stroke="rgba(10,10,8,0.49)" stroke-width="1.10" fill="none" />
<path d="M 0 629.6 L 50.0 637.4 L 100.0 630.0 L 150.0 623.3 L 200.0 618.0 L 250.0 615.2 L 300.0 612.6 L 350.0 613.9 L 400.0 616.3 L 450.0 622.8 L 500.0 627.9 L 550.0 635.0 L 600.0 641.1 L 650.0 644.4 L 700.0 645.8 L 750.0 645.4 L 800.0 642.2 L 850.0 637.4 L 900.0 630.6 L 950.0 623.3 L 1000.0 618.4 L 1050.0 613.9 L 1100.0 613.0 L 1150.0 614.6 L 1200.0 616.3" stroke="rgba(10,10,8,0.33)" stroke-width="0.78" fill="none" />
<path d="M 0 643.7 L 50.0 635.2 L 100.0 629.7 L 150.0 625.9 L 200.0 625.5 L 250.0 626.2 L 300.0 631.0 L 350.0 636.8 L 400.0 644.0 L 450.0 651.8 L 500.0 657.1 L 550.0 662.0 L 600.0 663.5 L 650.0 661.7 L 700.0 657.8 L 750.0 651.0 L 800.0 643.0 L 850.0 635.7 L 900.0 629.9 L 950.0 625.8 L 1000.0 624.3 L 1050.0 626.6 L 1100.0 630.1 L 1150.0 636.3 L 1200.0 644.4" stroke="rgba(10,10,8,0.36)" stroke-width="0.94" fill="none" />
<path d="M 0 658.7 L 50.0 661.0 L 100.0 665.0 L 150.0 669.0 L 200.0 671.7 L 250.0 670.4 L 300.0 670.3 L 350.0 666.1 L 400.0 662.1 L 450.0 656.2 L 500.0 652.6 L 550.0 648.5 L 600.0 645.2 L 650.0 645.8 L 700.0 647.1 L 750.0 651.5 L 800.0 656.3 L 850.0 660.0 L 900.0 664.2 L 950.0 669.2 L 1000.0 671.9 L 1050.0 672.4 L 1100.0 670.5 L 1150.0 666.6 L 1200.0 661.2" stroke="rgba(10,10,8,0.25)" stroke-width="0.97" fill="none" />
<path d="M 0 672.0 L 50.0 654.9 L 100.0 657.4 L 150.0 662.6 L 200.0 671.2 L 250.0 678.4 L 300.0 683.0 L 350.0 689.2 L 400.0 690.0 L 450.0 689.1 L 500.0 685.8 L 550.0 681.2 L 600.0 672.8 L 650.0 666.4 L 700.0 660.9 L 750.0 656.3 L 800.0 653.9 L 850.0 654.9 L 900.0 658.7 L 950.0 663.0 L 1000.0 671.1 L 1050.0 678.0 L 1100.0 684.6 L 1150.0 688.9 L 1200.0 691.0" stroke="rgba(10,10,8,0.51)" stroke-width="1.18" fill="none" />
<path d="M 0 683.8 L 50.0 666.5 L 100.0 668.2 L 150.0 671.4 L 200.0 677.7 L 250.0 683.2 L 300.0 690.4 L 350.0 696.8 L 400.0 700.3 L 450.0 701.0 L 500.0 699.4 L 550.0 696.6 L 600.0 690.7 L 650.0 683.9 L 700.0 677.6 L 750.0 671.7 L 800.0 668.7 L 850.0 667.4 L 900.0 667.9 L 950.0 672.2 L 1000.0 677.7 L 1050.0 684.7 L 1100.0 690.6 L 1150.0 696.4 L 1200.0 699.3" stroke="rgba(10,10,8,0.50)" stroke-width="0.56" fill="none" />
<path d="M 0 699.2 L 50.0 679.7 L 100.0 678.0 L 150.0 680.6 L 200.0 684.5 L 250.0 691.4 L 300.0 699.2 L 350.0 707.3 L 400.0 715.3 L 450.0 718.9 L 500.0 719.3 L 550.0 717.4 L 600.0 712.1 L 650.0 706.9 L 700.0 698.5 L 750.0 690.4 L 800.0 683.7 L 850.0 679.5 L 900.0 678.5 L 950.0 679.8 L 1000.0 685.8 L 1050.0 691.5 L 1100.0 700.0 L 1150.0 707.2 L 1200.0 713.4" stroke="rgba(10,10,8,0.49)" stroke-width="0.51" fill="none" />
<path d="M 0 711.0 L 50.0 728.0 L 100.0 729.3 L 150.0 727.5 L 200.0 723.9 L 250.0 717.7 L 300.0 710.6 L 350.0 702.4 L 400.0 697.8 L 450.0 693.0 L 500.0 693.0 L 550.0 694.8 L 600.0 697.8 L 650.0 703.7 L 700.0 711.4 L 750.0 718.0 L 800.0 724.5 L 850.0 727.1 L 900.0 729.7 L 950.0 728.0 L 1000.0 722.5 L 1050.0 716.7 L 1100.0 711.2 L 1150.0 704.3 L 1200.0 698.5" stroke="rgba(10,10,8,0.42)" stroke-width="0.49" fill="none" />
<path d="M 0 722.6 L 50.0 720.9 L 100.0 726.3 L 150.0 729.4 L 200.0 730.5 L 250.0 731.8 L 300.0 731.1 L 350.0 729.5 L 400.0 727.8 L 450.0 723.3 L 500.0 720.3 L 550.0 715.4 L 600.0 713.3 L 650.0 712.3 L 700.0 712.7 L 750.0 715.3 L 800.0 718.6 L 850.0 721.8 L 900.0 724.7 L 950.0 729.5 L 1000.0 731.5 L 1050.0 731.5 L 1100.0 730.8 L 1150.0 729.0 L 1200.0 726.5" stroke="rgba(10,10,8,0.48)" stroke-width="0.44" fill="none" />
<path d="M 0 738.5 L 50.0 746.8 L 100.0 749.9 L 150.0 751.6 L 200.0 751.5 L 250.0 748.9 L 300.0 744.7 L 350.0 738.3 L 400.0 734.2 L 450.0 729.4 L 500.0 726.5 L 550.0 726.1 L 600.0 726.4 L 650.0 728.4 L 700.0 732.2 L 750.0 737.0 L 800.0 742.2 L 850.0 748.0 L 900.0 751.3 L 950.0 751.1 L 1000.0 750.4 L 1050.0 748.8 L 1100.0 743.2 L 1150.0 740.0 L 1200.0 733.1" stroke="rgba(10,10,8,0.25)" stroke-width="0.62" fill="none" />
<path d="M 0 746.9 L 50.0 729.5 L 100.0 728.8 L 150.0 731.0 L 200.0 734.2 L 250.0 740.8 L 300.0 747.4 L 350.0 755.3 L 400.0 759.5 L 450.0 763.1 L 500.0 763.6 L 550.0 762.2 L 600.0 759.4 L 650.0 751.9 L 700.0 746.6 L 750.0 739.7 L 800.0 733.7 L 850.0 730.7 L 900.0 728.8 L 950.0 731.3 L 1000.0 734.5 L 1050.0 741.6 L 1100.0 748.8 L 1150.0 754.5 L 1200.0 760.1" stroke="rgba(10,10,8,0.41)" stroke-width="1.18" fill="none" />
<path d="M 0 760.5 L 50.0 769.8 L 100.0 765.1 L 150.0 762.0 L 200.0 756.7 L 250.0 752.3 L 300.0 751.2 L 350.0 750.0 L 400.0 748.8 L 450.0 752.8 L 500.0 756.0 L 550.0 759.8 L 600.0 763.7 L 650.0 768.1 L 700.0 769.9 L 750.0 772.1 L 800.0 771.9 L 850.0 768.6 L 900.0 765.2 L 950.0 761.9 L 1000.0 756.5 L 1050.0 753.2 L 1100.0 751.0 L 1150.0 749.1 L 1200.0 750.4" stroke="rgba(10,10,8,0.33)" stroke-width="0.65" fill="none" />
<path d="M 0 777.1 L 50.0 791.5 L 100.0 785.9 L 150.0 778.3 L 200.0 769.6 L 250.0 763.2 L 300.0 758.2 L 350.0 756.2 L 400.0 758.1 L 450.0 761.6 L 500.0 768.1 L 550.0 775.7 L 600.0 784.8 L 650.0 791.4 L 700.0 796.0 L 750.0 797.4 L 800.0 795.5 L 850.0 792.5 L 900.0 786.1 L 950.0 777.0 L 1000.0 770.5 L 1050.0 762.8 L 1100.0 759.5 L 1150.0 756.1 L 1200.0 757.6" stroke="rgba(10,10,8,0.22)" stroke-width="0.54" fill="none" />
<path d="M 0 792.3 L 50.0 804.1 L 100.0 797.0 L 150.0 789.1 L 200.0 783.6 L 250.0 778.6 L 300.0 775.4 L 350.0 774.3 L 400.0 777.6 L 450.0 781.9 L 500.0 788.0 L 550.0 794.4 L 600.0 801.5 L 650.0 805.4 L 700.0 810.0 L 750.0 810.5 L 800.0 808.1 L 850.0 802.6 L 900.0 797.0 L 950.0 789.1 L 1000.0 782.8 L 1050.0 777.7 L 1100.0 775.3 L 1150.0 773.9 L 1200.0 776.8" stroke="rgba(10,10,8,0.51)" stroke-width="0.91" fill="none" />
    </g>
    <rect width="100%" height="100%" fill="url(#vignette-limba-bottom)"/>
  </g>
</svg>