<?xml version="1.0" encoding="UTF-8"?>
<svg xmlns="http://www.w3.org/2000/svg" viewBox="0 0 1200 800" preserveAspectRatio="xMidYMid slice" role="img" aria-label="mahogany bottom">
  <defs>
    <radialGradient id="bg-mahogany-bottom" cx="50%" cy="40%" r="80%">
      <stop offset="0%" stop-color="#161410"/>
      <stop offset="100%" stop-color="#0a0a08"/>
    </radialGradient>
    <linearGradient id="wood-mahogany-bottom" x1="0" y1="0" x2="1" y2="1">
      <stop offset="0%" stop-color="#3b1f15"/>
      <stop offset="50%" stop-color="#5a3221"/>
      <stop offset="100%" stop-color="#7a4b35"/>
    </linearGradient>
    <radialGradient id="vignette-mahogany-bottom" cx="50%" cy="50%" r="65%">
      <stop offset="60%" stop-color="rgba(0,0,0,0)"/>
      <stop offset="100%" stop-color="rgba(0,0,0,0.45)"/>
    </radialGradient>
    <clipPath id="clip-mahogany-bottom">
      <path d="M600 120 C760 120 880 200 920 320 C960 440 920 560 820 620 C720 680 600 660 600 660 C600 660 480 680 380 620 C280 560 240 440 280 320 C320 200 440 120 600 120 Z"/>
    </clipPath>
  </defs>
  <rect width="100%" height="100%" fill="url(#bg-mahogany-bottom)"/>
  <g clip-path="url(#clip-mahogany-bottom)">
    <rect width="100%" height="100%" fill="url(#wood-mahogany-bottom)"/>
    <g opacity="0.55">
      <path d="M 0 0.4 L 50.0 -1.7 L 100.0 -7.8 L 150.0 -14.9 L 200.0 -17.5 L 250.0 -18.4 L 300.0 -15.9 L 350.0 -12.0 L 400.0 -5.4 L 450.0 3.0 L 500.0 10.0 L 550.0 13.9 L 600.0 18.1 L 650.0 18.2 L 700.0 16.1 L 750.0 11.2 L 800.0 5.8 L 850.0 -1.8 L 900.0 -9.2 L 950.0 -13.8 L 1000.0 -16.6 L 1050.0 -17.0 L 1100.0 -15.9 L 1150.0 -10.1 L 1200.0 -4.0" stroke="rgba(10,10,8,0.36)" stroke-width="0.47" fill="none" />
<path d="M 0 14.6 L 50.0 5.2 L 100.0 7.5 L 150.0 8.9 L 200.0 12.7 L 250.0 16.5 L 300.0 19.7 L 350.0 23.8 L 400.0 24.6 L 450.0 24.8 L 500.0 23.0 L 550.0 19.4 L 600.0 16.4 L 650.0 11.6 L 700.0 9.3 L 750.0 7.1 L 800.0 5.1 L 850.0 4.6 L 900.0 6.2 L 950.0 9.5 L 1000.0 13.1 L 1050.0 16.1 L 1100.0 20.1 L 1150.0 23.6 L 1200.0 24.8" stroke="rgba(10,10,8,0.39)" stroke-width="0.82" fill="none" />
<path d="M 0 30.3 L 50.0 40.4 L 100.0 43.1 L 150.0 44.4 L 200.0 42.3 L 250.0 39.1 L 300.0 33.4 L 350.0 29.0 L 400.0 23.2 L 450.0 18.7 L 500.0 18.1 L 550.0 16.8 L 600.0 18.4 L 650.0 21.9 L 700.0 26.3 L 750.0 32.1 L 800.0 37.0 L 850.0 42.1 L 900.0 44.0 L 950.0 43.8 L 1000.0 41.8 L 1050.0 37.3 L 1100.0 33.4 L 1150.0 27.6 L 1200.0 23.3" stroke="rgba(10,10,8,0.32)" stroke-width="0.59" fill="none" />
<path d="M 0 43.1 L 50.0 59.0 L 100.0 56.9 L 150.0 52.3 L 200.0 45.8 L 250.0 39.3 L 300.0 34.5 L 350.0 30.0 L 400.0 26.5 L 450.0 27.6 L 500.0 28.9 L 550.0 33.2 L 600.0 39.3 L 650.0 45.8 L 700.0 52.1 L 750.0 57.1 L 800.0 59.5 L 850.0 58.2 L 900.0 55.6 L 950.0 53.0 L 1000.0 47.6 L 1050.0 41.0 L 1100.0 35.0 L 1150.0 30.2 L 1200.0 28.4" stroke="rgba(10,10,8,0.23)" stroke-width="0.65" fill="none" />
<path d="M 0 57.0 L 50.0 48.5 L 100.0 47.7 L 150.0 49.8 L 200.0 51.2 L 250.0 53.2 L 300.0 57.7 L 350.0 61.1 L 400.0 62.5 L 450.0 64.8 L 500.0 65.1 L 550.0 64.8 L 600.0 62.2 L 650.0 59.7 L 700.0 56.7 L 750.0 53.4 L 800.0 50.6 L 850.0 49.6 L 900.0 47.3 L 950.0 48.6 L 1000.0 50.1 L 1050.0 53.2 L 1100.0 56.6 L 1150.0 60.4 L 1200.0 62.7" stroke="rgba(10,10,8,0.33)" stroke-width="0.48" fill="none" />
<path d="M 0 69.1 L 50.0 60.6 L 100.0 64.8 L 150.0 70.3 L 200.0 74.5 L 250.0 77.8 L 300.0 81.2 L 350.0 81.4 L 400.0 79.9 L 450.0 78.2 L 500.0 73.1 L 550.0 69.0 L 600.0 64.0 L 650.0 60.1 L 700.0 58.3 L 750.0 56.0 L 800.0 57.8 L 850.0 60.5 L 900.0 64.2 L 950.0 70.0 L 1000.0 74.6 L 1050.0 77.5 L 1100.0 81.2 L 1150.0 80.7 L 1200.0 80.3" stroke="rgba(10,10,8,0.47)" stroke-width="0.45" fill="none" />
<path d="M 0 82.4 L 50.0 86.9 L 100.0 91.3 L 150.0 93.1 L 200.0 93.4 L 250.0 93.4 L 300.0 90.7 L 350.0 87.1 L 400.0 81.4 L 450.0 78.4 L 500.0 73.8 L 550.0 71.7 L 600.0 70.9 L 650.0 70.5 L 700.0 74.9 L 750.0 78.4 L 800.0 83.2 L 850.0 86.4 L 900.0 90.5 L 950.0 93.2 L 1000.0 95.2 L 1050.0 93.8 L 1100.0 91.6 L 1150.0 86.8 L 1200.0 82.2" stroke="rgba(10,10,8,0.48)" stroke-width="0.54" fill="none" />
<path d="M 0 98.1 L 50.0 84.7 L 100.0 82.7 L 150.0 81.5 L 200.0 84.5 L 250.0 88.7 L 300.0 93.8 L 350.0 100.9 L 400.0 106.2 L 450.0 110.2 L 500.0 114.7 L 550.0 114.1 L 600.0 111.1 L 650.0 106.8 L 700.0 102.5 L 750.0 94.8 L 800.0 89.9 L 850.0 85.3 L 900.0 82.3 L 950.0 83.0 L 1000.0 83.8 L 1050.0 88.2 L 1100.0 93.7 L 1150.0 101.4 L 1200.0 107.5" stroke="rgba(10,10,8,0.44)" stroke-width="0.41" fill="none" />
<path d="M 0 106.8 L 50.0 116.0 L 100.0 110.9 L 150.0 107.0 L 200.0 103.3 L 250.0 100.3 L 300.0 97.8 L 350.0 95.5 L 400.0 96.1 L 450.0 98.5 L 500.0 100.8 L 550.0 105.6 L 600.0 108.7 L 650.0 113.5 L 700.0 116.4 L 750.0 117.7 L 800.0 117.8 L 850.0 114.6 L 900.0 112.7 L 950.0 108.3 L 1000.0 104.3 L 1050.0 99.2 L 1100.0 96.8 L 1150.0 95.9 L 1200.0 96.6" stroke="rgba(10,10,8,0.47)" stroke-width="0.87" fill="none" />
<path d="M 0 124.6 L 50.0 118.2 L 100.0 126.5 L 150.0 135.5 L 200.0 141.1 L 250.0 146.0 L 300.0 145.7 L 350.0 143.2 L 400.0 137.5 L 450.0 130.1 L 500.0 123.0 L 550.0 115.0 L 600.0 106.7 L 650.0 103.5 L 700.0 102.8 L 750.0 106.5 L 800.0 112.2 L 850.0 119.3 L 900.0 126.5 L 950.0 134.8 L 1000.0 141.9 L 1050.0 145.5 L 1100.0 146.7 L 1150.0 143.6 L 1200.0 137.6" stroke="rgba(10,10,8,0.49)" stroke-width="1.00" fill="none" />
<path d="M 0 138.3 L 50.0 120.1 L 100.0 120.3 L 150.0 125.8 L 200.0 132.2 L 250.0 137.5 L 300.0 145.3 L 350.0 151.2 L 400.0 155.1 L 450.0 156.1 L 500.0 155.2 L 550.0 151.0 L 600.0 145.0 L 650.0 137.8 L 700.0 130.7 L 750.0 124.7 L 800.0 120.9 L 850.0 119.9 L 900.0 120.9 L 950.0 124.4 L 1000.0 131.6 L 1050.0 137.6 L 1100.0 144.5 L 1150.0 150.7 L 1200.0 154.6" stroke="rgba(10,10,8,0.41)" stroke-width="0.66" fill="none" />
<path d="M 0 149.7 L 50.0 142.6 L 100.0 141.6 L 150.0 140.7 L 200.0 142.5 L 250.0 145.4 L 300.0 147.8 L 350.0 152.8 L 400.0 155.3 L 450.0 157.1 L 500.0 158.7 L 550.0 157.7 L 600.0 156.2 L 650.0 154.6 L 700.0 151.3 L 750.0 146.8 L 800.0 144.8 L 850.0 142.3 L 900.0 141.5 L 950.0 140.6 L 1000.0 142.8 L 1050.0 145.3 L 1100.0 149.0 L 1150.0 152.8 L 1200.0 155.7" stroke="rgba(10,10,8,0.35)" stroke-width="1.10" fill="none" />
<path d="M 0 164.4 L 50.0 168.0 L 100.0 174.4 L 150.0 180.1 L 200.0 183.0 L 250.0 182.6 L 300.0 178.1 L 350.0 172.4 L 400.0 167.3 L 450.0 159.3 L 500.0 153.8 L 550.0 149.7 L 600.0 145.8 L 650.0 146.5 L 700.0 150.8 L 750.0 154.7 L 800.0 161.2 L 850.0 169.7 L 900.0 175.8 L 950.0 180.4 L 1000.0 182.0 L 1050.0 181.7 L 1100.0 178.9 L 1150.0 172.5 L 1200.0 167.2" stroke="rgba(10,10,8,0.27)" stroke-width="0.51" fill="none" />
<path d="M 0 178.2 L 50.0 184.6 L 100.0 191.0 L 150.0 193.6 L 200.0 195.2 L 250.0 194.0 L 300.0 191.1 L 350.0 184.7 L 400.0 177.9 L 450.0 171.8 L 500.0 165.4 L 550.0 161.7 L 600.0 160.1 L 650.0 161.5 L 700.0 165.5 L 750.0 171.7 L 800.0 178.1 L 850.0 185.4 L 900.0 189.7 L 950.0 193.9 L 1000.0 196.5 L 1050.0 193.9 L 1100.0 190.1 L 1150.0 184.9 L 1200.0 178.7" stroke="rgba(10,10,8,0.29)" stroke-width="0.52" fill="none" />
<path d="M 0 192.5 L 50.0 185.7 L 100.0 189.6 L 150.0 192.5 L 200.0 196.9 L 250.0 199.8 L 300.0 201.1 L 350.0 202.5 L 400.0 200.0 L 450.0 197.8 L 500.0 195.3 L 550.0 191.6 L 600.0 188.9 L 650.0 186.0 L 700.0 184.4 L 750.0 183.8 L 800.0 183.6 L 850.0 187.1 L 900.0 189.3 L 950.0 194.1 L 1000.0 197.0 L 1050.0 200.4 L 1100.0 201.6 L 1150.0 202.5 L 1200.0 200.0" stroke="rgba(10,10,8,0.47)" stroke-width="0.42" fill="none" />
<path d="M 0 202.1 L 50.0 212.1 L 100.0 205.7 L 150.0 198.9 L 200.0 192.7 L 250.0 188.2 L 300.0 185.9 L 350.0 186.5 L 400.0 188.9 L 450.0 193.3 L 500.0 199.0 L 550.0 205.2 L 600.0 210.0 L 650.0 216.0 L 700.0 217.8 L 750.0 218.5 L 800.0 215.5 L 850.0 211.5 L 900.0 204.9 L 950.0 200.0 L 1000.0 193.0 L 1050.0 189.3 L 1100.0 186.4 L 1150.0 185.4 L 1200.0 189.0" stroke="rgba(10,10,8,0.53)" stroke-width="0.72" fill="none" />
<path d="M 0 218.3 L 50.0 205.0 L 100.0 204.3 L 150.0 204.7 L 200.0 208.3 L 250.0 212.6 L 300.0 218.0 L 350.0 224.3 L 400.0 228.4 L 450.0 231.9 L 500.0 231.2 L 550.0 231.9 L 600.0 229.2 L 650.0 223.2 L 700.0 217.7 L 750.0 212.2 L 800.0 209.2 L 850.0 204.6 L 900.0 204.3 L 950.0 204.9 L 1000.0 209.2 L 1050.0 213.3 L 1100.0 217.2 L 1150.0 223.0 L 1200.0 227.5" stroke="rgba(10,10,8,0.42)" stroke-width="0.84" fill="none" />
<path d="M 0 229.6 L 50.0 237.7 L 100.0 240.1 L 150.0 240.9 L 200.0 241.1 L 250.0 239.2 L 300.0 235.3 L 350.0 230.3 L 400.0 225.7 L 450.0 221.8 L 500.0 218.6 L 550.0 218.0 L 600.0 217.5 L 650.0 219.4 L 700.0 223.4 L 750.0 227.9 L 800.0 233.9 L 850.0 237.0 L 900.0 239.4 L 950.0 241.4 L 1000.0 241.5 L 1050.0 238.4 L 1100.0 236.2 L 1150.0 230.7 L 1200.0 227.1" stroke="rgba(10,10,8,0.52)" stroke-width="0.49" fill="none" />
<path d="M 0 244.3 L 50.0 257.2 L 100.0 260.6 L 150.0 262.1 L 200.0 261.3 L 250.0 256.5 L 300.0 251.2 L 350.0 244.0 L 400.0 237.1 L 450.0 232.9 L 500.0 227.7 L 550.0 226.5 L 600.0 227.4 L 650.0 231.4 L 700.0 237.4 L 750.0 244.8 L 800.0 251.6 L 850.0 255.4 L 900.0 260.1 L 950.0 261.8 L 1000.0 260.0 L 1050.0 256.1 L 1100.0 251.2 L 1150.0 244.9 L 1200.0 237.9" stroke="rgba(10,10,8,0.28)" stroke-width="0.91" fill="none" />
<path d="M 0 259.0 L 50.0 251.0 L 100.0 249.9 L 150.0 249.6 L 200.0 252.8 L 250.0 254.9 L 300.0 258.7 L 350.0 263.1 L 400.0 264.9 L 450.0 268.1 L 500.0 268.2 L 550.0 268.3 L 600.0 266.1 L 650.0 262.2 L 700.0 257.9 L 750.0 254.4 L 800.0 253.1 L 850.0 251.1 L 900.0 250.4 L 950.0 250.3 L 1000.0 253.1 L 1050.0 255.5 L 1100.0 258.6 L 1150.0 262.1 L 1200.0 265.5" stroke="rgba(10,10,8,0.51)" stroke-width="0.89" fill="none" />
<path d="M 0 267.5 L 50.0 276.4 L 100.0 270.1 L 150.0 264.1 L 200.0 256.8 L 250.0 252.5 L 300.0 249.4 L 350.0 250.3 L 400.0 253.1 L 450.0 258.4 L 500.0 265.0 L 550.0 272.2 L 600.0 277.7 L 650.0 283.2 L 700.0 286.7 L 750.0 284.6 L 800.0 282.5 L 850.0 278.2 L 900.0 270.9 L 950.0 262.5 L 1000.0 255.8 L 1050.0 252.0 L 1100.0 249.8 L 1150.0 249.7 L 1200.0 251.8" stroke="rgba(10,10,8,0.54)" stroke-width="0.59" fill="none" />
<path d="M 0 285.4 L 50.0 293.5 L 100.0 292.9 L 150.0 289.3 L 200.0 286.7 L 250.0 283.9 L 300.0 279.3 L 350.0 278.6 L 400.0 275.7 L 450.0 277.0 L 500.0 277.5 L 550.0 281.6 L 600.0 283.6 L 650.0 287.8 L 700.0 291.4 L 750.0 293.1 L 800.0 295.0 L 850.0 293.7 L 900.0 293.0 L 950.0 291.3 L 1000.0 286.9 L 1050.0 284.4 L 1100.0 280.5 L 1150.0 278.6 L 1200.0 275.7" stroke="rgba(10,10,8,0.23)" stroke-width="1.15" fill="none" />
<path d="M 0 294.8 L 50.0 309.9 L 100.0 312.6 L 150.0 313.3 L 200.0 310.0 L 250.0 304.5 L 300.0 296.9 L 350.0 290.7 L 400.0 284.0 L 450.0 278.2 L 500.0 277.0 L 550.0 277.4 L 600.0 280.9 L 650.0 286.5 L 700.0 291.6 L 750.0 300.1 L 800.0 306.6 L 850.0 310.3 L 900.0 312.5 L 950.0 312.9 L 1000.0 309.6 L 1050.0 304.2 L 1100.0 298.0 L 1150.0 289.9 L 1200.0 283.2" stroke="rgba(10,10,8,0.25)" stroke-width="0.73" fill="none" />
<path d="M 0 306.7 L 50.0 296.2 L 100.0 301.3 L 150.0 306.0 L 200.0 313.0 L 250.0 317.6 L 300.0 321.9 L 350.0 322.1 L 400.0 320.7 L 450.0 318.7 L 500.0 312.3 L 550.0 307.5 L 600.0 299.7 L 650.0 294.8 L 700.0 291.2 L 750.0 289.6 L 800.0 292.2 L 850.0 295.0 L 900.0 301.3 L 950.0 307.5 L 1000.0 313.2 L 1050.0 319.2 L 1100.0 320.9 L 1150.0 322.9 L 1200.0 322.4" stroke="rgba(10,10,8,0.54)" stroke-width="0.77" fill="none" />
<path d="M 0 320.1 L 50.0 317.1 L 100.0 323.7 L 150.0 331.0 L 200.0 337.0 L 250.0 339.3 L 300.0 340.4 L 350.0 336.9 L 400.0 331.2 L 450.0 323.1 L 500.0 316.4 L 550.0 309.0 L 600.0 303.8 L 650.0 299.7 L 700.0 301.2 L 750.0 304.3 L 800.0 308.6 L 850.0 316.4 L 900.0 325.0 L 950.0 331.1 L 1000.0 337.7 L 1050.0 339.2 L 1100.0 340.5 L 1150.0 337.0 L 1200.0 330.7" stroke="rgba(10,10,8,0.40)" stroke-width="0.69" fill="none" />
<path d="M 0 338.3 L 50.0 353.3 L 100.0 352.8 L 150.0 351.8 L 200.0 347.3 L 250.0 342.6 L 300.0 338.1 L 350.0 332.0 L 400.0 327.6 L 450.0 324.3 L 500.0 322.5 L 550.0 324.3 L 600.0 327.7 L 650.0 334.0 L 700.0 338.7 L 750.0 343.8 L 800.0 349.2 L 850.0 351.8 L 900.0 353.3 L 950.0 352.8 L 1000.0 347.9 L 1050.0 342.5 L 1100.0 336.8 L 1150.0 331.1 L 1200.0 326.5" stroke="rgba(10,10,8,0.32)" stroke-width="0.45" fill="none" />
<path d="M 0 347.8 L 50.0 337.1 L 100.0 330.8 L 150.0 329.2 L 200.0 328.3 L 250.0 331.5 L 300.0 336.7 L 350.0 344.1 L 400.0 352.2 L 450.0 358.0 L 500.0 364.4 L 550.0 366.7 L 600.0 368.4 L 650.0 364.6 L 700.0 360.1 L 750.0 351.8 L 800.0 344.7 L 850.0 337.2 L 900.0 331.8 L 950.0 328.8 L 1000.0 328.1 L 1050.0 331.0 L 1100.0 335.5 L 1150.0 342.7 L 1200.0 350.6" stroke="rgba(10,10,8,0.24)" stroke-width="1.10" fill="none" />
<path d="M 0 360.8 L 50.0 370.8 L 100.0 369.4 L 150.0 366.7 L 200.0 363.4 L 250.0 359.0 L 300.0 355.5 L 350.0 353.9 L 400.0 352.5 L 450.0 351.6 L 500.0 351.4 L 550.0 354.8 L 600.0 357.9 L 650.0 362.0 L 700.0 364.8 L 750.0 368.6 L 800.0 370.8 L 850.0 370.2 L 900.0 368.3 L 950.0 366.6 L 1000.0 364.0 L 1050.0 360.6 L 1100.0 356.4 L 1150.0 353.3 L 1200.0 352.1" stroke="rgba(10,10,8,0.48)" stroke-width="0.41" fill="none" />
<path d="M 0 378.0 L 50.0 367.6 L 100.0 372.5 L 150.0 376.3 L 200.0 382.1 L 250.0 387.1 L 300.0 390.8 L 350.0 392.5 L 400.0 390.2 L 450.0 389.1 L 500.0 384.0 L 550.0 379.4 L 600.0 374.2 L 650.0 368.4 L 700.0 366.2 L 750.0 363.3 L 800.0 365.5 L 850.0 368.0 L 900.0 370.8 L 950.0 377.1 L 1000.0 381.4 L 1050.0 386.3 L 1100.0 389.4 L 1150.0 391.2 L 1200.0 392.0" stroke="rgba(10,10,8,0.43)" stroke-width="0.89" fill="none" />
<path d="M 0 391.2 L 50.0 379.1 L 100.0 375.0 L 150.0 374.1 L 200.0 376.6 L 250.0 380.3 L 300.0 386.5 L 350.0 391.6 L 400.0 399.0 L 450.0 403.5 L 500.0 406.6 L 550.0 408.7 L 600.0 407.2 L 650.0 401.7 L 700.0 396.3 L 750.0 389.2 L 800.0 383.8 L 850.0 379.0 L 900.0 374.8 L 950.0 373.1 L 1000.0 376.4 L 1050.0 379.4 L 1100.0 386.1 L 1150.0 392.4 L 1200.0 398.0" stroke="rgba(10,10,8,0.31)" stroke-width="0.86" fill="none" />
<path d="M 0 401.9 L 50.0 422.3 L 100.0 420.1 L 150.0 416.8 L 200.0 409.0 L 250.0 400.9 L 300.0 392.2 L 350.0 386.0 L 400.0 381.5 L 450.0 380.2 L 500.0 384.0 L 550.0 387.8 L 600.0 394.4 L 650.0 402.2 L 700.0 410.1 L 750.0 417.0 L 800.0 421.0 L 850.0 423.0 L 900.0 421.0 L 950.0 416.4 L 1000.0 408.3 L 1050.0 400.8 L 1100.0 393.6 L 1150.0 385.8 L 1200.0 381.5" stroke="rgba(10,10,8,0.51)" stroke-width="1.17" fill="none" />
<path d="M 0 414.3 L 50.0 429.4 L 100.0 428.5 L 150.0 425.0 L 200.0 419.9 L 250.0 413.9 L 300.0 407.9 L 350.0 404.0 L 400.0 400.5 L 450.0 399.3 L 500.0 399.9 L 550.0 403.7 L 600.0 408.3 L 650.0 413.1 L 700.0 420.1 L 750.0 426.0 L 800.0 428.3 L 850.0 429.4 L 900.0 429.6 L 950.0 426.1 L 1000.0 419.8 L 1050.0 415.4 L 1100.0 409.1 L 1150.0 402.1 L 1200.0 400.3" stroke="rgba(10,10,8,0.28)" stroke-width="0.54" fill="none" />
<path d="M 0 431.3 L 50.0 435.7 L 100.0 439.5 L 150.0 439.0 L 200.0 440.2 L 250.0 438.0 L 300.0 436.3 L 350.0 432.6 L 400.0 429.0 L 450.0 427.3 L 500.0 424.4 L 550.0 422.5 L 600.0 423.1 L 650.0 423.6 L 700.0 426.1 L 750.0 429.2 L 800.0 433.1 L 850.0 435.9 L 900.0 437.8 L 950.0 440.4 L 1000.0 440.5 L 1050.0 438.6 L 1100.0 435.8 L 1150.0 432.1 L 1200.0 430.3" stroke="rgba(10,10,8,0.45)" stroke-width="0.90" fill="none" />
<path d="M 0 444.0 L 50.0 445.4 L 100.0 450.9 L 150.0 454.2 L 200.0 456.3 L 250.0 456.2 L 300.0 455.2 L 350.0 451.1 L 400.0 446.5 L 450.0 442.3 L 500.0 438.2 L 550.0 434.5 L 600.0 432.1 L 650.0 430.3 L 700.0 431.8 L 750.0 437.0 L 800.0 440.3 L 850.0 446.5 L 900.0 450.3 L 950.0 455.2 L 1000.0 455.6 L 1050.0 456.8 L 1100.0 455.0 L 1150.0 452.3 L 1200.0 447.5" stroke="rgba(10,10,8,0.51)" stroke-width="0.65" fill="none" />
<path d="M 0 453.7 L 50.0 457.2 L 100.0 453.3 L 150.0 449.9 L 200.0 447.0 L 250.0 446.4 L 300.0 444.7 L 350.0 446.0 L 400.0 447.3 L 450.0 449.8 L 500.0 453.3 L 550.0 456.4 L 600.0 459.2 L 650.0 461.8 L 700.0 462.9 L 750.0 461.9 L 800.0 460.2 L 850.0 456.6 L 900.0 454.4 L 950.0 449.7 L 1000.0 447.2 L 1050.0 445.5 L 1100.0 444.8 L 1150.0 445.4 L 1200.0 448.1" stroke="rgba(10,10,8,0.55)" stroke-width="1.04" fill="none" />
<path d="M 0 468.9 L 50.0 472.0 L 100.0 475.3 L 150.0 477.7 L 200.0 479.3 L 250.0 477.8 L 300.0 476.3 L 350.0 472.8 L 400.0 470.0 L 450.0 465.4 L 500.0 462.2 L 550.0 459.8 L 600.0 459.2 L 650.0 458.4 L 700.0 460.4 L 750.0 463.5 L 800.0 467.9 L 850.0 472.9 L 900.0 475.9 L 950.0 478.6 L 1000.0 478.5 L 1050.0 479.6 L 1100.0 476.9 L 1150.0 473.4 L 1200.0 469.4" stroke="rgba(10,10,8,0.36)" stroke-width="0.50" fill="none" />
<path d="M 0 481.7 L 50.0 469.0 L 100.0 466.7 L 150.0 465.9 L 200.0 467.9 L 250.0 471.9 L 300.0 477.5 L 350.0 483.0 L 400.0 490.0 L 450.0 494.5 L 500.0 496.4 L 550.0 497.1 L 600.0 495.6 L 650.0 490.8 L 700.0 486.1 L 750.0 480.0 L 800.0 473.5 L 850.0 469.6 L 900.0 467.0 L 950.0 466.2 L 1000.0 468.3 L 1050.0 471.6 L 1100.0 477.4 L 1150.0 482.9 L 1200.0 488.4" stroke="rgba(10,10,8,0.51)" stroke-width="0.49" fill="none" />
<path d="M 0 496.8 L 50.0 496.2 L 100.0 486.4 L 150.0 480.9 L 200.0 477.0 L 250.0 476.2 L 300.0 477.2 L 350.0 482.6 L 400.0 490.2 L 450.0 498.7 L 500.0 505.9 L 550.0 513.2 L 600.0 516.4 L 650.0 518.5 L 700.0 515.7 L 750.0 510.1 L 800.0 502.8 L 850.0 494.9 L 900.0 486.6 L 950.0 479.8 L 1000.0 477.3 L 1050.0 475.9 L 1100.0 478.7 L 1150.0 483.0 L 1200.0 489.2" stroke="rgba(10,10,8,0.27)" stroke-width="0.88" fill="none" />
<path d="M 0 510.2 L 50.0 506.3 L 100.0 502.4 L 150.0 502.3 L 200.0 501.0 L 250.0 503.2 L 300.0 505.4 L 350.0 509.1 L 400.0 510.9 L 450.0 514.9 L 500.0 517.4 L 550.0 517.7 L 600.0 517.8 L 650.0 517.8 L 700.0 515.8 L 750.0 512.3 L 800.0 508.8 L 850.0 506.3 L 900.0 503.1 L 950.0 501.8 L 1000.0 501.6 L 1050.0 502.0 L 1100.0 506.2 L 1150.0 507.3 L 1200.0 512.2" stroke="rgba(10,10,8,0.40)" stroke-width="0.52" fill="none" />
<path d="M 0 521.3 L 50.0 535.9 L 100.0 535.6 L 150.0 534.1 L 200.0 530.4 L 250.0 524.8 L 300.0 519.4 L 350.0 513.4 L 400.0 508.5 L 450.0 507.2 L 500.0 506.0 L 550.0 508.9 L 600.0 511.8 L 650.0 518.2 L 700.0 522.2 L 750.0 527.7 L 800.0 533.5 L 850.0 535.1 L 900.0 535.2 L 950.0 533.3 L 1000.0 530.9 L 1050.0 526.1 L 1100.0 519.1 L 1150.0 513.0 L 1200.0 508.7" stroke="rgba(10,10,8,0.54)" stroke-width="0.78" fill="none" />
<path d="M 0 538.1 L 50.0 533.6 L 100.0 530.1 L 150.0 526.2 L 200.0 525.7 L 250.0 525.2 L 300.0 529.4 L 350.0 533.7 L 400.0 537.5 L 450.0 542.1 L 500.0 546.9 L 550.0 549.2 L 600.0 551.6 L 650.0 550.5 L 700.0 547.8 L 750.0 544.2 L 800.0 539.3 L 850.0 533.3 L 900.0 528.4 L 950.0 526.6 L 1000.0 525.8 L 1050.0 526.6 L 1100.0 528.7 L 1150.0 532.8 L 1200.0 537.8" stroke="rgba(10,10,8,0.47)" stroke-width="0.92" fill="none" />
<path d="M 0 549.8 L 50.0 531.2 L 100.0 533.8 L 150.0 539.6 L 200.0 546.6 L 250.0 555.3 L 300.0 560.9 L 350.0 566.3 L 400.0 569.0 L 450.0 568.6 L 500.0 564.1 L 550.0 558.7 L 600.0 553.0 L 650.0 544.2 L 700.0 538.4 L 750.0 534.3 L 800.0 531.8 L 850.0 530.7 L 900.0 534.4 L 950.0 540.8 L 1000.0 546.9 L 1050.0 554.8 L 1100.0 560.9 L 1150.0 566.6 L 1200.0 567.9" stroke="rgba(10,10,8,0.26)" stroke-width="1.02" fill="none" />
<path d="M 0 563.4 L 50.0 552.1 L 100.0 553.4 L 150.0 556.5 L 200.0 563.0 L 250.0 568.0 L 300.0 571.0 L 350.0 575.3 L 400.0 575.4 L 450.0 575.8 L 500.0 572.3 L 550.0 569.4 L 600.0 564.8 L 650.0 558.7 L 700.0 555.2 L 750.0 552.4 L 800.0 550.1 L 850.0 551.0 L 900.0 552.9 L 950.0 556.5 L 1000.0 562.8 L 1050.0 567.4 L 1100.0 572.3 L 1150.0 573.7 L 1200.0 575.8" stroke="rgba(10,10,8,0.29)" stroke-width="0.78" fill="none" />
<path d="M 0 578.0 L 50.0 567.1 L 100.0 566.0 L 150.0 566.0 L 200.0 567.3 L 250.0 571.6 L 300.0 575.5 L 350.0 580.7 L 400.0 584.3 L 450.0 587.9 L 500.0 589.8 L 550.0 591.3 L 600.0 587.7 L 650.0 584.9 L 700.0 580.6 L 750.0 575.9 L 800.0 571.6 L 850.0 567.5 L 900.0 565.6 L 950.0 564.5 L 1000.0 567.1 L 1050.0 571.9 L 1100.0 575.0 L 1150.0 580.3 L 1200.0 585.0" stroke="rgba(10,10,8,0.51)" stroke-width="0.42" fill="none" />
<path d="M 0 588.3 L 50.0 575.0 L 100.0 574.4 L 150.0 578.2 L 200.0 582.8 L 250.0 588.2 L 300.0 593.4 L 350.0 597.6 L 400.0 601.3 L 450.0 603.4 L 500.0 601.0 L 550.0 599.7 L 600.0 595.3 L 650.0 588.8 L 700.0 582.9 L 750.0 579.6 L 800.0 575.2 L 850.0 574.6 L 900.0 574.7 L 950.0 578.2 L 1000.0 581.4 L 1050.0 588.3 L 1100.0 593.8 L 1150.0 598.3 L 1200.0 601.6" stroke="rgba(10,10,8,0.31)" stroke-width="0.48" fill="none" />
<path d="M 0 602.4 L 50.0 602.1 L 100.0 597.8 L 150.0 594.8 L 200.0 593.3 L 250.0 591.9 L 300.0 593.7 L 350.0 594.2 L 400.0 598.3 L 450.0 603.1 L 500.0 605.2 L 550.0 610.4 L 600.0 612.2 L 650.0 613.3 L 700.0 613.0 L 750.0 609.9 L 800.0 607.2 L 850.0 601.9 L 900.0 599.5 L 950.0 595.3 L 1000.0 593.5 L 1050.0 591.7 L 1100.0 592.5 L 1150.0 594.6 L 1200.0 597.4" stroke="rgba(10,10,8,0.45)" stroke-width="0.56" fill="none" />
<path d="M 0 617.1 L 50.0 603.1 L 100.0 611.2 L 150.0 619.6 L 200.0 628.2 L 250.0 633.2 L 300.0 637.1 L 350.0 638.5 L 400.0 636.7 L 450.0 630.6 L 500.0 622.8 L 550.0 615.7 L 600.0 606.0 L 650.0 599.3 L 700.0 595.5 L 750.0 595.9 L 800.0 597.3 L 850.0 604.1 L 900.0 611.2 L 950.0 618.5 L 1000.0 627.4 L 1050.0 633.4 L 1100.0 637.2 L 1150.0 638.4 L 1200.0 636.9" stroke="rgba(10,10,8,0.43)" stroke-width="1.06" fill="none" />
<path d="M 0 632.1 L 50.0 631.6 L 100.0 626.2 L 150.0 624.3 L 200.0 621.9 L 250.0 622.6 L 300.0 623.8 L 350.0 625.7 L 400.0 629.9 L 450.0 632.8 L 500.0 637.4 L 550.0 639.6 L 600.0 641.6 L 650.0 642.1 L 700.0 641.5 L 750.0 638.9 L 800.0 634.4 L 850.0 631.7 L 900.0 627.8 L 950.0 624.3 L 1000.0 623.2 L 1050.0 623.0 L 1100.0 623.8 L 1150.0 625.4 L 1200.0 629.4" stroke="rgba(10,10,8,0.23)" stroke-width="0.55" fill="none" />
<path d="M 0 645.0 L 50.0 650.5 L 100.0 646.9 L 150.0 643.3 L 200.0 641.7 L 250.0 638.9 L 300.0 637.1 L 350.0 635.9 L 400.0 636.7 L 450.0 639.8 L 500.0 641.8 L 550.0 644.7 L 600.0 649.0 L 650.0 650.8 L 700.0 653.4 L 750.0 653.8 L 800.0 652.4 L 850.0 650.3 L 900.0 647.3 L 950.0 644.2 L 1000.0 641.4 L 1050.0 637.6 L 1100.0 637.1 L 1150.0 637.4 L 1200.0 636.9" stroke="rgba(10,10,8,0.39)" stroke-width="0.98" fill="none" />
<path d="M 0 655.8 L 50.0 667.5 L 100.0 663.4 L 150.0 657.4 L 200.0 653.9 L 250.0 648.9 L 300.0 644.7 L 350.0 642.1 L 400.0 642.4 L 450.0 644.1 L 500.0 647.7 L 550.0 653.4 L 600.0 658.0 L 650.0 664.2 L 700.0 667.5 L 750.0 668.3 L 800.0 668.0 L 850.0 666.8 L 900.0 662.9 L 950.0 657.2 L 1000.0 652.3 L 1050.0 648.2 L 1100.0 644.0 L 1150.0 642.1 L 1200.0 643.1" stroke="rgba(10,10,8,0.24)" stroke-width="0.49" fill="none" />
<path d="M 0 669.7 L 50.0 690.2 L 100.0 690.4 L 150.0 688.3 L 200.0 681.9 L 250.0 674.4 L 300.0 665.8 L 350.0 658.2 L 400.0 651.4 L 450.0 649.0 L 500.0 649.3 L 550.0 651.5 L 600.0 657.6 L 650.0 665.7 L 700.0 674.1 L 750.0 681.9 L 800.0 687.9 L 850.0 691.1 L 900.0 691.3 L 950.0 687.3 L 1000.0 682.3 L 1050.0 674.9 L 1100.0 666.4 L 1150.0 657.2 L 1200.0 651.9" stroke="rgba(10,10,8,0.40)" stroke-width="0.52" fill="none" />
<path d="M 0 685.5 L 50.0 683.2 L 100.0 680.1 L 150.0 677.5 L 200.0 676.7 L 250.0 676.3 L 300.0 679.0 L 350.0 681.4 L 400.0 684.6 L 450.0 687.5 L 500.0 691.9 L 550.0 694.3 L 600.0 694.1 L 650.0 693.3 L 700.0 692.0 L 750.0 688.5 L 800.0 685.3 L 850.0 682.0 L 900.0 679.7 L 950.0 678.5 L 1000.0 677.0 L 1050.0 676.4 L 1100.0 678.0 L 1150.0 681.0 L 1200.0 684.4" stroke="rgba(10,10,8,0.47)" stroke-width="0.50" fill="none" />
<path d="M 0 694.7 L 50.0 705.2 L 100.0 710.1 L 150.0 710.7 L 200.0 711.5 L 250.0 707.4 L 300.0 702.4 L 350.0 696.6 L 400.0 689.3 L 450.0 684.4 L 500.0 680.4 L 550.0 678.2 L 600.0 678.1 L 650.0 682.1 L 700.0 685.7 L 750.0 693.4 L 800.0 698.8 L 850.0 704.6 L 900.0 708.2 L 950.0 711.9 L 1000.0 711.0 L 1050.0 706.8 L 1100.0 703.3 L 1150.0 696.5 L 1200.0 689.8" stroke="rgba(10,10,8,0.31)" stroke-width="1.19" fill="none" />
<path d="M 0 707.6 L 50.0 695.3 L 100.0 703.2 L 150.0 711.9 L 200.0 720.0 L 250.0 725.4 L 300.0 727.8 L 350.0 729.5 L 400.0 724.3 L 450.0 718.7 L 500.0 711.9 L 550.0 702.9 L 600.0 695.2 L 650.0 688.9 L 700.0 685.6 L 750.0 687.4 L 800.0 690.6 L 850.0 695.6 L 900.0 703.1 L 950.0 711.2 L 1000.0 720.0 L 1050.0 725.8 L 1100.0 728.1 L 1150.0 728.3 L 1200.0 725.6" stroke="rgba(10,10,8,0.50)" stroke-width="0.44" fill="none" />
<path d="M 0 724.6 L 50.0 729.9 L 100.0 734.9 L 150.0 736.5 L 200.0 736.9 L 250.0 734.8 L 300.0 732.2 L 350.0 727.7 L 400.0 723.9 L 450.0 719.6 L 500.0 715.6 L 550.0 713.5 L 600.0 712.1 L 650.0 713.4 L 700.0 717.2 L 750.0 720.2 L 800.0 725.2 L 850.0 730.9 L 900.0 734.0 L 950.0 735.4 L 1000.0 737.0 L 1050.0 734.7 L 1100.0 731.9 L 1150.0 728.6 L 1200.0 723.7" stroke="rgba(10,10,8,0.38)" stroke-width="0.81" fill="none" />
<path d="M 0 734.2 L 50.0 751.8 L 100.0 751.6 L 150.0 746.9 L 200.0 742.0 L 250.0 734.2 L 300.0 726.5 L 350.0 722.1 L 400.0 717.8 L 450.0 715.5 L 500.0 717.7 L 550.0 720.3 L 600.0 726.6 L 650.0 734.8 L 700.0 741.4 L 750.0 746.6 L 800.0 750.9 L 850.0 753.1 L 900.0 751.4 L 950.0 747.9 L 1000.0 742.2 L 1050.0 735.0 L 1100.0 727.4 L 1150.0 721.7 L 1200.0 717.2" stroke="rgba(10,10,8,0.33)" stroke-width="0.81" fill="none" />
<path d="M 0 752.4 L 50.0 742.1 L 100.0 741.6 L 150.0 741.8 L 200.0 744.5 L 250.0 747.4 L 300.0 752.1 L 350.0 757.0 L 400.0 760.0 L 450.0 762.2 L 500.0 763.5 L 550.0 762.7 L 600.0 761.5 L 650.0 757.6 L 700.0 752.9 L 750.0 747.5 L 800.0 744.5 L 850.0 742.2 L 900.0 740.2 L 950.0 742.3 L 1000.0 744.5 L 1050.0 747.5 L 1100.0 751.3 L 1150.0 756.1 L 1200.0 759.8" stroke="rgba(10,10,8,0.23)" stroke-width="1.18" fill="none" />
<path d="M 0 762.6 L 50.0 767.4 L 100.0 775.9 L 150.0 780.4 L 200.0 782.2 L 250.0 782.0 L 300.0 778.4 L 350.0 771.8 L 400.0 765.2 L 450.0 756.9 L 500.0 749.5 L 550.0 745.3 L 600.0 742.6 L 650.0 743.0 L 700.0 746.8 L 750.0 753.3 L 800.0 760.8 L 850.0 767.6 L 900.0 775.0 L 950.0 778.9 L 1000.0 781.1 L 1050.0 782.1 L 1100.0 778.7 L 1150.0 771.1 L 1200.0 763.5" stroke="rgba(10,10,8,0.48)" stroke-width="1.15" fill="none" />
<path d="M 0 774.9 L 50.0 758.7 L 100.0 766.2 L 150.0 772.9 L 200.0 782.2 L 250.0 788.5 L 300.0 793.1 L 350.0 796.2 L 400.0 795.1 L 450.0 789.3 L 500.0 784.7 L 550.0 775.8 L 600.0 768.1 L 650.0 760.6 L 700.0 755.6 L 750.0 755.3 L 800.0 756.4 L 850.0 759.6 L 900.0 764.9 L 950.0 774.2 L 1000.0 780.9 L 1050.0 787.6 L 1100.0 792.5 L 1150.0 795.3 L 1200.0 794.5" stroke="rgba(10,10,8,0.33)" stroke-width="1.04" fill="none" />
<path d="M 0 792.4 L 50.0 778.6 L 100.0 773.2 L 150.0 771.6 L 200.0 774.1 L 250.0 777.8 L 300.0 783.3 L 350.0 791.2 L 400.0 799.6 L 450.0 806.6 L 500.0 811.8 L 550.0 812.3 L 600.0 811.0 L 650.0 807.5 L 700.0 800.9 L 750.0 793.1 L 800.0 785.8 L 850.0 779.0 L 900.0 774.4 L 950.0 772.4 L 1000.0 772.6 L 1050.0 777.2 L 1100.0 784.4 L 1150.0 792.9 L 1200.0 799.7" stroke="rgba(10,10,8,0.28)" stroke-width="0.40" fill="none" />
    </g>
    <rect width="100%" height="100%" fill="url(#vignette-mahogany-bottom)"/>
  </g>
</svg>