<?xml version="1.0" encoding="UTF-8"?>
<svg xmlns="http://www.w3.org/2000/svg" viewBox="0 0 1200 800" preserveAspectRatio="xMidYMid slice" role="img" aria-label="mahogany top">
  <defs>
    <radialGradient id="bg-mahogany-top" cx="50%" cy="40%" r="80%">
      <stop offset="0%" stop-color="#161410"/>
      <stop offset="100%" stop-color="#0a0a08"/>
    </radialGradient>
    <linearGradient id="wood-mahogany-top" x1="0" y1="0" x2="1" y2="1">
      <stop offset="0%" stop-color="#3b1f15"/>
      <stop offset="50%" stop-color="#5a3221"/>
      <stop offset="100%" stop-color="#7a4b35"/>
    </linearGradient>
    <radialGradient id="vignette-mahogany-top" cx="50%" cy="50%" r="65%">
      <stop offset="60%" stop-color="rgba(0,0,0,0)"/>
      <stop offset="100%" stop-color="rgba(0,0,0,0.45)"/>
    </radialGradient>
    <clipPath id="clip-mahogany-top">
      <path d="M600 120 C760 120 880 200 920 320 C960 440 920 560 820 620 C720 680 600 660 600 660 C600 660 480 680 380 620 C280 560 240 440 280 320 C320 200 440 120 600 120 Z"/>
    </clipPath>
  </defs>
  <rect width="100%" height="100%" fill="url(#bg-mahogany-top)"/>
  <g clip-path="url(#clip-mahogany-top)">
    <rect width="100%" height="100%" fill="url(#wood-mahogany-top)"/>
    <g opacity="0.55">
      <path d="M 0 1.9 L 50.0 6.8 L 100.0 3.6 L 150.0 -1.5 L 200.0 -4.7 L 250.0 -7.9 L 300.0 -8.4 L 350.0 -7.2 L 400.0 -5.6 L 450.0 -3.3 L 500.0 0.0 L 550.0 5.5 L 600.0 7.7 L 650.0 10.6 L 700.0 12.6 L 750.0 11.2 L 800.0 10.7 L 850.0 7.4 L 900.0 1.9 L 950.0 -1.3 L 1000.0 -4.3 L 1050.0 -8.1 L 1100.0 -8.6 L 1150.0 -7.3 L 1200.0 -5.3" stroke="rgba(10,10,8,0.31)" stroke-width="0.92" fill="none" />
<path d="M 0 17.8 L 50.0 22.4 L 100.0 19.8 L 150.0 14.7 L 200.0 10.1 L 250.0 7.6 L 300.0 6.3 L 350.0 7.1 L 400.0 8.7 L 450.0 12.5 L 500.0 17.1 L 550.0 20.5 L 600.0 24.8 L 650.0 27.1 L 700.0 29.1 L 750.0 28.6 L 800.0 25.9 L 850.0 23.1 L 900.0 19.9 L 950.0 15.5 L 1000.0 10.4 L 1050.0 7.3 L 1100.0 5.7 L 1150.0 7.4 L 1200.0 9.7" stroke="rgba(10,10,8,0.28)" stroke-width="0.61" fill="none" />
<path d="M 0 28.9 L 50.0 39.5 L 100.0 41.5 L 150.0 43.3 L 200.0 41.5 L 250.0 38.8 L 300.0 34.5 L 350.0 29.0 L 400.0 24.3 L 450.0 19.7 L 500.0 16.8 L 550.0 13.7 L 600.0 14.9 L 650.0 18.2 L 700.0 23.2 L 750.0 27.4 L 800.0 32.9 L 850.0 39.5 L 900.0 42.2 L 950.0 42.8 L 1000.0 42.0 L 1050.0 39.6 L 1100.0 35.3 L 1150.0 29.2 L 1200.0 23.6" stroke="rgba(10,10,8,0.45)" stroke-width="0.74" fill="none" />
<path d="M 0 40.7 L 50.0 29.0 L 100.0 34.2 L 150.0 40.6 L 200.0 45.8 L 250.0 50.9 L 300.0 54.1 L 350.0 55.5 L 400.0 55.5 L 450.0 52.1 L 500.0 47.8 L 550.0 41.4 L 600.0 35.9 L 650.0 30.1 L 700.0 28.0 L 750.0 24.6 L 800.0 26.0 L 850.0 28.2 L 900.0 33.9 L 950.0 39.8 L 1000.0 46.4 L 1050.0 50.2 L 1100.0 53.8 L 1150.0 55.1 L 1200.0 55.7" stroke="rgba(10,10,8,0.46)" stroke-width="1.11" fill="none" />
<path d="M 0 55.3 L 50.0 42.3 L 100.0 47.4 L 150.0 51.2 L 200.0 58.0 L 250.0 63.5 L 300.0 67.7 L 350.0 69.4 L 400.0 70.7 L 450.0 67.4 L 500.0 64.0 L 550.0 59.2 L 600.0 52.7 L 650.0 48.2 L 700.0 42.1 L 750.0 39.5 L 800.0 39.5 L 850.0 42.0 L 900.0 45.7 L 950.0 51.6 L 1000.0 58.2 L 1050.0 62.9 L 1100.0 66.9 L 1150.0 70.5 L 1200.0 71.0" stroke="rgba(10,10,8,0.44)" stroke-width="0.95" fill="none" />
<path d="M 0 67.8 L 50.0 83.2 L 100.0 82.8 L 150.0 81.8 L 200.0 77.4 L 250.0 73.7 L 300.0 65.9 L 350.0 60.8 L 400.0 55.4 L 450.0 52.5 L 500.0 51.7 L 550.0 53.5 L 600.0 57.7 L 650.0 61.8 L 700.0 67.9 L 750.0 74.8 L 800.0 78.9 L 850.0 82.8 L 900.0 83.4 L 950.0 81.0 L 1000.0 77.7 L 1050.0 73.3 L 1100.0 66.0 L 1150.0 61.1 L 1200.0 56.4" stroke="rgba(10,10,8,0.44)" stroke-width="1.14" fill="none" />
<path d="M 0 85.0 L 50.0 75.2 L 100.0 77.3 L 150.0 81.7 L 200.0 86.1 L 250.0 89.7 L 300.0 94.0 L 350.0 96.4 L 400.0 95.8 L 450.0 94.7 L 500.0 92.9 L 550.0 89.2 L 600.0 83.2 L 650.0 79.0 L 700.0 76.7 L 750.0 74.2 L 800.0 73.2 L 850.0 74.2 L 900.0 78.8 L 950.0 81.7 L 1000.0 85.9 L 1050.0 91.1 L 1100.0 93.3 L 1150.0 96.9 L 1200.0 96.2" stroke="rgba(10,10,8,0.50)" stroke-width="0.61" fill="none" />
<path d="M 0 94.5 L 50.0 76.0 L 100.0 80.5 L 150.0 87.4 L 200.0 93.8 L 250.0 102.5 L 300.0 109.6 L 350.0 112.4 L 400.0 114.2 L 450.0 112.9 L 500.0 109.7 L 550.0 102.9 L 600.0 94.8 L 650.0 86.0 L 700.0 81.0 L 750.0 75.2 L 800.0 73.3 L 850.0 76.4 L 900.0 80.1 L 950.0 85.8 L 1000.0 93.6 L 1050.0 102.8 L 1100.0 109.0 L 1150.0 114.1 L 1200.0 114.9" stroke="rgba(10,10,8,0.28)" stroke-width="1.15" fill="none" />
<path d="M 0 108.5 L 50.0 106.9 L 100.0 104.4 L 150.0 101.8 L 200.0 98.7 L 250.0 99.7 L 300.0 100.8 L 350.0 102.0 L 400.0 105.8 L 450.0 109.4 L 500.0 113.5 L 550.0 115.0 L 600.0 116.9 L 650.0 117.2 L 700.0 115.9 L 750.0 114.3 L 800.0 110.2 L 850.0 106.5 L 900.0 104.7 L 950.0 101.9 L 1000.0 99.3 L 1050.0 99.8 L 1100.0 101.3 L 1150.0 102.7 L 1200.0 106.2" stroke="rgba(10,10,8,0.44)" stroke-width="0.90" fill="none" />
<path d="M 0 123.4 L 50.0 131.1 L 100.0 126.9 L 150.0 119.9 L 200.0 114.8 L 250.0 112.5 L 300.0 108.6 L 350.0 109.1 L 400.0 111.2 L 450.0 116.1 L 500.0 120.6 L 550.0 126.3 L 600.0 130.1 L 650.0 134.6 L 700.0 136.6 L 750.0 138.0 L 800.0 135.8 L 850.0 130.9 L 900.0 126.6 L 950.0 120.5 L 1000.0 115.0 L 1050.0 112.3 L 1100.0 109.4 L 1150.0 109.5 L 1200.0 112.3" stroke="rgba(10,10,8,0.46)" stroke-width="1.08" fill="none" />
<path d="M 0 135.8 L 50.0 142.2 L 100.0 137.9 L 150.0 131.8 L 200.0 127.8 L 250.0 124.2 L 300.0 122.8 L 350.0 123.3 L 400.0 124.8 L 450.0 129.5 L 500.0 134.6 L 550.0 140.5 L 600.0 143.8 L 650.0 148.3 L 700.0 150.2 L 750.0 148.1 L 800.0 146.7 L 850.0 141.2 L 900.0 137.9 L 950.0 132.8 L 1000.0 127.1 L 1050.0 124.4 L 1100.0 123.0 L 1150.0 123.2 L 1200.0 125.0" stroke="rgba(10,10,8,0.48)" stroke-width="0.48" fill="none" />
<path d="M 0 151.5 L 50.0 161.4 L 100.0 161.9 L 150.0 160.8 L 200.0 159.3 L 250.0 155.2 L 300.0 152.5 L 350.0 148.0 L 400.0 144.3 L 450.0 143.0 L 500.0 140.2 L 550.0 142.1 L 600.0 143.8 L 650.0 147.5 L 700.0 151.4 L 750.0 155.7 L 800.0 157.5 L 850.0 161.4 L 900.0 161.6 L 950.0 160.7 L 1000.0 158.6 L 1050.0 155.6 L 1100.0 152.4 L 1150.0 147.6 L 1200.0 143.8" stroke="rgba(10,10,8,0.49)" stroke-width="0.88" fill="none" />
<path d="M 0 162.2 L 50.0 152.5 L 100.0 150.8 L 150.0 152.1 L 200.0 153.9 L 250.0 156.1 L 300.0 160.3 L 350.0 164.9 L 400.0 168.8 L 450.0 171.8 L 500.0 172.4 L 550.0 172.9 L 600.0 170.3 L 650.0 167.5 L 700.0 162.7 L 750.0 159.8 L 800.0 155.8 L 850.0 152.3 L 900.0 151.2 L 950.0 151.0 L 1000.0 153.6 L 1050.0 156.9 L 1100.0 160.3 L 1150.0 164.4 L 1200.0 169.0" stroke="rgba(10,10,8,0.36)" stroke-width="1.00" fill="none" />
<path d="M 0 173.7 L 50.0 163.1 L 100.0 165.0 L 150.0 166.3 L 200.0 170.7 L 250.0 174.7 L 300.0 177.3 L 350.0 180.2 L 400.0 183.8 L 450.0 184.4 L 500.0 182.7 L 550.0 181.4 L 600.0 176.7 L 650.0 174.3 L 700.0 169.3 L 750.0 167.2 L 800.0 164.0 L 850.0 162.4 L 900.0 164.5 L 950.0 166.2 L 1000.0 169.2 L 1050.0 174.0 L 1100.0 178.6 L 1150.0 180.3 L 1200.0 182.6" stroke="rgba(10,10,8,0.42)" stroke-width="0.61" fill="none" />
<path d="M 0 191.4 L 50.0 212.4 L 100.0 209.3 L 150.0 205.2 L 200.0 198.4 L 250.0 192.2 L 300.0 184.5 L 350.0 177.3 L 400.0 172.3 L 450.0 170.8 L 500.0 172.9 L 550.0 177.5 L 600.0 182.6 L 650.0 191.9 L 700.0 197.9 L 750.0 205.8 L 800.0 210.5 L 850.0 211.3 L 900.0 210.2 L 950.0 206.3 L 1000.0 198.9 L 1050.0 192.7 L 1100.0 183.1 L 1150.0 178.3 L 1200.0 172.8" stroke="rgba(10,10,8,0.28)" stroke-width="1.14" fill="none" />
<path d="M 0 202.0 L 50.0 185.4 L 100.0 186.2 L 150.0 188.0 L 200.0 191.5 L 250.0 198.6 L 300.0 205.1 L 350.0 210.9 L 400.0 214.8 L 450.0 217.3 L 500.0 218.3 L 550.0 216.9 L 600.0 210.8 L 650.0 205.0 L 700.0 200.4 L 750.0 193.9 L 800.0 188.6 L 850.0 186.2 L 900.0 185.7 L 950.0 189.0 L 1000.0 191.8 L 1050.0 198.6 L 1100.0 204.1 L 1150.0 210.6 L 1200.0 214.6" stroke="rgba(10,10,8,0.23)" stroke-width="0.43" fill="none" />
<path d="M 0 214.9 L 50.0 206.4 L 100.0 211.2 L 150.0 215.6 L 200.0 219.6 L 250.0 223.2 L 300.0 225.6 L 350.0 225.8 L 400.0 225.9 L 450.0 223.2 L 500.0 217.7 L 550.0 214.3 L 600.0 209.5 L 650.0 206.2 L 700.0 203.0 L 750.0 203.3 L 800.0 203.7 L 850.0 207.8 L 900.0 211.3 L 950.0 214.8 L 1000.0 221.0 L 1050.0 224.6 L 1100.0 226.5 L 1150.0 225.7 L 1200.0 224.5" stroke="rgba(10,10,8,0.44)" stroke-width="0.81" fill="none" />
<path d="M 0 228.6 L 50.0 217.5 L 100.0 221.4 L 150.0 223.7 L 200.0 227.8 L 250.0 234.0 L 300.0 236.2 L 350.0 238.7 L 400.0 240.7 L 450.0 238.6 L 500.0 236.2 L 550.0 232.1 L 600.0 229.0 L 650.0 224.4 L 700.0 219.8 L 750.0 217.3 L 800.0 217.6 L 850.0 217.8 L 900.0 221.2 L 950.0 225.0 L 1000.0 227.7 L 1050.0 232.3 L 1100.0 236.5 L 1150.0 239.4 L 1200.0 240.1" stroke="rgba(10,10,8,0.51)" stroke-width="0.96" fill="none" />
<path d="M 0 243.2 L 50.0 231.8 L 100.0 227.1 L 150.0 225.8 L 200.0 226.8 L 250.0 228.7 L 300.0 234.7 L 350.0 242.2 L 400.0 248.2 L 450.0 253.8 L 500.0 260.0 L 550.0 261.2 L 600.0 259.8 L 650.0 257.5 L 700.0 251.2 L 750.0 244.6 L 800.0 238.4 L 850.0 232.8 L 900.0 228.2 L 950.0 224.6 L 1000.0 226.8 L 1050.0 230.6 L 1100.0 234.4 L 1150.0 241.1 L 1200.0 248.0" stroke="rgba(10,10,8,0.43)" stroke-width="1.03" fill="none" />
<path d="M 0 253.6 L 50.0 243.8 L 100.0 249.0 L 150.0 258.0 L 200.0 263.2 L 250.0 270.0 L 300.0 271.5 L 350.0 271.3 L 400.0 269.4 L 450.0 263.5 L 500.0 256.8 L 550.0 250.1 L 600.0 242.9 L 650.0 237.0 L 700.0 234.9 L 750.0 234.4 L 800.0 238.8 L 850.0 243.1 L 900.0 250.9 L 950.0 257.0 L 1000.0 263.4 L 1050.0 268.7 L 1100.0 272.4 L 1150.0 272.8 L 1200.0 268.8" stroke="rgba(10,10,8,0.26)" stroke-width="1.14" fill="none" />
<path d="M 0 269.5 L 50.0 266.4 L 100.0 272.4 L 150.0 276.0 L 200.0 280.5 L 250.0 283.2 L 300.0 282.1 L 350.0 282.0 L 400.0 277.8 L 450.0 271.9 L 500.0 267.2 L 550.0 261.4 L 600.0 259.0 L 650.0 255.8 L 700.0 255.5 L 750.0 257.6 L 800.0 262.1 L 850.0 266.5 L 900.0 271.0 L 950.0 276.5 L 1000.0 280.5 L 1050.0 283.3 L 1100.0 283.2 L 1150.0 281.0 L 1200.0 277.6" stroke="rgba(10,10,8,0.53)" stroke-width="0.40" fill="none" />
<path d="M 0 280.5 L 50.0 285.4 L 100.0 278.1 L 150.0 271.9 L 200.0 267.7 L 250.0 265.5 L 300.0 264.1 L 350.0 265.5 L 400.0 269.7 L 450.0 274.8 L 500.0 281.8 L 550.0 288.9 L 600.0 292.6 L 650.0 295.5 L 700.0 297.5 L 750.0 294.5 L 800.0 291.8 L 850.0 285.7 L 900.0 279.2 L 950.0 272.4 L 1000.0 268.7 L 1050.0 265.6 L 1100.0 264.4 L 1150.0 266.9 L 1200.0 269.9" stroke="rgba(10,10,8,0.33)" stroke-width="0.48" fill="none" />
<path d="M 0 296.6 L 50.0 285.4 L 100.0 291.6 L 150.0 299.3 L 200.0 305.9 L 250.0 312.2 L 300.0 315.5 L 350.0 316.3 L 400.0 314.1 L 450.0 308.6 L 500.0 301.9 L 550.0 294.5 L 600.0 287.8 L 650.0 280.9 L 700.0 277.7 L 750.0 278.3 L 800.0 281.0 L 850.0 284.3 L 900.0 292.3 L 950.0 298.5 L 1000.0 306.6 L 1050.0 311.3 L 1100.0 314.9 L 1150.0 315.3 L 1200.0 313.4" stroke="rgba(10,10,8,0.22)" stroke-width="0.87" fill="none" />
<path d="M 0 308.9 L 50.0 296.1 L 100.0 296.4 L 150.0 300.4 L 200.0 305.8 L 250.0 310.7 L 300.0 316.1 L 350.0 320.4 L 400.0 322.4 L 450.0 323.2 L 500.0 321.2 L 550.0 316.5 L 600.0 312.9 L 650.0 306.5 L 700.0 300.7 L 750.0 296.9 L 800.0 296.4 L 850.0 294.4 L 900.0 297.6 L 950.0 301.3 L 1000.0 306.3 L 1050.0 310.2 L 1100.0 315.2 L 1150.0 320.1 L 1200.0 322.6" stroke="rgba(10,10,8,0.37)" stroke-width="1.13" fill="none" />
<path d="M 0 320.3 L 50.0 332.6 L 100.0 328.9 L 150.0 325.8 L 200.0 319.5 L 250.0 314.3 L 300.0 310.2 L 350.0 307.3 L 400.0 306.4 L 450.0 307.6 L 500.0 311.7 L 550.0 315.7 L 600.0 321.4 L 650.0 326.8 L 700.0 329.8 L 750.0 332.4 L 800.0 333.1 L 850.0 333.3 L 900.0 328.5 L 950.0 325.7 L 1000.0 320.4 L 1050.0 315.1 L 1100.0 310.8 L 1150.0 308.1 L 1200.0 307.6" stroke="rgba(10,10,8,0.28)" stroke-width="0.43" fill="none" />
<path d="M 0 338.2 L 50.0 333.7 L 100.0 339.0 L 150.0 344.0 L 200.0 347.3 L 250.0 349.7 L 300.0 351.0 L 350.0 351.1 L 400.0 347.1 L 450.0 343.2 L 500.0 338.3 L 550.0 332.1 L 600.0 328.0 L 650.0 325.4 L 700.0 325.4 L 750.0 326.0 L 800.0 328.2 L 850.0 334.1 L 900.0 337.7 L 950.0 344.0 L 1000.0 348.4 L 1050.0 350.3 L 1100.0 351.3 L 1150.0 351.3 L 1200.0 347.5" stroke="rgba(10,10,8,0.36)" stroke-width="0.86" fill="none" />
<path d="M 0 347.0 L 50.0 358.0 L 100.0 354.8 L 150.0 349.8 L 200.0 344.1 L 250.0 340.3 L 300.0 336.3 L 350.0 334.1 L 400.0 334.5 L 450.0 336.3 L 500.0 340.0 L 550.0 343.7 L 600.0 349.4 L 650.0 354.2 L 700.0 358.5 L 750.0 360.2 L 800.0 359.8 L 850.0 359.0 L 900.0 354.3 L 950.0 350.2 L 1000.0 345.5 L 1050.0 341.0 L 1100.0 336.4 L 1150.0 335.0 L 1200.0 334.8" stroke="rgba(10,10,8,0.40)" stroke-width="0.81" fill="none" />
<path d="M 0 363.0 L 50.0 372.7 L 100.0 371.6 L 150.0 367.7 L 200.0 364.7 L 250.0 360.6 L 300.0 356.4 L 350.0 353.5 L 400.0 353.1 L 450.0 353.9 L 500.0 354.7 L 550.0 358.8 L 600.0 361.1 L 650.0 365.4 L 700.0 369.9 L 750.0 371.7 L 800.0 372.8 L 850.0 372.9 L 900.0 370.1 L 950.0 368.8 L 1000.0 364.6 L 1050.0 360.6 L 1100.0 357.1 L 1150.0 353.0 L 1200.0 353.6" stroke="rgba(10,10,8,0.32)" stroke-width="0.96" fill="none" />
<path d="M 0 378.9 L 50.0 389.7 L 100.0 394.1 L 150.0 396.1 L 200.0 395.7 L 250.0 392.1 L 300.0 386.3 L 350.0 380.1 L 400.0 373.0 L 450.0 367.9 L 500.0 362.7 L 550.0 362.5 L 600.0 362.5 L 650.0 366.1 L 700.0 371.1 L 750.0 378.5 L 800.0 385.6 L 850.0 391.3 L 900.0 393.8 L 950.0 395.1 L 1000.0 394.9 L 1050.0 391.3 L 1100.0 386.0 L 1150.0 379.3 L 1200.0 373.6" stroke="rgba(10,10,8,0.36)" stroke-width="1.18" fill="none" />
<path d="M 0 390.4 L 50.0 377.6 L 100.0 378.4 L 150.0 381.2 L 200.0 384.0 L 250.0 389.3 L 300.0 392.9 L 350.0 397.8 L 400.0 400.6 L 450.0 403.2 L 500.0 402.3 L 550.0 401.5 L 600.0 397.5 L 650.0 392.7 L 700.0 388.1 L 750.0 382.3 L 800.0 379.2 L 850.0 377.8 L 900.0 378.0 L 950.0 380.2 L 1000.0 384.8 L 1050.0 389.0 L 1100.0 393.2 L 1150.0 398.2 L 1200.0 400.7" stroke="rgba(10,10,8,0.31)" stroke-width="1.11" fill="none" />
<path d="M 0 403.2 L 50.0 407.2 L 100.0 399.8 L 150.0 391.2 L 200.0 385.4 L 250.0 381.0 L 300.0 381.8 L 350.0 384.1 L 400.0 390.5 L 450.0 399.6 L 500.0 406.6 L 550.0 415.9 L 600.0 420.7 L 650.0 423.9 L 700.0 424.1 L 750.0 421.9 L 800.0 415.5 L 850.0 408.0 L 900.0 399.7 L 950.0 391.3 L 1000.0 385.5 L 1050.0 382.6 L 1100.0 382.4 L 1150.0 385.3 L 1200.0 390.9" stroke="rgba(10,10,8,0.46)" stroke-width="0.54" fill="none" />
<path d="M 0 419.3 L 50.0 417.9 L 100.0 410.0 L 150.0 406.8 L 200.0 402.5 L 250.0 401.8 L 300.0 403.7 L 350.0 409.6 L 400.0 415.1 L 450.0 421.2 L 500.0 427.0 L 550.0 433.6 L 600.0 435.2 L 650.0 436.0 L 700.0 433.7 L 750.0 430.8 L 800.0 424.8 L 850.0 416.4 L 900.0 411.9 L 950.0 405.5 L 1000.0 403.5 L 1050.0 402.8 L 1100.0 405.2 L 1150.0 409.6 L 1200.0 415.0" stroke="rgba(10,10,8,0.27)" stroke-width="1.10" fill="none" />
<path d="M 0 427.7 L 50.0 431.2 L 100.0 435.2 L 150.0 439.9 L 200.0 441.7 L 250.0 441.9 L 300.0 438.9 L 350.0 434.9 L 400.0 430.5 L 450.0 424.8 L 500.0 419.4 L 550.0 415.7 L 600.0 414.2 L 650.0 413.2 L 700.0 415.8 L 750.0 421.2 L 800.0 426.0 L 850.0 431.0 L 900.0 436.7 L 950.0 438.7 L 1000.0 442.3 L 1050.0 440.4 L 1100.0 438.5 L 1150.0 435.3 L 1200.0 430.4" stroke="rgba(10,10,8,0.45)" stroke-width="0.49" fill="none" />
<path d="M 0 441.5 L 50.0 429.5 L 100.0 437.7 L 150.0 445.7 L 200.0 454.6 L 250.0 459.2 L 300.0 462.7 L 350.0 462.8 L 400.0 458.4 L 450.0 452.8 L 500.0 444.5 L 550.0 437.1 L 600.0 428.7 L 650.0 424.0 L 700.0 421.4 L 750.0 420.5 L 800.0 424.8 L 850.0 430.1 L 900.0 437.3 L 950.0 446.6 L 1000.0 454.0 L 1050.0 458.8 L 1100.0 463.0 L 1150.0 462.8 L 1200.0 459.0" stroke="rgba(10,10,8,0.41)" stroke-width="0.82" fill="none" />
<path d="M 0 453.8 L 50.0 469.3 L 100.0 469.2 L 150.0 465.2 L 200.0 462.0 L 250.0 456.1 L 300.0 451.4 L 350.0 445.3 L 400.0 440.5 L 450.0 439.7 L 500.0 440.3 L 550.0 441.8 L 600.0 445.2 L 650.0 451.2 L 700.0 456.5 L 750.0 462.5 L 800.0 466.4 L 850.0 468.6 L 900.0 468.3 L 950.0 465.9 L 1000.0 462.7 L 1050.0 455.9 L 1100.0 451.1 L 1150.0 445.8 L 1200.0 440.7" stroke="rgba(10,10,8,0.43)" stroke-width="0.69" fill="none" />
<path d="M 0 471.3 L 50.0 486.3 L 100.0 481.3 L 150.0 476.0 L 200.0 468.6 L 250.0 462.6 L 300.0 456.9 L 350.0 454.4 L 400.0 454.6 L 450.0 456.9 L 500.0 460.5 L 550.0 467.8 L 600.0 473.5 L 650.0 480.7 L 700.0 486.4 L 750.0 488.9 L 800.0 489.4 L 850.0 486.1 L 900.0 482.4 L 950.0 475.6 L 1000.0 467.4 L 1050.0 461.6 L 1100.0 456.9 L 1150.0 453.3 L 1200.0 453.8" stroke="rgba(10,10,8,0.53)" stroke-width="0.63" fill="none" />
<path d="M 0 484.1 L 50.0 474.2 L 100.0 474.6 L 150.0 476.3 L 200.0 479.0 L 250.0 482.3 L 300.0 486.7 L 350.0 489.3 L 400.0 492.7 L 450.0 494.1 L 500.0 494.5 L 550.0 492.4 L 600.0 489.7 L 650.0 486.1 L 700.0 481.6 L 750.0 479.1 L 800.0 476.1 L 850.0 475.5 L 900.0 474.5 L 950.0 475.8 L 1000.0 478.7 L 1050.0 482.3 L 1100.0 486.4 L 1150.0 489.2 L 1200.0 492.0" stroke="rgba(10,10,8,0.52)" stroke-width="1.08" fill="none" />
<path d="M 0 495.0 L 50.0 505.7 L 100.0 502.4 L 150.0 498.6 L 200.0 495.7 L 250.0 490.0 L 300.0 487.5 L 350.0 484.2 L 400.0 483.7 L 450.0 484.7 L 500.0 486.9 L 550.0 491.1 L 600.0 494.2 L 650.0 500.0 L 700.0 502.5 L 750.0 506.0 L 800.0 506.9 L 850.0 505.6 L 900.0 504.0 L 950.0 499.7 L 1000.0 495.8 L 1050.0 491.8 L 1100.0 487.9 L 1150.0 485.0 L 1200.0 483.5" stroke="rgba(10,10,8,0.54)" stroke-width="0.80" fill="none" />
<path d="M 0 509.7 L 50.0 498.8 L 100.0 497.8 L 150.0 500.5 L 200.0 504.0 L 250.0 507.2 L 300.0 512.9 L 350.0 516.7 L 400.0 519.9 L 450.0 521.1 L 500.0 521.7 L 550.0 520.0 L 600.0 515.2 L 650.0 512.5 L 700.0 507.2 L 750.0 502.7 L 800.0 499.5 L 850.0 499.1 L 900.0 498.3 L 950.0 500.0 L 1000.0 503.5 L 1050.0 508.5 L 1100.0 512.4 L 1150.0 516.5 L 1200.0 520.3" stroke="rgba(10,10,8,0.25)" stroke-width="0.80" fill="none" />
<path d="M 0 525.8 L 50.0 522.0 L 100.0 528.1 L 150.0 533.4 L 200.0 538.5 L 250.0 541.0 L 300.0 542.2 L 350.0 539.5 L 400.0 536.4 L 450.0 530.1 L 500.0 524.4 L 550.0 516.8 L 600.0 513.1 L 650.0 510.6 L 700.0 509.5 L 750.0 511.2 L 800.0 515.7 L 850.0 521.3 L 900.0 528.7 L 950.0 535.2 L 1000.0 539.8 L 1050.0 541.9 L 1100.0 543.1 L 1150.0 540.5 L 1200.0 534.8" stroke="rgba(10,10,8,0.50)" stroke-width="0.58" fill="none" />
<path d="M 0 537.4 L 50.0 522.2 L 100.0 529.1 L 150.0 537.5 L 200.0 544.1 L 250.0 552.8 L 300.0 558.0 L 350.0 559.3 L 400.0 557.2 L 450.0 552.7 L 500.0 547.1 L 550.0 538.3 L 600.0 529.2 L 650.0 522.4 L 700.0 517.3 L 750.0 515.6 L 800.0 517.3 L 850.0 522.4 L 900.0 528.1 L 950.0 537.6 L 1000.0 545.5 L 1050.0 551.6 L 1100.0 557.5 L 1150.0 558.2 L 1200.0 557.5" stroke="rgba(10,10,8,0.31)" stroke-width="0.72" fill="none" />
<path d="M 0 549.5 L 50.0 560.3 L 100.0 559.0 L 150.0 556.4 L 200.0 552.4 L 250.0 548.0 L 300.0 544.7 L 350.0 541.6 L 400.0 540.1 L 450.0 539.1 L 500.0 540.2 L 550.0 542.7 L 600.0 546.4 L 650.0 551.7 L 700.0 555.6 L 750.0 557.9 L 800.0 559.9 L 850.0 559.5 L 900.0 558.8 L 950.0 555.0 L 1000.0 551.1 L 1050.0 547.4 L 1100.0 544.8 L 1150.0 540.9 L 1200.0 539.6" stroke="rgba(10,10,8,0.28)" stroke-width="1.04" fill="none" />
<path d="M 0 561.0 L 50.0 546.1 L 100.0 546.2 L 150.0 549.3 L 200.0 553.8 L 250.0 559.6 L 300.0 564.9 L 350.0 569.2 L 400.0 573.8 L 450.0 575.0 L 500.0 575.3 L 550.0 573.4 L 600.0 567.5 L 650.0 562.5 L 700.0 557.0 L 750.0 552.2 L 800.0 548.8 L 850.0 546.5 L 900.0 546.0 L 950.0 549.1 L 1000.0 553.7 L 1050.0 560.0 L 1100.0 564.7 L 1150.0 570.5 L 1200.0 573.7" stroke="rgba(10,10,8,0.36)" stroke-width="0.99" fill="none" />
<path d="M 0 575.4 L 50.0 573.9 L 100.0 581.8 L 150.0 587.9 L 200.0 592.1 L 250.0 594.3 L 300.0 593.9 L 350.0 590.2 L 400.0 584.2 L 450.0 577.7 L 500.0 569.4 L 550.0 562.7 L 600.0 558.6 L 650.0 555.9 L 700.0 557.1 L 750.0 561.0 L 800.0 565.7 L 850.0 574.2 L 900.0 581.4 L 950.0 587.3 L 1000.0 592.4 L 1050.0 595.3 L 1100.0 593.0 L 1150.0 591.0 L 1200.0 584.3" stroke="rgba(10,10,8,0.41)" stroke-width="0.50" fill="none" />
<path d="M 0 591.0 L 50.0 597.6 L 100.0 602.1 L 150.0 606.2 L 200.0 607.3 L 250.0 604.5 L 300.0 600.3 L 350.0 596.4 L 400.0 590.9 L 450.0 585.3 L 500.0 580.2 L 550.0 576.6 L 600.0 574.9 L 650.0 576.3 L 700.0 581.1 L 750.0 586.7 L 800.0 592.3 L 850.0 598.2 L 900.0 602.9 L 950.0 605.0 L 1000.0 605.6 L 1050.0 605.7 L 1100.0 602.2 L 1150.0 595.4 L 1200.0 591.2" stroke="rgba(10,10,8,0.33)" stroke-width="0.65" fill="none" />
<path d="M 0 602.2 L 50.0 614.3 L 100.0 619.8 L 150.0 622.0 L 200.0 620.8 L 250.0 617.4 L 300.0 611.9 L 350.0 603.5 L 400.0 597.2 L 450.0 590.3 L 500.0 585.8 L 550.0 583.6 L 600.0 584.4 L 650.0 588.0 L 700.0 594.1 L 750.0 600.6 L 800.0 608.2 L 850.0 614.9 L 900.0 619.2 L 950.0 621.7 L 1000.0 620.5 L 1050.0 617.5 L 1100.0 610.6 L 1150.0 604.0 L 1200.0 597.2" stroke="rgba(10,10,8,0.48)" stroke-width="0.78" fill="none" />
<path d="M 0 615.5 L 50.0 596.4 L 100.0 597.3 L 150.0 600.5 L 200.0 606.9 L 250.0 614.1 L 300.0 620.8 L 350.0 628.1 L 400.0 632.9 L 450.0 635.6 L 500.0 634.3 L 550.0 631.0 L 600.0 624.5 L 650.0 618.4 L 700.0 609.6 L 750.0 604.4 L 800.0 599.4 L 850.0 596.6 L 900.0 596.8 L 950.0 599.7 L 1000.0 606.0 L 1050.0 612.3 L 1100.0 619.9 L 1150.0 626.5 L 1200.0 631.8" stroke="rgba(10,10,8,0.55)" stroke-width="1.01" fill="none" />
<path d="M 0 628.9 L 50.0 642.9 L 100.0 643.1 L 150.0 641.3 L 200.0 637.7 L 250.0 632.9 L 300.0 627.6 L 350.0 621.8 L 400.0 618.8 L 450.0 614.9 L 500.0 614.9 L 550.0 615.8 L 600.0 619.0 L 650.0 625.2 L 700.0 629.2 L 750.0 635.5 L 800.0 639.8 L 850.0 641.2 L 900.0 642.6 L 950.0 641.3 L 1000.0 637.9 L 1050.0 633.8 L 1100.0 628.3 L 1150.0 623.0 L 1200.0 617.5" stroke="rgba(10,10,8,0.43)" stroke-width="0.47" fill="none" />
<path d="M 0 643.8 L 50.0 659.0 L 100.0 661.3 L 150.0 659.9 L 200.0 657.0 L 250.0 650.2 L 300.0 645.0 L 350.0 638.1 L 400.0 630.8 L 450.0 627.0 L 500.0 626.9 L 550.0 628.0 L 600.0 631.7 L 650.0 636.6 L 700.0 642.4 L 750.0 649.9 L 800.0 655.2 L 850.0 660.9 L 900.0 660.7 L 950.0 661.3 L 1000.0 657.5 L 1050.0 650.6 L 1100.0 644.2 L 1150.0 637.0 L 1200.0 631.3" stroke="rgba(10,10,8,0.53)" stroke-width="0.80" fill="none" />
<path d="M 0 658.3 L 50.0 665.9 L 100.0 666.2 L 150.0 666.1 L 200.0 664.3 L 250.0 661.0 L 300.0 656.7 L 350.0 655.0 L 400.0 652.0 L 450.0 649.4 L 500.0 648.8 L 550.0 649.7 L 600.0 652.3 L 650.0 656.3 L 700.0 658.2 L 750.0 663.0 L 800.0 664.7 L 850.0 665.7 L 900.0 666.4 L 950.0 665.6 L 1000.0 663.9 L 1050.0 661.6 L 1100.0 658.3 L 1150.0 655.0 L 1200.0 650.9" stroke="rgba(10,10,8,0.42)" stroke-width="0.72" fill="none" />
<path d="M 0 669.6 L 50.0 648.6 L 100.0 649.4 L 150.0 653.3 L 200.0 659.9 L 250.0 669.1 L 300.0 677.4 L 350.0 682.8 L 400.0 687.8 L 450.0 690.8 L 500.0 688.2 L 550.0 685.8 L 600.0 677.6 L 650.0 669.8 L 700.0 662.2 L 750.0 654.8 L 800.0 651.3 L 850.0 649.2 L 900.0 649.5 L 950.0 653.8 L 1000.0 660.6 L 1050.0 667.5 L 1100.0 676.0 L 1150.0 682.8 L 1200.0 688.8" stroke="rgba(10,10,8,0.27)" stroke-width="0.58" fill="none" />
<path d="M 0 680.4 L 50.0 681.8 L 100.0 687.5 L 150.0 690.4 L 200.0 691.6 L 250.0 692.1 L 300.0 689.4 L 350.0 687.1 L 400.0 682.1 L 450.0 678.8 L 500.0 675.1 L 550.0 671.0 L 600.0 669.4 L 650.0 669.5 L 700.0 672.0 L 750.0 673.2 L 800.0 677.5 L 850.0 682.1 L 900.0 687.3 L 950.0 689.2 L 1000.0 692.0 L 1050.0 691.1 L 1100.0 688.9 L 1150.0 687.5 L 1200.0 683.5" stroke="rgba(10,10,8,0.23)" stroke-width="1.14" fill="none" />
<path d="M 0 698.3 L 50.0 701.5 L 100.0 694.0 L 150.0 689.1 L 200.0 684.8 L 250.0 681.4 L 300.0 681.6 L 350.0 685.1 L 400.0 688.8 L 450.0 695.5 L 500.0 702.5 L 550.0 707.8 L 600.0 713.1 L 650.0 714.4 L 700.0 714.2 L 750.0 712.2 L 800.0 707.9 L 850.0 700.7 L 900.0 694.2 L 950.0 689.2 L 1000.0 684.8 L 1050.0 681.6 L 1100.0 682.1 L 1150.0 684.2 L 1200.0 688.8" stroke="rgba(10,10,8,0.38)" stroke-width="0.50" fill="none" />
<path d="M 0 707.6 L 50.0 698.9 L 100.0 700.4 L 150.0 702.5 L 200.0 705.3 L 250.0 710.1 L 300.0 713.5 L 350.0 714.6 L 400.0 717.3 L 450.0 716.3 L 500.0 716.2 L 550.0 712.0 L 600.0 708.8 L 650.0 704.8 L 700.0 701.8 L 750.0 700.8 L 800.0 699.0 L 850.0 698.2 L 900.0 700.8 L 950.0 702.4 L 1000.0 704.9 L 1050.0 709.6 L 1100.0 713.2 L 1150.0 715.7 L 1200.0 716.5" stroke="rgba(10,10,8,0.53)" stroke-width="1.04" fill="none" />
<path d="M 0 724.5 L 50.0 709.0 L 100.0 711.0 L 150.0 713.8 L 200.0 718.0 L 250.0 722.5 L 300.0 728.8 L 350.0 733.0 L 400.0 736.9 L 450.0 738.7 L 500.0 738.9 L 550.0 735.3 L 600.0 731.5 L 650.0 726.7 L 700.0 720.5 L 750.0 715.6 L 800.0 710.8 L 850.0 710.7 L 900.0 709.8 L 950.0 713.8 L 1000.0 717.5 L 1050.0 722.7 L 1100.0 728.4 L 1150.0 734.0 L 1200.0 737.6" stroke="rgba(10,10,8,0.26)" stroke-width="1.06" fill="none" />
<path d="M 0 735.9 L 50.0 723.2 L 100.0 719.8 L 150.0 718.8 L 200.0 720.8 L 250.0 724.4 L 300.0 729.7 L 350.0 736.6 L 400.0 742.8 L 450.0 749.0 L 500.0 751.8 L 550.0 753.1 L 600.0 751.6 L 650.0 747.2 L 700.0 740.7 L 750.0 734.9 L 800.0 728.9 L 850.0 723.6 L 900.0 721.0 L 950.0 720.1 L 1000.0 720.9 L 1050.0 725.2 L 1100.0 729.6 L 1150.0 736.7 L 1200.0 742.9" stroke="rgba(10,10,8,0.47)" stroke-width="0.40" fill="none" />
<path d="M 0 749.4 L 50.0 753.6 L 100.0 751.2 L 150.0 748.8 L 200.0 745.4 L 250.0 742.3 L 300.0 740.5 L 350.0 740.0 L 400.0 742.0 L 450.0 744.8 L 500.0 746.9 L 550.0 751.5 L 600.0 754.3 L 650.0 756.8 L 700.0 758.7 L 750.0 757.9 L 800.0 757.4 L 850.0 754.0 L 900.0 751.7 L 950.0 747.4 L 1000.0 744.4 L 1050.0 742.8 L 1100.0 740.4 L 1150.0 740.7 L 1200.0 743.0" stroke="rgba(10,10,8,0.27)" stroke-width="1.12" fill="none" />
<path d="M 0 764.7 L 50.0 775.2 L 100.0 770.3 L 150.0 763.0 L 200.0 758.9 L 250.0 752.6 L 300.0 750.1 L 350.0 748.4 L 400.0 750.3 L 450.0 753.4 L 500.0 759.4 L 550.0 765.4 L 600.0 770.6 L 650.0 776.2 L 700.0 778.5 L 750.0 779.6 L 800.0 779.1 L 850.0 775.5 L 900.0 770.4 L 950.0 764.0 L 1000.0 758.5 L 1050.0 752.4 L 1100.0 749.6 L 1150.0 749.1 L 1200.0 750.9" stroke="rgba(10,10,8,0.31)" stroke-width="0.61" fill="none" />
<path d="M 0 777.7 L 50.0 769.2 L 100.0 768.5 L 150.0 770.8 L 200.0 774.9 L 250.0 778.8 L 300.0 782.7 L 350.0 784.0 L 400.0 786.2 L 450.0 787.2 L 500.0 785.0 L 550.0 783.7 L 600.0 780.8 L 650.0 777.2 L 700.0 773.3 L 750.0 769.9 L 800.0 768.4 L 850.0 768.6 L 900.0 770.0 L 950.0 771.7 L 1000.0 774.8 L 1050.0 779.3 L 1100.0 782.4 L 1150.0 784.8 L 1200.0 785.6" stroke="rgba(10,10,8,0.36)" stroke-width="0.51" fill="none" />
<path d="M 0 789.5 L 50.0 771.3 L 100.0 769.5 L 150.0 771.0 L 200.0 776.3 L 250.0 782.5 L 300.0 788.8 L 350.0 798.0 L 400.0 803.1 L 450.0 809.0 L 500.0 810.1 L 550.0 808.9 L 600.0 803.4 L 650.0 796.3 L 700.0 789.8 L 750.0 782.4 L 800.0 774.8 L 850.0 771.3 L 900.0 769.9 L 950.0 771.3 L 1000.0 775.1 L 1050.0 781.8 L 1100.0 790.0 L 1150.0 796.7 L 1200.0 803.8" stroke="rgba(10,10,8,0.49)" stroke-width="0.89" fill="none" />
    </g>
    <rect width="100%" height="100%" fill="url(#vignette-mahogany-top)"/>
  </g>
</svg>