<?xml version="1.0" encoding="UTF-8"?>
<svg xmlns="http://www.w3.org/2000/svg" viewBox="0 0 1200 600" preserveAspectRatio="xMidYMid slice" role="img" aria-label="maple side">
  <defs>
    <radialGradient id="bg-maple-side" cx="50%" cy="40%" r="80%">
      <stop offset="0%" stop-color="#161410"/>
      <stop offset="100%" stop-color="#0a0a08"/>
    </radialGradient>
    <linearGradient id="wood-maple-side" x1="0" y1="0" x2="1" y2="1">
      <stop offset="0%" stop-color="#c9b48a"/>
      <stop offset="50%" stop-color="#d8c39a"/>
      <stop offset="100%" stop-color="#efe2c0"/>
    </linearGradient>
    <radialGradient id="vignette-maple-side" cx="50%" cy="50%" r="65%">
      <stop offset="60%" stop-color="rgba(0,0,0,0)"/>
      <stop offset="100%" stop-color="rgba(0,0,0,0.45)"/>
    </radialGradient>
    <clipPath id="clip-maple-side">
      <path d="M120 280 L1080 280 L1080 320 L120 320 Z"/>
    </clipPath>
  </defs>
  <rect width="100%" height="100%" fill="url(#bg-maple-side)"/>
  <g clip-path="url(#clip-maple-side)">
    <rect width="100%" height="100%" fill="url(#wood-maple-side)"/>
    <g opacity="0.30">
      <path d="M 0 0.4 L 50.0 -10.5 L 100.0 -9.9 L 150.0 -7.3 L 200.0 -3.7 L 250.0 1.5 L 300.0 6.2 L 350.0 9.4 L 400.0 11.9 L 450.0 12.8 L 500.0 10.4 L 550.0 7.7 L 600.0 3.8 L 650.0 0.0 L 700.0 -4.1 L 750.0 -8.3 L 800.0 -10.7 L 850.0 -10.6 L 900.0 -11.0 L 950.0 -6.4 L 1000.0 -3.1 L 1050.0 2.3 L 1100.0 5.3 L 1150.0 9.2 L 1200.0 12.5" stroke="rgba(10,10,8,0.28)" stroke-width="1.16" fill="none" />
<path d="M 0 35.6 L 50.0 29.2 L 100.0 20.8 L 150.0 16.4 L 200.0 13.4 L 250.0 15.9 L 300.0 18.9 L 350.0 25.3 L 400.0 34.5 L 450.0 42.1 L 500.0 49.4 L 550.0 54.2 L 600.0 56.4 L 650.0 55.3 L 700.0 52.4 L 750.0 44.6 L 800.0 37.9 L 850.0 29.1 L 900.0 21.8 L 950.0 17.1 L 1000.0 13.7 L 1050.0 16.1 L 1100.0 19.3 L 1150.0 25.1 L 1200.0 34.3" stroke="rgba(10,10,8,0.34)" stroke-width="0.89" fill="none" />
<path d="M 0 68.0 L 50.0 88.3 L 100.0 86.3 L 150.0 82.7 L 200.0 76.9 L 250.0 69.4 L 300.0 61.7 L 350.0 55.9 L 400.0 51.5 L 450.0 48.2 L 500.0 48.9 L 550.0 53.3 L 600.0 58.1 L 650.0 64.8 L 700.0 73.2 L 750.0 79.9 L 800.0 86.0 L 850.0 86.7 L 900.0 87.7 L 950.0 83.3 L 1000.0 77.0 L 1050.0 70.3 L 1100.0 62.0 L 1150.0 55.6 L 1200.0 50.9" stroke="rgba(10,10,8,0.39)" stroke-width="1.09" fill="none" />
<path d="M 0 102.2 L 50.0 113.1 L 100.0 117.2 L 150.0 119.5 L 200.0 118.1 L 250.0 116.0 L 300.0 110.2 L 350.0 104.4 L 400.0 96.2 L 450.0 90.5 L 500.0 87.4 L 550.0 84.0 L 600.0 85.5 L 650.0 89.4 L 700.0 93.5 L 750.0 100.9 L 800.0 106.8 L 850.0 114.2 L 900.0 117.1 L 950.0 119.5 L 1000.0 118.8 L 1050.0 115.4 L 1100.0 110.7 L 1150.0 103.2 L 1200.0 97.0" stroke="rgba(10,10,8,0.34)" stroke-width="0.82" fill="none" />
<path d="M 0 134.1 L 50.0 140.4 L 100.0 141.8 L 150.0 142.7 L 200.0 143.3 L 250.0 140.7 L 300.0 137.7 L 350.0 134.6 L 400.0 131.0 L 450.0 128.0 L 500.0 124.9 L 550.0 123.8 L 600.0 125.1 L 650.0 126.7 L 700.0 130.4 L 750.0 133.9 L 800.0 137.6 L 850.0 139.5 L 900.0 143.0 L 950.0 143.9 L 1000.0 143.0 L 1050.0 141.9 L 1100.0 138.3 L 1150.0 135.9 L 1200.0 130.7" stroke="rgba(10,10,8,0.30)" stroke-width="0.52" fill="none" />
<path d="M 0 169.2 L 50.0 162.0 L 100.0 154.9 L 150.0 150.8 L 200.0 149.1 L 250.0 151.7 L 300.0 155.5 L 350.0 162.4 L 400.0 170.1 L 450.0 177.3 L 500.0 183.1 L 550.0 186.4 L 600.0 188.8 L 650.0 186.2 L 700.0 181.8 L 750.0 176.8 L 800.0 168.1 L 850.0 161.1 L 900.0 155.7 L 950.0 150.5 L 1000.0 149.4 L 1050.0 152.1 L 1100.0 155.7 L 1150.0 161.8 L 1200.0 169.4" stroke="rgba(10,10,8,0.25)" stroke-width="0.79" fill="none" />
<path d="M 0 203.6 L 50.0 185.1 L 100.0 182.7 L 150.0 185.4 L 200.0 188.5 L 250.0 193.7 L 300.0 201.0 L 350.0 208.9 L 400.0 216.5 L 450.0 220.7 L 500.0 222.8 L 550.0 222.6 L 600.0 219.3 L 650.0 211.9 L 700.0 205.4 L 750.0 196.9 L 800.0 190.6 L 850.0 185.2 L 900.0 182.8 L 950.0 185.0 L 1000.0 189.1 L 1050.0 194.9 L 1100.0 201.4 L 1150.0 210.5 L 1200.0 216.6" stroke="rgba(10,10,8,0.30)" stroke-width="0.87" fill="none" />
<path d="M 0 238.3 L 50.0 231.3 L 100.0 229.0 L 150.0 224.9 L 200.0 226.3 L 250.0 226.8 L 300.0 230.5 L 350.0 234.9 L 400.0 239.3 L 450.0 245.0 L 500.0 248.3 L 550.0 251.3 L 600.0 251.3 L 650.0 250.4 L 700.0 246.0 L 750.0 242.1 L 800.0 236.7 L 850.0 232.0 L 900.0 228.0 L 950.0 225.9 L 1000.0 225.7 L 1050.0 226.8 L 1100.0 230.3 L 1150.0 234.2 L 1200.0 240.6" stroke="rgba(10,10,8,0.51)" stroke-width="0.84" fill="none" />
<path d="M 0 268.4 L 50.0 286.6 L 100.0 288.9 L 150.0 288.0 L 200.0 284.3 L 250.0 278.5 L 300.0 269.7 L 350.0 261.0 L 400.0 254.9 L 450.0 248.9 L 500.0 247.6 L 550.0 247.5 L 600.0 253.5 L 650.0 258.4 L 700.0 266.5 L 750.0 276.1 L 800.0 283.2 L 850.0 287.3 L 900.0 289.4 L 950.0 288.4 L 1000.0 283.9 L 1050.0 277.0 L 1100.0 269.5 L 1150.0 261.3 L 1200.0 254.4" stroke="rgba(10,10,8,0.26)" stroke-width="0.41" fill="none" />
<path d="M 0 305.1 L 50.0 299.6 L 100.0 291.8 L 150.0 287.1 L 200.0 284.1 L 250.0 285.5 L 300.0 290.0 L 350.0 295.8 L 400.0 303.7 L 450.0 310.7 L 500.0 316.8 L 550.0 322.3 L 600.0 325.8 L 650.0 324.3 L 700.0 321.5 L 750.0 314.1 L 800.0 307.0 L 850.0 300.5 L 900.0 293.2 L 950.0 286.6 L 1000.0 284.4 L 1050.0 285.5 L 1100.0 288.6 L 1150.0 295.9 L 1200.0 302.1" stroke="rgba(10,10,8,0.52)" stroke-width="0.59" fill="none" />
<path d="M 0 336.9 L 50.0 342.4 L 100.0 349.2 L 150.0 354.1 L 200.0 355.5 L 250.0 355.6 L 300.0 352.4 L 350.0 344.6 L 400.0 338.2 L 450.0 329.9 L 500.0 323.9 L 550.0 318.9 L 600.0 316.8 L 650.0 318.4 L 700.0 323.4 L 750.0 328.3 L 800.0 335.8 L 850.0 343.1 L 900.0 349.9 L 950.0 353.9 L 1000.0 355.2 L 1050.0 356.1 L 1100.0 350.6 L 1150.0 344.5 L 1200.0 339.0" stroke="rgba(10,10,8,0.31)" stroke-width="1.11" fill="none" />
<path d="M 0 372.1 L 50.0 381.4 L 100.0 383.8 L 150.0 384.9 L 200.0 382.6 L 250.0 379.1 L 300.0 374.1 L 350.0 369.6 L 400.0 365.8 L 450.0 362.8 L 500.0 360.3 L 550.0 361.2 L 600.0 361.3 L 650.0 365.5 L 700.0 368.9 L 750.0 373.2 L 800.0 378.6 L 850.0 381.0 L 900.0 384.6 L 950.0 383.9 L 1000.0 382.6 L 1050.0 380.1 L 1100.0 375.3 L 1150.0 369.8 L 1200.0 366.0" stroke="rgba(10,10,8,0.43)" stroke-width="0.80" fill="none" />
<path d="M 0 401.3 L 50.0 383.0 L 100.0 387.0 L 150.0 392.5 L 200.0 399.7 L 250.0 406.9 L 300.0 414.4 L 350.0 418.7 L 400.0 420.3 L 450.0 419.5 L 500.0 416.2 L 550.0 410.1 L 600.0 403.7 L 650.0 396.3 L 700.0 387.9 L 750.0 384.3 L 800.0 382.8 L 850.0 382.4 L 900.0 386.8 L 950.0 392.6 L 1000.0 399.4 L 1050.0 406.9 L 1100.0 413.7 L 1150.0 419.1 L 1200.0 420.3" stroke="rgba(10,10,8,0.35)" stroke-width="0.84" fill="none" />
<path d="M 0 436.3 L 50.0 427.3 L 100.0 422.6 L 150.0 420.7 L 200.0 421.1 L 250.0 423.3 L 300.0 428.1 L 350.0 433.4 L 400.0 440.0 L 450.0 446.3 L 500.0 449.0 L 550.0 451.7 L 600.0 451.1 L 650.0 447.8 L 700.0 443.1 L 750.0 438.3 L 800.0 432.0 L 850.0 426.4 L 900.0 422.7 L 950.0 420.4 L 1000.0 421.5 L 1050.0 424.1 L 1100.0 427.9 L 1150.0 434.1 L 1200.0 440.0" stroke="rgba(10,10,8,0.41)" stroke-width="0.61" fill="none" />
<path d="M 0 468.8 L 50.0 461.6 L 100.0 454.3 L 150.0 449.5 L 200.0 447.3 L 250.0 448.4 L 300.0 454.3 L 350.0 459.7 L 400.0 468.8 L 450.0 477.0 L 500.0 483.8 L 550.0 488.8 L 600.0 490.1 L 650.0 488.1 L 700.0 482.8 L 750.0 476.2 L 800.0 469.6 L 850.0 461.2 L 900.0 453.8 L 950.0 448.8 L 1000.0 446.8 L 1050.0 450.2 L 1100.0 452.8 L 1150.0 460.9 L 1200.0 468.1" stroke="rgba(10,10,8,0.46)" stroke-width="0.44" fill="none" />
<path d="M 0 504.6 L 50.0 502.3 L 100.0 494.9 L 150.0 489.9 L 200.0 487.9 L 250.0 486.4 L 300.0 489.0 L 350.0 493.7 L 400.0 500.6 L 450.0 507.3 L 500.0 513.8 L 550.0 519.5 L 600.0 521.5 L 650.0 522.6 L 700.0 519.3 L 750.0 514.6 L 800.0 509.1 L 850.0 502.0 L 900.0 494.2 L 950.0 490.9 L 1000.0 486.8 L 1050.0 487.4 L 1100.0 489.4 L 1150.0 494.2 L 1200.0 501.1" stroke="rgba(10,10,8,0.50)" stroke-width="0.89" fill="none" />
<path d="M 0 537.1 L 50.0 552.6 L 100.0 547.4 L 150.0 543.2 L 200.0 536.5 L 250.0 530.4 L 300.0 524.9 L 350.0 521.5 L 400.0 521.2 L 450.0 521.1 L 500.0 526.6 L 550.0 532.4 L 600.0 538.0 L 650.0 543.4 L 700.0 549.2 L 750.0 553.0 L 800.0 554.1 L 850.0 552.6 L 900.0 548.7 L 950.0 542.0 L 1000.0 536.0 L 1050.0 529.4 L 1100.0 525.3 L 1150.0 521.5 L 1200.0 520.2" stroke="rgba(10,10,8,0.50)" stroke-width="0.99" fill="none" />
<path d="M 0 570.9 L 50.0 571.6 L 100.0 563.0 L 150.0 555.0 L 200.0 551.6 L 250.0 550.2 L 300.0 551.8 L 350.0 554.9 L 400.0 562.5 L 450.0 570.7 L 500.0 578.9 L 550.0 586.5 L 600.0 590.2 L 650.0 591.6 L 700.0 590.2 L 750.0 586.4 L 800.0 579.1 L 850.0 572.2 L 900.0 563.6 L 950.0 556.3 L 1000.0 551.7 L 1050.0 549.4 L 1100.0 551.2 L 1150.0 556.3 L 1200.0 563.3" stroke="rgba(10,10,8,0.38)" stroke-width="0.98" fill="none" />
    </g>
    <rect width="100%" height="100%" fill="url(#vignette-maple-side)"/>
  </g>
</svg>