<?xml version="1.0" encoding="UTF-8"?>
<svg xmlns="http://www.w3.org/2000/svg" viewBox="0 0 1920 1080" preserveAspectRatio="xMidYMid slice" role="img" aria-label="Atelier interior">
  <defs>
    <radialGradient id="atm" cx="35%" cy="40%" r="70%">
      <stop offset="0%" stop-color="#1c1814"/>
      <stop offset="55%" stop-color="#0e0c0a"/>
      <stop offset="100%" stop-color="#050504"/>
    </radialGradient>
    <linearGradient id="floor" x1="0" y1="0" x2="0" y2="1">
      <stop offset="0%" stop-color="#181410"/>
      <stop offset="100%" stop-color="#0a0908"/>
    </linearGradient>
    <linearGradient id="light" x1="0.2" y1="0" x2="0.5" y2="1">
      <stop offset="0%" stop-color="rgba(168,107,60,0.16)"/>
      <stop offset="100%" stop-color="rgba(168,107,60,0)"/>
    </linearGradient>
    <linearGradient id="body" x1="0" y1="0" x2="1" y2="1">
      <stop offset="0%" stop-color="#2a1a0e"/>
      <stop offset="50%" stop-color="#4a2e1c"/>
      <stop offset="100%" stop-color="#6b4528"/>
    </linearGradient>
  </defs>
  <rect width="100%" height="100%" fill="url(#atm)"/>
  <rect y="780" width="100%" height="300" fill="url(#floor)"/>
  <polygon points="0,0 800,0 500,1080 0,1080" fill="url(#light)"/>

  <g transform="translate(1100,360) rotate(-8)" opacity="0.95">
    <path d="M0 0 C 220 -10 360 80 380 240 C 400 400 320 540 180 580 C 60 615 -40 580 -60 480 C -80 380 -50 220 -20 100 C -8 50 -4 20 0 0 Z" fill="url(#body)"/>
    <path d="M0 0 C 220 -10 360 80 380 240 C 400 400 320 540 180 580 C 60 615 -40 580 -60 480 C -80 380 -50 220 -20 100 C -8 50 -4 20 0 0 Z" fill="none" stroke="rgba(245,242,236,0.05)" stroke-width="0.5"/>
  </g>

  <g opacity="0.35">
    <line x1="0" y1="780" x2="1920" y2="780" stroke="#241e18" stroke-width="0.5"/>
  </g>
</svg>
